<svg width="14" height="14" viewBox="0 0 14 14" fill="none" xmlns="http://www.w3.org/2000/svg">
<path d="M12.3594 0H1.64062C0.735984 0 0 0.735984 0 1.64062V3.82812H1.09375V1.64062C1.09375 1.33908 1.33908 1.09375 1.64062 1.09375H12.3594C12.6609 1.09375 12.9062 1.33908 12.9062 1.64062V12.3594C12.9062 12.6609 12.6609 12.9062 12.3594 12.9062H1.64062C1.33908 12.9062 1.09375 12.6609 1.09375 12.3594V10.1719H0V12.3594C0 13.264 0.735984 14 1.64062 14H12.3594C13.264 14 14 13.264 14 12.3594V1.64062C14 0.735984 13.264 0 12.3594 0Z" fill="white"/>
<path d="M6.5625 3.60156L5.78911 4.37495L7.86723 6.45308H0V7.54683H7.86723L5.78911 9.62495L6.5625 10.3983L9.96089 6.99995L6.5625 3.60156Z" fill="white"/>
</svg>
