<svg width="74" height="74" viewBox="0 0 74 74" fill="none" xmlns="http://www.w3.org/2000/svg">
<g clip-path="url(#clip0)">
<path d="M36.6426 57.4079C37.3355 58.1008 38.2939 58.4979 39.2744 58.4979C41.2814 58.4979 42.9123 56.8979 42.9827 54.9077C44.9275 54.8384 46.4908 53.2751 46.5601 51.3304C48.5048 51.2611 50.0682 49.6977 50.1375 47.753C52.1276 47.6814 53.7282 46.0511 53.7282 44.0446C53.7282 43.8752 53.7008 43.7081 53.6781 43.5398L55.3894 41.8286L56.7722 44.5954L64.9942 40.4847L63.9269 38.3514L57.8395 41.396L50.6097 26.9352L56.8858 24.474L56.0153 22.2533L48.9083 25.0405L38.2752 21.8504C37.4776 21.6122 36.6572 21.5284 35.8438 21.5581V21.5319H22.9178L17.476 19.7234L16.7238 21.9866L21.1466 23.4556L14.9054 39.0611L11.2424 37.5956L10.3574 39.8099L16.2335 42.1605L17.7089 38.4731L19.8458 40.6111L17.8522 42.6053C17.1593 43.2982 16.7622 44.2566 16.7622 45.2371C16.7622 47.2435 18.3622 48.875 20.3524 48.9455C20.4216 50.8902 21.985 52.4535 23.9297 52.5228C23.999 54.4675 25.5624 56.0309 27.5071 56.1002C27.5787 58.0903 29.209 59.6903 31.216 59.6903C32.1959 59.6903 33.1549 59.2932 33.8472 58.6004L35.8414 56.6067L36.6426 57.4079ZM37.5882 24.1363L48.1223 27.2962L54.2645 39.5823L52.5358 41.3098L47.6344 36.3711C48.0722 36.4125 48.5136 36.4375 48.9584 36.4375V34.0526C46.1822 34.0526 43.5254 33.0191 41.4794 31.1431L38.691 28.5888C37.1171 27.1436 34.4475 27.2013 32.9366 28.7139L29.7779 31.8732C29.5275 32.1213 29.1828 32.2639 28.8311 32.2639C28.094 32.2639 27.4943 31.6642 27.4943 30.9277C27.4943 30.5696 27.6323 30.2348 27.885 29.9815L32.4306 25.4364C33.7674 24.0996 35.7721 23.5913 37.5882 24.1363ZM23.5315 23.9168H30.5779L26.1993 28.2959C25.4954 28.9981 25.1094 29.9332 25.1094 30.9277C25.1094 32.9795 26.7787 34.6488 28.8311 34.6488C29.811 34.6488 30.77 34.2517 31.4623 33.5589L34.6216 30.399C35.2679 29.755 36.4062 29.73 37.0793 30.3466L39.8671 32.9021C40.7935 33.751 41.8229 34.4573 42.9245 35.0104L50.952 43.0985C51.2012 43.3483 51.3433 43.6924 51.3433 44.0446C51.3433 44.7812 50.7436 45.3809 50.0065 45.3809C49.6548 45.3809 49.3101 45.2394 49.0609 44.9902L39.0694 34.9982L37.3832 36.6844L47.3747 46.6758C47.6239 46.9256 47.7659 47.2697 47.7659 47.622C47.7659 48.3585 47.1662 48.9583 46.4291 48.9583C46.0774 48.9583 45.7327 48.8168 45.4835 48.5676L35.4921 38.5755L33.8059 40.2617L43.7973 50.2532C44.0465 50.503 44.1886 50.8471 44.1886 51.1993C44.1886 51.9359 43.5889 52.5356 42.8517 52.5356C42.5001 52.5356 42.1554 52.3941 41.9062 52.1449L31.9147 42.1529L30.2285 43.8391L40.22 53.8305C40.4692 54.0803 40.6112 54.4244 40.6112 54.7767C40.6112 55.5133 40.0115 56.113 39.2744 56.113C38.9227 56.113 38.578 55.9715 38.3288 55.7223L36.9838 54.3767C37.0077 54.2102 37.0339 54.0431 37.0339 53.8725C37.0339 51.8654 35.4333 50.2346 33.4431 50.1641C33.3738 48.2194 31.8105 46.656 29.8658 46.5867C29.7965 44.642 28.2331 43.0787 26.2884 43.0094C26.2168 41.0193 24.5871 39.4186 22.5801 39.4186C22.4106 39.4186 22.2435 39.446 22.0758 39.4687L18.6714 36.0643L23.5315 23.9168ZM19.1471 45.2371C19.1471 44.8848 19.2886 44.5407 19.5378 44.2909L21.6345 42.1948C21.8837 41.9456 22.2284 41.8035 22.5801 41.8035C23.3172 41.8035 23.9169 42.4039 23.9169 43.1404C23.9169 43.4921 23.7748 43.8368 23.5256 44.086L21.4295 46.1827C21.1803 46.4319 20.8356 46.5734 20.4839 46.5734C19.7468 46.5734 19.1471 45.9736 19.1471 45.2371ZM22.7245 48.8144C22.7245 48.4622 22.8659 48.1181 23.1151 47.8683L25.2118 45.7722C25.461 45.523 25.8057 45.3809 26.1574 45.3809C26.8945 45.3809 27.4943 45.9812 27.4943 46.7178C27.4943 47.0694 27.3522 47.4141 27.103 47.6633L25.0069 49.76C24.7577 50.0092 24.413 50.1507 24.0613 50.1507C23.3242 50.1507 22.7245 49.551 22.7245 48.8144ZM26.3018 52.3918C26.3018 52.0395 26.4433 51.6954 26.6925 51.4456L28.7892 49.3495C29.0384 49.1003 29.3831 48.9583 29.7348 48.9583C30.4719 48.9583 31.0716 49.5586 31.0716 50.2951C31.0716 50.6468 30.9295 50.9915 30.6803 51.2407L28.5842 53.3374C28.335 53.5866 27.9903 53.7281 27.6387 53.7281C26.9015 53.7281 26.3018 53.1283 26.3018 52.3918ZM34.2577 54.818L32.1616 56.9147C31.9124 57.1639 31.5677 57.3054 31.216 57.3054C30.4789 57.3054 29.8792 56.7057 29.8792 55.9692C29.8792 55.6169 30.0207 55.2728 30.2699 55.023L32.3665 52.9269C32.6158 52.6777 32.9604 52.5356 33.3121 52.5356C34.0493 52.5356 34.649 53.1359 34.649 53.8725C34.649 54.2241 34.5069 54.5688 34.2577 54.818Z" fill="#404040"/>
<path d="M14.2676 58.1143L15.9538 56.4275L17.64 58.1143L15.9538 59.8005L14.2676 58.1143Z" fill="#404040"/>
<path d="M18.8164 62.1487L20.1422 60.1661L22.1236 61.4908L20.7984 63.4733L18.8164 62.1487Z" fill="#404040"/>
<path d="M24.0654 65.2206L24.9784 63.0173L27.1816 63.9303L26.2687 66.1336L24.0654 65.2206Z" fill="#404040"/>
<path d="M29.8154 67.2119L30.2812 64.8741L32.6184 65.3399L32.1526 67.6777L29.8154 67.2119Z" fill="#404040"/>
<path d="M51.9424 12.5751L53.2682 10.5925L55.2496 11.9172L53.9238 13.8997L51.9424 12.5751Z" fill="#404040"/>
<path d="M46.8838 10.1384L47.7968 7.93518L50 8.84815L49.087 11.0514L46.8838 10.1384Z" fill="#404040"/>
<path d="M41.4502 8.73341L41.9148 6.39392L44.2526 6.85856L43.7879 9.19746L41.4502 8.73341Z" fill="#404040"/>
<path d="M59.6909 9.6073H57.306V15.5696H51.3438V17.9545H59.6909V9.6073Z" fill="#404040"/>
<path d="M16.7631 51.3431H9.6084V58.4979H11.9933V53.728H16.7631V51.3431Z" fill="#404040"/>
<path d="M37.0341 8.41493H38.2266V6.03003H37.0341C29.1865 6.03003 21.6988 8.96866 15.9502 14.3032L17.5729 16.0518C22.8796 11.1271 29.7897 8.41493 37.0341 8.41493Z" fill="#404040"/>
<path d="M37.0342 65.6526H35.8418V68.0375H37.0342C47.9346 68.0375 57.8352 62.4747 63.5197 53.1569L61.4842 51.9155C56.2363 60.5171 47.0961 65.6526 37.0342 65.6526Z" fill="#404040"/>
<path d="M6.64815 49.4078L0.069288 46.1192L0 13.916L18.7811 20.1572L17.8286 22.0641L6.64815 49.4078Z" fill="#FCB707"/>
<path d="M68.7891 49.4929L54.7754 22.7401L74.0002 15.1976V46.0191L68.7891 49.4929Z" fill="#FCB707"/>
</g>
<defs>
<clipPath id="clip0">
<rect width="74" height="74" fill="white"/>
</clipPath>
</defs>
</svg>
