<svg width="74" height="74" viewBox="0 0 74 74" fill="none" xmlns="http://www.w3.org/2000/svg">
<path d="M47.9177 59.4422H26.0818V56.1935C26.0818 52.8234 24.7559 49.4439 22.3492 46.6755C19.2522 43.1199 17.5624 38.5647 17.5902 33.8505C17.6508 23.692 25.9461 15.0462 36.0816 14.5779C41.4534 14.3364 46.5313 16.229 50.4023 19.9265C54.2758 23.6265 56.4096 28.6122 56.4096 33.9669C56.4096 38.7234 54.6651 43.2992 51.4965 46.8525C49.1892 49.4401 47.9177 52.7544 47.9177 56.1849V59.4422Z" fill="#FCB707"/>
<path d="M70.967 41.2457V26.6884H65.189C64.5096 24.0499 63.4664 21.534 62.0774 19.1829L66.1644 15.0946L55.8724 4.80259L51.7842 8.88959C49.4331 7.50068 46.9171 6.45619 44.2787 5.77804V0H29.7213V5.77804C27.0829 6.45747 24.5669 7.50068 22.2158 8.88959L18.1278 4.80259L7.8358 15.0946L11.9228 19.1829C10.5339 21.534 9.4894 24.0499 8.81125 26.6884H3.0332V41.2457H8.81125C9.49067 43.8842 10.5339 46.4001 11.9228 48.7512L7.8358 52.8395L18.1278 63.1315L22.2184 59.0422C22.6963 59.3189 23.2119 59.5904 23.7494 59.861C23.6924 60.117 23.6559 60.3814 23.6559 60.6556C23.6559 61.9474 24.3376 63.0783 25.3554 63.7235C25.0545 64.2537 24.8688 64.8567 24.8688 65.5081C24.8688 66.7999 25.5505 67.9308 26.5683 68.5761C26.2674 69.1062 26.0817 69.7092 26.0817 70.3606C26.0817 72.367 27.7146 74 29.7211 74H44.2784C46.2848 74 47.9178 72.367 47.9178 70.3606C47.9178 69.7092 47.7321 69.1062 47.4312 68.5761C48.449 67.9308 49.1307 66.8002 49.1307 65.5081C49.1307 64.8567 48.945 64.2537 48.6441 63.7235C49.6618 63.0783 50.3435 61.9477 50.3435 60.6556C50.3435 60.3814 50.3071 60.117 50.2501 59.8597C50.7863 59.5904 51.3029 59.3186 51.7811 59.0409L55.8717 63.1302L66.1637 52.8382L62.0767 48.75C63.4669 46.3988 64.5101 43.8829 65.1882 41.2444H70.9663V41.2457H70.967ZM27.2953 61.8684C26.6256 61.8684 26.0822 61.325 26.0822 60.6553C26.0822 59.9856 26.6256 59.4422 27.2953 59.4422H46.7049C47.3747 59.4422 47.918 59.9856 47.918 60.6553C47.918 61.325 47.3747 61.8684 46.7049 61.8684H45.4918H28.5082H27.2953ZM33.3607 46.8538C34.0618 47.1473 34.8299 47.3111 35.6354 47.3111H35.787V50.9505H38.2133V47.3111H38.3648C39.1704 47.3111 39.9382 47.1473 40.6395 46.8538V57.0159H33.361V46.8538H33.3607ZM46.7049 65.5078C46.7049 66.1776 46.1615 66.721 45.4918 66.721H44.2787H29.7213H28.5082C27.8385 66.721 27.2951 66.1776 27.2951 65.5078C27.2951 64.8381 27.8385 64.2947 28.5082 64.2947H45.4918C46.1615 64.2947 46.7049 64.8381 46.7049 65.5078ZM44.2789 71.5732H29.7216C29.0518 71.5732 28.5085 71.0298 28.5085 70.3601C28.5085 69.6904 29.0518 69.147 29.7216 69.147H44.2789C44.9487 69.147 45.492 69.6904 45.492 70.3601C45.4918 71.0298 44.9484 71.5732 44.2789 71.5732ZM63.0481 39.7694C62.3773 42.7949 61.1909 45.6578 59.5202 48.2807L58.9975 49.102L62.7339 52.8395L55.8727 59.7007L52.1352 55.9643L51.3139 56.487C50.609 56.9372 49.8047 57.3677 48.9325 57.7985C48.3137 57.3158 47.5484 57.0162 46.7052 57.0162H43.0658V44.947C43.8168 43.956 44.2789 42.7355 44.2789 41.3975V41.0944C44.2789 37.8336 41.6259 35.1806 38.3651 35.1806H35.6357C33.7128 35.1806 32.1481 33.6156 32.1481 31.693V31.3898C32.1481 29.467 33.713 27.9023 35.6357 27.9023H38.3651C40.288 27.9023 41.8526 29.4672 41.8526 31.3898V31.5414H44.2789V31.3898C44.2789 28.129 41.6259 25.476 38.3651 25.476H38.2133V21.8359H35.787V25.4753H35.6354C32.3746 25.4753 29.7216 28.1282 29.7216 31.3891V31.6922C29.7216 34.9531 32.3746 37.6061 35.6354 37.6061H38.3648C40.2877 37.6061 41.8524 39.171 41.8524 41.0936V41.3968C41.8524 43.3196 40.2874 44.8843 38.3648 44.8843H35.6354C33.7125 44.8843 32.1479 43.6712 32.1479 41.2449H29.7216C29.7216 42.4581 30.1837 43.9537 30.9347 44.9462V57.0154H27.2953C26.4521 57.0154 25.6868 57.315 25.068 57.7977C24.1957 57.3672 23.3915 56.9364 22.6866 56.4863L21.8653 55.9635L18.1278 59.7L11.2666 52.8387L15.003 49.1013L14.4803 48.2799C12.8098 45.6585 11.6235 42.7954 10.9524 39.7687L10.7412 38.8187H5.45947V29.1139H10.7412L10.9524 28.1639C11.6232 25.1385 12.8096 22.2756 14.4803 19.6526L15.003 18.8313L11.2666 15.0946L18.1278 8.23335L21.8653 11.9698L22.6866 11.447C25.308 9.77664 28.1712 8.59025 31.1979 7.91924L32.1479 7.70805V2.42626H41.8526V7.70805L42.8026 7.91924C45.8281 8.59 48.691 9.77638 51.3139 11.447L52.1352 11.9698L55.8727 8.23335L62.7339 15.0946L58.9975 18.8321L59.5202 19.6534C61.1907 22.2748 62.377 25.138 63.0481 28.1647L63.2592 29.1146H68.541V38.8194H63.2592L63.0481 39.7694Z" fill="#404040"/>
</svg>
