<svg width="74" height="74" viewBox="0 0 74 74" fill="none" xmlns="http://www.w3.org/2000/svg">
<path d="M56.0968 40.5807C48.858 40.5807 42.9678 34.6905 42.9678 27.4517C42.9678 20.2129 48.858 14.3226 56.0968 14.3226C63.3356 14.3226 69.2258 20.2129 69.2258 27.4517C69.2258 34.6905 63.3356 40.5807 56.0968 40.5807Z" fill="#FCB707"/>
<path d="M57.2904 68.0323C57.2904 68.6914 56.756 69.2258 56.0969 69.2258C55.4377 69.2258 54.9033 68.6914 54.9033 68.0323C54.9033 67.3732 55.4377 66.8387 56.0969 66.8387C56.756 66.8387 57.2904 67.3732 57.2904 68.0323Z" fill="#404040"/>
<path d="M23.8712 59.6775H4.77441V42.9678H23.8712V59.6775Z" fill="#FCB707"/>
<path d="M23.8712 37H4.77441V20.2903H23.8712V37Z" fill="#FCB707"/>
<path d="M74 27.4516C74 17.9819 66.6062 10.2273 57.2903 9.609V0H0V64.4516H50.129V68.0323C50.129 71.3227 52.8064 74 56.0968 74C59.3872 74 62.0645 71.3227 62.0645 68.0323V50.129H59.6774V44.9947C67.8388 43.3308 74 36.0978 74 27.4516ZM71.6129 27.4516C71.6129 36.0069 64.6521 42.9677 56.0968 42.9677C47.5415 42.9677 40.5806 36.0069 40.5806 27.4516C40.5806 18.8963 47.5415 11.9355 56.0968 11.9355C64.6521 11.9355 71.6129 18.8963 71.6129 27.4516ZM50.129 50.129V62.0645H2.3871V2.3871H54.9032V9.609C45.5874 10.2273 38.1936 17.9819 38.1936 27.4516C38.1936 36.0978 44.3548 43.3308 52.5161 44.9947V50.129H50.129ZM59.6774 68.0323C59.6774 70.0062 58.0707 71.6129 56.0968 71.6129C54.1229 71.6129 52.5161 70.0062 52.5161 68.0323V52.5161H59.6774V68.0323ZM57.2903 50.129H54.9032V45.2942C55.2995 45.3205 55.6935 45.3548 56.0968 45.3548C56.5001 45.3548 56.894 45.3205 57.2903 45.2942V50.129Z" fill="#404040"/>
<path d="M51.9854 30.0391L50.6602 32.0253L55.3667 35.1618L61.9394 22.0171L59.8029 20.9506L54.4401 31.6768L51.9854 30.0391Z" fill="#404040"/>
<path d="M13.9063 51.6052L11.5862 49.2852L9.89844 50.9729L14.7397 55.8141L21.3922 39.8463L19.1892 38.9279L13.9063 51.6052Z" fill="#404040"/>
<path d="M13.9063 28.9279L11.5862 26.6078L9.89844 28.2955L14.7397 33.1368L21.3922 17.169L19.1892 16.2505L13.9063 28.9279Z" fill="#404040"/>
<path d="M33.4189 9.54834H35.806V11.9354H33.4189V9.54834Z" fill="#404040"/>
<path d="M4.77441 9.54834H31.0325V11.9354H4.77441V9.54834Z" fill="#404040"/>
<path d="M26.2578 42.9678H40.5804V45.3549H26.2578V42.9678Z" fill="#404040"/>
<path d="M26.2578 47.7419H40.5804V50.129H26.2578V47.7419Z" fill="#404040"/>
<path d="M26.2578 52.5161H40.5804V54.9032H26.2578V52.5161Z" fill="#404040"/>
<path d="M26.2578 57.2903H40.5804V59.6774H26.2578V57.2903Z" fill="#404040"/>
<path d="M26.2578 20.2903H35.8062V22.6774H26.2578V20.2903Z" fill="#404040"/>
<path d="M26.2578 25.0646H35.8062V27.4517H26.2578V25.0646Z" fill="#404040"/>
<path d="M26.2578 29.8387H35.8062V32.2258H26.2578V29.8387Z" fill="#404040"/>
<path d="M26.2578 34.6129H35.8062V37H26.2578V34.6129Z" fill="#404040"/>
<path d="M4.77441 4.77417H35.8067V7.16127H4.77441V4.77417Z" fill="#404040"/>
</svg>
