<svg width="74" height="74" viewBox="0 0 74 74" fill="none" xmlns="http://www.w3.org/2000/svg">
<g clip-path="url(#clip0)">
<path d="M14.3226 47.7419H3.58303C1.60771 47.7419 0 46.1342 0 44.1577V27.454C0 25.4787 1.60771 23.871 3.58303 23.871H14.3226V47.7419Z" fill="#FCB707"/>
<path d="M14.3226 25.0645H11.9355V46.5483H14.3226V25.0645Z" fill="#404040"/>
<path d="M56.0966 15.5161H53.7096C53.0507 15.5161 52.516 14.9814 52.516 14.3226H50.1289C50.1289 16.2967 51.7354 17.9032 53.7096 17.9032V19.0968H56.0966V17.9032C58.0708 17.9032 59.6773 16.2967 59.6773 14.3226C59.6773 12.3484 58.0708 10.7419 56.0966 10.7419H53.7096C53.0507 10.7419 52.516 10.2072 52.516 9.54836C52.516 8.88952 53.0507 8.35482 53.7096 8.35482H56.0966C56.7555 8.35482 57.2902 8.88952 57.2902 9.54836H59.6773C59.6773 7.57423 58.0708 5.96772 56.0966 5.96772V4.77417H53.7096V5.96772C51.7354 5.96772 50.1289 7.57423 50.1289 9.54836C50.1289 11.5225 51.7354 13.129 53.7096 13.129H56.0966C56.7555 13.129 57.2902 13.6637 57.2902 14.3226C57.2902 14.9814 56.7555 15.5161 56.0966 15.5161Z" fill="#404040"/>
<path d="M74.0002 20.2903V19.6935C74.0002 18.2517 72.9737 17.0474 71.6131 16.7705V15.5161H69.226V16.7705C67.8653 17.0474 66.8389 18.2529 66.8389 19.6935C66.8389 21.3394 68.1768 22.6774 69.8227 22.6774H71.0163C71.3445 22.6774 71.6131 22.946 71.6131 23.2742C71.6131 23.6024 71.3445 23.871 71.0163 23.871H69.8227C69.4945 23.871 69.226 23.6024 69.226 23.2742V22.6774H66.8389V23.2742C66.8389 24.716 67.8653 25.9203 69.226 26.1972V27.4516H71.6131V26.1972C72.9737 25.9203 74.0002 24.7148 74.0002 23.2742C74.0002 21.6283 72.6622 20.2903 71.0163 20.2903H69.8227C69.4945 20.2903 69.226 20.0218 69.226 19.6935C69.226 19.3653 69.4945 19.0968 69.8227 19.0968H71.0163C71.3445 19.0968 71.6131 19.3653 71.6131 19.6935V20.2903H74.0002Z" fill="#404040"/>
<path d="M62.0646 38.7903C62.0646 37.1444 60.7266 35.8064 59.0807 35.8064H57.8872C57.559 35.8064 57.2904 35.5379 57.2904 35.2096C57.2904 34.8814 57.559 34.6129 57.8872 34.6129H59.0807C59.409 34.6129 59.6775 34.8814 59.6775 35.2096V35.8064H62.0646V35.2096C62.0646 33.7678 61.0382 32.5635 59.6775 32.2866V31.0322H57.2904V32.2866C55.9298 32.5635 54.9033 33.769 54.9033 35.2096C54.9033 36.8555 56.2413 38.1935 57.8872 38.1935H59.0807C59.409 38.1935 59.6775 38.4621 59.6775 38.7903C59.6775 39.1185 59.409 39.3871 59.0807 39.3871H57.8872C57.559 39.3871 57.2904 39.1185 57.2904 38.7903V38.1935H54.9033V38.7903C54.9033 40.2321 55.9298 41.4364 57.2904 41.7133V42.9677H59.6775V41.7133C61.0382 41.4364 62.0646 40.2321 62.0646 38.7903Z" fill="#404040"/>
<path d="M64.4517 56.0968H66.8388C67.4977 56.0968 68.0324 56.6315 68.0324 57.2903H70.4195C70.4195 55.3162 68.813 53.7097 66.8388 53.7097V52.5161H64.4517V53.7097C62.4776 53.7097 60.8711 55.3162 60.8711 57.2903C60.8711 59.2644 62.4776 60.871 64.4517 60.871H66.8388C67.4977 60.871 68.0324 61.4057 68.0324 62.0645C68.0324 62.7233 67.4977 63.258 66.8388 63.258H64.4517C63.7929 63.258 63.2582 62.7233 63.2582 62.0645H60.8711C60.8711 64.0386 62.4776 65.6451 64.4517 65.6451V66.8387H66.8388V65.6451C68.813 65.6451 70.4195 64.0386 70.4195 62.0645C70.4195 60.0904 68.813 58.4839 66.8388 58.4839H64.4517C63.7929 58.4839 63.2582 57.9491 63.2582 57.2903C63.2582 56.6315 63.7929 56.0968 64.4517 56.0968Z" fill="#404040"/>
<path d="M50.5988 27.3479L58.9541 23.7693L58.0148 21.5763L49.6595 25.1549L50.5988 27.3479Z" fill="#404040"/>
<path d="M58.0134 52.421L58.9531 50.2283L50.5989 46.6479L49.6591 48.8406L58.0134 52.421Z" fill="#404040"/>
<path d="M9.54861 29.8387H4.77441V32.2258H9.54861V29.8387Z" fill="#404040"/>
<path d="M9.54861 34.6129H4.77441V37H9.54861V34.6129Z" fill="#404040"/>
<path d="M9.54861 39.3871H4.77441V41.7742H9.54861V39.3871Z" fill="#404040"/>
<path d="M47.7416 55.2923L39.3867 52.904V18.7077L47.7416 16.3206V55.2923Z" fill="#FCB707"/>
<path d="M41.7743 18.0261L21.3168 23.8709H11.9355V45.3548V47.7419V65.6451C11.9355 67.6192 13.5421 69.2258 15.5162 69.2258H17.9033C19.8774 69.2258 21.4839 67.6192 21.4839 65.6451V52.5161C23.6454 52.5161 25.4537 51.0647 26.0397 49.0918L41.7743 53.5867V18.0261ZM19.0968 65.6451C19.0968 66.304 18.5621 66.8387 17.9033 66.8387H15.5162C14.8574 66.8387 14.3226 66.304 14.3226 65.6451V47.7419H19.0968V65.6451ZM21.4839 50.129V47.7896L23.7553 48.4389C23.4545 49.4141 22.5557 50.129 21.4839 50.129ZM39.3872 50.4214L21.811 45.4002L21.4839 45.3978V45.3548H14.3226V26.258H21.4839L39.3872 21.1914V50.4214Z" fill="#404040"/>
</g>
<defs>
<clipPath id="clip0">
<rect width="74" height="74" fill="white"/>
</clipPath>
</defs>
</svg>
