<svg width="18" height="18" viewBox="0 0 18 18" fill="none" xmlns="http://www.w3.org/2000/svg">
<path d="M17.5369 5.66462C16.9201 5.04777 15.9164 5.0478 15.2994 5.66476C15.1096 5.85471 13.898 7.06736 13.7129 7.25263V3.07357C13.7129 2.65099 13.5483 2.25373 13.2495 1.95493L11.758 0.463359C11.4592 0.164531 11.0619 0 10.6393 0H1.58398C0.711652 0 0.00195312 0.709699 0.00195312 1.58203V16.418C0.00195312 17.2903 0.711652 18 1.58398 18H12.1309C13.0032 18 13.7129 17.2903 13.7129 16.418V11.7292L17.5369 7.90196C18.1552 7.28371 18.1553 6.28295 17.5369 5.66462ZM10.5489 1.05469C10.6485 1.05469 10.8405 1.03743 11.0122 1.20913L12.5038 2.7007C12.6711 2.86808 12.6582 3.05149 12.6582 3.16406H10.5489V1.05469ZM12.6582 16.418C12.6582 16.7087 12.4217 16.9453 12.1309 16.9453H1.58398C1.29321 16.9453 1.05664 16.7087 1.05664 16.418V1.58203C1.05664 1.29125 1.29321 1.05469 1.58398 1.05469H9.49414V3.69141C9.49414 3.98264 9.73025 4.21875 10.0215 4.21875H12.6582V8.30823C12.6582 8.30823 11.1024 9.86537 11.1023 9.86541L10.3569 10.6109C10.299 10.6687 10.2554 10.7393 10.2295 10.817L9.4837 13.0543C9.42052 13.2438 9.46985 13.4528 9.6111 13.594C9.75254 13.7354 9.96154 13.7845 10.1508 13.7214L12.3881 12.9756C12.4658 12.9497 12.5364 12.9061 12.5942 12.8482L12.6582 12.7842V16.418ZM11.4755 10.9838L12.2213 11.7295L11.9364 12.0144L10.8178 12.3873L11.1907 11.2686L11.4755 10.9838ZM12.9669 10.9836L12.2212 10.2378C12.6183 9.84038 14.3821 8.07511 14.7561 7.70073L15.5019 8.4465L12.9669 10.9836ZM16.791 7.15634L16.2474 7.70041L15.5016 6.95464L16.0454 6.41039C16.2511 6.20476 16.5856 6.2048 16.7912 6.41039C16.9968 6.61605 16.9979 6.94944 16.791 7.15634Z" fill="white"/>
<path d="M10.0215 5.27344H2.63867C2.34744 5.27344 2.11133 5.50955 2.11133 5.80078C2.11133 6.09202 2.34744 6.32812 2.63867 6.32812H10.0215C10.3127 6.32812 10.5488 6.09202 10.5488 5.80078C10.5488 5.50955 10.3127 5.27344 10.0215 5.27344Z" fill="white"/>
<path d="M7.91211 7.38281H2.63867C2.34744 7.38281 2.11133 7.61892 2.11133 7.91016C2.11133 8.20139 2.34744 8.4375 2.63867 8.4375H7.91211C8.20334 8.4375 8.43945 8.20139 8.43945 7.91016C8.43945 7.61892 8.20334 7.38281 7.91211 7.38281Z" fill="white"/>
<path d="M7.91211 9.49219H2.63867C2.34744 9.49219 2.11133 9.7283 2.11133 10.0195C2.11133 10.3108 2.34744 10.5469 2.63867 10.5469H7.91211C8.20334 10.5469 8.43945 10.3108 8.43945 10.0195C8.43945 9.7283 8.20334 9.49219 7.91211 9.49219Z" fill="white"/>
<path d="M7.91211 11.6016H2.63867C2.34744 11.6016 2.11133 11.8377 2.11133 12.1289C2.11133 12.4201 2.34744 12.6562 2.63867 12.6562H7.91211C8.20334 12.6562 8.43945 12.4201 8.43945 12.1289C8.43945 11.8377 8.20334 11.6016 7.91211 11.6016Z" fill="white"/>
<path d="M10.0215 14.8359H6.85742C6.56619 14.8359 6.33008 15.072 6.33008 15.3633C6.33008 15.6545 6.56619 15.8906 6.85742 15.8906H10.0215C10.3127 15.8906 10.5488 15.6545 10.5488 15.3633C10.5488 15.072 10.3127 14.8359 10.0215 14.8359Z" fill="white"/>
</svg>
