<svg width="74" height="74" viewBox="0 0 74 74" fill="none" xmlns="http://www.w3.org/2000/svg">
<g clip-path="url(#clip0)">
<path d="M0 0V16.7097H22.6285L28.6452 11.9343V0H0Z" fill="#FCB707"/>
<path d="M34.6561 22.6343C33.8635 23.4269 33.4194 24.4998 33.4194 25.6182C33.4194 27.9494 35.3088 29.8388 37.64 29.8388H38.0287C38.8988 29.8388 39.7334 30.1849 40.3494 30.7998L42.008 32.4584C42.6216 33.0732 43.4574 33.4194 44.3275 33.4194C45.669 33.4194 46.8754 34.2359 47.3743 35.4819L48.9356 39.7502C51.17 37.0618 52.5162 33.6082 52.5162 29.8388C52.5162 21.2689 45.57 14.3226 37.0001 14.3226V16.9749C37.0001 19.098 36.1562 21.1343 34.6561 22.6343Z" fill="#FCB707"/>
<path d="M37 45.3548C39.115 45.3548 41.1296 44.9288 42.9678 44.1613V41.5999C42.9678 40.3778 41.977 39.3871 40.7549 39.3871C39.9169 39.3871 39.1505 38.9133 38.7758 38.1638L38.1592 36.9306C37.4488 35.5104 35.9976 34.6129 34.4089 34.6129C33.7586 34.6129 33.1163 34.4614 32.5335 34.17L30.6838 33.2451C29.4343 32.6209 28.6452 31.344 28.6452 29.9459C28.6452 27.9085 26.9936 26.2581 24.9573 26.2581H21.9157C21.6436 27.4096 21.4839 28.6044 21.4839 29.8387C21.4839 38.4086 28.4301 45.3548 37 45.3548Z" fill="#FCB707"/>
<path d="M20.2905 29.8387C20.2905 39.0532 27.7858 46.5484 37.0002 46.5484C46.2147 46.5484 53.7099 39.0532 53.7099 29.8387C53.7099 20.6243 46.2147 13.129 37.0002 13.129C27.7858 13.129 20.2905 20.6243 20.2905 29.8387ZM51.3228 29.8387C51.3228 37.7366 44.8981 44.1613 37.0002 44.1613C29.1023 44.1613 22.6776 37.7366 22.6776 29.8387C22.6776 21.9408 29.1023 15.5161 37.0002 15.5161C44.8981 15.5161 51.3228 21.9408 51.3228 29.8387Z" fill="#404040"/>
<path d="M49.2683 0L45.8421 10.281C43.1408 9.05535 40.1535 8.35484 37 8.35484C25.1543 8.35484 15.5161 17.993 15.5161 29.8387C15.5161 37.5397 19.6015 44.2866 25.7067 48.08L19.6936 56.0968H0V58.4839H20.8871L27.8228 49.235C28.8515 49.7246 29.9209 50.1395 31.0323 50.4618V53.7097H28.6452V56.0968H31.0323V58.4839H28.6452V60.871H31.0323V68.0323C31.0323 71.3227 33.7096 74 37 74C40.2904 74 42.9677 71.3227 42.9677 68.0323V60.871H45.3548V58.4839H42.9677V56.0968H45.3548V53.7097H42.9677V50.4618C51.917 47.8672 58.4839 39.6126 58.4839 29.8387C58.4839 22.0078 54.2587 15.163 47.982 11.4081L50.9898 2.3871H74V0L49.2683 0ZM40.5806 68.0323C40.5806 70.0062 38.9739 71.6129 37 71.6129C35.0261 71.6129 33.4194 70.0062 33.4194 68.0323V60.871H40.5806V68.0323ZM40.5806 58.4839H33.4194V56.0968H40.5806V58.4839ZM40.5806 53.7097H33.4194V50.9991C34.5867 51.1961 35.7779 51.3226 37 51.3226C38.2221 51.3226 39.4133 51.1961 40.5806 50.9991V53.7097ZM56.0968 29.8387C56.0968 40.3679 47.5292 48.9355 37 48.9355C26.4708 48.9355 17.9032 40.3679 17.9032 29.8387C17.9032 19.3095 26.4708 10.7419 37 10.7419C47.5292 10.7419 56.0968 19.3095 56.0968 29.8387Z" fill="#404040"/>
<path d="M54.9033 4.77417H74.0001V7.16127H54.9033V4.77417Z" fill="#404040"/>
<path d="M54.9033 9.54846H69.2259V11.9356H54.9033V9.54846Z" fill="#404040"/>
<path d="M71.6133 9.54846H74.0004V11.9356H71.6133V9.54846Z" fill="#404040"/>
<path d="M4.77441 51.3226H16.7099V53.7097H4.77441V51.3226Z" fill="#404040"/>
<path d="M0 51.3226H2.3871V53.7097H0V51.3226Z" fill="#404040"/>
<path d="M0 46.5485H16.7097V48.9356H0V46.5485Z" fill="#404040"/>
<path d="M4.77441 4.77417H7.16151V7.16127H4.77441V4.77417Z" fill="white"/>
<path d="M9.54834 4.77417H23.8709V7.16127H9.54834V4.77417Z" fill="white"/>
<path d="M4.77441 9.54846H7.16151V11.9356H4.77441V9.54846Z" fill="white"/>
<path d="M9.54834 9.54846H21.4838V11.9356H9.54834V9.54846Z" fill="white"/>
</g>
<defs>
<clipPath id="clip0">
<rect width="74" height="74" fill="white"/>
</clipPath>
</defs>
</svg>
