<svg width="74" height="74" viewBox="0 0 74 74" fill="none" xmlns="http://www.w3.org/2000/svg">
<path d="M37.0005 59.6774C28.4452 59.6774 21.4844 52.7166 21.4844 44.1613C21.4844 35.606 28.4452 28.6451 37.0005 28.6451C45.5558 28.6451 52.5166 35.606 52.5166 44.1613C52.5166 52.7166 45.5558 59.6774 37.0005 59.6774Z" fill="#FCB707"/>
<path d="M36.9998 50.129C35.6833 50.129 34.6127 49.0584 34.6127 47.7419H32.2256C32.2256 49.9606 33.7519 51.8132 35.8062 52.3465V54.9032H38.1933V52.3465C40.2476 51.8132 41.774 49.9606 41.774 47.7419C41.774 45.1089 39.6328 42.9677 36.9998 42.9677C35.6833 42.9677 34.6127 41.8971 34.6127 40.5806C34.6127 39.2641 35.6833 38.1935 36.9998 38.1935C38.3163 38.1935 39.3869 39.2641 39.3869 40.5806H41.774C41.774 38.3619 40.2476 36.5093 38.1933 35.976V33.4193H35.8062V35.976C33.7519 36.5093 32.2256 38.3619 32.2256 40.5806C32.2256 43.2136 34.3667 45.3548 36.9998 45.3548C38.3163 45.3548 39.3869 46.4254 39.3869 47.7419C39.3869 49.0584 38.3163 50.129 36.9998 50.129Z" fill="white"/>
<path d="M50.6707 11.9355H44.7181C45.1325 10.9308 45.3545 9.85144 45.3545 8.75813V8.35484C45.3545 3.74907 41.6055 0 36.9997 0C32.3939 0 28.6448 3.74907 28.6448 8.35484V8.75813C28.6448 9.8526 28.8669 10.9308 29.2813 11.9355H23.3287L14.3223 22.2287V70.4194C14.3223 72.3933 15.929 74 17.9029 74H56.0965C58.0704 74 59.6771 72.3933 59.6771 70.4194V22.2287L50.6707 11.9355ZM31.8828 11.8283C31.3257 10.9005 31.0319 9.83862 31.0319 8.75813V8.35484C31.0319 5.06442 33.7093 2.3871 36.9997 2.3871C40.2901 2.3871 42.9674 5.06442 42.9674 8.35484V8.75813C42.9674 9.83862 42.6737 10.9005 42.1166 11.8283L42.0519 11.9355H31.9463L31.8828 11.8283ZM56.0965 71.6129H17.9029C17.2444 71.6129 16.7094 71.0779 16.7094 70.4194V23.871H29.8384V21.4839H18.1465L24.4126 14.3226H40.62L38.9357 17.1287C38.3436 16.8635 37.6909 16.7097 36.9997 16.7097C34.3667 16.7097 32.2255 18.8508 32.2255 21.4839C32.2255 24.1169 34.3667 26.2581 36.9997 26.2581C39.6327 26.2581 41.7739 24.1169 41.7739 21.4839C41.7739 20.4145 41.4085 19.4371 40.8129 18.641L43.4045 14.3226H49.5867L55.8529 21.4839H44.161V23.871H57.29V70.4194C57.29 71.0779 56.755 71.6129 56.0965 71.6129ZM39.3868 21.4839C39.3868 22.8004 38.3162 23.871 36.9997 23.871C35.6832 23.871 34.6126 22.8004 34.6126 21.4839C34.6126 20.1674 35.6832 19.0968 36.9997 19.0968C37.241 19.0968 37.4688 19.1434 37.6874 19.2104L36.692 20.8702L38.7387 22.0987L39.346 21.0852C39.3687 21.2152 39.3868 21.3481 39.3868 21.4839Z" fill="#404040"/>
<path d="M19.0967 66.8387H50.1289V69.2258H19.0967V66.8387Z" fill="#404040"/>
<path d="M52.5156 66.8387H54.9027V69.2258H52.5156V66.8387Z" fill="#404040"/>
<path d="M19.0967 62.0645H54.9031V64.4516H19.0967V62.0645Z" fill="#404040"/>
</svg>
