<svg width="74" height="74" viewBox="0 0 74 74" fill="none" xmlns="http://www.w3.org/2000/svg">
<path d="M52.0312 63.5938H45.0938V57.8125H52.0312V63.5938Z" fill="#FCB707"/>
<path d="M40.4688 49.7188H33.5312V43.9375H40.4688V49.7188Z" fill="#FCB707"/>
<path d="M21.9688 58.9688H12.7188V50.875H21.9688V58.9688Z" fill="#FCB707"/>
<path d="M65.9062 70.5312V23.125H63.5938V70.5312H58.9688V69.375V60.125V31.2188H15.0312V49.7188H10.4062V23.125H8.09375V49.7188H6.9375C5.02506 49.7188 3.46875 51.2751 3.46875 53.1875V69.375C3.46875 69.782 3.552 70.1682 3.6815 70.5312H1.15625V72.8438H6.9375H27.75H30.0625H37H41.625H55.5H72.8438V70.5312H65.9062ZM56.6562 33.5312V38.1562H17.3438V33.5312H56.6562ZM17.3438 40.4688H56.6562V56.869C56.2932 56.7395 55.907 56.6562 55.5 56.6562H47.1935C47.323 56.2932 47.4062 55.907 47.4062 55.5V46.25C47.4062 44.3376 45.8499 42.7812 43.9375 42.7812H30.0625C28.1501 42.7812 26.5938 44.3376 26.5938 46.25V49.7188H17.3438V40.4688ZM37 56.6562H31.2188V53.1875C31.2188 51.6821 30.2487 50.4102 28.9062 49.9315V46.25C28.9062 45.6117 29.4242 45.0938 30.0625 45.0938H43.9375C44.5757 45.0938 45.0938 45.6117 45.0938 46.25V55.5C45.0938 56.1382 44.5757 56.6562 43.9375 56.6562H41.625H37ZM6.9375 70.5312C6.29925 70.5312 5.78125 70.0132 5.78125 69.375V53.1875C5.78125 52.5492 6.29925 52.0312 6.9375 52.0312H27.75C28.3883 52.0312 28.9062 52.5492 28.9062 53.1875V69.375C28.9062 70.0132 28.3883 70.5312 27.75 70.5312H6.9375ZM31.006 70.5312C31.1355 70.1682 31.2188 69.782 31.2188 69.375V58.9688H37C37.6382 58.9688 38.1562 59.4868 38.1562 60.125V69.375C38.1562 70.0132 37.6382 70.5312 37 70.5312H31.006ZM41.625 70.5312C40.9868 70.5312 40.4688 70.0132 40.4688 69.375V60.125C40.4688 59.4868 40.9868 58.9688 41.625 58.9688H43.9375H55.5C56.1382 58.9688 56.6562 59.4868 56.6562 60.125V69.375C56.6562 70.0132 56.1382 70.5312 55.5 70.5312H41.625Z" fill="#404040"/>
<path d="M45.0938 17.3438H28.9062V28.9062H45.0938V17.3438ZM42.7812 21.9688H38.1562V19.6562H42.7812V21.9688ZM35.8438 19.6562V21.9688H31.2188V19.6562H35.8438ZM31.2188 24.2812H35.8438V26.5938H31.2188V24.2812ZM38.1562 26.5938V24.2812H42.7812V26.5938H38.1562Z" fill="#404040"/>
<path d="M15.0312 65.9062H17.3438V68.2188H15.0312V65.9062Z" fill="#404040"/>
<path d="M24.2812 65.9062H26.5938V68.2188H24.2812V65.9062Z" fill="#404040"/>
<path d="M19.6562 65.9062H21.9688V68.2188H19.6562V65.9062Z" fill="#404040"/>
<path d="M23.125 28.9062C25.0374 28.9062 26.5938 27.3499 26.5938 25.4375C26.5938 23.5251 25.0374 21.9688 23.125 21.9688C21.2126 21.9688 19.6562 23.5251 19.6562 25.4375C19.6562 27.3499 21.2126 28.9062 23.125 28.9062ZM23.125 24.2812C23.7632 24.2812 24.2812 24.7993 24.2812 25.4375C24.2812 26.0757 23.7632 26.5938 23.125 26.5938C22.4868 26.5938 21.9688 26.0757 21.9688 25.4375C21.9688 24.7993 22.4868 24.2812 23.125 24.2812Z" fill="#404040"/>
<path d="M50.875 28.9062C52.7874 28.9062 54.3438 27.3499 54.3438 25.4375C54.3438 23.5251 52.7874 21.9688 50.875 21.9688C48.9626 21.9688 47.4062 23.5251 47.4062 25.4375C47.4062 27.3499 48.9626 28.9062 50.875 28.9062ZM50.875 24.2812C51.5132 24.2812 52.0312 24.7993 52.0312 25.4375C52.0312 26.0757 51.5132 26.5938 50.875 26.5938C50.2368 26.5938 49.7188 26.0757 49.7188 25.4375C49.7188 24.7993 50.2368 24.2812 50.875 24.2812Z" fill="#404040"/>
<path d="M37.0013 10.4062C36.2451 10.4062 35.5016 10.6109 34.8518 10.9983L7.55044 27.2655C7.0151 27.5823 6.4046 27.75 5.78253 27.75C4.56269 27.75 3.41916 27.099 2.7971 26.0503C1.82122 24.4061 2.36581 22.2728 4.01231 21.297L34.8518 2.9045C35.5016 2.51716 36.2439 2.3125 37.0013 2.3125C37.7575 2.3125 38.5009 2.51716 39.1508 2.9045L69.9879 21.297C71.6344 22.2728 72.179 24.405 71.2032 26.0503C70.5823 27.099 69.4376 27.75 68.2189 27.75C67.5968 27.75 66.9863 27.5823 66.451 27.2655L39.1508 10.9983C38.4998 10.6109 37.7575 10.4062 37.0013 10.4062Z" fill="#FCB707"/>
</svg>
