<svg width="74" height="74" viewBox="0 0 74 74" fill="none" xmlns="http://www.w3.org/2000/svg">
<g clip-path="url(#clip0)">
<path d="M62.0654 53.7097H50.1299V39.3871H62.0654V53.7097Z" fill="#FCB707"/>
<path d="M62.0654 72.8064H50.1299V65.6451H62.0654V72.8064Z" fill="#FCB707"/>
<path d="M21.4843 33.4194H9.54883V21.4839H21.4843V33.4194Z" fill="#FCB707"/>
<path d="M21.4843 50.129H9.54883V38.1935H21.4843V50.129Z" fill="#FCB707"/>
<path d="M23.8711 21.4839H40.5808V32.2258H23.8711V21.4839Z" fill="#FCB707"/>
<path d="M23.8711 38.1935H35.8066V48.9355H23.8711V38.1935Z" fill="#FCB707"/>
<path d="M26.2582 5.96772C26.2582 6.62685 25.7238 7.16127 25.0646 7.16127C24.4055 7.16127 23.8711 6.62685 23.8711 5.96772C23.8711 5.30859 24.4055 4.77417 25.0646 4.77417C25.7238 4.77417 26.2582 5.30859 26.2582 5.96772Z" fill="#404040"/>
<path d="M15.5166 9.5484H17.9037V11.9355H15.5166V9.5484Z" fill="#404040"/>
<path d="M32.2256 9.5484H34.6127V11.9355H32.2256V9.5484Z" fill="#404040"/>
<path d="M50.129 38.1936V10.7419C50.129 8.76803 48.5223 7.16129 46.5484 7.16129H38.5287L37.9319 4.77419H32.1052C31.5515 2.05433 29.1405 0 26.2581 0H23.871C20.9885 0 18.5775 2.05433 18.0239 4.77419H12.1972L11.6004 7.16129H3.58065C1.60674 7.16129 0 8.76803 0 10.7419V65.6452C0 67.6191 1.60674 69.2258 3.58065 69.2258H38.1936V74H74V38.1936H50.129ZM71.6129 45.3548H40.5806V40.5806H71.6129V45.3548ZM38.1936 62.0645H16.7097V52.5161H7.16129V14.3226H9.81006L9.21328 16.7097H40.9157L40.319 14.3226H42.9677V38.1936H38.1936V62.0645ZM14.3226 60.3768L8.84904 54.9032H14.3226V60.3768ZM46.5484 9.54839C47.2069 9.54839 47.7419 10.0846 47.7419 10.7419V38.1936H45.3548V11.9355H39.7222L39.1254 9.54839H46.5484ZM20.2903 7.16129V5.96774C20.2903 3.99384 21.8971 2.3871 23.871 2.3871H26.2581C28.232 2.3871 29.8387 3.99384 29.8387 5.96774V7.16129H36.0681L37.8584 14.3226H12.2706L14.0609 7.16129H20.2903ZM3.58065 66.8387C2.9221 66.8387 2.3871 66.3026 2.3871 65.6452V10.7419C2.3871 10.0846 2.9221 9.54839 3.58065 9.54839H11.0036L10.4068 11.9355H4.77419V54.2039L15.0219 64.4516H38.1936V66.8387H3.58065ZM40.5806 71.6129V47.7419H71.6129V71.6129H40.5806Z" fill="#404040"/>
<path d="M15.2987 26.7401L13.9729 25.4142L12.2852 27.102L15.7335 30.5503L22.4962 19.7291L20.4716 18.4645L15.2987 26.7401Z" fill="#404040"/>
<path d="M15.2987 43.4497L13.9729 42.1239L12.2852 43.8116L15.7335 47.26L22.4962 36.4388L20.4716 35.1741L15.2987 43.4497Z" fill="#404040"/>
<path d="M23.8711 21.4839H40.5808V23.871H23.8711V21.4839Z" fill="#404040"/>
<path d="M23.8711 26.2581H40.5808V28.6452H23.8711V26.2581Z" fill="#404040"/>
<path d="M23.8711 31.0322H40.5808V33.4193H23.8711V31.0322Z" fill="#404040"/>
<path d="M23.8711 38.1935H35.8066V40.5806H23.8711V38.1935Z" fill="#404040"/>
<path d="M23.8711 42.9677H35.8066V45.3548H23.8711V42.9677Z" fill="#404040"/>
<path d="M23.8711 47.7419H35.8066V50.129H23.8711V47.7419Z" fill="#404040"/>
<path d="M35.8064 59.6774H19.0967V52.5161H35.8064V59.6774Z" fill="#FCB707"/>
</g>
<defs>
<clipPath id="clip0">
<rect width="74" height="74" fill="white"/>
</clipPath>
</defs>
</svg>
