<svg width="74" height="74" viewBox="0 0 74 74" fill="none" xmlns="http://www.w3.org/2000/svg">
<path d="M34.3488 34.3487L59.7863 8.91122L54.8225 3.94744C54.7751 3.90004 54.7173 3.8665 54.6687 3.82141L29.2451 29.245L34.3488 34.3487Z" fill="#FCB707"/>
<path d="M56.6564 35.1662L51.5527 30.0625L63.5939 18.0213L68.6976 23.125L56.6564 35.1662Z" fill="#FCB707"/>
<path d="M58.4814 23.129L60.1164 21.494L65.219 26.5967L63.5841 28.2316L58.4814 23.129Z" fill="#404040"/>
<path d="M55.0127 26.5977L56.6476 24.9628L61.7503 30.0654L60.1153 31.7004L55.0127 26.5977Z" fill="#404040"/>
<path d="M72.8438 23.125C72.8438 21.3247 72.1431 19.632 70.87 18.3601L55.6399 3.12997C54.3854 1.87544 52.6487 1.15625 50.875 1.15625C49.1013 1.15625 47.3646 1.87544 46.1101 3.12997L25.4306 23.8095C24.1887 22.6405 22.5203 21.9688 20.8125 21.9688C19.0388 21.9688 17.3021 22.6879 16.0476 23.9425L3.12997 36.8601C1.85694 38.132 1.15625 39.8247 1.15625 41.625C1.15625 43.4253 1.85694 45.118 3.12997 46.3899L27.6101 70.87C28.8646 72.1246 30.6013 72.8438 32.375 72.8438C34.1487 72.8438 35.8854 72.1246 37.1399 70.87L50.0575 57.9524C51.3306 56.6805 52.0312 54.9878 52.0312 53.1875C52.0312 51.4543 51.3757 49.824 50.1905 48.5694L70.87 27.8899C72.1431 26.618 72.8438 24.9253 72.8438 23.125ZM48.4226 56.3175L35.505 69.2351C34.6806 70.0583 33.5405 70.5312 32.375 70.5312C31.2095 70.5312 30.0694 70.0583 29.245 69.2351L4.76491 44.755C3.92894 43.919 3.46875 42.8067 3.46875 41.625C3.46875 40.4433 3.92894 39.331 4.76491 38.495L17.6825 25.5774C18.5069 24.7542 19.647 24.2812 20.8125 24.2812C21.978 24.2812 23.1181 24.7542 23.9425 25.5774L48.4226 50.0575C49.2586 50.8935 49.7188 52.0058 49.7188 53.1875C49.7188 54.3692 49.2586 55.4815 48.4226 56.3175ZM69.2351 26.255L48.5625 46.9276L27.0724 25.4375L47.745 4.76491C48.5694 3.94166 49.7095 3.46875 50.875 3.46875C52.0405 3.46875 53.1806 3.94166 54.005 4.76491L69.2351 19.995C70.0711 20.831 70.5312 21.9433 70.5312 23.125C70.5312 24.3067 70.0711 25.419 69.2351 26.255Z" fill="#404040"/>
<path d="M16.5215 32.035L20.8075 27.749L26.2494 33.1909L21.9634 37.4769L16.5215 32.035Z" fill="#FCB707"/>
<path d="M23.1242 45.5724L12.2393 34.6875L20.8117 26.1151L31.6966 37L23.1242 45.5724ZM15.5091 34.6875L23.1242 42.3025L28.4268 37L20.8117 29.3849L15.5091 34.6875Z" fill="#404040"/>
<path d="M28.9062 64.75C26.3556 64.75 24.2812 62.6757 24.2812 60.125C24.2812 57.5743 26.3556 55.5 28.9062 55.5C31.4569 55.5 33.5312 57.5743 33.5312 60.125H31.2188C31.2188 58.8497 30.1816 57.8125 28.9062 57.8125C27.6309 57.8125 26.5938 58.8497 26.5938 60.125C26.5938 61.4003 27.6309 62.4375 28.9062 62.4375V64.75Z" fill="#404040"/>
<path d="M32.375 68.2188C29.8243 68.2188 27.75 66.1444 27.75 63.5938C27.75 61.0431 29.8243 58.9688 32.375 58.9688C34.9257 58.9688 37 61.0431 37 63.5938C37 66.1444 34.9257 68.2188 32.375 68.2188Z" fill="#FCB707"/>
<path d="M4.95801 41.284L6.59294 39.6491L20.4662 53.5223L18.8313 55.1573L4.95801 41.284Z" fill="#404040"/>
<path d="M16.5264 45.9112L14.9735 44.3584L16.6085 42.7235L18.1613 44.2763L16.5264 45.9112ZM13.3374 42.7235L11.7025 41.0885L13.3374 39.4536L14.9724 41.0885L13.3374 42.7235ZM10.0676 39.4524L8.43262 37.8175L10.0676 36.1826L11.7025 37.8175L10.0676 39.4524Z" fill="#404040"/>
<path d="M45.4326 55.1612L43.8798 53.6084L45.5147 51.9735L47.0676 53.5263L45.4326 55.1612ZM42.2437 51.9735L40.6087 50.3385L42.2437 48.7036L43.8786 50.3385L42.2437 51.9735ZM38.9738 48.7024L37.3389 47.0675L38.9738 45.4326L40.6087 47.0675L38.9738 48.7024Z" fill="#404040"/>
</svg>
