<svg width="41" height="41" viewBox="0 0 41 41" fill="none" xmlns="http://www.w3.org/2000/svg">
<circle cx="20.0848" cy="20.0848" r="20.0848" fill="#D7ECFF"/>
<path d="M24.5 8H15.5C11.3585 8 8 11.3585 8 15.5V24.5C8 28.6415 11.3585 32 15.5 32H24.5C28.6415 32 32 28.6415 32 24.5V15.5C32 11.3585 28.6415 8 24.5 8ZM29.75 24.5C29.75 27.395 27.395 29.75 24.5 29.75H15.5C12.605 29.75 10.25 27.395 10.25 24.5V15.5C10.25 12.605 12.605 10.25 15.5 10.25H24.5C27.395 10.25 29.75 12.605 29.75 15.5V24.5Z" fill="url(#paint0_linear)"/>
<path d="M20 14C16.6865 14 14 16.6865 14 20C14 23.3135 16.6865 26 20 26C23.3135 26 26 23.3135 26 20C26 16.6865 23.3135 14 20 14ZM20 23.75C17.933 23.75 16.25 22.067 16.25 20C16.25 17.9315 17.933 16.25 20 16.25C22.067 16.25 23.75 17.9315 23.75 20C23.75 22.067 22.067 23.75 20 23.75Z" fill="url(#paint1_linear)"/>
<path d="M26.4501 14.3495C26.8917 14.3495 27.2496 13.9915 27.2496 13.55C27.2496 13.1084 26.8917 12.7505 26.4501 12.7505C26.0086 12.7505 25.6506 13.1084 25.6506 13.55C25.6506 13.9915 26.0086 14.3495 26.4501 14.3495Z" fill="url(#paint2_linear)"/>
<defs>
<linearGradient id="paint0_linear" x1="10.197" y1="29.8032" x2="29.803" y2="10.1968" gradientUnits="userSpaceOnUse">
<stop stop-color="#FFC107"/>
<stop offset="0.507" stop-color="#F44336"/>
<stop offset="0.99" stop-color="#9C27B0"/>
</linearGradient>
<linearGradient id="paint1_linear" x1="15.7575" y1="24.2425" x2="24.2425" y2="15.7575" gradientUnits="userSpaceOnUse">
<stop stop-color="#FFC107"/>
<stop offset="0.507" stop-color="#F44336"/>
<stop offset="0.99" stop-color="#9C27B0"/>
</linearGradient>
<linearGradient id="paint2_linear" x1="25.8849" y1="14.1154" x2="27.0154" y2="12.9847" gradientUnits="userSpaceOnUse">
<stop stop-color="#FFC107"/>
<stop offset="0.507" stop-color="#F44336"/>
<stop offset="0.99" stop-color="#9C27B0"/>
</linearGradient>
</defs>
</svg>
