<svg width="41" height="41" viewBox="0 0 41 41" fill="none" xmlns="http://www.w3.org/2000/svg">
<circle cx="20.0848" cy="20.0848" r="20.0848" fill="#D7ECFF"/>
<path d="M20.0002 20.9878C23.5867 20.9878 26.4942 18.0804 26.4942 14.4939C26.4942 10.9074 23.5868 8 20.0002 8C16.4137 8 13.5063 10.9074 13.5063 14.4939C13.5107 18.0786 16.4156 20.9834 20.0002 20.9878ZM20.0002 10.9972C21.9314 10.9972 23.497 12.5627 23.497 14.4939C23.497 16.4252 21.9315 17.9907 20.0002 17.9907C18.069 17.9907 16.5035 16.4252 16.5035 14.4939C16.5035 12.5627 18.0691 10.9972 20.0002 10.9972Z" fill="#FF9800"/>
<path d="M26.3612 24.0649C27.067 23.6 27.4922 22.8119 27.4932 21.9668C27.503 21.2655 27.1073 20.6215 26.4772 20.3134C25.8298 19.99 25.0548 20.0628 24.479 20.5012C21.8104 22.4467 18.191 22.4467 15.5224 20.5012C14.9457 20.0651 14.1721 19.9924 13.5243 20.3134C12.8944 20.6214 12.4985 21.2647 12.5072 21.9658C12.5087 22.8107 12.9338 23.5986 13.6392 24.0638C14.5441 24.6657 15.5297 25.1366 16.5665 25.4626C16.7423 25.5172 16.9238 25.5678 17.111 25.6144L14.0918 28.5667C13.2998 29.3351 13.2806 30.6001 14.0491 31.3921C14.8175 32.1841 16.0825 32.2033 16.8746 31.4348C16.891 31.4188 16.9072 31.4026 16.9232 31.386L20.0003 28.201L23.0834 31.392C23.8512 32.1846 25.1162 32.2048 25.9089 31.437C26.7015 30.6692 26.7216 29.4042 25.9538 28.6115C25.9377 28.595 25.9214 28.5787 25.9048 28.5626L22.8906 25.6134C23.0777 25.5654 23.2599 25.5145 23.4371 25.4605C24.4727 25.1358 25.4573 24.6659 26.3612 24.0649Z" fill="#FF9800"/>
</svg>
