<svg width="41" height="41" viewBox="0 0 41 41" fill="none" xmlns="http://www.w3.org/2000/svg">
<circle cx="20.0848" cy="20.0848" r="20.0848" fill="#D7ECFF"/>
<g clip-path="url(#clip0)">
<path d="M19.7429 26.7892H21.1771C21.1771 26.7892 21.6106 26.7412 21.8311 26.5027C22.0351 26.2837 22.0276 25.8726 22.0276 25.8726C22.0276 25.8726 21.9991 23.948 22.8932 23.6645C23.7737 23.3855 24.9048 25.5246 26.1034 26.3482C27.0095 26.9707 27.698 26.8342 27.698 26.8342L30.9038 26.7892C30.9038 26.7892 32.5809 26.6857 31.7858 25.3671C31.7213 25.2591 31.3223 24.392 29.4022 22.6099C27.392 20.7438 27.662 21.0468 30.0832 17.82C31.5578 15.8549 32.1474 14.6548 31.9628 14.1418C31.7873 13.6527 30.7027 13.7817 30.7027 13.7817L27.0965 13.8028C27.0965 13.8028 26.8295 13.7667 26.63 13.8853C26.4364 14.0023 26.3119 14.2723 26.3119 14.2723C26.3119 14.2723 25.7404 15.7934 24.9783 17.0865C23.3717 19.8152 22.7282 19.9592 22.4656 19.7897C21.8551 19.3952 22.0081 18.2026 22.0081 17.3565C22.0081 14.7118 22.4086 13.6092 21.2266 13.3242C20.8335 13.2297 20.5455 13.1667 19.5419 13.1562C18.2548 13.1427 17.1643 13.1607 16.5477 13.4622C16.1367 13.6632 15.8202 14.1118 16.0137 14.1373C16.2522 14.1688 16.7922 14.2828 17.0788 14.6728C17.4493 15.1754 17.4358 16.3064 17.4358 16.3064C17.4358 16.3064 17.6488 19.4192 16.9392 19.8062C16.4517 20.0717 15.7842 19.5302 14.3516 17.0535C13.618 15.7859 13.063 14.3833 13.063 14.3833C13.063 14.3833 12.9565 14.1223 12.7659 13.9828C12.5349 13.8133 12.2109 13.7592 12.2109 13.7592L8.78165 13.7802C8.78165 13.7802 8.26711 13.7953 8.0781 14.0188C7.91008 14.2183 8.0646 14.6293 8.0646 14.6293C8.0646 14.6293 10.7498 20.9103 13.789 24.077C16.5777 26.9797 19.7429 26.7892 19.7429 26.7892Z" fill="#1E88E5"/>
</g>
<defs>
<clipPath id="clip0">
<rect x="8" y="8" width="24" height="24" fill="white"/>
</clipPath>
</defs>
</svg>
