<svg width="77" height="51" viewBox="0 0 77 51" fill="none" xmlns="http://www.w3.org/2000/svg">
<path fill-rule="evenodd" clip-rule="evenodd" d="M48.2929 15.0676L53 12.8514L48.3384 15.441L48.2929 15.0676ZM48.0201 14.9049C47.843 14.7277 47.4266 14.7254 46.8499 14.9719C46.4957 15.2112 46.1152 15.2926 45.8017 15.8071C46.0004 15.7042 46.1798 15.5463 46.3785 15.4434C46.2804 15.579 46.2149 15.7354 46.187 15.9005C46.388 15.8478 46.7949 15.9005 47.094 15.7593C47.4066 15.6137 47.6929 15.4172 47.9411 15.1777C47.9772 15.1432 48.0035 15.0999 48.0174 15.0519C48.0313 15.004 48.0322 14.9533 48.0201 14.9049ZM40.6447 29.4085C40.4418 29.6925 40.2056 29.9513 39.9412 30.1791C39.8494 30.3842 39.7695 30.5944 39.7019 30.8086C39.6555 30.9652 39.6219 31.1252 39.6014 31.2873L39.6468 31.2202C39.7196 31.1154 39.8198 31.0327 39.9364 30.9809C39.9747 30.9809 40.0656 30.8804 40.0752 30.9043C40.0848 30.9283 39.9268 31.1437 39.8933 31.2609C39.8876 31.2776 39.8756 31.2914 39.8598 31.2992C39.8383 31.3232 39.8598 31.3447 39.8957 31.3423L40.269 31.2753C40.4686 31.256 40.6699 31.264 40.8673 31.2992C40.883 31.3014 40.8974 31.309 40.908 31.3208L40.9295 31.304C40.9409 31.2965 40.9542 31.2925 40.9678 31.2925C40.9814 31.2925 40.9947 31.2965 41.0061 31.304L41.2454 31.1796C41.2813 31.1604 41.4009 31.1293 41.4177 31.1484C41.4344 31.1676 41.3531 31.2849 41.3603 31.316L41.8389 31.1197C40.8817 30.9737 40.7931 30.2294 40.8817 29.3702C40.896 29.205 40.9176 29.0375 40.9391 28.87C40.8604 29.0683 40.7592 29.2571 40.6376 29.4324L40.6447 29.4085ZM39.6229 31.5266C39.6296 31.5097 39.6296 31.4909 39.6229 31.4739C39.6588 31.4309 39.6995 31.371 39.7402 31.3112C39.7115 31.4237 39.7043 31.5098 39.7952 31.4907L40.293 31.3854C40.395 31.3784 40.4973 31.3784 40.5993 31.3854L40.7405 31.3974C40.7162 31.4196 40.6994 31.4489 40.6926 31.4811C39.9268 32.0818 39.1587 32.6778 38.2373 33.0368L37.9574 33.1253L37.8951 33.1086C38.2536 32.8825 38.5915 32.6254 38.905 32.3403C39.1735 32.0963 39.4143 31.8234 39.6229 31.5266ZM34.9708 26.1296C35.819 25.9266 36.6778 25.7716 37.5434 25.6653C37.7396 25.7156 37.9263 25.7658 38.1009 25.8257C37.6276 25.9226 37.1632 26.0595 36.713 26.2349C36.2072 26.4373 35.7162 26.6748 35.2437 26.9457C35.0761 27.0391 35.2173 27.3622 35.2939 27.4627C35.4444 27.6366 35.6232 27.7839 35.8228 27.8983C36.1004 28.0754 36.8757 28.1711 37.2131 28.2573C37.3281 28.3066 37.4475 28.3451 37.5697 28.3722C37.7057 28.403 37.8443 28.4214 37.9837 28.4272C38.0017 28.4578 38.0263 28.4839 38.0557 28.5038C38.0851 28.5237 38.1185 28.5367 38.1536 28.5421C38.2501 28.5598 38.349 28.5598 38.4455 28.5421H39.2281C39.7506 28.5351 40.2717 28.4847 40.7859 28.3913C40.8732 28.3957 40.9588 28.3666 41.0252 28.3099V28.3602C40.9214 28.7146 40.7597 29.0494 40.5466 29.351C40.2184 29.8027 39.8134 30.1932 39.3501 30.5046L38.5772 31.1125C38.4077 31.1879 38.2303 31.2441 38.0483 31.2801C37.9368 31.3033 37.8242 31.3209 37.7109 31.3327L38.0746 30.957L39.0988 29.9326C39.1096 29.9204 39.1155 29.9046 39.1155 29.8883C39.1155 29.872 39.1096 29.8563 39.0988 29.8441C39.0863 29.8319 39.0696 29.8251 39.0522 29.8251C39.0348 29.8251 39.018 29.8319 39.0055 29.8441C38.8906 29.9398 38.7662 30.0355 38.649 30.1241C38.5341 30.2132 38.4125 30.2932 38.2852 30.3634C38.0172 30.4759 37.7492 30.6028 37.4811 30.7488L37.2155 30.8852L37.4141 30.72C37.4596 30.6841 38.1488 30.2605 38.1488 30.2605C38.4934 29.9398 38.5102 29.6622 38.4982 29.6239C38.4814 29.6622 38.0986 30.1026 38.0196 30.0882C37.809 30.1815 37.5912 30.2988 37.3759 30.4161C37.1605 30.5334 36.9499 30.6554 36.7417 30.7392C36.6655 30.7747 36.5851 30.8005 36.5024 30.8158C36.4137 30.8311 36.3276 30.8585 36.2463 30.8971L36.0908 30.9713L36.7321 30.3778C36.7394 30.3708 36.7449 30.3621 36.7483 30.3525C36.7516 30.343 36.7526 30.3328 36.7513 30.3227C36.7507 30.3141 36.7484 30.3057 36.7444 30.298C36.7404 30.2903 36.7348 30.2836 36.728 30.2782C36.7213 30.2728 36.7135 30.2688 36.7051 30.2666C36.6968 30.2644 36.688 30.264 36.6795 30.2653C36.5633 30.2812 36.4499 30.3126 36.3421 30.3586C36.2858 30.3825 36.2283 30.4033 36.1698 30.4209C36.2931 30.2288 36.4564 30.0656 36.6484 29.9422C36.6962 29.9111 36.7441 29.8848 36.7943 29.8584C36.8426 29.8325 36.893 29.8108 36.9451 29.7938C36.9786 29.7938 37.2538 29.6574 37.249 29.6239C37.2323 29.5305 36.8877 29.6622 36.8566 29.667C36.5212 29.6927 36.2061 29.8379 35.9687 30.0762L34.8177 30.7942L34.7962 30.8134L34.3008 31.4452C34.3199 31.3758 34.3534 31.2657 34.3846 31.1652C34.4157 31.0647 34.4252 31.0336 34.4372 30.9857C34.4407 30.9739 34.4408 30.9613 34.4374 30.9494C34.434 30.9375 34.4273 30.9269 34.4181 30.9187C34.4056 30.9065 34.3888 30.8998 34.3714 30.8998C34.354 30.8998 34.3372 30.9065 34.3247 30.9187C34.1333 31.1365 33.894 31.4333 33.6595 31.7205C33.3747 32.0699 33.1019 32.4073 32.9727 32.5557C33.2227 31.9163 33.5438 31.3069 33.9299 30.7392C34.3008 30.2002 34.7249 29.6999 35.1958 29.2457C35.206 29.2354 35.2125 29.2221 35.2145 29.2078C35.2164 29.1935 35.2137 29.1789 35.2067 29.1662C35.1997 29.1536 35.1888 29.1435 35.1756 29.1376C35.1624 29.1316 35.1477 29.1301 35.1336 29.1333C34.8608 29.2194 34.5042 29.3415 34.15 29.4683C33.7959 29.5952 33.4656 29.7077 33.2048 29.7938C32.9439 29.88 33.0516 29.8321 33.1928 29.7412C33.4608 29.5664 33.7456 29.4492 33.9945 29.2912C34.3291 29.0734 34.6489 28.8335 34.9517 28.5732C34.9634 28.5642 34.9716 28.5513 34.9746 28.5368C34.9777 28.5223 34.9755 28.5072 34.9685 28.4942C34.9647 28.4864 34.9593 28.4794 34.9528 28.4737C34.9462 28.468 34.9386 28.4637 34.9303 28.461C34.922 28.4584 34.9133 28.4574 34.9046 28.4581C34.896 28.4589 34.8876 28.4614 34.8799 28.4655C34.3881 28.6966 33.8588 28.8376 33.3173 28.882L32.9583 28.9322C32.7832 28.9838 32.605 29.0237 32.4247 29.0519C32.3241 29.0662 32.3529 28.9705 32.3409 28.9538C32.3648 28.7144 32.5467 28.6067 32.8195 28.4129L32.8698 28.377C32.8811 28.3687 32.8898 28.3572 32.8945 28.344C32.8992 28.3307 32.8997 28.3163 32.8961 28.3028C32.8906 28.2865 32.8791 28.273 32.864 28.265C32.8488 28.257 32.8312 28.2551 32.8147 28.2597C32.4256 28.3774 32.0562 28.5524 31.7187 28.779C31.4209 28.9798 31.1415 29.2065 30.8835 29.4564C31.1141 29.0022 31.4091 28.5839 31.7594 28.2142C32.3508 27.6324 33.0869 27.2193 33.8916 27.0175C33.9051 27.0128 33.9169 27.0041 33.9254 26.9926C33.9339 26.981 33.9388 26.9672 33.9394 26.9529C33.9382 26.9354 33.9304 26.9189 33.9175 26.9069C33.9046 26.8949 33.8877 26.8883 33.8701 26.8883L32.6448 26.9362C33.4053 26.6193 34.1894 26.3624 34.99 26.1679L34.9708 26.1296ZM33.8246 20.4383C33.9897 20.826 34.4396 21.3956 35.1958 22.0322C35.2078 22.0443 35.2145 22.0607 35.2145 22.0777C35.2145 22.0947 35.2078 22.1111 35.1958 22.1232C35.19 22.1294 35.1829 22.1344 35.1751 22.1378C35.1673 22.1412 35.1589 22.1429 35.1503 22.1429C35.1418 22.1429 35.1334 22.1412 35.1255 22.1378C35.1177 22.1344 35.1107 22.1294 35.1049 22.1232C34.3391 21.4913 33.8796 20.893 33.7025 20.4837C33.6475 20.3521 33.5087 20.2229 33.5111 20.1319C33.5135 20.041 33.669 19.9668 33.7504 19.9261C33.9275 19.8423 32.8147 19.3062 33.1354 18.8898C33.2383 18.7702 33.3594 18.6676 33.4943 18.5858H33.5135C33.5326 18.5858 33.535 18.5595 33.5255 18.5475C33.3484 18.2819 32.7597 18.1143 32.6687 17.9468C32.3983 17.5639 33.0062 17.5471 32.9248 17.4681C32.7525 17.3006 32.1183 17.279 30.7208 16.6161C29.9889 16.2271 29.2852 15.7873 28.6149 15.2998C28.6006 15.29 28.5906 15.2751 28.587 15.2581C28.5835 15.2412 28.5866 15.2235 28.5958 15.2088C28.6006 15.2017 28.6068 15.1955 28.614 15.1908C28.6212 15.1861 28.6293 15.1828 28.6377 15.1813C28.6462 15.1797 28.6549 15.1799 28.6633 15.1817C28.6717 15.1836 28.6797 15.1871 28.6867 15.1921C29.3526 15.6282 30.0483 16.0168 30.7687 16.3552C31.5153 16.7094 32.3313 17.0421 33.2526 17.3867C33.322 17.4131 33.3364 17.4538 33.3173 17.5088C33.2981 17.5639 33.2287 17.6045 33.1521 17.6548C33.0756 17.7051 32.9535 17.7888 32.9655 17.8152C33.0988 17.9663 33.2617 18.0885 33.4441 18.1742C33.6072 18.2459 33.7551 18.3483 33.8796 18.4757C33.8943 18.4922 33.9048 18.512 33.9103 18.5334C33.9157 18.5548 33.916 18.5772 33.9111 18.5987C33.9062 18.6203 33.8962 18.6403 33.882 18.6572C33.8678 18.6741 33.8497 18.6874 33.8294 18.6959H33.8126C33.6915 18.7679 33.5812 18.8565 33.4848 18.9592C33.3388 19.1482 33.3867 19.4187 34.04 19.9165C34.0462 19.9223 34.0512 19.9294 34.0546 19.9372C34.058 19.945 34.0597 19.9535 34.0597 19.962C34.0597 19.9705 34.058 19.9789 34.0546 19.9868C34.0512 19.9946 34.0462 20.0016 34.04 20.0075C34.0324 20.0176 34.022 20.0252 34.01 20.0295C33.9981 20.0337 33.9852 20.0344 33.973 20.0314C33.9187 20.0126 33.8597 20.0126 33.8054 20.0314C33.7872 20.0423 33.7725 20.0583 33.7632 20.0774C33.7538 20.0966 33.7502 20.118 33.7528 20.1391C33.7543 20.2357 33.7781 20.3307 33.8222 20.4167L33.8246 20.4383ZM27.3275 19.7825C25.6414 18.948 24.0557 17.9243 22.6012 16.731L21.9001 15.7377L22.7807 16.1279C22.7918 16.137 22.8058 16.142 22.8202 16.142C22.8346 16.142 22.8486 16.137 22.8597 16.1279C22.8717 16.1158 22.8784 16.0994 22.8784 16.0824C22.8784 16.0653 22.8717 16.049 22.8597 16.0369L21.9743 15.1968H21.9599C21.5892 15.0034 21.2757 14.7163 21.0505 14.364C21.0158 14.3059 20.996 14.2401 20.9931 14.1725C20.9921 14.156 20.9958 14.1396 21.0039 14.1251C21.012 14.1107 21.024 14.0989 21.0386 14.0911C21.1387 14.057 21.2472 14.057 21.3473 14.0911C21.3601 14.0948 21.3738 14.0942 21.3863 14.0894C21.3988 14.0847 21.4095 14.0761 21.4167 14.0648C21.4215 14.0576 21.4249 14.0495 21.4266 14.041C21.4282 14.0325 21.4282 14.0237 21.4264 14.0153C21.4246 14.0068 21.4211 13.9987 21.4162 13.9916C21.4112 13.9845 21.4049 13.9785 21.3975 13.9738C21.1126 13.8117 20.8543 13.6067 20.6318 13.3659C20.5648 13.2582 20.6868 13.1864 21.1726 13.1912C21.1866 13.1955 21.2016 13.1955 21.2157 13.1912C21.2296 13.1884 21.2423 13.1813 21.2519 13.1709C21.2615 13.1604 21.2675 13.1472 21.2691 13.133C21.2707 13.1189 21.2678 13.1047 21.2608 13.0923C21.2537 13.08 21.243 13.0702 21.23 13.0644C20.897 12.5953 20.6116 12.0942 20.3781 11.5685C20.1997 11.164 20.0726 10.7386 20 10.3025C20.1688 10.4969 20.3503 10.68 20.5432 10.8505C20.809 11.0879 21.0948 11.3017 21.3975 11.4896C21.4077 11.4954 21.4193 11.4985 21.431 11.4985C21.4428 11.4985 21.4544 11.4954 21.4645 11.4896C21.4799 11.4814 21.4916 11.4677 21.4973 11.4513C21.5031 11.4349 21.5025 11.417 21.4956 11.401L20.4475 9.24701L21.644 9.92193C21.6571 9.92828 21.6719 9.93022 21.6861 9.92743C21.7004 9.92465 21.7134 9.9173 21.7231 9.90649C21.7328 9.89568 21.7388 9.882 21.7401 9.86752C21.7413 9.85303 21.7379 9.83853 21.7302 9.82619C21.4035 9.39152 21.1191 8.92671 20.8806 8.43806C20.69 8.04914 20.5446 7.63958 20.4475 7.21745C20.8328 7.598 21.9025 8.90476 22.5199 9.66105C22.7329 9.91953 22.8932 10.1158 22.9578 10.19C22.9636 10.1962 22.9707 10.2012 22.9785 10.2046C22.9863 10.208 22.9947 10.2097 23.0033 10.2097C23.0118 10.2097 23.0202 10.208 23.028 10.2046C23.0359 10.2012 23.0429 10.1962 23.0487 10.19C23.0607 10.1779 23.0674 10.1615 23.0674 10.1445C23.0674 10.1275 23.0607 10.1111 23.0487 10.099L22.6156 9.5725C21.9623 8.77552 20.8112 7.36824 20.4619 7.04753C20.5564 7.05584 20.6459 7.09349 20.7179 7.15523C21.5555 7.79904 22.3404 8.75637 23.111 9.5366L23.3191 9.82859C24.3013 11.1866 25.4457 12.4195 26.7268 13.5C27.0547 13.7728 27.4782 14.0792 27.8396 14.3424C28.247 14.6495 28.6747 14.9286 29.1199 15.1777C30.3164 15.9148 31.6732 16.3959 33.188 16.853C33.4776 16.944 33.7719 17.0277 34.0711 17.1091C34.3702 17.1905 34.6645 17.2671 34.9637 17.3485C34.972 17.351 34.9808 17.3517 34.9894 17.3506C34.998 17.3495 35.0063 17.3466 35.0138 17.3421C35.0212 17.3376 35.0276 17.3315 35.0326 17.3244C35.0376 17.3172 35.041 17.3091 35.0426 17.3006C35.0448 17.2923 35.0452 17.2836 35.044 17.2751C35.0427 17.2666 35.0398 17.2584 35.0353 17.251C35.0309 17.2437 35.025 17.2373 35.018 17.2322C35.0111 17.2272 35.0032 17.2236 34.9948 17.2216C34.6957 17.1498 34.3989 17.0732 34.1046 16.9823C33.8102 16.8913 33.5183 16.8171 33.2263 16.7262C31.7863 16.3065 30.4031 15.7117 29.1079 14.9551C28.7107 14.7158 28.3326 14.4597 27.9736 14.2012C27.6146 13.9427 27.2677 13.6699 26.9398 13.3994C25.8118 12.4534 24.7882 11.3895 23.8863 10.2259C23.9762 10.3133 24.073 10.3934 24.1759 10.4652C24.4667 10.6343 24.7346 10.8402 24.9727 11.0779C25.0972 11.2024 25.2479 11.3005 25.3796 11.4273C26.0111 12.0508 26.6843 12.6305 27.3945 13.1625C28.1997 13.7533 29.0864 14.2241 30.0268 14.5602C31.4627 15.0724 32.7645 15.4984 33.8988 15.867C36.0525 16.5658 37.395 17.1235 37.8018 17.5806C38.7461 19.5483 39.8347 21.4434 41.0587 23.2504C42.0542 24.6386 43.0737 25.5193 43.7988 25.5361C45.0599 25.7754 45.7802 25.2154 46.1535 24.7128C46.1918 24.6601 46.2277 24.6074 46.2588 24.5548C46.1248 25.3302 46.1559 25.9022 46.3186 26.2301C46.3537 26.3069 46.4015 26.3773 46.4598 26.4384C46.4963 26.4763 46.5382 26.5086 46.5843 26.5341C46.4359 26.8333 46.5316 27.3167 46.7805 27.8289C46.8307 27.9342 46.8882 28.0395 46.9504 28.1472C47.0126 28.2549 47.0724 28.3434 47.1395 28.4416C46.9187 28.8837 46.6385 29.2936 46.3067 29.6598C45.9686 30.0289 45.5357 30.298 45.0551 30.4376L41.9777 30.9689C41.0205 30.8804 40.9367 30.172 41.0205 29.3487C41.0372 29.1524 41.0659 28.9466 41.0922 28.7407C41.1186 28.5349 41.1497 28.3004 41.1688 28.0921C41.1693 28.08 41.1667 28.0679 41.1613 28.057C41.1559 28.0461 41.1477 28.0368 41.1377 28.0299C41.1227 28.021 41.1049 28.0182 41.0879 28.0222C41.0709 28.0262 41.0561 28.0367 41.0468 28.0515C40.9654 28.1807 40.8793 28.2429 40.7859 28.2357H40.7692C40.4174 28.3028 40.1901 27.9964 39.8646 28.0227C39.7426 28.0227 39.5774 28.365 39.4291 28.3698L39.5296 27.9103C39.2903 27.9103 38.6657 28.3506 38.4312 28.3889C38.3307 28.4057 39.1012 27.5082 39.0366 27.4938C38.972 27.4795 38.0794 28.2836 38.0315 28.2812C37.8688 28.2812 37.9215 28.2621 37.7922 28.2334C37.7922 28.2334 37.8784 28.1017 37.7922 28.0203C37.7061 27.939 37.4596 28.1328 37.3136 28.1424L37.2634 28.1209H37.2466H37.2299C37.2175 28.0893 37.2175 28.0543 37.2299 28.0227C37.2658 27.8863 37.7085 27.5967 37.4692 27.6494C37.4046 27.6637 37.3088 27.7164 37.2538 27.7212C37.0648 27.7427 36.8231 27.9605 36.634 27.9605C36.4389 27.9251 36.2462 27.8771 36.0573 27.8169C36.0788 27.781 36.0956 27.7379 36.1339 27.7355C36.2182 27.6876 36.2936 27.6252 36.3564 27.5513C36.5957 27.2688 36.1602 27.5034 35.9783 27.5034C35.7609 27.4853 35.554 27.4019 35.3848 27.2641C35.3585 27.2258 35.3346 27.1564 35.3035 27.1013C35.3067 27.0883 35.3107 27.0755 35.3154 27.063C35.7779 26.8031 36.2576 26.5752 36.7513 26.3809C36.9403 26.3067 38.3761 25.9573 38.4025 25.9022C38.4055 25.8942 38.407 25.8857 38.4067 25.8771C38.4064 25.8686 38.4044 25.8601 38.4009 25.8523C38.3973 25.8445 38.3922 25.8375 38.3859 25.8317C38.3796 25.8259 38.3722 25.8214 38.3642 25.8185C38.1529 25.737 37.9372 25.6675 37.7181 25.6103C37.7157 25.5929 37.7066 25.5771 37.6927 25.5664C37.6788 25.5556 37.6613 25.5508 37.6439 25.5528L37.541 25.5672C37.34 25.5169 37.1318 25.469 36.9188 25.4212C35.6648 25.1364 34.1835 24.7343 33.2239 23.844C33.1513 23.7832 33.0919 23.7083 33.0492 23.6238C33.0492 23.5927 33.0492 23.5711 33.0684 23.5592C33.2146 23.5253 33.367 23.5294 33.5111 23.5711C33.5263 23.5744 33.5421 23.5721 33.5558 23.5646C33.5694 23.5571 33.5799 23.545 33.5853 23.5304C33.5907 23.5139 33.5895 23.496 33.5819 23.4803C33.5743 23.4647 33.5609 23.4526 33.5446 23.4467C32.7573 23.1667 32.5682 22.9321 32.9822 22.743C32.9919 22.7393 33.0005 22.7331 33.0072 22.7252C33.0138 22.7172 33.0184 22.7077 33.0205 22.6976C33.0227 22.6892 33.0231 22.6806 33.0219 22.672C33.0206 22.6635 33.0177 22.6554 33.0132 22.648C33.0087 22.6407 33.0029 22.6343 32.9959 22.6292C32.9889 22.6242 32.981 22.6205 32.9727 22.6186C32.0474 22.4032 31.8495 22.1319 32.3792 21.8048L32.4007 21.7857C32.4056 21.7785 32.409 21.7704 32.4106 21.7619C32.4123 21.7534 32.4122 21.7447 32.4104 21.7362C32.4087 21.7277 32.4052 21.7196 32.4002 21.7125C32.3953 21.7054 32.3889 21.6994 32.3816 21.6948C32.2963 21.6473 32.2253 21.5779 32.1758 21.4937C32.1638 21.4672 32.1606 21.4377 32.1667 21.4092C32.1727 21.3808 32.1876 21.3551 32.2093 21.3358C32.2196 21.3247 32.2256 21.3102 32.226 21.2951C32.227 21.2867 32.2263 21.2782 32.2239 21.2701C32.2215 21.2621 32.2176 21.2546 32.2122 21.2481C32.2068 21.2416 32.2002 21.2362 32.1927 21.2324C32.1852 21.2285 32.177 21.2263 32.1686 21.2257C30.4815 21.0482 28.8396 20.5708 27.3203 19.816L27.3275 19.7825ZM41.9322 11.8557C41.5445 10.0296 41.2406 8.36147 41.3507 6.5904C41.4608 4.81933 41.9801 2.96928 43.2484 0.769802C43.375 0.578706 43.4635 0.364989 43.5092 0.140354C43.5092 0.0709473 43.3967 0.0805207 43.1072 0.236088C42.7058 0.440897 42.3326 0.696708 41.9968 0.997169C41.6792 1.28843 41.408 1.62662 41.1927 1.99998L41.0061 2.32547L41.0587 1.9569C41.1024 1.79068 41.1138 1.61762 41.0922 1.44712C41.0779 1.40404 41.0157 1.43036 40.8673 1.56918L39.173 3.9338L38.3785 4.94139C37.7943 5.75771 37.3867 6.68699 37.182 7.6698C36.9869 8.64999 36.9489 9.65499 37.0695 10.6471L37.1126 11.042L36.9451 10.683C36.6484 10.0416 36.4115 9.62515 36.2727 9.55814C36.1841 9.51745 36.1554 9.79747 36.2128 10.482C36.2912 11.2828 36.4722 12.0703 36.7513 12.825C36.8494 13.1314 36.9451 13.4401 37.0336 13.7561L37.0576 13.8374H36.9738C36.9379 13.8374 36.9236 13.8638 36.9236 13.9044C36.9236 14.1079 37.1844 14.5554 37.4333 14.9934C37.5958 15.2641 37.7412 15.5447 37.8688 15.8335L37.9263 15.9771L37.7851 15.9196C37.4309 15.7736 37.2825 15.7593 37.2562 15.8215C37.2083 15.9388 37.4165 16.2762 37.6223 16.6137C37.7749 16.8373 37.9002 17.0784 37.9956 17.3317L37.931 17.3485H37.8904C37.9382 17.3863 37.9831 17.4279 38.0244 17.4729C39.6349 20.68 41.1114 23.1691 42.3318 24.4136C42.2696 24.3107 42.1739 24.1144 42.0925 23.9349C42.0303 23.8057 41.9753 23.6956 41.9561 23.6573C41.656 23.0851 41.443 22.4712 41.3244 21.836C41.2327 21.4089 41.1104 20.9889 40.9582 20.5795C40.9392 20.4783 40.9422 20.3742 40.967 20.2742C40.9918 20.1743 41.0378 20.0809 41.1018 20.0003C41.121 19.9716 41.1353 19.9452 41.1449 19.9285C41.0372 19.8926 40.9391 19.7226 40.8769 19.591C40.8625 19.5647 40.8505 19.5384 40.841 19.5168C40.8314 19.4953 40.8266 19.4761 40.8194 19.4618C40.8003 19.4115 40.8338 19.3804 40.8817 19.3397C40.9148 19.3161 40.9425 19.2858 40.9631 19.2507C40.9838 19.2157 40.9968 19.1767 41.0013 19.1363C41.0004 18.9474 40.9763 18.7593 40.9295 18.5762C40.9055 18.4961 40.8918 18.4133 40.8888 18.3297H40.9343H40.9798C40.9847 18.4106 40.9975 18.4907 41.0181 18.5691C41.0647 18.7611 41.0896 18.9578 41.0922 19.1554C41.087 19.208 41.0706 19.2589 41.0442 19.3047C41.0178 19.3505 40.982 19.3902 40.9391 19.4211C40.9199 19.4378 40.9008 19.4331 40.9032 19.4402L40.9247 19.4905L40.9558 19.5623C41.0157 19.6867 41.109 19.8519 41.1808 19.8519C41.2526 19.8519 41.2454 19.8734 41.2454 19.9141C41.234 19.9663 41.2111 20.0154 41.1784 20.0577C41.0994 20.1893 40.9774 20.3928 41.0396 20.5555C41.2214 20.9371 41.375 21.3314 41.4991 21.7354C41.7384 22.7406 41.9226 23.6884 42.631 24.5309C42.9708 24.9353 43.2173 25.2872 43.8275 25.3111C43.7507 25.2462 43.6838 25.1704 43.6289 25.0861C43.525 24.9209 43.4444 24.7421 43.3896 24.5548C43.033 23.4706 43.0426 21.4004 44.1577 18.5116C44.2888 18.2892 44.3621 18.0373 44.3707 17.7793C44.3824 17.4676 44.3502 17.1557 44.275 16.853C44.1218 16.1757 43.7389 15.4984 43.3034 14.7254C42.7557 13.8164 42.3019 12.8541 41.9489 11.8534L41.9322 11.8557ZM45.9884 16.8937C46.0769 17.4531 46.204 18.0057 46.3689 18.5475C46.8834 20.1798 47.4529 22.1375 46.6896 23.7674C46.6328 23.8885 46.5672 24.0053 46.4933 24.1168C46.254 25.1053 46.278 25.7658 46.4574 26.1416C46.5747 26.3809 46.6321 26.3211 46.7877 26.4862L46.7398 26.5556C46.6178 26.795 46.7398 27.2736 46.9073 27.7834L46.9863 27.939L47.082 28.1041L47.1658 28.2405L47.2232 28.3267C47.5049 27.9458 47.6453 27.4787 47.6205 27.0056C48.2139 26.4575 48.3719 25.7323 48.3767 24.6673C48.3814 23.6022 47.9914 22.1734 47.5869 20.5986C47.3555 20.0143 47.2026 19.4018 47.1323 18.7773C47.0413 17.8678 47.1634 17.4514 47.35 16.6233L46.9313 16.7382L47.4099 16.4294C47.9148 16.0345 47.8765 16.0776 48.1613 15.5056L48.1373 15.2088L48.0775 15.3045L48.0608 15.3285V15.3404C48.0009 15.3979 47.9363 15.4553 47.8717 15.508L47.9028 15.6109C47.9007 15.6445 47.8919 15.6774 47.8771 15.7077C47.8622 15.738 47.8415 15.765 47.8161 15.7872C47.7908 15.8095 47.7613 15.8265 47.7294 15.8373C47.6974 15.8481 47.6637 15.8525 47.63 15.8502C47.569 15.8527 47.509 15.8341 47.4601 15.7976C47.375 15.8486 47.2871 15.8949 47.1969 15.9364C46.9928 16.0168 46.7749 16.0566 46.5555 16.0537C46.4241 16.0578 46.2931 16.0698 46.1631 16.0896H46.1511C46.0004 16.3287 45.9425 16.6148 45.9884 16.8937Z" fill="#9C9D9D"/>
<path fill-rule="evenodd" clip-rule="evenodd" d="M32.3025 38.5424C32.2815 38.5548 32.2564 38.5585 32.2327 38.5527C32.209 38.5469 32.1885 38.532 32.1756 38.5113C32.164 38.4898 32.161 38.4648 32.1673 38.4412C32.1735 38.4176 32.1885 38.3973 32.2091 38.3844C32.3048 38.32 32.4169 38.2843 32.5322 38.2815C32.5837 38.2832 32.6325 38.3047 32.6686 38.3413C32.7037 38.3789 32.7226 38.4288 32.7213 38.4801C32.7112 38.5912 32.6688 38.6969 32.5992 38.7841C32.5674 38.8275 32.5322 38.8683 32.4939 38.9062C32.5101 38.9229 32.5216 38.9435 32.5274 38.966C32.5361 39.0046 32.5361 39.0446 32.5274 39.0833C32.4911 39.2568 32.4084 39.4173 32.2881 39.5476C31.9876 39.8597 31.6574 40.1418 31.3022 40.39L31.1419 40.5121C31.1228 40.5266 31.0987 40.5329 31.075 40.5298C31.0512 40.5266 31.0297 40.5143 31.015 40.4953C30.9839 40.4546 31.0366 40.4235 31.0772 40.3924L31.2376 40.2704C31.5686 40.0204 31.8741 39.7382 32.1493 39.4279C32.2433 39.3284 32.31 39.2064 32.3432 39.0737L32.1374 39.1838C31.9268 39.2963 31.6587 39.4423 31.5463 39.4901H31.5343C31.4912 39.5141 31.4314 39.5428 31.3835 39.4901C31.7258 39.2005 32.2044 39.0474 32.4437 38.674C32.4901 38.6167 32.5206 38.5482 32.5322 38.4754V38.4634H32.5155C32.4386 38.4699 32.365 38.4972 32.3025 38.5424Z" fill="white"/>
<path fill-rule="evenodd" clip-rule="evenodd" d="M33.7026 39.4523C33.6916 39.4587 33.6795 39.4628 33.6669 39.4645C33.6543 39.4661 33.6415 39.4653 33.6292 39.4619C33.617 39.4586 33.6055 39.4528 33.5955 39.445C33.5855 39.4372 33.5772 39.4275 33.5709 39.4164C33.5557 39.3947 33.5487 39.3683 33.5513 39.3419C33.554 39.3155 33.566 39.291 33.5853 39.2728C33.671 39.1983 33.7805 39.1567 33.894 39.1555C33.9495 39.1579 34.0019 39.182 34.04 39.2225C34.0802 39.2662 34.1053 39.3215 34.1118 39.3805C34.1191 39.501 34.0925 39.6212 34.0352 39.7275C34.0116 39.7768 33.9827 39.8234 33.949 39.8663C33.9667 39.8873 33.9812 39.9107 33.9921 39.9358C34.0074 39.9779 34.0147 40.0226 34.0137 40.0674C34.0062 40.2566 33.9474 40.4402 33.8438 40.5987C33.594 40.9489 33.3059 41.27 32.9847 41.556L32.8435 41.6949C32.8337 41.7027 32.8225 41.7084 32.8105 41.7117C32.7984 41.7149 32.7858 41.7157 32.7735 41.7139C32.7611 41.7121 32.7493 41.7078 32.7387 41.7012C32.7281 41.6947 32.719 41.686 32.7118 41.6757C32.676 41.6278 32.7118 41.5943 32.7597 41.5584C32.8076 41.5225 32.8459 41.4747 32.9033 41.4196C33.1995 41.1312 33.462 40.81 33.6858 40.4623C33.7654 40.3409 33.8147 40.2022 33.8294 40.0578L33.638 40.1823C33.4441 40.3115 33.1952 40.4766 33.0947 40.5317C33.0541 40.558 32.999 40.5915 32.944 40.5317C33.2359 40.2086 33.6858 40.0339 33.8844 39.615C33.9278 39.543 33.9487 39.4597 33.9443 39.3757V39.3613H33.9299C33.8456 39.3632 33.7649 39.3955 33.7026 39.4523Z" fill="white"/>
<path fill-rule="evenodd" clip-rule="evenodd" d="M37.1106 33.2795C36.5746 34.4618 36.0409 35.5245 35.4498 36.5728C34.9904 37.3865 34.4926 38.1931 33.9303 39.0403C33.8657 39.136 34.038 39.1672 34.038 39.1121C34.4448 38.5138 35.0454 37.5804 35.6293 36.623C36.2459 35.6406 36.8052 34.6233 37.3045 33.5763C37.5789 33.5167 37.8484 33.4367 38.1109 33.337L37.7567 33.2867L37.3595 33.1575C37.2303 33.1934 37.1322 33.2341 37.1106 33.2795Z" fill="white"/>
<path fill-rule="evenodd" clip-rule="evenodd" d="M34.5235 36.2809C35.0787 35.3708 35.4896 34.3802 35.7415 33.3443C35.8157 33.2605 35.8516 33.1504 35.9641 33.0188L36.2728 32.6646L37.3784 31.6211L37.1725 31.6355L36.1794 32.5713L36.1603 32.5952C36.1542 32.5828 36.1452 32.5721 36.134 32.5641C36.1242 32.5582 36.1131 32.555 36.1017 32.555C36.0903 32.555 36.0791 32.5582 36.0694 32.5641C35.8636 32.6526 35.5908 32.8034 35.6266 33.0667C35.3067 34.1512 34.8626 35.1953 34.3033 36.178C33.877 36.9356 33.3195 37.6114 32.6569 38.1741C32.6449 38.1862 32.6382 38.2025 32.6382 38.2195C32.6382 38.2366 32.6449 38.2529 32.6569 38.265C32.6616 38.2723 32.6679 38.2784 32.6752 38.2831C32.6824 38.2878 32.6906 38.291 32.6992 38.2923C32.7077 38.2937 32.7165 38.2932 32.7249 38.291C32.7332 38.2887 32.7411 38.2848 32.7478 38.2794C33.4579 37.7285 34.0599 37.0509 34.5235 36.2809Z" fill="white"/>
<path fill-rule="evenodd" clip-rule="evenodd" d="M34.0519 36.3318C34.5923 35.3826 35.0226 34.3749 35.3346 33.3281C35.3346 32.9619 35.6313 32.7537 35.9352 32.6101C35.9771 32.5898 36.0227 32.5783 36.0692 32.5766L37.0456 31.6576L37.2849 31.6432L37.7348 31.1789L37.6032 31.2459L37.3351 31.3799L37.115 31.49L36.9283 31.2004L36.8494 31.2363C36.7567 31.2789 36.6596 31.311 36.5598 31.3321C36.4874 31.3468 36.4168 31.3692 36.3492 31.3991C36.2966 31.4206 36.22 31.4661 36.1697 31.4805L35.0019 31.8562L35.885 31.0377L35.5547 31.1382L35.794 30.7266L34.9469 31.2483L33.6044 32.9571L33.8437 32.1099L33.8246 32.1338C33.5853 32.4163 33.3675 32.7082 33.1282 32.9787L32.0992 34.1466L32.6831 32.6987C32.9439 32.04 33.2769 31.4123 33.6762 30.8271C33.897 30.5052 34.1368 30.1967 34.3941 29.9032L34.2146 29.9655C33.8987 30.0756 33.5757 30.2048 33.2574 30.2957C33.0923 30.3412 32.8793 30.4154 32.7788 30.1689C32.7566 30.1086 32.7557 30.0425 32.7761 29.9816C32.7966 29.9207 32.8372 29.8686 32.8913 29.8338L32.9343 29.8075L33.0229 29.7549C33.2622 29.5945 33.5398 29.4772 33.7863 29.3264C33.6427 29.3504 33.4967 29.3719 33.346 29.3911C33.1952 29.4102 33.1066 29.4174 33.0037 29.4413C32.8195 29.4796 32.6328 29.5442 32.4486 29.5658C32.4064 29.574 32.3629 29.5736 32.3209 29.5646C32.2788 29.5555 32.239 29.5381 32.2039 29.5133C32.1688 29.4884 32.1391 29.4567 32.1166 29.4201C32.094 29.3835 32.0792 29.3427 32.0729 29.3001L32.0513 29.2714V29.1733V29.123L31.8503 29.2499C31.5659 29.4411 31.2992 29.6573 31.0534 29.8961L29.8162 31.0927L30.6251 29.5801C30.8682 29.1035 31.1785 28.6643 31.5464 28.2758C31.8682 27.9512 32.2388 27.6791 32.6448 27.4692L31.1324 27.5267L32.5204 26.9451C33.2963 26.6225 34.0964 26.3616 34.9134 26.1648C35.4183 26.0404 35.9304 25.9375 36.4449 25.8513C35.2484 25.5593 33.949 25.1333 33.0564 24.3076C32.954 24.2186 32.8724 24.1084 32.8171 23.9845C32.798 23.9358 32.7909 23.8832 32.7963 23.8312C32.8017 23.7791 32.8195 23.7291 32.8482 23.6853C32.7475 23.6412 32.6617 23.5689 32.601 23.4773C32.5403 23.3856 32.5073 23.2783 32.506 23.1684C32.51 23.1219 32.5221 23.0766 32.5419 23.0344C32.2117 22.9291 31.8575 22.7496 31.824 22.4312C31.8207 22.3483 31.8364 22.2657 31.87 22.1897C31.9036 22.1138 31.9542 22.0466 32.0178 21.9933C31.9813 21.9528 31.9514 21.9067 31.9293 21.8568C31.91 21.8146 31.8987 21.7692 31.8958 21.7228C30.2668 21.5193 28.6832 21.0452 27.2102 20.3203C26.8919 20.1671 26.576 20.0044 26.2649 19.8416C25.2562 23.0701 25.4942 26.5594 26.9317 29.621C28.3693 32.6827 30.9021 35.0941 34.0304 36.3796L34.0519 36.3437V36.3318ZM30.1058 14.5954C31.3861 15.055 32.6831 15.4786 33.9705 15.8998C34.7363 16.1391 36.6029 16.7423 37.5601 17.3502C37.4955 17.2353 37.4213 17.1108 37.3734 17.0414C37.2251 16.8021 36.8685 16.2947 36.9882 16.0051C37.0219 15.9285 37.082 15.8666 37.1575 15.8306C37.2331 15.7946 37.319 15.7869 37.3998 15.8089C37.328 15.6724 37.249 15.5408 37.1796 15.414C37.0193 15.1316 36.646 14.5165 36.6364 14.2005C36.6301 14.1139 36.6576 14.0282 36.713 13.9612C36.6364 13.7027 36.5574 13.4466 36.4737 13.1906C36.2011 12.4165 36.0196 11.6133 35.9328 10.7972V10.747C33.5093 11.3419 31.2988 12.5989 29.5482 14.3777C29.7301 14.4542 29.9167 14.5284 30.1058 14.5954ZM43.5235 14.885C43.9064 15.5647 44.3515 16.321 44.5238 17.0845C44.6049 17.4131 44.6387 17.7516 44.6243 18.0897C44.6157 18.3853 44.5334 18.674 44.385 18.9298C43.8059 20.4902 43.0856 23.1253 43.6264 24.7743C43.6775 24.9371 43.75 25.0924 43.8418 25.2362C43.884 25.2995 43.9338 25.3574 43.9902 25.4086L44.1936 25.5785C44.8636 25.5904 45.5241 25.4086 45.9453 24.8413C45.9764 24.7982 46.0075 24.7528 46.0362 24.7049L46.2133 24.4081L46.2277 24.3435L46.2396 24.298L46.266 24.2574C46.3319 24.1561 46.3911 24.0505 46.4431 23.9414C47.161 22.3786 46.5986 20.4663 46.108 18.9154C45.9433 18.3658 45.8138 17.8062 45.7204 17.2401C45.6853 16.9555 45.7223 16.6666 45.828 16.4L45.0647 16.7925L45.5696 15.9668C45.8974 15.4283 46.2133 15.3063 46.723 15.0334C47.1394 14.8108 47.8262 14.6313 48.2115 15.0119L48.2737 15.0717V15.0885L49.0754 14.7103C47.1732 12.6436 44.6736 11.2221 41.925 10.644C42.0088 11.1227 42.1045 11.6014 42.1978 12.08C42.4945 13.1164 42.9995 13.9588 43.5235 14.885ZM47.6156 16.9625L47.6324 16.8883C48.0966 16.5819 48.111 16.4886 48.3503 16.0434L49.6354 15.3254C51.4257 17.5231 52.4796 20.2283 52.6479 23.0581C52.8163 25.8879 52.0905 28.699 50.5733 31.0935C49.0561 33.4881 46.8243 35.3447 44.1939 36.4008C41.5635 37.4568 38.6676 37.6587 35.9161 36.978C36.5082 36.054 37.0436 35.0949 37.5194 34.1059C37.763 34.0463 38.0027 33.972 38.2373 33.8834L38.7375 33.4382C39.5344 33.0888 40.1996 32.5263 40.8912 31.9878L41.0252 31.8825L41.1736 31.8083L41.2071 31.9567L42.3533 31.4781L45.1341 30.9994C45.6833 30.875 46.1767 30.574 46.5388 30.1426C46.8877 29.7577 47.1824 29.3269 47.4146 28.8621L47.4577 28.7808V28.764C47.7477 28.3661 47.9059 27.8874 47.91 27.395C48.5585 26.7321 48.6566 25.8561 48.6614 24.949C48.6614 23.6303 48.257 22.0435 47.8573 20.7942C47.6501 20.2214 47.5026 19.6287 47.417 19.0255C47.3333 18.195 47.4481 17.7499 47.6276 16.9553L47.6156 16.9625ZM38.0866 31.8227C38.2874 31.7819 38.4832 31.7193 38.6705 31.636L38.7016 31.6217L39.4362 31.0473C39.3905 31.2041 39.3561 31.3641 39.3333 31.5259L39.3022 31.7653C39.125 31.9987 38.9272 32.2158 38.7111 32.4139C38.4179 32.69 38.0971 32.9354 37.7539 33.1462L37.6199 33.2252L37.3806 33.1414L37.2969 33.1678C37.2078 33.1821 37.123 33.2157 37.0482 33.2661C36.9734 33.3165 36.9104 33.3826 36.8637 33.4597C36.3516 34.5703 35.8132 35.6664 35.2125 36.7314C35.2007 36.749 35.1903 36.7674 35.1814 36.7865C35.0474 36.7434 34.9158 36.7027 34.7866 36.6572C35.3257 35.7518 35.7289 34.7721 35.9831 33.7493C36.0453 33.6608 36.0908 33.5627 36.1602 33.4789L36.4473 33.1438L37.8018 31.8706C37.9023 31.8562 37.9956 31.8418 38.0866 31.8227Z" fill="#E3000F"/>
<path fill-rule="evenodd" clip-rule="evenodd" d="M48.2929 15.0676L53 12.8514L48.3384 15.441L48.2929 15.0676ZM48.0201 14.9049C47.843 14.7278 47.4266 14.7254 46.8499 14.9719C46.4957 15.2112 46.1152 15.2926 45.8017 15.8071C46.0004 15.7042 46.1798 15.5463 46.3785 15.4434C46.2804 15.579 46.2149 15.7354 46.187 15.9005C46.388 15.8478 46.7949 15.9005 47.094 15.7593C47.4066 15.6137 47.6929 15.4172 47.9411 15.1777C47.9772 15.1433 48.0035 15.0999 48.0174 15.0519C48.0313 15.004 48.0322 14.9533 48.0201 14.9049ZM33.8246 20.4383C33.9897 20.826 34.4396 21.3956 35.1958 22.0322C35.2078 22.0443 35.2145 22.0607 35.2145 22.0777C35.2145 22.0947 35.2078 22.1111 35.1958 22.1232C35.19 22.1294 35.1829 22.1344 35.1751 22.1378C35.1673 22.1412 35.1589 22.1429 35.1503 22.1429C35.1418 22.1429 35.1334 22.1412 35.1255 22.1378C35.1177 22.1344 35.1107 22.1294 35.1049 22.1232C34.3391 21.4913 33.8796 20.893 33.7025 20.4837C33.6475 20.3521 33.5087 20.2229 33.5111 20.1319C33.5135 20.041 33.669 19.9668 33.7504 19.9261C33.9275 19.8423 32.8147 19.3062 33.1354 18.8898C33.2383 18.7702 33.3594 18.6676 33.4943 18.5858H33.5135C33.5326 18.5858 33.535 18.5595 33.5255 18.5475C33.3484 18.2819 32.7597 18.1143 32.6687 17.9468C32.3983 17.5639 33.0062 17.5471 32.9248 17.4681C32.7525 17.3006 32.1183 17.279 30.7208 16.6161C29.9889 16.2271 29.2852 15.7873 28.6149 15.2998C28.6006 15.29 28.5906 15.2751 28.587 15.2581C28.5835 15.2412 28.5866 15.2235 28.5958 15.2088C28.6006 15.2017 28.6068 15.1955 28.614 15.1908C28.6212 15.1861 28.6293 15.1828 28.6377 15.1813C28.6462 15.1797 28.6549 15.1799 28.6633 15.1817C28.6717 15.1836 28.6797 15.1871 28.6867 15.1921C29.3526 15.6282 30.0483 16.0168 30.7687 16.3552C31.5153 16.7094 32.3313 17.0421 33.2526 17.3867C33.322 17.4131 33.3364 17.4538 33.3173 17.5088C33.2981 17.5639 33.2287 17.6045 33.1521 17.6548C33.0756 17.7051 32.9535 17.7888 32.9655 17.8152C33.0988 17.9663 33.2617 18.0885 33.4441 18.1742C33.6072 18.2459 33.7551 18.3483 33.8796 18.4757C33.8943 18.4922 33.9048 18.512 33.9103 18.5334C33.9157 18.5548 33.916 18.5772 33.9111 18.5987C33.9062 18.6203 33.8962 18.6403 33.882 18.6572C33.8678 18.6741 33.8497 18.6874 33.8294 18.6959H33.8126C33.6915 18.7679 33.5812 18.8565 33.4848 18.9592C33.3388 19.1482 33.3867 19.4187 34.04 19.9165C34.0462 19.9223 34.0512 19.9294 34.0546 19.9372C34.058 19.945 34.0597 19.9535 34.0597 19.962C34.0597 19.9705 34.058 19.9789 34.0546 19.9868C34.0512 19.9946 34.0462 20.0016 34.04 20.0075C34.0324 20.0176 34.022 20.0252 34.01 20.0295C33.9981 20.0337 33.9852 20.0344 33.973 20.0314C33.9187 20.0126 33.8597 20.0126 33.8054 20.0314C33.7872 20.0423 33.7725 20.0583 33.7632 20.0774C33.7538 20.0966 33.7502 20.118 33.7528 20.1391C33.7543 20.2357 33.7781 20.3307 33.8222 20.4167L33.8246 20.4383ZM27.3275 19.7825C25.6414 18.948 24.0557 17.9243 22.6012 16.731L21.9001 15.7377L22.7807 16.1279C22.7918 16.137 22.8058 16.142 22.8202 16.142C22.8346 16.142 22.8486 16.137 22.8597 16.1279C22.8717 16.1158 22.8784 16.0994 22.8784 16.0824C22.8784 16.0653 22.8717 16.049 22.8597 16.0369L21.9743 15.1968H21.9599C21.5892 15.0034 21.2757 14.7163 21.0505 14.364C21.0158 14.3059 20.996 14.2401 20.9931 14.1725C20.9921 14.156 20.9958 14.1396 21.0039 14.1251C21.012 14.1107 21.024 14.0989 21.0386 14.0911C21.1387 14.057 21.2472 14.057 21.3473 14.0911C21.3601 14.0948 21.3738 14.0942 21.3863 14.0894C21.3988 14.0847 21.4095 14.0761 21.4167 14.0648C21.4215 14.0576 21.4249 14.0495 21.4266 14.041C21.4282 14.0325 21.4282 14.0237 21.4264 14.0153C21.4246 14.0068 21.4211 13.9987 21.4162 13.9916C21.4112 13.9845 21.4049 13.9785 21.3975 13.9738C21.1126 13.8117 20.8543 13.6067 20.6318 13.3659C20.5648 13.2582 20.6868 13.1864 21.1726 13.1912C21.1866 13.1955 21.2016 13.1955 21.2157 13.1912C21.2296 13.1884 21.2423 13.1813 21.2519 13.1709C21.2615 13.1604 21.2675 13.1472 21.2691 13.133C21.2707 13.1189 21.2678 13.1047 21.2608 13.0923C21.2537 13.08 21.243 13.0702 21.23 13.0644C20.897 12.5953 20.6116 12.0942 20.3781 11.5685C20.1997 11.164 20.0726 10.7386 20 10.3025C20.1688 10.4969 20.3503 10.68 20.5432 10.8505C20.809 11.0879 21.0948 11.3017 21.3975 11.4896C21.4077 11.4954 21.4193 11.4985 21.431 11.4985C21.4428 11.4985 21.4544 11.4954 21.4645 11.4896C21.4799 11.4814 21.4916 11.4677 21.4973 11.4513C21.5031 11.4349 21.5025 11.417 21.4956 11.401L20.4475 9.24701L21.644 9.92193C21.6571 9.92828 21.6719 9.93022 21.6861 9.92743C21.7004 9.92465 21.7134 9.9173 21.7231 9.90649C21.7328 9.89568 21.7388 9.882 21.7401 9.86752C21.7413 9.85304 21.7379 9.83853 21.7302 9.82619C21.4035 9.39152 21.1191 8.92671 20.8806 8.43806C20.69 8.04914 20.5446 7.63958 20.4475 7.21746C20.8328 7.598 21.9025 8.90476 22.5199 9.66105C22.7329 9.91953 22.8932 10.1158 22.9578 10.19C22.9636 10.1962 22.9707 10.2012 22.9785 10.2046C22.9863 10.208 22.9947 10.2097 23.0033 10.2097C23.0118 10.2097 23.0202 10.208 23.028 10.2046C23.0359 10.2012 23.0429 10.1962 23.0487 10.19C23.0607 10.1779 23.0674 10.1615 23.0674 10.1445C23.0674 10.1275 23.0607 10.1111 23.0487 10.099L22.6156 9.5725C21.9623 8.77552 20.8112 7.36824 20.4619 7.04753C20.5564 7.05584 20.6459 7.09349 20.7179 7.15523C21.5555 7.79904 22.3404 8.75637 23.111 9.5366L23.3191 9.82859C24.3013 11.1866 25.4457 12.4195 26.7268 13.5C27.0547 13.7728 27.4782 14.0792 27.8396 14.3424C28.247 14.6495 28.6747 14.9286 29.1199 15.1777C30.3164 15.9148 31.6732 16.3959 33.188 16.853C33.4776 16.944 33.7719 17.0277 34.0711 17.1091C34.3702 17.1905 34.6645 17.2671 34.9637 17.3485C34.972 17.351 34.9808 17.3517 34.9894 17.3506C34.998 17.3495 35.0063 17.3466 35.0138 17.3421C35.0212 17.3376 35.0276 17.3315 35.0326 17.3244C35.0376 17.3172 35.041 17.3091 35.0426 17.3006C35.0448 17.2923 35.0452 17.2836 35.044 17.2751C35.0427 17.2666 35.0398 17.2584 35.0353 17.251C35.0309 17.2437 35.025 17.2373 35.018 17.2322C35.0111 17.2272 35.0032 17.2236 34.9948 17.2216C34.6957 17.1498 34.3989 17.0732 34.1046 16.9823C33.8102 16.8913 33.5183 16.8171 33.2263 16.7262C31.7863 16.3065 30.4031 15.7117 29.1079 14.9551C28.7107 14.7158 28.3326 14.4597 27.9736 14.2012C27.6146 13.9427 27.2677 13.6699 26.9398 13.3994C25.8118 12.4534 24.7882 11.3895 23.8863 10.2259C23.9762 10.3133 24.073 10.3934 24.1759 10.4652C24.4667 10.6343 24.7346 10.8402 24.9727 11.0779C25.0972 11.2024 25.2479 11.3005 25.3796 11.4273C26.0111 12.0508 26.6843 12.6305 27.3945 13.1625C28.1997 13.7533 29.0864 14.2241 30.0268 14.5602C31.4627 15.0724 32.7645 15.4984 33.8988 15.867C36.0525 16.5658 37.395 17.1235 37.8018 17.5806C38.7461 19.5483 39.8347 21.4434 41.0587 23.2504C42.0542 24.6386 43.0737 25.5193 43.7988 25.5361C45.0599 25.7754 45.7802 25.2154 46.1535 24.7128C46.1918 24.6601 46.2277 24.6075 46.2588 24.5548C46.1248 25.3302 46.1559 25.9022 46.3186 26.2301C46.3537 26.3069 46.4015 26.3773 46.4598 26.4384C46.4963 26.4763 46.5382 26.5086 46.5843 26.5341C46.4359 26.8333 46.5316 27.3167 46.7805 27.8289C46.8307 27.9342 46.8882 28.0395 46.9504 28.1472C47.0126 28.2549 47.0724 28.3435 47.1395 28.4416C46.9187 28.8837 46.6385 29.2936 46.3067 29.6598C45.9686 30.0289 45.5357 30.298 45.0551 30.4376L41.9777 30.9689C41.0205 30.8804 40.9367 30.172 41.0205 29.3487C41.0372 29.1524 41.0659 28.9466 41.0922 28.7407C41.1186 28.5349 41.1497 28.3004 41.1688 28.0922C41.1693 28.08 41.1667 28.0679 41.1613 28.057C41.1559 28.0461 41.1477 28.0368 41.1377 28.0299C41.1227 28.021 41.1049 28.0182 41.0879 28.0222C41.0709 28.0262 41.0561 28.0367 41.0468 28.0515C40.9654 28.1807 40.8793 28.2429 40.7859 28.2358H40.7692C40.4174 28.3028 40.1901 27.9964 39.8646 28.0227C39.7426 28.0227 39.5774 28.365 39.4291 28.3698L39.5296 27.9103C39.2903 27.9103 38.6657 28.3506 38.4312 28.3889C38.3307 28.4057 39.1012 27.5082 39.0366 27.4938C38.972 27.4795 38.0794 28.2836 38.0315 28.2812C37.8688 28.2812 37.9215 28.2621 37.7922 28.2334C37.7922 28.2334 37.8784 28.1017 37.7922 28.0203C37.7061 27.939 37.4596 28.1328 37.3136 28.1424L37.2634 28.1209H37.2466H37.2299C37.2175 28.0893 37.2175 28.0543 37.2299 28.0227C37.2658 27.8863 37.7085 27.5967 37.4692 27.6494C37.4046 27.6637 37.3088 27.7164 37.2538 27.7212C37.0648 27.7427 36.8231 27.9605 36.634 27.9605C36.4389 27.9251 36.2462 27.8771 36.0573 27.8169C36.0788 27.781 36.0956 27.7379 36.1339 27.7355C36.2182 27.6876 36.2936 27.6252 36.3564 27.5513C36.5957 27.2688 36.1602 27.5034 35.9783 27.5034C35.7609 27.4853 35.554 27.4019 35.3848 27.2641C35.3585 27.2258 35.3346 27.1564 35.3035 27.1013C35.3067 27.0883 35.3107 27.0755 35.3154 27.063C35.7779 26.8031 36.2576 26.5752 36.7513 26.3809C36.9403 26.3067 38.3761 25.9573 38.4025 25.9022C38.4055 25.8942 38.407 25.8857 38.4067 25.8771C38.4064 25.8686 38.4044 25.8601 38.4009 25.8523C38.3973 25.8445 38.3922 25.8375 38.3859 25.8317C38.3796 25.8259 38.3722 25.8214 38.3642 25.8185C38.1529 25.737 37.9372 25.6675 37.7181 25.6103C37.7157 25.5929 37.7066 25.5771 37.6927 25.5664C37.6788 25.5556 37.6613 25.5508 37.6439 25.5528L37.541 25.5672C37.34 25.5169 37.1318 25.4691 36.9188 25.4212C35.6648 25.1364 34.1835 24.7343 33.2239 23.844C33.1513 23.7832 33.0919 23.7083 33.0492 23.6238C33.0492 23.5927 33.0492 23.5711 33.0684 23.5592C33.2146 23.5253 33.367 23.5294 33.5111 23.5711C33.5263 23.5744 33.5421 23.5721 33.5558 23.5646C33.5694 23.5572 33.5799 23.545 33.5853 23.5304C33.5907 23.5139 33.5895 23.496 33.5819 23.4803C33.5743 23.4647 33.5609 23.4526 33.5446 23.4467C32.7573 23.1667 32.5682 22.9321 32.9822 22.743C32.9919 22.7393 33.0005 22.7331 33.0072 22.7252C33.0138 22.7172 33.0184 22.7077 33.0205 22.6976C33.0227 22.6892 33.0231 22.6806 33.0219 22.6721C33.0206 22.6635 33.0177 22.6554 33.0132 22.648C33.0087 22.6407 33.0029 22.6343 32.9959 22.6292C32.9889 22.6242 32.981 22.6205 32.9727 22.6186C32.0474 22.4032 31.8495 22.1319 32.3792 21.8048L32.4007 21.7857C32.4056 21.7785 32.409 21.7704 32.4106 21.7619C32.4123 21.7534 32.4122 21.7447 32.4104 21.7362C32.4087 21.7277 32.4052 21.7196 32.4002 21.7125C32.3953 21.7054 32.3889 21.6994 32.3816 21.6948C32.2963 21.6473 32.2253 21.5779 32.1758 21.4937C32.1638 21.4673 32.1606 21.4377 32.1667 21.4092C32.1727 21.3808 32.1876 21.3551 32.2093 21.3358C32.2196 21.3247 32.2256 21.3102 32.226 21.2951C32.227 21.2867 32.2263 21.2782 32.2239 21.2701C32.2215 21.2621 32.2176 21.2546 32.2122 21.2481C32.2068 21.2416 32.2002 21.2362 32.1927 21.2324C32.1852 21.2285 32.177 21.2263 32.1686 21.2257C30.4815 21.0482 28.8396 20.5708 27.3203 19.816L27.3275 19.7825ZM41.9322 11.8557C41.5445 10.0296 41.2406 8.36147 41.3507 6.5904C41.4608 4.81933 41.9801 2.96928 43.2484 0.769802C43.375 0.578706 43.4635 0.364989 43.5092 0.140354C43.5092 0.0709473 43.3967 0.0805207 43.1072 0.236088C42.7058 0.440897 42.3326 0.696708 41.9968 0.997169C41.6792 1.28843 41.408 1.62662 41.1927 1.99998L41.0061 2.32547L41.0587 1.9569C41.1024 1.79068 41.1138 1.61762 41.0922 1.44712C41.0779 1.40404 41.0157 1.43036 40.8673 1.56918L39.173 3.9338L38.3785 4.94139C37.7943 5.75771 37.3867 6.68699 37.182 7.6698C36.9869 8.64999 36.9489 9.65499 37.0695 10.6471L37.1126 11.042L36.9451 10.683C36.6484 10.0416 36.4115 9.62515 36.2727 9.55814C36.1841 9.51745 36.1554 9.79747 36.2128 10.482C36.2912 11.2828 36.4722 12.0703 36.7513 12.825C36.8494 13.1314 36.9451 13.4401 37.0336 13.7561L37.0576 13.8374H36.9738C36.9379 13.8374 36.9236 13.8638 36.9236 13.9044C36.9236 14.1079 37.1844 14.5554 37.4333 14.9934C37.5958 15.2641 37.7412 15.5447 37.8688 15.8335L37.9263 15.9771L37.7851 15.9196C37.4309 15.7736 37.2825 15.7593 37.2562 15.8215C37.2083 15.9388 37.4165 16.2762 37.6223 16.6137C37.7749 16.8373 37.9002 17.0784 37.9956 17.3317L37.931 17.3485H37.8904C37.9382 17.3863 37.9831 17.4279 38.0244 17.4729C39.6349 20.68 41.1114 23.1691 42.3318 24.4136C42.2696 24.3107 42.1739 24.1144 42.0925 23.9349C42.0303 23.8057 41.9753 23.6956 41.9561 23.6573C41.656 23.0851 41.443 22.4712 41.3244 21.836C41.2327 21.4089 41.1104 20.9889 40.9582 20.5795C40.9392 20.4783 40.9422 20.3742 40.967 20.2742C40.9918 20.1743 41.0378 20.0809 41.1018 20.0003C41.121 19.9716 41.1353 19.9452 41.1449 19.9285C41.0372 19.8926 40.9391 19.7226 40.8769 19.591C40.8625 19.5647 40.8505 19.5384 40.841 19.5168C40.8314 19.4953 40.8266 19.4761 40.8194 19.4618C40.8003 19.4115 40.8338 19.3804 40.8817 19.3397C40.9148 19.3161 40.9425 19.2858 40.9631 19.2507C40.9838 19.2157 40.9968 19.1767 41.0013 19.1363C41.0004 18.9474 40.9763 18.7593 40.9295 18.5762C40.9055 18.4961 40.8918 18.4133 40.8888 18.3297H40.9343H40.9798C40.9847 18.4106 40.9975 18.4907 41.0181 18.5691C41.0647 18.7611 41.0896 18.9578 41.0922 19.1554C41.087 19.208 41.0706 19.2589 41.0442 19.3047C41.0178 19.3505 40.982 19.3902 40.9391 19.4211C40.9199 19.4378 40.9008 19.4331 40.9032 19.4402L40.9247 19.4905L40.9558 19.5623C41.0157 19.6867 41.109 19.8519 41.1808 19.8519C41.2526 19.8519 41.2454 19.8734 41.2454 19.9141C41.234 19.9663 41.2111 20.0154 41.1784 20.0577C41.0994 20.1893 40.9774 20.3928 41.0396 20.5555C41.2214 20.9371 41.375 21.3314 41.4991 21.7354C41.7384 22.7406 41.9226 23.6884 42.631 24.5309C42.9708 24.9353 43.2173 25.2872 43.8275 25.3111C43.7507 25.2462 43.6838 25.1704 43.6289 25.0861C43.525 24.9209 43.4444 24.7421 43.3896 24.5548C43.033 23.4706 43.0426 21.4004 44.1577 18.5116C44.2888 18.2892 44.3621 18.0373 44.3707 17.7793C44.3824 17.4676 44.3502 17.1558 44.275 16.853C44.1218 16.1757 43.7389 15.4984 43.3034 14.7254C42.7557 13.8164 42.3019 12.8541 41.9489 11.8534L41.9322 11.8557Z" fill="white"/>
<path fill-rule="evenodd" clip-rule="evenodd" d="M3.79794 40.1733H6.77878V40.6388H6.15968V43.6043H6.24121C6.58824 42.9153 6.82716 42.4251 6.95797 42.1335C7.19988 41.6338 7.39251 41.2604 7.53497 41.0089C7.68913 40.7465 7.89154 40.5125 8.13257 40.3182C8.38231 40.1094 8.70506 39.9968 9.03748 40.0027C9.37513 39.9985 9.70928 40.0682 10.0141 40.2065C9.99025 40.3116 9.95698 40.4146 9.91462 40.5143C9.85623 40.6411 9.80801 40.772 9.77037 40.9057C9.74281 41.0751 9.72665 41.2459 9.72199 41.4173C9.72199 41.4684 9.71392 41.5247 9.71034 41.5878C9.70676 41.6509 9.70317 41.7089 9.69779 41.7583H9.4747C9.35275 41.7155 9.23314 41.6668 9.11632 41.6125C8.93118 41.5247 8.72738 41.4783 8.52051 41.4769C8.32242 41.4805 8.13203 41.5506 7.98294 41.6748C7.81092 41.8069 7.62456 42.0388 7.41939 42.3731C7.14754 42.8305 6.90373 43.3025 6.68919 43.7867C7.1841 43.8636 7.66291 44.0153 8.10748 44.2361C8.58532 44.4663 9.00134 44.8576 9.35554 45.4101C9.70974 45.9626 9.88893 46.6968 9.89311 47.6125H10.5785V48.0883H7.38355V47.6125H7.91037C7.91037 46.7712 7.82645 46.0937 7.65861 45.5798C7.49017 45.0682 7.27514 44.6948 7.01262 44.4714C6.77956 44.257 6.47957 44.1205 6.15789 44.0826V47.6159H6.7313V48.0917H3.84274V47.6159H4.41615V44.0792C4.09264 44.1163 3.79068 44.2528 3.55604 44.468C3.29352 44.6948 3.08029 45.0648 2.91185 45.5815C2.74341 46.0982 2.66008 46.7752 2.66008 47.6125H3.19497V48.0883H0V47.6125H0.6863C0.6863 46.2949 1.02049 45.357 1.68887 44.7988C2.30462 44.264 3.07088 43.9117 3.89381 43.785C3.67831 43.3001 3.43453 42.827 3.16361 42.3679C2.95754 42.0337 2.7676 41.8001 2.59916 41.6696C2.44978 41.5461 2.25944 41.4767 2.06159 41.4735C1.85476 41.4752 1.65102 41.5215 1.46578 41.6091C1.35946 41.6586 1.24 41.7072 1.1074 41.7549H0.874451C0.874451 41.7055 0.867282 41.6492 0.863699 41.5844C0.860115 41.5196 0.856532 41.4659 0.852052 41.4139C0.847804 41.2375 0.830439 41.0617 0.800087 40.8878C0.764962 40.759 0.718507 40.6332 0.661214 40.5118C0.619013 40.4117 0.584576 40.3088 0.55818 40.204C0.864233 40.0656 1.19955 39.9959 1.53835 40.0002C1.87121 39.9948 2.19431 40.1073 2.44506 40.3157C2.68608 40.51 2.88849 40.7439 3.04266 41.0063C3.18511 41.2578 3.37774 41.6313 3.61965 42.1309C3.73433 42.3824 3.97355 42.871 4.33641 43.6017H4.41347V40.6388H3.79526V40.1733H3.79794ZM15.6926 48.0883H15.1111C15.0834 48.4464 15.0646 48.7371 15.0547 48.9579V49.4695C15.063 49.8614 15.1082 50.2518 15.19 50.6359V50.919L14.1444 50.9983C14.147 50.2711 14.1987 49.5449 14.2994 48.8241C14.3179 48.6592 14.3478 48.414 14.389 48.0883H13.3658L11.5784 40.6388H11.1179V40.1733H14.1417V40.6388H13.3658L14.7689 46.6729C15.2772 44.306 15.6977 42.5885 16.0304 41.5204C16.1104 41.2638 16.2092 41.0128 16.3261 40.7693C16.4285 40.5608 16.5781 40.3765 16.7642 40.2295C16.9664 40.0739 17.2211 39.9934 17.4809 40.0027C17.6678 40.0076 17.8531 40.0363 18.032 40.088C18.2497 40.1468 18.3903 40.2244 18.4495 40.3165C18.4286 40.4333 18.3947 40.5477 18.3482 40.6576C18.2929 40.7806 18.257 40.9108 18.2416 41.0438C18.2177 41.3183 18.2085 41.5938 18.2138 41.8692H18.0436C17.9997 41.8461 17.9701 41.8308 17.954 41.824C17.9379 41.8171 17.8994 41.7975 17.842 41.7651C17.6315 41.6534 17.4783 41.5946 17.3806 41.5946C17.1106 41.5946 16.8702 41.7518 16.6594 42.0661C16.4264 42.4292 16.2456 42.8203 16.1218 43.2291C15.9778 43.6895 15.8536 44.1775 15.7491 44.6931C15.6445 45.2086 15.5615 45.6176 15.5 45.92C15.3369 46.701 15.2133 47.2621 15.1291 47.6074H15.6926V48.0831V48.0883ZM21.6848 45.0648V47.6125H22.6174V48.0883H19.0094V47.6125H19.9421V43.4695C19.9421 42.8795 19.9535 42.3054 19.9762 41.7472C20.1805 41.2239 20.5545 40.7759 21.0441 40.4683C21.5291 40.1591 22.1009 39.9965 22.6846 40.0019C23.2134 39.9895 23.7381 40.0916 24.2194 40.3003C24.6151 40.4721 24.9497 40.7499 25.1823 41.0996C25.4149 41.4494 25.5355 41.856 25.5293 42.2699C25.5346 42.655 25.4502 43.0365 25.282 43.3868C25.133 43.7035 24.8976 43.9765 24.6002 44.1772C24.3156 44.3666 23.9762 44.467 23.629 44.4646C23.4801 44.47 23.3315 44.4489 23.1908 44.4023C23.0842 44.3605 22.9221 44.283 22.7052 44.1721C22.5897 44.1116 22.5072 44.0698 22.458 44.0476L21.6848 45.0648ZM21.6848 44.3827L22.4015 43.4653C22.4708 43.5205 22.5476 43.5664 22.63 43.6017C22.6877 43.6307 22.7506 43.6493 22.8154 43.6563C22.9946 43.6563 23.1613 43.5568 23.3154 43.3579C23.4695 43.1589 23.5471 42.7866 23.5483 42.2409C23.5483 41.6952 23.482 41.2655 23.3494 40.9483C23.2958 40.8037 23.1941 40.6798 23.0597 40.5951C22.9254 40.5105 22.7657 40.4699 22.6049 40.4794C22.4839 40.4721 22.3632 40.4958 22.2551 40.548C22.147 40.6002 22.0556 40.6789 21.9903 40.7761C21.8492 40.9966 21.7639 41.2453 21.7412 41.5025C21.7027 41.8623 21.6854 42.2238 21.6892 42.5854V44.387L21.6848 44.3827ZM29.1283 40.4794H28.2628V40.0027H31.7571V40.4794H30.8674L32.9406 47.6142H33.7165V48.0883H30.3423V47.6142H31.1971L30.354 44.6811C30.2664 45.0882 30.143 45.4875 29.9849 45.8748C29.8238 46.2841 29.6203 46.6771 29.3774 47.048C29.1678 47.3771 28.9012 47.67 28.589 47.9143C28.3388 48.1185 28.0224 48.2344 27.693 48.2426C27.5283 48.245 27.3648 48.216 27.212 48.1574C27.0593 48.0989 26.9203 48.0119 26.8033 47.9015C26.5578 47.6742 26.4348 47.3345 26.4342 46.8826C26.4455 46.4292 26.5364 45.9808 26.703 45.5559C26.8869 45.0547 27.1128 44.5682 27.3785 44.1013C27.6563 43.6119 27.977 43.091 28.3399 42.5342C28.3623 42.4984 28.4752 42.3287 28.6777 42.0226C28.8288 41.8037 28.9595 41.5726 29.0683 41.332C29.1332 41.1686 29.1657 40.9951 29.1642 40.8204C29.1626 40.706 29.1506 40.5919 29.1283 40.4794ZM30.0243 43.6068L29.5181 41.8061C29.1234 42.353 28.7643 42.9225 28.4429 43.5113C28.2473 43.8607 28.0702 44.2193 27.9125 44.5856C27.7712 44.9234 27.6807 45.2785 27.6437 45.6404V45.9362C27.7002 46.3037 27.9125 46.4887 28.2826 46.4887C28.5657 46.4887 28.833 46.3202 29.0844 45.9831C29.3516 45.6154 29.5627 45.2135 29.7116 44.7894C29.8593 44.4045 29.9656 44.0062 30.0288 43.6009L30.0243 43.6068ZM35.0416 47.6142V44.0246C35.0416 43.1242 35.124 42.3867 35.2907 41.8078C35.4573 41.2288 35.7584 40.7846 36.1992 40.4717C36.64 40.1588 37.2636 40.0036 38.0637 40.0036C38.3986 39.9993 38.7319 40.0492 39.0492 40.1511C39.3212 40.2375 39.5723 40.3749 39.7875 40.5553C39.9824 40.7176 40.1388 40.9176 40.2462 41.1419C40.3484 41.3579 40.4012 41.5922 40.4012 41.8291C40.4012 42.3876 40.222 42.7968 39.8753 43.0518C39.5232 43.309 39.0898 43.4449 38.646 43.4371C38.3235 43.4371 37.983 43.3155 37.6247 43.0722L37.1301 43.6972C37.3663 43.8927 37.6233 44.0641 37.897 44.2088C38.1369 44.3343 38.3933 44.429 38.6595 44.4901C38.9367 44.5494 39.2202 44.578 39.5044 44.5754H39.6056C39.7842 44.5669 39.9625 44.596 40.1279 44.6607C40.1815 44.6839 40.2291 44.7179 40.2676 44.7603C40.3061 44.8027 40.3346 44.8524 40.351 44.9062C40.3897 45.0586 40.4065 45.2152 40.4012 45.3718V47.1725C40.4012 47.2118 40.4012 47.2578 40.3958 47.2987C40.3905 47.3396 40.3905 47.4027 40.3905 47.4778C40.3923 47.5964 40.3766 47.7146 40.3439 47.8291C40.3239 47.8744 40.2937 47.9149 40.2555 47.9479C40.2173 47.9809 40.1719 48.0055 40.1226 48.02C39.9298 48.0762 39.7281 48.0999 39.5268 48.09H34.1053V47.6142H35.0416ZM36.7834 47.6142H38.1649C38.3519 47.6142 38.4809 47.5664 38.552 47.471C38.6254 47.3746 38.6613 47.1708 38.6613 46.8571V45.5781C38.6705 45.4499 38.6439 45.3216 38.5842 45.2064C38.5331 45.1288 38.397 45.0307 38.1757 44.9079C37.7826 44.6902 37.4971 44.5217 37.3191 44.4023C37.1192 44.2612 36.9386 44.0968 36.7816 43.9129V47.6142H36.7834ZM36.7834 43.5147L37.4338 42.6203C37.6641 42.7491 37.8388 42.813 37.9526 42.813C38.112 42.813 38.27 42.7243 38.4265 42.547C38.5824 42.3679 38.6613 42.0695 38.6613 41.6466C38.6613 41.2487 38.5768 40.9543 38.4077 40.7633C38.3313 40.6729 38.2342 40.6003 38.1238 40.5511C38.0133 40.5019 37.8926 40.4774 37.7707 40.4794C37.3738 40.4794 37.1113 40.6849 36.9823 41.0984C36.8532 41.5119 36.7816 42.061 36.7708 42.7457C36.7708 42.8463 36.7708 42.9708 36.7762 43.12C36.7816 43.2692 36.7834 43.4013 36.7834 43.5139V43.5147ZM45.9095 48.09H45.3254C45.2976 48.4481 45.2788 48.7388 45.2689 48.9597V49.4712C45.2772 49.8631 45.3225 50.2535 45.4042 50.6376V50.9207L44.3586 51C44.3612 50.2728 44.4129 49.5466 44.5136 48.8258C44.5327 48.6609 44.5626 48.4157 44.6032 48.09H43.5827L41.7953 40.6388H41.3348V40.1733H44.3586V40.6388H43.5827L44.9858 46.6729C45.4935 44.3043 45.914 42.5868 46.2473 41.5204C46.3274 41.2638 46.4261 41.0128 46.543 40.7693C46.6454 40.5608 46.795 40.3765 46.9811 40.2295C47.1833 40.0739 47.438 39.9934 47.6979 40.0027C47.8847 40.0076 48.07 40.0362 48.2489 40.088C48.4666 40.1468 48.6073 40.2244 48.6664 40.3165C48.6456 40.4333 48.6116 40.5477 48.5651 40.6576C48.5098 40.7806 48.4739 40.9108 48.4585 41.0438C48.4346 41.3183 48.4254 41.5938 48.4307 41.8692H48.2614C48.2175 41.8461 48.1879 41.8308 48.1718 41.824C48.1557 41.8171 48.1181 41.7975 48.0598 41.7651C47.8493 41.6534 47.6961 41.5946 47.5984 41.5946C47.329 41.5946 47.0901 41.7518 46.8816 42.0661C46.6487 42.4292 46.4679 42.8203 46.3441 43.2291C46.2001 43.6895 46.0759 44.1775 45.9713 44.6931C45.8668 45.2086 45.7838 45.6176 45.7223 45.92C45.5592 46.701 45.4356 47.2621 45.3514 47.6074H45.9149V48.0831L45.9095 48.09ZM51.8676 47.6142H54.1389V40.6499H53.3612V40.1733H56.6547V40.6499H55.877V47.6142H58.1482V40.6499H57.3706V40.1733H60.8236V40.6499H59.8945V47.6142H60.8272V48.09H49.1923V47.6142H50.125V40.6499H49.1923V40.1733H52.6453V40.6499H51.8676V47.6142ZM64.3456 43.6588H64.7595L64.9172 43.3434C64.9858 43.2106 65.0457 43.0739 65.0964 42.9341C65.1564 42.813 65.1994 42.7243 65.2272 42.6681C65.255 42.6118 65.2908 42.5393 65.3338 42.4489C65.464 42.1829 65.6059 41.8953 65.7594 41.5861C65.8988 41.3025 66.0618 41.0299 66.2468 40.771C66.4004 40.5508 66.5976 40.3611 66.8273 40.2125C67.0469 40.072 67.3064 39.9989 67.571 40.0027C67.913 40.001 68.2512 40.0706 68.5619 40.2065C68.4221 40.5732 68.3451 40.7863 68.3281 40.8451C68.3022 40.9677 68.286 41.092 68.2797 41.2169C68.2577 41.3961 68.2464 41.5762 68.2456 41.7566H68.0208C67.8881 41.7089 67.7681 41.6603 67.6624 41.6108C67.4744 41.5195 67.266 41.4729 67.0549 41.4752C66.837 41.4744 66.6277 41.5556 66.4725 41.7012C66.2675 41.898 66.0961 42.1241 65.9645 42.3714C65.7943 42.6681 65.5464 43.1399 65.2209 43.7867C65.7719 43.9053 66.3014 44.1006 66.7924 44.3665C67.2386 44.6155 67.6077 45.0017 67.8998 45.5252C68.1919 46.0488 68.3448 46.7445 68.3585 47.6125H69.035V48.0883H65.978V47.6125H66.4143C66.4269 47.3252 66.4349 47.1214 66.4349 47.0012C66.4397 46.6295 66.4064 46.2583 66.3355 45.8927C66.2759 45.5934 66.1613 45.3065 65.9968 45.0452C65.8331 44.7939 65.6104 44.582 65.3463 44.4262C65.0389 44.2474 64.6998 44.1234 64.3456 44.0604V47.6159H65.0426V48.0917H61.6702V47.6159H62.6029V40.6388H61.6702V40.1733H65.1197V40.6388H64.3456V43.6588ZM72.4172 40.4794H71.5562V40.0027H75.0504V40.4794H74.1544L76.2241 47.615H77V48.0891H73.6312V47.615H74.4859L73.642 44.682C73.5552 45.0891 73.432 45.4885 73.2737 45.8757C73.1123 46.2848 72.9088 46.6778 72.6663 47.0489C72.4567 47.3779 72.1901 47.6708 71.8778 47.9152C71.6277 48.1193 71.3113 48.2353 70.9819 48.2434C70.8172 48.2458 70.6537 48.2169 70.5009 48.1583C70.3481 48.0997 70.2092 48.0127 70.0922 47.9024C69.8467 47.675 69.7237 47.3354 69.7231 46.8835C69.7331 46.4304 69.8221 45.9821 69.9865 45.5568C70.1706 45.0578 70.3958 44.5734 70.6602 44.1082C70.938 43.6188 71.2578 43.0978 71.6216 42.541C71.644 42.5052 71.7569 42.3355 71.9594 42.0295C72.1133 41.8086 72.2464 41.5752 72.3572 41.332C72.4217 41.1685 72.4539 40.9951 72.4521 40.8204C72.4506 40.706 72.4386 40.5919 72.4163 40.4794H72.4172ZM73.3131 43.6068L72.8105 41.8052C72.4159 42.3522 72.0568 42.9217 71.7354 43.5105C71.5397 43.8599 71.3627 44.2184 71.205 44.5848C71.0636 44.9226 70.9731 45.2776 70.9362 45.6395V45.9362C70.9926 46.3037 71.205 46.4887 71.575 46.4887C71.8581 46.4887 72.1254 46.3202 72.3769 45.9831C72.644 45.6154 72.8552 45.2135 73.004 44.7894C73.1499 44.406 73.2547 44.0095 73.3167 43.606L73.3131 43.6068Z" fill="white"/>
</svg>
