<svg width="212" height="59" viewBox="0 0 212 59" fill="none" xmlns="http://www.w3.org/2000/svg">
<path fill-rule="evenodd" clip-rule="evenodd" d="M39.4386 21.1503L46 18.061L39.502 21.6708L39.4386 21.1503ZM39.0583 20.9235C38.8115 20.6766 38.231 20.6732 37.4271 21.0169C36.9334 21.3505 36.403 21.4639 35.9661 22.1812C36.2429 22.0377 36.4931 21.8175 36.77 21.6741C36.6333 21.8632 36.542 22.0812 36.5031 22.3113C36.7833 22.2379 37.3504 22.3113 37.7674 22.1145C38.2032 21.9116 38.6023 21.6376 38.9482 21.3038C38.9985 21.2558 39.0352 21.1953 39.0546 21.1285C39.0739 21.0617 39.0752 20.9909 39.0583 20.9235ZM28.7775 41.1406C28.4947 41.5366 28.1654 41.8972 27.7968 42.2149C27.6689 42.5007 27.5575 42.7937 27.4632 43.0923C27.3986 43.3106 27.3518 43.5337 27.3231 43.7595L27.3865 43.6661C27.488 43.52 27.6276 43.4046 27.7901 43.3325C27.8435 43.3325 27.9703 43.1924 27.9836 43.2257C27.997 43.2591 27.7768 43.5594 27.7301 43.7228C27.7222 43.7461 27.7054 43.7652 27.6834 43.7762C27.6534 43.8096 27.6834 43.8396 27.7334 43.8363L28.2538 43.7428C28.532 43.7159 28.8126 43.7272 29.0877 43.7762C29.1096 43.7792 29.1297 43.7898 29.1445 43.8062L29.1745 43.7829C29.1903 43.7724 29.2089 43.7668 29.2278 43.7668C29.2468 43.7668 29.2654 43.7724 29.2812 43.7829L29.6148 43.6094C29.6648 43.5827 29.8316 43.5393 29.855 43.566C29.8783 43.5927 29.7649 43.7562 29.7749 43.7996L30.4421 43.526C29.1078 43.3225 28.9843 42.2849 29.1078 41.0873C29.1278 40.8571 29.1578 40.6235 29.1878 40.39C29.0781 40.6665 28.9371 40.9296 28.7675 41.174L28.7775 41.1406ZM27.3532 44.0931C27.3624 44.0696 27.3624 44.0433 27.3532 44.0197C27.4032 43.9597 27.4599 43.8763 27.5166 43.7929C27.4766 43.9497 27.4666 44.0698 27.5933 44.0431L28.2872 43.8963C28.4293 43.8865 28.572 43.8865 28.7141 43.8963L28.911 43.913C28.8771 43.944 28.8538 43.9848 28.8442 44.0298C27.7768 44.8671 26.706 45.6978 25.4218 46.1983L25.0315 46.3217L24.9447 46.2984C25.4444 45.9832 25.9154 45.6249 26.3524 45.2274C26.7267 44.8873 27.0624 44.5069 27.3532 44.0931ZM20.8685 36.5701C22.0507 36.2871 23.2479 36.0711 24.4544 35.9229C24.7279 35.9929 24.9881 36.063 25.2316 36.1464C24.5718 36.2816 23.9245 36.4724 23.2969 36.7169C22.5919 36.9989 21.9075 37.33 21.2487 37.7077C21.0152 37.8378 21.212 38.2882 21.3188 38.4283C21.5286 38.6708 21.7778 38.876 22.056 39.0355C22.4429 39.2824 23.5237 39.4158 23.9941 39.5359C24.1544 39.6047 24.3208 39.6583 24.4911 39.6961C24.6807 39.739 24.8739 39.7647 25.0682 39.7728C25.0933 39.8154 25.1276 39.8518 25.1686 39.8795C25.2095 39.9072 25.2561 39.9255 25.305 39.9329C25.4395 39.9576 25.5774 39.9576 25.712 39.9329H26.8028C27.5312 39.9232 28.2576 39.8529 28.9743 39.7228C29.0959 39.7289 29.2153 39.6883 29.3079 39.6093V39.6794C29.1631 40.1734 28.9377 40.6401 28.6408 41.0606C28.1833 41.6902 27.6187 42.2345 26.9729 42.6686L25.8954 43.516C25.6592 43.6211 25.4119 43.6994 25.1582 43.7495C25.0028 43.7819 24.8458 43.8064 24.6879 43.8229L25.1949 43.2991L26.6226 41.8713C26.6376 41.8542 26.6459 41.8323 26.6459 41.8095C26.6459 41.7868 26.6376 41.7649 26.6226 41.7478C26.6052 41.7309 26.5819 41.7214 26.5576 41.7214C26.5333 41.7214 26.51 41.7309 26.4925 41.7478C26.3324 41.8813 26.159 42.0147 25.9955 42.1381C25.8354 42.2623 25.6659 42.3739 25.4885 42.4718C25.1149 42.6286 24.7413 42.8054 24.3677 43.0089L23.9974 43.1991L24.2743 42.9689C24.3376 42.9188 25.2983 42.3283 25.2983 42.3283C25.7787 41.8813 25.802 41.4943 25.7854 41.4409C25.762 41.4943 25.2283 42.1081 25.1182 42.0881C24.8247 42.2182 24.5211 42.3817 24.2209 42.5452C23.9207 42.7086 23.6271 42.8788 23.3369 42.9955C23.2307 43.0451 23.1186 43.0809 23.0033 43.1023C22.8797 43.1236 22.7597 43.1618 22.6464 43.2157L22.4296 43.3192L23.3236 42.4918C23.3337 42.482 23.3414 42.4699 23.3461 42.4566C23.3507 42.4433 23.3521 42.429 23.3503 42.4151C23.3495 42.403 23.3462 42.3913 23.3406 42.3806C23.335 42.3699 23.3273 42.3605 23.3179 42.3529C23.3085 42.3454 23.2976 42.3399 23.2859 42.3368C23.2743 42.3337 23.2621 42.3331 23.2502 42.335C23.0883 42.3572 22.9301 42.4009 22.7798 42.4651C22.7014 42.4984 22.6213 42.5274 22.5397 42.5518C22.7116 42.2841 22.9392 42.0566 23.2068 41.8846C23.2735 41.8412 23.3402 41.8045 23.4103 41.7678C23.4775 41.7316 23.5479 41.7015 23.6204 41.6778C23.6672 41.6778 24.0508 41.4876 24.0441 41.4409C24.0207 41.3108 23.5404 41.4943 23.497 41.5009C23.0295 41.5368 22.5904 41.7392 22.2595 42.0714L20.655 43.0723L20.6249 43.099L19.9344 43.9797C19.9611 43.883 20.0078 43.7295 20.0512 43.5894C20.0946 43.4493 20.1079 43.4059 20.1246 43.3392C20.1295 43.3227 20.1296 43.3051 20.1249 43.2886C20.1202 43.272 20.1108 43.2572 20.0979 43.2458C20.0805 43.2288 20.0571 43.2194 20.0329 43.2194C20.0086 43.2194 19.9852 43.2288 19.9678 43.2458C19.7009 43.5494 19.3674 43.963 19.0405 44.3634C18.6435 44.8505 18.2632 45.3209 18.0831 45.5277C18.4316 44.6363 18.8792 43.7869 19.4174 42.9955C19.9344 42.2442 20.5256 41.5468 21.182 40.9138C21.1962 40.8994 21.2053 40.8809 21.2081 40.8609C21.2108 40.8409 21.207 40.8206 21.1973 40.8029C21.1875 40.7853 21.1723 40.7713 21.1539 40.763C21.1355 40.7547 21.115 40.7526 21.0953 40.757C20.715 40.8771 20.218 41.0472 19.7243 41.224C19.2306 41.4009 18.7703 41.5577 18.4067 41.6778C18.0431 41.7979 18.1932 41.7311 18.39 41.6044C18.7636 41.3608 19.1606 41.1973 19.5075 40.9772C19.9739 40.6735 20.4197 40.3392 20.8418 39.9763C20.8581 39.9637 20.8694 39.9457 20.8737 39.9256C20.878 39.9054 20.875 39.8843 20.8651 39.8662C20.8598 39.8553 20.8524 39.8456 20.8432 39.8377C20.8341 39.8297 20.8234 39.8237 20.8119 39.82C20.8004 39.8162 20.7882 39.8148 20.7762 39.8159C20.7641 39.817 20.7524 39.8205 20.7417 39.8262C20.0561 40.1483 19.3184 40.3449 18.5635 40.4067L18.0631 40.4767C17.8191 40.5486 17.5706 40.6043 17.3192 40.6435C17.1791 40.6636 17.2191 40.5301 17.2025 40.5068C17.2358 40.1731 17.4893 40.023 17.8696 39.7528L17.9397 39.7027C17.9555 39.6912 17.9675 39.6752 17.9741 39.6567C17.9806 39.6383 17.9814 39.6182 17.9764 39.5993C17.9687 39.5767 17.9527 39.5579 17.9316 39.5467C17.9105 39.5356 17.8859 39.5329 17.8629 39.5393C17.3205 39.7033 16.8056 39.9473 16.3352 40.2632C15.9201 40.5431 15.5305 40.859 15.171 41.2074C15.4924 40.5744 15.9036 39.9912 16.3919 39.4759C17.2163 38.6649 18.2424 38.089 19.364 37.8078C19.3829 37.8012 19.3993 37.789 19.4112 37.773C19.4231 37.7569 19.4299 37.7377 19.4307 37.7177C19.4291 37.6932 19.4181 37.6703 19.4002 37.6536C19.3822 37.6369 19.3586 37.6276 19.334 37.6276L17.6261 37.6944C18.6862 37.2527 19.7792 36.8946 20.8951 36.6235L20.8685 36.5701ZM19.2706 28.6367C19.5008 29.1771 20.1279 29.9711 21.182 30.8586C21.1987 30.8754 21.2081 30.8982 21.2081 30.922C21.2081 30.9457 21.1987 30.9685 21.182 30.9853C21.1739 30.994 21.1641 31.0009 21.1532 31.0057C21.1423 31.0104 21.1305 31.0129 21.1186 31.0129C21.1068 31.0129 21.095 31.0104 21.0841 31.0057C21.0732 31.0009 21.0634 30.994 21.0553 30.9853C19.9878 30.1046 19.3474 29.2705 19.1005 28.7001C19.0238 28.5166 18.8303 28.3364 18.8336 28.2096C18.837 28.0829 19.0538 27.9794 19.1672 27.9227C19.4141 27.806 17.8629 27.0587 18.3099 26.4782C18.4534 26.3115 18.6222 26.1685 18.8103 26.0545H18.837C18.8637 26.0545 18.867 26.0178 18.8537 26.0011C18.6068 25.6308 17.7862 25.3973 17.6595 25.1637C17.2825 24.6299 18.1298 24.6066 18.0164 24.4965C17.7762 24.263 16.8922 24.2329 14.9442 23.3088C13.9239 22.7666 12.9431 22.1535 12.0087 21.4739C11.9887 21.4603 11.9748 21.4396 11.9698 21.4159C11.9648 21.3923 11.9692 21.3676 11.982 21.3471C11.9887 21.3372 11.9973 21.3286 12.0074 21.3221C12.0174 21.3155 12.0287 21.3109 12.0405 21.3088C12.0523 21.3066 12.0644 21.3068 12.0761 21.3094C12.0879 21.312 12.099 21.3169 12.1088 21.3238C13.0369 21.9317 14.0067 22.4735 15.0109 22.9452C16.0516 23.4389 17.1891 23.9027 18.4734 24.3831C18.5701 24.4198 18.5901 24.4765 18.5635 24.5532C18.5368 24.6299 18.44 24.6867 18.3333 24.7567C18.2265 24.8268 18.0564 24.9435 18.0731 24.9802C18.2589 25.191 18.486 25.3613 18.7402 25.4807C18.9676 25.5806 19.1737 25.7233 19.3474 25.901C19.3678 25.924 19.3824 25.9516 19.3901 25.9814C19.3977 26.0113 19.3981 26.0425 19.3913 26.0725C19.3844 26.1025 19.3705 26.1305 19.3507 26.154C19.3309 26.1776 19.3057 26.1961 19.2773 26.2079H19.254C19.0852 26.3082 18.9313 26.4318 18.797 26.5749C18.5935 26.8385 18.6602 27.2155 19.5708 27.9094C19.5795 27.9175 19.5865 27.9273 19.5912 27.9382C19.5959 27.9491 19.5984 27.9609 19.5984 27.9728C19.5984 27.9847 19.5959 27.9964 19.5912 28.0073C19.5865 28.0182 19.5795 28.028 19.5708 28.0362C19.5603 28.0503 19.5458 28.0609 19.5292 28.0669C19.5126 28.0728 19.4946 28.0737 19.4774 28.0695C19.4018 28.0433 19.3196 28.0433 19.2439 28.0695C19.2185 28.0848 19.1981 28.1071 19.185 28.1337C19.172 28.1604 19.167 28.1902 19.1706 28.2197C19.1727 28.3544 19.2058 28.4868 19.2673 28.6066L19.2706 28.6367ZM10.2141 27.7226C7.86372 26.5594 5.65345 25.1323 3.62596 23.469L2.64859 22.0844L3.87614 22.6282C3.89166 22.641 3.91111 22.6479 3.93118 22.6479C3.95126 22.6479 3.97071 22.641 3.98622 22.6282C4.00293 22.6114 4.0123 22.5886 4.0123 22.5648C4.0123 22.5411 4.00293 22.5183 3.98622 22.5015L2.75199 21.3305H2.73198C2.2153 21.0609 1.77827 20.6606 1.46439 20.1695C1.41593 20.0886 1.38842 19.9968 1.38434 19.9026C1.38291 19.8796 1.38813 19.8567 1.39936 19.8366C1.4106 19.8164 1.42739 19.8 1.44772 19.7892C1.58722 19.7416 1.73853 19.7416 1.87803 19.7892C1.89595 19.7942 1.91504 19.7934 1.93247 19.7868C1.94989 19.7802 1.96472 19.7682 1.97476 19.7525C1.98154 19.7424 1.98623 19.7312 1.98856 19.7193C1.99089 19.7074 1.9908 19.6952 1.98831 19.6834C1.98582 19.6716 1.98098 19.6604 1.97406 19.6505C1.96715 19.6405 1.95831 19.6321 1.94808 19.6257C1.5509 19.3997 1.19087 19.1139 0.880638 18.7783C0.787237 18.6282 0.957361 18.5281 1.63452 18.5348C1.65409 18.5407 1.67499 18.5407 1.69456 18.5348C1.71398 18.5309 1.73166 18.5209 1.74506 18.5064C1.75846 18.4918 1.76688 18.4733 1.76911 18.4537C1.77133 18.434 1.76725 18.4141 1.75745 18.3969C1.74765 18.3797 1.73263 18.3661 1.71458 18.3579C1.25041 17.7041 0.852598 17.0056 0.527049 16.2728C0.278329 15.7089 0.101267 15.116 0 14.508C0.235357 14.779 0.48831 15.0342 0.757215 15.272C1.12765 15.6028 1.5261 15.9008 1.94808 16.1627C1.96228 16.1709 1.97838 16.1753 1.99478 16.1753C2.01117 16.1753 2.02728 16.1709 2.04148 16.1627C2.06285 16.1513 2.07916 16.1323 2.08719 16.1095C2.09522 16.0866 2.09438 16.0616 2.08484 16.0393L0.623785 13.0368L2.29166 13.9776C2.30989 13.9864 2.3305 13.9891 2.35039 13.9852C2.37028 13.9813 2.38837 13.9711 2.40192 13.956C2.41548 13.941 2.42377 13.9219 2.42554 13.9017C2.42731 13.8815 2.42247 13.8613 2.41175 13.8441C1.95646 13.2382 1.55993 12.5903 1.22756 11.9091C0.96176 11.367 0.759172 10.7961 0.623785 10.2077C1.16084 10.7381 2.65192 12.5597 3.51255 13.6139C3.80943 13.9742 4.03292 14.2478 4.12299 14.3512C4.1311 14.3599 4.14091 14.3668 4.15182 14.3716C4.16272 14.3763 4.17448 14.3787 4.18637 14.3787C4.19825 14.3787 4.21001 14.3763 4.22092 14.3716C4.23182 14.3668 4.24163 14.3599 4.24975 14.3512C4.26645 14.3343 4.27582 14.3116 4.27582 14.2878C4.27582 14.2641 4.26645 14.2413 4.24975 14.2244L3.64598 13.4905C2.73532 12.3795 1.13082 10.4179 0.6438 9.97081C0.775521 9.98239 0.900322 10.0349 1.00073 10.1209C2.16824 11.0184 3.26236 12.3528 4.33648 13.4404L4.62669 13.8474C5.99581 15.7404 7.59099 17.459 9.3768 18.9651C9.83379 19.3454 10.4242 19.7725 10.9279 20.1395C11.4958 20.5675 12.092 20.9565 12.7125 21.3038C14.3804 22.3313 16.2718 23.0019 18.3833 23.6391C18.7869 23.7659 19.1972 23.8826 19.6142 23.9961C20.0312 24.1095 20.4415 24.2163 20.8584 24.3297C20.8701 24.3332 20.8823 24.3342 20.8943 24.3326C20.9064 24.3311 20.9179 24.3271 20.9283 24.3208C20.9387 24.3145 20.9476 24.3061 20.9546 24.2961C20.9615 24.2862 20.9662 24.2749 20.9685 24.263C20.9715 24.2513 20.9721 24.2393 20.9704 24.2274C20.9686 24.2155 20.9645 24.2041 20.9583 24.1939C20.9521 24.1836 20.9439 24.1747 20.9342 24.1677C20.9245 24.1606 20.9135 24.1556 20.9018 24.1529C20.4848 24.0528 20.0712 23.946 19.6609 23.8192C19.2506 23.6925 18.8437 23.5891 18.4367 23.4623C16.4293 22.8772 14.5013 22.0481 12.6959 20.9935C12.1421 20.6599 11.6151 20.3029 11.1147 19.9426C10.6144 19.5823 10.1307 19.202 9.67368 18.825C8.10137 17.5063 6.67446 16.0233 5.41726 14.4012C5.5426 14.5231 5.67758 14.6347 5.82089 14.7349C6.22635 14.9706 6.5997 15.2576 6.93169 15.5889C7.10515 15.7624 7.3153 15.8992 7.49877 16.076C8.37906 16.945 9.31746 17.7531 10.3075 18.4947C11.4299 19.3182 12.6659 19.9745 13.9768 20.443C15.9782 21.157 17.7929 21.7508 19.374 22.2646C22.3762 23.2388 24.2476 24.0161 24.8146 24.6533C26.1309 27.3962 27.6484 30.0378 29.3546 32.5567C30.7423 34.4916 32.1633 35.7194 33.174 35.7427C34.932 36.0763 35.936 35.2957 36.4564 34.5951C36.5098 34.5217 36.5598 34.4483 36.6032 34.3749C36.4164 35.4558 36.4598 36.2531 36.6866 36.7102C36.7355 36.8173 36.802 36.9154 36.8834 37.0004C36.9342 37.0534 36.9927 37.0984 37.0569 37.1339C36.85 37.5509 36.9835 38.2248 37.3304 38.9388C37.4004 39.0856 37.4805 39.2323 37.5672 39.3825C37.654 39.5326 37.7374 39.656 37.8307 39.7928C37.5231 40.4092 37.1325 40.9805 36.6699 41.4909C36.1987 42.0054 35.5952 42.3805 34.9253 42.5752L30.6355 43.3158C29.3012 43.1924 29.1845 42.2049 29.3012 41.0572C29.3246 40.7837 29.3646 40.4968 29.4013 40.2098C29.438 39.9229 29.4814 39.596 29.5081 39.3057C29.5088 39.2888 29.5052 39.2719 29.4976 39.2568C29.49 39.2416 29.4787 39.2286 29.4647 39.219C29.4438 39.2065 29.4189 39.2027 29.3952 39.2083C29.3715 39.2139 29.351 39.2285 29.3379 39.249C29.2245 39.4292 29.1044 39.5159 28.9743 39.5059H28.951C28.4606 39.5993 28.1437 39.1723 27.6901 39.209C27.5199 39.209 27.2898 39.6861 27.083 39.6927L27.2231 39.0522C26.8895 39.0522 26.0189 39.666 25.6919 39.7194C25.5518 39.7428 26.626 38.4917 26.5359 38.4717C26.4458 38.4517 25.2016 39.5726 25.1349 39.5693C24.9081 39.5693 24.9814 39.5426 24.8013 39.5026C24.8013 39.5026 24.9214 39.3191 24.8013 39.2057C24.6812 39.0922 24.3376 39.3625 24.1342 39.3758L24.0641 39.3458H24.0408H24.0174C24.0001 39.3018 24.0001 39.2529 24.0174 39.209C24.0674 39.0188 24.6846 38.6152 24.351 38.6885C24.2609 38.7086 24.1275 38.782 24.0508 38.7886C23.7872 38.8187 23.4503 39.1222 23.1868 39.1222C22.9148 39.0729 22.6463 39.006 22.3829 38.9221C22.4129 38.872 22.4363 38.812 22.4896 38.8087C22.6073 38.7418 22.7123 38.6549 22.7999 38.5518C23.1334 38.1581 22.5263 38.485 22.2728 38.485C21.9697 38.4598 21.6813 38.3435 21.4455 38.1514C21.4088 38.098 21.3755 38.0013 21.3321 37.9246C21.3366 37.9065 21.3422 37.8886 21.3488 37.8712C21.9935 37.5089 22.6622 37.1912 23.3503 36.9204C23.6138 36.817 25.6152 36.3299 25.6519 36.2531C25.6562 36.242 25.6582 36.2301 25.6578 36.2181C25.6574 36.2062 25.6547 36.1945 25.6497 36.1836C25.6447 36.1727 25.6376 36.1629 25.6289 36.1548C25.6201 36.1467 25.6098 36.1405 25.5986 36.1364C25.304 36.0228 25.0033 35.9259 24.6979 35.8461C24.6946 35.8219 24.6819 35.7999 24.6625 35.785C24.6432 35.77 24.6188 35.7632 24.5945 35.7661L24.4511 35.7861C24.1709 35.716 23.8806 35.6493 23.5838 35.5826C21.8358 35.1856 19.771 34.6251 18.4334 33.384C18.3322 33.2993 18.2493 33.1949 18.1898 33.0771C18.1898 33.0337 18.1898 33.0037 18.2165 32.987C18.4203 32.9398 18.6327 32.9455 18.8336 33.0037C18.8548 33.0083 18.8769 33.0051 18.8959 32.9946C18.9149 32.9842 18.9295 32.9673 18.9371 32.947C18.9446 32.924 18.9429 32.8989 18.9323 32.8772C18.9217 32.8554 18.9031 32.8386 18.8803 32.8302C17.7829 32.4399 17.5194 32.113 18.0964 31.8494C18.1099 31.8441 18.1219 31.8356 18.1312 31.8245C18.1405 31.8134 18.1469 31.8002 18.1498 31.786C18.1528 31.7744 18.1534 31.7623 18.1517 31.7504C18.1499 31.7386 18.1458 31.7272 18.1396 31.7169C18.1334 31.7067 18.1252 31.6978 18.1155 31.6907C18.1058 31.6837 18.0948 31.6787 18.0831 31.6759C16.7933 31.3757 16.5175 30.9976 17.2558 30.5416L17.2859 30.5149C17.2926 30.5049 17.2973 30.4937 17.2997 30.4818C17.302 30.4699 17.3019 30.4577 17.2994 30.4459C17.2969 30.4341 17.2921 30.4228 17.2852 30.4129C17.2782 30.403 17.2694 30.3946 17.2592 30.3882C17.1403 30.322 17.0413 30.2252 16.9723 30.1079C16.9556 30.071 16.9512 30.0298 16.9596 29.9902C16.968 29.9506 16.9888 29.9147 17.019 29.8877C17.0334 29.8723 17.0417 29.8521 17.0424 29.831C17.0437 29.8194 17.0427 29.8075 17.0394 29.7963C17.0361 29.785 17.0305 29.7745 17.023 29.7655C17.0156 29.7565 17.0063 29.749 16.9959 29.7437C16.9854 29.7383 16.974 29.7351 16.9623 29.7343C14.6105 29.4869 12.3219 28.8214 10.2041 27.7693L10.2141 27.7226ZM30.5722 16.6732C30.0318 14.1277 29.6081 11.8024 29.7616 9.33361C29.915 6.86484 30.6389 4.28598 32.4068 1.22004C32.5833 0.953669 32.7067 0.65576 32.7704 0.342633C32.7704 0.245884 32.6136 0.259228 32.21 0.476079C31.6505 0.761571 31.1303 1.11816 30.6622 1.53698C30.2195 1.94299 29.8415 2.4144 29.5414 2.93484L29.2812 3.38855L29.3546 2.87478C29.4155 2.64309 29.4314 2.40185 29.4013 2.16418C29.3813 2.10413 29.2946 2.14083 29.0877 2.33432L26.726 5.63046L25.6186 7.03499C24.8041 8.17289 24.2361 9.46824 23.9507 10.8382C23.6787 12.2045 23.6258 13.6055 23.7939 14.9884L23.854 15.5389L23.6204 15.0385C23.2068 14.1444 22.8766 13.5639 22.6831 13.4705C22.5597 13.4137 22.5197 13.8041 22.5997 14.7582C22.709 15.8746 22.9612 16.9723 23.3503 18.0243C23.487 18.4514 23.6205 18.8817 23.7439 19.3221L23.7772 19.4355H23.6605C23.6104 19.4355 23.5904 19.4722 23.5904 19.5289C23.5904 19.8125 23.954 20.4364 24.3009 21.0469C24.5275 21.4242 24.7302 21.8153 24.9081 22.2179L24.9881 22.4181L24.7913 22.338C24.2976 22.1345 24.0908 22.1145 24.0541 22.2012C23.9874 22.3647 24.2776 22.8351 24.5645 23.3055C24.7771 23.6172 24.9518 23.9532 25.0848 24.3063L24.9948 24.3297H24.9381C25.0048 24.3825 25.0673 24.4405 25.1249 24.5032C27.3698 28.9736 29.428 32.4432 31.1292 34.1781C31.0425 34.0346 30.9091 33.761 30.7957 33.5108C30.7089 33.3307 30.6322 33.1772 30.6055 33.1238C30.1871 32.3262 29.8903 31.4704 29.7249 30.585C29.5971 29.9896 29.4266 29.4043 29.2145 28.8335C29.188 28.6925 29.1922 28.5474 29.2267 28.4081C29.2613 28.2688 29.3254 28.1385 29.4146 28.0262C29.4413 27.9861 29.4613 27.9494 29.4747 27.9261C29.3246 27.876 29.1878 27.6392 29.1011 27.4557C29.0811 27.419 29.0644 27.3823 29.0511 27.3522C29.0377 27.3222 29.031 27.2955 29.021 27.2755C28.9943 27.2055 29.041 27.1621 29.1078 27.1054C29.1539 27.0725 29.1926 27.0302 29.2214 26.9814C29.2501 26.9325 29.2682 26.8781 29.2745 26.8218C29.2733 26.5585 29.2397 26.2963 29.1745 26.0411C29.141 25.9295 29.1219 25.814 29.1178 25.6975H29.1811H29.2445C29.2514 25.8102 29.2693 25.9219 29.2979 26.0311C29.3629 26.2988 29.3976 26.573 29.4013 26.8485C29.394 26.9218 29.3711 26.9927 29.3343 27.0566C29.2975 27.1204 29.2476 27.1757 29.1878 27.2188C29.1611 27.2422 29.1344 27.2355 29.1378 27.2455L29.1678 27.3156L29.2112 27.4156C29.2946 27.5891 29.4247 27.8193 29.5247 27.8193C29.6248 27.8193 29.6148 27.8493 29.6148 27.9061C29.5989 27.9789 29.567 28.0472 29.5214 28.1062C29.4113 28.2897 29.2412 28.5733 29.3279 28.8001C29.5814 29.332 29.7954 29.8817 29.9684 30.4449C30.302 31.8461 30.5588 33.1672 31.5462 34.3415C32.0199 34.9053 32.3635 35.3958 33.2141 35.4291C33.107 35.3386 33.0137 35.233 32.9372 35.1155C32.7924 34.8852 32.6801 34.636 32.6036 34.3749C32.1066 32.8636 32.1199 29.9778 33.6744 25.9511C33.8572 25.641 33.9593 25.29 33.9713 24.9302C33.9876 24.4957 33.9427 24.0611 33.8379 23.6391C33.6244 22.695 33.0906 21.7508 32.4835 20.6732C31.7201 19.4062 31.0875 18.0649 30.5955 16.6698L30.5722 16.6732ZM36.2263 23.6958C36.3496 24.4756 36.5268 25.2459 36.7566 26.0011C37.4738 28.2764 38.2677 31.0054 37.2036 33.2773C37.1244 33.4461 37.033 33.6089 36.9301 33.7644C36.5965 35.1422 36.6299 36.063 36.8801 36.5868C37.0435 36.9204 37.1236 36.837 37.3404 37.0672L37.2737 37.1639C37.1036 37.4975 37.2737 38.1648 37.5072 38.8754L37.6173 39.0922L37.7507 39.3224L37.8674 39.5126L37.9475 39.6327C38.3402 39.1017 38.5359 38.4506 38.5012 37.7911C39.3285 37.0271 39.5487 36.0163 39.5553 34.5317C39.562 33.0471 39.0183 31.0554 38.4545 28.8602C38.1319 28.0457 37.9188 27.192 37.8207 26.3214C37.694 25.0536 37.8641 24.4731 38.1243 23.3188L37.5405 23.479L38.2077 23.0486C38.9115 22.4981 38.8582 22.5582 39.2551 21.7608L39.2218 21.3471L39.1384 21.4806L39.115 21.514V21.5306C39.0316 21.6107 38.9416 21.6908 38.8515 21.7642L38.8949 21.9076C38.8919 21.9545 38.8797 22.0004 38.8589 22.0426C38.8382 22.0848 38.8093 22.1224 38.774 22.1534C38.7387 22.1844 38.6976 22.2081 38.653 22.2232C38.6085 22.2383 38.5615 22.2444 38.5146 22.2412C38.4295 22.2447 38.3459 22.2188 38.2777 22.1678C38.159 22.239 38.0365 22.3036 37.9108 22.3613C37.6263 22.4734 37.3226 22.529 37.0168 22.5248C36.8336 22.5306 36.651 22.5473 36.4698 22.5749H36.4531C36.243 22.9082 36.1623 23.307 36.2263 23.6958Z" fill="#9C9D9D"/>
<path fill-rule="evenodd" clip-rule="evenodd" d="M17.1491 53.8729C17.1198 53.8902 17.0849 53.8954 17.0518 53.8873C17.0188 53.8792 16.9902 53.8585 16.9723 53.8296C16.9561 53.7997 16.9519 53.7647 16.9606 53.7319C16.9692 53.699 16.9901 53.6707 17.019 53.6527C17.1523 53.563 17.3086 53.5132 17.4693 53.5093C17.541 53.5117 17.6091 53.5416 17.6594 53.5927C17.7083 53.6451 17.7346 53.7146 17.7328 53.7862C17.7188 53.941 17.6597 54.0883 17.5627 54.2099C17.5184 54.2704 17.4693 54.3273 17.4159 54.38C17.4385 54.4033 17.4545 54.432 17.4626 54.4634C17.4747 54.5172 17.4747 54.5731 17.4626 54.6269C17.4119 54.8688 17.2967 55.0925 17.129 55.2741C16.7101 55.7092 16.2498 56.1025 15.7547 56.4484L15.5312 56.6186C15.5046 56.6388 15.4711 56.6476 15.438 56.6433C15.4049 56.6389 15.3749 56.6216 15.3544 56.5952C15.3111 56.5385 15.3844 56.4951 15.4411 56.4518L15.6646 56.2816C16.1261 55.9333 16.5519 55.5399 16.9356 55.1073C17.0665 54.9686 17.1596 54.7986 17.2058 54.6135L16.9189 54.767C16.6253 54.9238 16.2517 55.1273 16.095 55.194H16.0783C16.0182 55.2274 15.9348 55.2674 15.8681 55.194C16.3451 54.7904 17.0123 54.5768 17.3459 54.0564C17.4105 53.9765 17.4531 53.881 17.4693 53.7795V53.7628H17.4459C17.3388 53.772 17.2362 53.81 17.1491 53.8729Z" fill="white"/>
<path fill-rule="evenodd" clip-rule="evenodd" d="M19.1005 55.1407C19.0852 55.1496 19.0683 55.1554 19.0508 55.1577C19.0332 55.16 19.0154 55.1588 18.9983 55.1541C18.9813 55.1495 18.9653 55.1415 18.9513 55.1306C18.9374 55.1197 18.9257 55.1061 18.9171 55.0907C18.8958 55.0605 18.886 55.0236 18.8897 54.9869C18.8934 54.9501 18.9102 54.9159 18.9371 54.8905C19.0566 54.7867 19.2091 54.7288 19.3674 54.7271C19.4448 54.7304 19.5178 54.764 19.5709 54.8205C19.6269 54.8813 19.662 54.9584 19.671 55.0407C19.6811 55.2087 19.6441 55.3762 19.5642 55.5244C19.5314 55.5931 19.4911 55.658 19.4441 55.7179C19.4687 55.7471 19.4889 55.7797 19.5042 55.8146C19.5255 55.8734 19.5357 55.9356 19.5342 55.9981C19.5237 56.2619 19.4419 56.5179 19.2974 56.7388C18.9492 57.2269 18.5476 57.6745 18.0998 58.0732L17.903 58.2667C17.8894 58.2776 17.8738 58.2856 17.857 58.2902C17.8402 58.2947 17.8227 58.2958 17.8055 58.2933C17.7883 58.2908 17.7718 58.2848 17.757 58.2756C17.7422 58.2664 17.7295 58.2543 17.7195 58.24C17.6695 58.1733 17.7195 58.1266 17.7863 58.0766C17.853 58.0265 17.9063 57.9598 17.9864 57.8831C18.3993 57.481 18.7653 57.0333 19.0772 56.5486C19.1882 56.3794 19.2568 56.1861 19.2773 55.9848L19.0105 56.1583C18.7403 56.3384 18.3934 56.5686 18.2533 56.6454C18.1966 56.6821 18.1198 56.7288 18.0431 56.6454C18.4501 56.195 19.0772 55.9514 19.3541 55.3676C19.4145 55.2672 19.4436 55.151 19.4375 55.034V55.014H19.4174C19.3 55.0166 19.1874 55.0616 19.1005 55.1407Z" fill="white"/>
<path fill-rule="evenodd" clip-rule="evenodd" d="M23.8506 46.5366C23.1034 48.1847 22.3596 49.6659 21.5356 51.1272C20.8952 52.2615 20.2013 53.3858 19.4174 54.5668C19.3274 54.7002 19.5675 54.7436 19.5675 54.6669C20.1346 53.8328 20.9719 52.5317 21.7858 51.1972C22.6453 49.8278 23.425 48.4097 24.1208 46.9503C24.5033 46.8672 24.8791 46.7557 25.245 46.6167L24.7513 46.5466L24.1976 46.3665C24.0174 46.4165 23.8807 46.4732 23.8506 46.5366Z" fill="white"/>
<path fill-rule="evenodd" clip-rule="evenodd" d="M20.2447 50.7201C21.0186 49.4515 21.5913 48.0707 21.9426 46.6267C22.046 46.5099 22.096 46.3564 22.2528 46.1729L22.6831 45.6792L24.2242 44.2246L23.9373 44.2446L22.553 45.5491L22.5263 45.5824C22.5178 45.5652 22.5052 45.5503 22.4896 45.5391C22.476 45.5308 22.4605 45.5265 22.4446 45.5265C22.4287 45.5265 22.4131 45.5308 22.3995 45.5391C22.1127 45.6625 21.7324 45.8727 21.7824 46.2397C21.3364 47.7515 20.7174 49.2068 19.9378 50.5767C19.3435 51.6327 18.5664 52.5748 17.6428 53.3591C17.6261 53.3759 17.6167 53.3987 17.6167 53.4224C17.6167 53.4462 17.6261 53.469 17.6428 53.4858C17.6494 53.4959 17.6581 53.5045 17.6682 53.5111C17.6784 53.5176 17.6898 53.522 17.7017 53.5239C17.7137 53.5258 17.7259 53.5251 17.7375 53.522C17.7492 53.5189 17.7601 53.5134 17.7695 53.5058C18.7593 52.7379 19.5985 51.7935 20.2447 50.7201Z" fill="white"/>
<path fill-rule="evenodd" clip-rule="evenodd" d="M19.5877 50.791C20.341 49.4679 20.9408 48.0632 21.3757 46.6041C21.3757 46.0937 21.7893 45.8034 22.2129 45.6033C22.2713 45.5749 22.3349 45.559 22.3997 45.5565L23.7607 44.2755L24.0943 44.2554L24.7214 43.6082L24.538 43.7016L24.1644 43.8885L23.8575 44.0419L23.5973 43.6382L23.4872 43.6883C23.358 43.7477 23.2227 43.7924 23.0836 43.8217C22.9826 43.8422 22.8842 43.8736 22.79 43.9152C22.7166 43.9452 22.6099 44.0086 22.5398 44.0286L20.912 44.5524L22.1429 43.4114L21.6826 43.5515L22.0161 42.9777L20.8353 43.705L18.9639 46.087L19.2975 44.906L19.2708 44.9394C18.9372 45.333 18.6337 45.74 18.3001 46.117L16.8657 47.7451L17.6797 45.7267C18.0432 44.8085 18.5074 43.9335 19.064 43.1178C19.3719 42.6692 19.706 42.2392 20.0647 41.83L19.8145 41.9168C19.3742 42.0702 18.9239 42.2504 18.4802 42.3772C18.2501 42.4406 17.9532 42.544 17.8131 42.2004C17.7822 42.1163 17.7809 42.0242 17.8094 41.9393C17.8379 41.8543 17.8945 41.7817 17.9699 41.7333L18.0299 41.6966L18.1533 41.6232C18.4869 41.3997 18.8738 41.2362 19.2174 41.026C19.0173 41.0594 18.8138 41.0894 18.6037 41.1161C18.3935 41.1428 18.2701 41.1528 18.1266 41.1862C17.8698 41.2395 17.6096 41.3296 17.3527 41.3596C17.2939 41.3711 17.2334 41.3705 17.1748 41.358C17.1161 41.3454 17.0607 41.321 17.0118 41.2864C16.9628 41.2518 16.9214 41.2077 16.89 41.1566C16.8586 41.1055 16.8378 41.0486 16.829 40.9893L16.799 40.9493V40.8125V40.7425L16.5188 40.9193C16.1224 41.1858 15.7507 41.4872 15.408 41.82L13.6834 43.4881L14.8109 41.3797C15.1499 40.7153 15.5824 40.103 16.0952 39.5614C16.5437 39.109 17.0604 38.7297 17.6263 38.4372L15.5181 38.5172L17.4528 37.7065C18.5344 37.2568 19.6498 36.8932 20.7886 36.6189C21.4924 36.4455 22.2063 36.302 22.9235 36.1819C21.2556 35.7749 19.4443 35.1811 18.2 34.0301C18.0574 33.906 17.9435 33.7523 17.8665 33.5797C17.8399 33.5118 17.83 33.4385 17.8375 33.3659C17.845 33.2934 17.8698 33.2237 17.9098 33.1627C17.7695 33.1011 17.6498 33.0004 17.5652 32.8726C17.4806 32.7448 17.4347 32.5953 17.4328 32.4421C17.4383 32.3773 17.4553 32.3141 17.4828 32.2552C17.0225 32.1084 16.5288 31.8582 16.4821 31.4145C16.4775 31.2989 16.4995 31.1837 16.5463 31.0779C16.5932 30.972 16.6636 30.8784 16.7523 30.804C16.7014 30.7476 16.6597 30.6834 16.6289 30.6138C16.6021 30.5549 16.5862 30.4916 16.5822 30.427C14.3115 30.1433 12.104 29.4825 10.0508 28.472C9.60713 28.2585 9.16681 28.0316 8.73317 27.8048C7.3271 32.3051 7.65873 37.169 9.66264 41.4367C11.6665 45.7044 15.1971 49.0658 19.5577 50.8577L19.5877 50.8077V50.791ZM14.087 20.4919C15.8717 21.1324 17.6797 21.7229 19.4743 22.3101C20.5417 22.6437 23.1436 23.4844 24.4779 24.3318C24.3878 24.1717 24.2844 23.9982 24.2177 23.9015C24.0109 23.5679 23.5139 22.8606 23.6807 22.4569C23.7277 22.3501 23.8115 22.2638 23.9168 22.2136C24.0221 22.1634 24.1419 22.1527 24.2544 22.1833C24.1543 21.9932 24.0443 21.8097 23.9475 21.6329C23.724 21.2392 23.2037 20.3818 23.1903 19.9414C23.1816 19.8206 23.2199 19.7011 23.2971 19.6078C23.1903 19.2475 23.0802 18.8905 22.9635 18.5336C22.5835 17.4546 22.3305 16.335 22.2096 15.1974V15.1273C18.8313 15.9566 15.75 17.7089 13.3098 20.1883C13.5633 20.2951 13.8235 20.3985 14.087 20.4919ZM32.7906 20.8956C33.3243 21.8431 33.9448 22.8973 34.1849 23.9615C34.2979 24.4196 34.3451 24.8914 34.3251 25.3627C34.3129 25.7747 34.1983 26.1772 33.9915 26.5337C33.1842 28.7089 32.1802 32.382 32.934 34.6806C33.0053 34.9076 33.1062 35.1241 33.2343 35.3245C33.2931 35.4128 33.3625 35.4935 33.4411 35.5647L33.7246 35.8016C34.6586 35.8183 35.5793 35.5647 36.1664 34.774C36.2097 34.714 36.2531 34.6506 36.2931 34.5839L36.54 34.1702L36.56 34.0801L36.5767 34.0167L36.6134 33.96C36.7053 33.8189 36.7878 33.6717 36.8602 33.5196C37.8609 31.3411 37.077 28.6755 36.3932 26.5137C36.1635 25.7476 35.983 24.9675 35.8528 24.1784C35.804 23.7816 35.8556 23.379 36.0029 23.0074L34.9388 23.5545L35.6427 22.4035C36.0997 21.6529 36.54 21.4827 37.2505 21.1024C37.8309 20.7922 38.7883 20.5419 39.3253 21.0724L39.4121 21.1558V21.1792L40.5295 20.652C37.878 17.7711 34.3936 15.7896 30.5623 14.9839C30.6791 15.6511 30.8125 16.3184 30.9426 16.9856C31.3562 18.4302 32.0601 19.6045 32.7906 20.8956ZM38.4947 23.7914L38.5181 23.688C39.1652 23.2609 39.1852 23.1308 39.5188 22.5103L41.3101 21.5094C43.8057 24.5729 45.2748 28.3438 45.5095 32.2884C45.7441 36.233 44.7324 40.1514 42.6175 43.4892C40.5026 46.8271 37.3917 49.4151 33.7251 50.8872C30.0584 52.3592 26.0217 52.6407 22.1863 51.6918C23.0116 50.4038 23.758 49.0669 24.4212 47.6884C24.7607 47.6052 25.0949 47.5016 25.4219 47.3781L26.1191 46.7576C27.2299 46.2705 28.1572 45.4865 29.1213 44.7359L29.3081 44.5891L29.5149 44.4856L29.5616 44.6925L31.1594 44.0252L35.0356 43.358C35.8012 43.1846 36.489 42.765 36.9937 42.1637C37.48 41.6271 37.8908 41.0266 38.2145 40.3788L38.2746 40.2654V40.242C38.6788 39.6874 38.8993 39.0201 38.905 38.3337C39.809 37.4096 39.9458 36.1886 39.9525 34.9242C39.9525 33.0859 39.3887 30.8741 38.8316 29.1326C38.5428 28.3341 38.3371 27.5079 38.2179 26.6672C38.1011 25.5095 38.2612 24.889 38.5114 23.7814L38.4947 23.7914ZM25.2118 44.5057C25.4918 44.4488 25.7647 44.3616 26.0257 44.2454L26.0691 44.2254L27.0931 43.4247C27.0294 43.6434 26.9814 43.8664 26.9497 44.092L26.9063 44.4256C26.6593 44.751 26.3835 45.0536 26.0824 45.3297C25.6736 45.7146 25.2265 46.0566 24.7481 46.3506L24.5613 46.4606L24.2277 46.3439L24.111 46.3806C23.9869 46.4006 23.8686 46.4474 23.7643 46.5176C23.6601 46.5879 23.5723 46.68 23.5072 46.7876C22.7934 48.3356 22.0428 49.8635 21.2055 51.3481C21.1891 51.3726 21.1746 51.3982 21.1622 51.4249C20.9754 51.3648 20.7919 51.3081 20.6118 51.2447C21.3634 49.9826 21.9253 48.6169 22.2797 47.1913C22.3664 47.0678 22.4298 46.931 22.5265 46.8143L22.9268 46.3472L24.8148 44.5724C24.9549 44.5524 25.085 44.5323 25.2118 44.5057Z" fill="#E3000F"/>
<path fill-rule="evenodd" clip-rule="evenodd" d="M39.4386 21.1503L46 18.061L39.502 21.6708L39.4386 21.1503ZM39.0583 20.9235C38.8115 20.6766 38.231 20.6732 37.4271 21.0169C36.9334 21.3505 36.403 21.4639 35.9661 22.1812C36.2429 22.0377 36.4931 21.8175 36.77 21.6741C36.6333 21.8632 36.542 22.0812 36.5031 22.3113C36.7833 22.2379 37.3504 22.3113 37.7674 22.1145C38.2032 21.9116 38.6023 21.6376 38.9482 21.3038C38.9985 21.2558 39.0352 21.1953 39.0546 21.1285C39.0739 21.0617 39.0752 20.9909 39.0583 20.9235ZM19.2706 28.6367C19.5008 29.1771 20.1279 29.9711 21.182 30.8586C21.1987 30.8754 21.2081 30.8982 21.2081 30.922C21.2081 30.9457 21.1987 30.9685 21.182 30.9853C21.1739 30.994 21.1641 31.001 21.1532 31.0057C21.1423 31.0104 21.1305 31.0129 21.1186 31.0129C21.1068 31.0129 21.095 31.0104 21.0841 31.0057C21.0732 31.001 21.0634 30.994 21.0553 30.9853C19.9878 30.1046 19.3474 29.2705 19.1005 28.7001C19.0238 28.5166 18.8303 28.3364 18.8336 28.2096C18.837 28.0829 19.0538 27.9795 19.1672 27.9227C19.4141 27.806 17.8629 27.0587 18.3099 26.4782C18.4534 26.3115 18.6222 26.1685 18.8103 26.0545H18.837C18.8637 26.0545 18.867 26.0178 18.8537 26.0011C18.6068 25.6308 17.7862 25.3973 17.6595 25.1637C17.2825 24.6299 18.1298 24.6066 18.0164 24.4965C17.7762 24.263 16.8922 24.2329 14.9442 23.3088C13.9239 22.7666 12.9431 22.1535 12.0087 21.4739C11.9887 21.4603 11.9748 21.4396 11.9698 21.4159C11.9648 21.3923 11.9692 21.3676 11.982 21.3471C11.9887 21.3372 11.9973 21.3286 12.0074 21.3221C12.0174 21.3155 12.0287 21.3109 12.0405 21.3088C12.0523 21.3066 12.0644 21.3068 12.0761 21.3094C12.0879 21.312 12.099 21.3169 12.1088 21.3238C13.0369 21.9317 14.0067 22.4735 15.0109 22.9452C16.0516 23.4389 17.1891 23.9027 18.4734 24.3831C18.5701 24.4198 18.5901 24.4765 18.5635 24.5532C18.5368 24.6299 18.44 24.6867 18.3333 24.7567C18.2265 24.8268 18.0564 24.9435 18.0731 24.9802C18.2589 25.191 18.486 25.3613 18.7402 25.4807C18.9676 25.5806 19.1737 25.7233 19.3474 25.901C19.3678 25.924 19.3824 25.9516 19.3901 25.9814C19.3977 26.0113 19.3981 26.0425 19.3913 26.0725C19.3844 26.1025 19.3705 26.1305 19.3507 26.154C19.3309 26.1776 19.3057 26.1961 19.2773 26.2079H19.254C19.0852 26.3083 18.9313 26.4318 18.797 26.5749C18.5935 26.8385 18.6602 27.2155 19.5708 27.9094C19.5795 27.9175 19.5865 27.9273 19.5912 27.9382C19.5959 27.9491 19.5984 27.9609 19.5984 27.9728C19.5984 27.9847 19.5959 27.9964 19.5912 28.0073C19.5865 28.0182 19.5795 28.0281 19.5708 28.0362C19.5603 28.0503 19.5458 28.0609 19.5292 28.0669C19.5126 28.0728 19.4946 28.0737 19.4774 28.0695C19.4018 28.0433 19.3196 28.0433 19.2439 28.0695C19.2185 28.0848 19.1981 28.1071 19.185 28.1337C19.172 28.1604 19.167 28.1902 19.1706 28.2197C19.1727 28.3544 19.2058 28.4868 19.2673 28.6067L19.2706 28.6367ZM10.2141 27.7226C7.86372 26.5594 5.65345 25.1323 3.62596 23.469L2.64859 22.0844L3.87614 22.6282C3.89166 22.641 3.91111 22.6479 3.93118 22.6479C3.95126 22.6479 3.97071 22.641 3.98622 22.6282C4.00293 22.6114 4.0123 22.5886 4.0123 22.5648C4.0123 22.5411 4.00293 22.5183 3.98622 22.5015L2.75199 21.3305H2.73198C2.2153 21.0609 1.77827 20.6606 1.46439 20.1695C1.41593 20.0886 1.38842 19.9968 1.38434 19.9026C1.38291 19.8796 1.38813 19.8567 1.39936 19.8366C1.4106 19.8165 1.42739 19.8 1.44772 19.7892C1.58722 19.7416 1.73853 19.7416 1.87803 19.7892C1.89595 19.7942 1.91504 19.7934 1.93247 19.7868C1.94989 19.7802 1.96472 19.7682 1.97476 19.7525C1.98154 19.7425 1.98623 19.7312 1.98856 19.7193C1.99089 19.7075 1.9908 19.6952 1.98831 19.6834C1.98582 19.6716 1.98098 19.6604 1.97406 19.6505C1.96715 19.6405 1.95831 19.6321 1.94808 19.6257C1.5509 19.3997 1.19087 19.1139 0.880638 18.7783C0.787237 18.6282 0.957361 18.5281 1.63452 18.5348C1.65409 18.5407 1.67499 18.5407 1.69456 18.5348C1.71398 18.5309 1.73166 18.5209 1.74506 18.5064C1.75846 18.4918 1.76688 18.4733 1.76911 18.4537C1.77133 18.434 1.76725 18.4141 1.75745 18.3969C1.74765 18.3797 1.73263 18.3661 1.71458 18.3579C1.25041 17.7041 0.852598 17.0056 0.527049 16.2728C0.278329 15.7089 0.101267 15.116 0 14.508C0.235357 14.779 0.48831 15.0342 0.757215 15.272C1.12765 15.6028 1.5261 15.9008 1.94808 16.1627C1.96228 16.1709 1.97838 16.1753 1.99478 16.1753C2.01117 16.1753 2.02728 16.1709 2.04148 16.1627C2.06285 16.1513 2.07916 16.1323 2.08719 16.1095C2.09522 16.0866 2.09438 16.0616 2.08484 16.0393L0.623785 13.0368L2.29166 13.9776C2.30989 13.9864 2.3305 13.9891 2.35039 13.9852C2.37028 13.9813 2.38837 13.9711 2.40192 13.956C2.41548 13.941 2.42377 13.9219 2.42554 13.9017C2.42731 13.8815 2.42247 13.8613 2.41175 13.8441C1.95646 13.2382 1.55993 12.5903 1.22756 11.9091C0.96176 11.367 0.759172 10.7961 0.623785 10.2077C1.16084 10.7381 2.65192 12.5597 3.51255 13.6139C3.80943 13.9742 4.03292 14.2478 4.12299 14.3512C4.1311 14.3599 4.14091 14.3668 4.15182 14.3716C4.16272 14.3763 4.17448 14.3787 4.18637 14.3787C4.19825 14.3787 4.21001 14.3763 4.22092 14.3716C4.23182 14.3668 4.24163 14.3599 4.24975 14.3512C4.26645 14.3343 4.27582 14.3116 4.27582 14.2878C4.27582 14.2641 4.26645 14.2413 4.24975 14.2244L3.64598 13.4905C2.73532 12.3795 1.13082 10.4179 0.6438 9.97082C0.775521 9.9824 0.900322 10.0349 1.00073 10.1209C2.16824 11.0184 3.26236 12.3528 4.33648 13.4404L4.62669 13.8474C5.99581 15.7404 7.59099 17.459 9.3768 18.9651C9.83379 19.3454 10.4242 19.7725 10.9279 20.1395C11.4958 20.5675 12.092 20.9565 12.7125 21.3038C14.3804 22.3313 16.2718 23.0019 18.3833 23.6391C18.7869 23.7659 19.1972 23.8826 19.6142 23.9961C20.0312 24.1095 20.4415 24.2163 20.8584 24.3297C20.8701 24.3332 20.8823 24.3342 20.8943 24.3326C20.9064 24.3311 20.9179 24.3271 20.9283 24.3208C20.9387 24.3145 20.9476 24.3061 20.9546 24.2961C20.9615 24.2862 20.9662 24.2749 20.9685 24.263C20.9715 24.2513 20.9721 24.2393 20.9704 24.2274C20.9686 24.2155 20.9645 24.2041 20.9583 24.1939C20.9521 24.1836 20.9439 24.1747 20.9342 24.1677C20.9245 24.1606 20.9135 24.1556 20.9018 24.1529C20.4848 24.0528 20.0712 23.946 19.6609 23.8193C19.2506 23.6925 18.8437 23.5891 18.4367 23.4623C16.4293 22.8772 14.5013 22.0481 12.6959 20.9935C12.1421 20.6599 11.6151 20.3029 11.1147 19.9426C10.6144 19.5823 10.1307 19.202 9.67368 18.825C8.10137 17.5063 6.67446 16.0233 5.41726 14.4012C5.5426 14.5231 5.67758 14.6347 5.82089 14.7349C6.22635 14.9706 6.5997 15.2576 6.93169 15.5889C7.10515 15.7624 7.3153 15.8992 7.49877 16.076C8.37906 16.945 9.31746 17.7531 10.3075 18.4947C11.4299 19.3182 12.6659 19.9745 13.9768 20.443C15.9782 21.157 17.7929 21.7508 19.374 22.2646C22.3762 23.2388 24.2476 24.0161 24.8146 24.6533C26.1309 27.3962 27.6484 30.0378 29.3546 32.5567C30.7423 34.4917 32.1633 35.7194 33.174 35.7427C34.932 36.0763 35.936 35.2957 36.4564 34.5951C36.5098 34.5217 36.5598 34.4483 36.6032 34.3749C36.4164 35.4558 36.4598 36.2532 36.6866 36.7102C36.7355 36.8173 36.802 36.9154 36.8834 37.0005C36.9342 37.0534 36.9927 37.0984 37.0569 37.1339C36.85 37.5509 36.9835 38.2248 37.3304 38.9388C37.4004 39.0856 37.4805 39.2323 37.5672 39.3825C37.654 39.5326 37.7374 39.656 37.8307 39.7928C37.5231 40.4092 37.1325 40.9805 36.6699 41.4909C36.1987 42.0054 35.5952 42.3805 34.9253 42.5752L30.6355 43.3158C29.3012 43.1924 29.1845 42.2049 29.3012 41.0572C29.3246 40.7837 29.3646 40.4968 29.4013 40.2098C29.438 39.9229 29.4814 39.596 29.5081 39.3057C29.5088 39.2888 29.5052 39.2719 29.4976 39.2568C29.49 39.2416 29.4787 39.2286 29.4647 39.219C29.4438 39.2065 29.4189 39.2027 29.3952 39.2083C29.3715 39.2139 29.351 39.2285 29.3379 39.249C29.2245 39.4292 29.1044 39.5159 28.9743 39.5059H28.951C28.4606 39.5993 28.1437 39.1723 27.6901 39.209C27.5199 39.209 27.2898 39.6861 27.083 39.6927L27.2231 39.0522C26.8895 39.0522 26.0189 39.666 25.6919 39.7194C25.5518 39.7428 26.626 38.4917 26.5359 38.4717C26.4458 38.4517 25.2016 39.5726 25.1349 39.5693C24.9081 39.5693 24.9814 39.5426 24.8013 39.5026C24.8013 39.5026 24.9214 39.3191 24.8013 39.2057C24.6812 39.0922 24.3376 39.3625 24.1342 39.3758L24.0641 39.3458H24.0408H24.0174C24.0001 39.3018 24.0001 39.2529 24.0174 39.209C24.0674 39.0188 24.6846 38.6152 24.351 38.6886C24.2609 38.7086 24.1275 38.782 24.0508 38.7886C23.7872 38.8187 23.4503 39.1223 23.1868 39.1223C22.9148 39.0729 22.6463 39.006 22.3829 38.9221C22.4129 38.872 22.4363 38.812 22.4896 38.8087C22.6073 38.7418 22.7123 38.6549 22.7999 38.5518C23.1334 38.1581 22.5263 38.485 22.2728 38.485C21.9697 38.4598 21.6813 38.3435 21.4455 38.1514C21.4088 38.0981 21.3755 38.0013 21.3321 37.9246C21.3366 37.9065 21.3422 37.8886 21.3488 37.8712C21.9935 37.5089 22.6622 37.1912 23.3503 36.9204C23.6138 36.817 25.6152 36.3299 25.6519 36.2532C25.6562 36.242 25.6582 36.2301 25.6578 36.2181C25.6574 36.2062 25.6547 36.1945 25.6497 36.1836C25.6447 36.1727 25.6376 36.163 25.6289 36.1548C25.6201 36.1467 25.6098 36.1405 25.5986 36.1364C25.304 36.0228 25.0033 35.9259 24.6979 35.8461C24.6946 35.8219 24.6819 35.8 24.6625 35.785C24.6432 35.77 24.6188 35.7632 24.5945 35.7661L24.4511 35.7861C24.1709 35.716 23.8806 35.6493 23.5838 35.5826C21.8358 35.1856 19.771 34.6251 18.4334 33.384C18.3322 33.2994 18.2493 33.1949 18.1898 33.0771C18.1898 33.0337 18.1898 33.0037 18.2165 32.987C18.4203 32.9398 18.6327 32.9455 18.8336 33.0037C18.8548 33.0083 18.8769 33.0051 18.8959 32.9946C18.9149 32.9842 18.9295 32.9673 18.9371 32.947C18.9446 32.924 18.9429 32.8989 18.9323 32.8772C18.9217 32.8554 18.9031 32.8386 18.8803 32.8302C17.7829 32.4399 17.5194 32.113 18.0964 31.8494C18.1099 31.8441 18.1219 31.8356 18.1312 31.8245C18.1405 31.8134 18.1469 31.8002 18.1498 31.786C18.1528 31.7744 18.1534 31.7623 18.1517 31.7505C18.1499 31.7386 18.1458 31.7272 18.1396 31.7169C18.1334 31.7067 18.1252 31.6978 18.1155 31.6907C18.1058 31.6837 18.0948 31.6787 18.0831 31.6759C16.7933 31.3757 16.5175 30.9976 17.2558 30.5416L17.2859 30.5149C17.2926 30.5049 17.2973 30.4937 17.2997 30.4818C17.302 30.4699 17.3019 30.4577 17.2994 30.4459C17.2969 30.4341 17.2921 30.4229 17.2852 30.4129C17.2782 30.403 17.2694 30.3946 17.2592 30.3882C17.1403 30.322 17.0413 30.2252 16.9723 30.1079C16.9556 30.071 16.9512 30.0298 16.9596 29.9902C16.968 29.9506 16.9888 29.9147 17.019 29.8877C17.0334 29.8723 17.0417 29.8521 17.0424 29.831C17.0437 29.8194 17.0427 29.8075 17.0394 29.7963C17.0361 29.785 17.0305 29.7745 17.023 29.7655C17.0156 29.7565 17.0063 29.749 16.9959 29.7437C16.9854 29.7383 16.974 29.7351 16.9623 29.7343C14.6105 29.4869 12.3219 28.8214 10.2041 27.7693L10.2141 27.7226ZM30.5722 16.6732C30.0318 14.1277 29.6081 11.8024 29.7616 9.33361C29.915 6.86484 30.6389 4.28598 32.4068 1.22004C32.5833 0.953669 32.7067 0.65576 32.7704 0.342633C32.7704 0.245884 32.6136 0.259228 32.21 0.476079C31.6505 0.761571 31.1303 1.11816 30.6622 1.53698C30.2195 1.94299 29.8415 2.4144 29.5414 2.93484L29.2812 3.38855L29.3546 2.87478C29.4155 2.64309 29.4314 2.40185 29.4013 2.16418C29.3813 2.10413 29.2946 2.14083 29.0877 2.33433L26.726 5.63046L25.6186 7.03499C24.8041 8.17289 24.2361 9.46824 23.9507 10.8382C23.6787 12.2045 23.6258 13.6055 23.7939 14.9884L23.854 15.5389L23.6204 15.0385C23.2068 14.1444 22.8766 13.5639 22.6831 13.4705C22.5597 13.4137 22.5197 13.8041 22.5997 14.7582C22.709 15.8746 22.9612 16.9723 23.3503 18.0243C23.487 18.4514 23.6205 18.8817 23.7439 19.3221L23.7772 19.4355H23.6605C23.6104 19.4355 23.5904 19.4722 23.5904 19.5289C23.5904 19.8125 23.954 20.4364 24.3009 21.0469C24.5275 21.4242 24.7302 21.8153 24.9081 22.2179L24.9881 22.4181L24.7913 22.338C24.2976 22.1345 24.0908 22.1145 24.0541 22.2012C23.9874 22.3647 24.2776 22.8351 24.5645 23.3055C24.7771 23.6172 24.9518 23.9532 25.0848 24.3063L24.9948 24.3297H24.9381C25.0048 24.3825 25.0673 24.4405 25.1249 24.5032C27.3698 28.9736 29.428 32.4432 31.1292 34.1781C31.0425 34.0346 30.9091 33.761 30.7957 33.5108C30.7089 33.3307 30.6322 33.1772 30.6055 33.1238C30.1871 32.3262 29.8903 31.4704 29.7249 30.585C29.5971 29.9896 29.4266 29.4043 29.2145 28.8335C29.188 28.6925 29.1922 28.5474 29.2267 28.4081C29.2613 28.2688 29.3254 28.1385 29.4146 28.0262C29.4413 27.9861 29.4613 27.9494 29.4747 27.9261C29.3246 27.876 29.1878 27.6392 29.1011 27.4557C29.0811 27.419 29.0644 27.3823 29.0511 27.3523C29.0377 27.3222 29.031 27.2955 29.021 27.2755C28.9943 27.2055 29.041 27.1621 29.1078 27.1054C29.1539 27.0725 29.1926 27.0302 29.2214 26.9814C29.2501 26.9325 29.2682 26.8781 29.2745 26.8218C29.2733 26.5585 29.2397 26.2963 29.1745 26.0411C29.141 25.9295 29.1219 25.814 29.1178 25.6975H29.1811H29.2445C29.2514 25.8102 29.2693 25.9219 29.2979 26.0311C29.3629 26.2988 29.3976 26.573 29.4013 26.8485C29.394 26.9218 29.3711 26.9927 29.3343 27.0566C29.2975 27.1204 29.2476 27.1757 29.1878 27.2188C29.1611 27.2422 29.1344 27.2355 29.1378 27.2455L29.1678 27.3156L29.2112 27.4156C29.2946 27.5891 29.4247 27.8193 29.5247 27.8193C29.6248 27.8193 29.6148 27.8493 29.6148 27.9061C29.5989 27.9789 29.567 28.0472 29.5214 28.1062C29.4113 28.2897 29.2412 28.5733 29.3279 28.8001C29.5814 29.332 29.7954 29.8817 29.9684 30.4449C30.302 31.8461 30.5588 33.1672 31.5462 34.3415C32.0199 34.9053 32.3635 35.3958 33.2141 35.4291C33.107 35.3386 33.0137 35.233 32.9372 35.1155C32.7924 34.8852 32.6801 34.636 32.6036 34.3749C32.1066 32.8636 32.1199 29.9778 33.6744 25.9511C33.8572 25.641 33.9593 25.29 33.9713 24.9302C33.9876 24.4957 33.9427 24.0611 33.8379 23.6391C33.6244 22.695 33.0906 21.7508 32.4835 20.6732C31.7201 19.4062 31.0875 18.0649 30.5955 16.6698L30.5722 16.6732Z" fill="white"/>
<path fill-rule="evenodd" clip-rule="evenodd" d="M73.2013 13.3465H78.8533V14.2776H77.6794V20.2085H77.834C78.492 18.8307 78.945 17.8501 79.193 17.2669C79.6517 16.2677 80.017 15.5208 80.2871 15.0177C80.5794 14.4929 80.9632 14.0251 81.4202 13.6364C81.8937 13.2187 82.5057 12.9937 83.136 13.0055C83.7762 12.9969 84.4098 13.1364 84.9877 13.413C84.9425 13.6233 84.8795 13.8293 84.7991 14.0286C84.6884 14.2823 84.597 14.5439 84.5256 14.8114C84.4734 15.1501 84.4427 15.4919 84.4339 15.8345C84.4339 15.9368 84.4186 16.0494 84.4118 16.1756C84.405 16.3018 84.3982 16.4177 84.388 16.5166H83.965C83.7338 16.4309 83.507 16.3336 83.2855 16.225C82.9344 16.0494 82.548 15.9566 82.1558 15.9539C81.7802 15.961 81.4192 16.1012 81.1365 16.3495C80.8103 16.6138 80.457 17.0777 80.0679 17.7461C79.5525 18.661 79.0902 19.605 78.6834 20.5735C79.6218 20.7272 80.5297 21.0306 81.3726 21.4721C82.2787 21.9326 83.0675 22.7153 83.7391 23.8203C84.4107 24.9253 84.7504 26.3935 84.7584 28.225H86.058V29.1765H80V28.225H80.9989C80.9989 26.5425 80.8398 25.1873 80.5215 24.1596C80.2021 23.1365 79.7944 22.3896 79.2967 21.9428C78.8547 21.514 78.2859 21.2411 77.676 21.1652V28.2318H78.7632V29.1833H73.2862V28.2318H74.3735V21.1584C73.7601 21.2326 73.1875 21.5056 72.7426 21.936C72.2449 22.3896 71.8405 23.1296 71.5212 24.163C71.2018 25.1964 71.0438 26.5504 71.0438 28.225H72.058V29.1765H66V28.225H67.3013C67.3013 25.5898 67.935 23.714 69.2023 22.5976C70.3698 21.528 71.8227 20.8234 73.3831 20.57C72.9745 19.6002 72.5122 18.654 71.9985 17.7359C71.6078 17.0674 71.2477 16.6002 70.9283 16.3393C70.645 16.0923 70.2841 15.9534 69.909 15.9471C69.5168 15.9503 69.1305 16.043 68.7793 16.2182C68.5777 16.3171 68.3512 16.4143 68.0997 16.5098H67.658C67.658 16.4109 67.6445 16.2984 67.6377 16.1688C67.6309 16.0392 67.6241 15.9317 67.6156 15.8277C67.6075 15.4751 67.5746 15.1235 67.517 14.7756C67.4504 14.5179 67.3624 14.2663 67.2537 14.0235C67.1737 13.8234 67.1084 13.6176 67.0584 13.4079C67.6387 13.1312 68.2745 12.9918 68.9169 13.0004C69.548 12.9897 70.1606 13.2145 70.6361 13.6313C71.0931 14.02 71.4769 14.4878 71.7692 15.0126C72.0393 15.5156 72.4046 16.2625 72.8632 17.2618C73.0807 17.7649 73.5343 18.742 74.2223 20.2034H74.3684V14.2776H73.1962V13.3465H73.2013ZM95.7548 29.1765H94.6523C94.5996 29.8927 94.564 30.4742 94.5453 30.9159V31.939C94.561 32.7228 94.6468 33.5035 94.8018 34.2719V34.838L92.8193 34.9966C92.8241 33.5423 92.9223 32.0898 93.1132 30.6482C93.1483 30.3185 93.2049 29.8279 93.2831 29.1765H91.343L87.9539 14.2776H87.0807V13.3465H92.8142V14.2776H91.343L94.0033 26.3458C94.9671 21.612 95.7645 18.177 96.3953 16.0409C96.5471 15.5276 96.7344 15.0256 96.9559 14.5385C97.1502 14.1217 97.4338 13.753 97.7866 13.4591C98.1701 13.1479 98.6529 12.9867 99.1457 13.0055C99.5 13.0153 99.8513 13.0726 100.19 13.176C100.603 13.2937 100.87 13.4489 100.982 13.633C100.943 13.8666 100.878 14.0953 100.79 14.3151C100.685 14.5612 100.617 14.8215 100.588 15.0876C100.543 15.6366 100.525 16.1875 100.535 16.7383H100.213C100.129 16.6923 100.073 16.6616 100.043 16.6479C100.012 16.6343 99.939 16.5951 99.8303 16.5303C99.4311 16.3069 99.1406 16.1892 98.9554 16.1892C98.4435 16.1892 97.9876 16.5036 97.5879 17.1322C97.1461 17.8584 96.8033 18.6407 96.5686 19.4582C96.2956 20.3791 96.0601 21.355 95.8619 22.3862C95.6637 23.4173 95.5062 24.2352 95.3896 24.84C95.0804 26.4021 94.846 27.5241 94.6863 28.2147H95.7548V29.1663V29.1765ZM107.117 23.1296V28.225H108.885V29.1765H102.044V28.225H103.812V19.9391C103.812 18.7591 103.834 17.6108 103.877 16.4945C104.264 15.4477 104.974 14.5519 105.902 13.9366C106.821 13.3182 107.906 12.9931 109.012 13.0038C110.015 12.9791 111.01 13.1832 111.923 13.6006C112.673 13.9443 113.307 14.4997 113.748 15.1993C114.189 15.8988 114.418 16.712 114.406 17.5398C114.416 18.3101 114.256 19.073 113.937 19.7737C113.655 20.4071 113.208 20.9529 112.645 21.3545C112.105 21.7331 111.461 21.934 110.803 21.9291C110.521 21.94 110.239 21.8978 109.972 21.8047C109.77 21.7211 109.463 21.5659 109.051 21.3442C108.832 21.2232 108.676 21.1396 108.583 21.0953L107.117 23.1296ZM107.117 21.7654L108.476 19.9306C108.607 20.0409 108.753 20.1327 108.909 20.2034C109.018 20.2615 109.137 20.2985 109.26 20.3126C109.6 20.3126 109.916 20.1136 110.208 19.7157C110.501 19.3178 110.648 18.5732 110.65 17.4818C110.65 16.3904 110.524 15.531 110.273 14.8966C110.171 14.6075 109.978 14.3595 109.724 14.1903C109.469 14.021 109.166 13.9397 108.861 13.9587C108.632 13.9443 108.403 13.9917 108.198 14.096C107.993 14.2004 107.82 14.3579 107.696 14.5522C107.428 14.9931 107.267 15.4905 107.224 16.0051C107.151 16.7245 107.118 17.4476 107.125 18.1707V21.774L107.117 21.7654ZM121.23 13.9587H119.589V13.0055H126.215V13.9587H124.528L128.459 28.2284H129.93V29.1765H123.532V28.2284H125.153L123.554 22.3623C123.388 23.1764 123.154 23.975 122.854 24.7497C122.549 25.5682 122.163 26.3542 121.703 27.0961C121.305 27.7541 120.8 28.3399 120.208 28.8286C119.733 29.237 119.133 29.4688 118.509 29.4852C118.197 29.4899 117.887 29.432 117.597 29.3149C117.307 29.1977 117.044 29.0237 116.822 28.8031C116.356 28.3483 116.123 27.6691 116.122 26.7653C116.143 25.8585 116.316 24.9617 116.632 24.1119C116.98 23.1093 117.409 22.1365 117.913 21.2027C118.439 20.2239 119.047 19.182 119.735 18.0684C119.778 17.9968 119.992 17.6575 120.376 17.0453C120.662 16.6074 120.91 16.1452 121.117 15.664C121.239 15.3371 121.301 14.9902 121.298 14.6408C121.295 14.4119 121.273 14.1837 121.23 13.9587ZM122.929 20.2136L121.969 16.6121C121.221 17.7061 120.54 18.8451 119.931 20.0227C119.56 20.7214 119.224 21.4386 118.925 22.1713C118.657 22.8468 118.485 23.557 118.415 24.2807V24.8724C118.522 25.6074 118.925 25.9774 119.627 25.9774C120.163 25.9774 120.67 25.6404 121.147 24.9662C121.654 24.2307 122.054 23.427 122.336 22.5788C122.616 21.8089 122.818 21.0125 122.938 20.2017L122.929 20.2136ZM132.443 28.2284V21.0492C132.443 19.2485 132.599 17.7734 132.915 16.6155C133.231 15.4577 133.802 14.5692 134.637 13.9434C135.473 13.3176 136.656 13.0072 138.173 13.0072C138.808 12.9986 139.44 13.0983 140.041 13.3022C140.557 13.475 141.033 13.7498 141.441 14.1105C141.811 14.4352 142.107 14.8351 142.311 15.2837C142.505 15.7158 142.605 16.1843 142.605 16.6582C142.605 17.7751 142.265 18.5936 141.608 19.1035C140.94 19.618 140.118 19.8898 139.277 19.8743C138.665 19.8743 138.02 19.631 137.34 19.1444L136.403 20.3944C136.85 20.7854 137.338 21.1283 137.857 21.4176C138.312 21.6687 138.798 21.8579 139.302 21.9803C139.828 22.0988 140.366 22.1561 140.904 22.1508H141.096C141.435 22.1339 141.773 22.1921 142.087 22.3214C142.188 22.3679 142.279 22.4358 142.352 22.5206C142.425 22.6053 142.479 22.7049 142.51 22.8125C142.583 23.1171 142.615 23.4303 142.605 23.7435V27.3451C142.605 27.4235 142.605 27.5156 142.595 27.5974C142.585 27.6793 142.585 27.8055 142.585 27.9555C142.588 28.1927 142.558 28.4292 142.496 28.6581C142.458 28.7487 142.401 28.8299 142.329 28.8959C142.256 28.9619 142.17 29.0111 142.077 29.0401C141.711 29.1524 141.329 29.1998 140.947 29.1799H130.667V28.2284H132.443ZM135.745 28.2284H138.365C138.719 28.2284 138.964 28.1329 139.099 27.9419C139.238 27.7492 139.306 27.3417 139.306 26.7141V24.1562C139.323 23.8998 139.273 23.6433 139.16 23.4127C139.063 23.2575 138.805 23.0614 138.385 22.8159C137.64 22.3805 137.098 22.0434 136.761 21.8047C136.382 21.5224 136.039 21.1935 135.742 20.8258V28.2284H135.745ZM135.745 20.0295L136.978 18.2407C137.415 18.4981 137.746 18.626 137.962 18.626C138.264 18.626 138.564 18.4487 138.861 18.094C139.156 17.7359 139.306 17.1391 139.306 16.2932C139.306 15.4974 139.146 14.9086 138.825 14.5266C138.68 14.3458 138.496 14.2007 138.287 14.1023C138.077 14.0039 137.848 13.9548 137.617 13.9587C136.865 13.9587 136.367 14.3697 136.122 15.1968C135.878 16.0238 135.742 17.122 135.721 18.4913C135.721 18.6925 135.721 18.9415 135.731 19.2399C135.742 19.5384 135.745 19.8027 135.745 20.0278V20.0295ZM153.049 29.1799H151.942C151.889 29.8961 151.853 30.4776 151.835 30.9193V31.9425C151.85 32.7262 151.936 33.5069 152.091 34.2753V34.8414L150.109 35C150.113 33.5457 150.212 32.0932 150.402 30.6516C150.439 30.3219 150.495 29.8313 150.572 29.1799H148.637L145.248 14.2776H144.375V13.3465H150.109V14.2776H148.637L151.298 26.3458C152.26 21.6086 153.058 18.1736 153.69 16.0409C153.841 15.5276 154.029 15.0256 154.25 14.5385C154.445 14.1217 154.728 13.753 155.081 13.4591C155.464 13.1479 155.947 12.9867 156.44 13.0055C156.794 13.0151 157.146 13.0725 157.485 13.176C157.898 13.2937 158.164 13.4489 158.277 13.633C158.237 13.8666 158.173 14.0953 158.085 14.3151C157.98 14.5612 157.911 14.8215 157.882 15.0876C157.837 15.6366 157.82 16.1875 157.83 16.7383H157.509C157.425 16.6923 157.369 16.6616 157.339 16.6479C157.308 16.6343 157.237 16.5951 157.126 16.5303C156.727 16.3069 156.437 16.1892 156.252 16.1892C155.741 16.1892 155.288 16.5036 154.892 17.1322C154.451 17.8584 154.108 18.6407 153.873 19.4582C153.6 20.3791 153.365 21.355 153.166 22.3862C152.968 23.4173 152.811 24.2352 152.694 24.84C152.385 26.4021 152.151 27.5241 151.991 28.2147H153.059V29.1663L153.049 29.1799ZM164.346 28.2284H168.653V14.2998H167.178V13.3465H173.423V14.2998H171.949V28.2284H176.255V14.2998H174.781V13.3465H181.328V14.2998H179.566V28.2284H181.335V29.1799H159.274V28.2284H161.042V14.2998H159.274V13.3465H165.821V14.2998H164.346V28.2284ZM188.006 20.3177H188.791L189.09 19.6867C189.22 19.4213 189.333 19.1479 189.429 18.8682C189.543 18.626 189.625 18.4487 189.677 18.3361C189.73 18.2236 189.798 18.0787 189.88 17.8979C190.127 17.3659 190.396 16.7906 190.687 16.1722C190.951 15.605 191.26 15.0598 191.611 14.5419C191.902 14.1015 192.276 13.7222 192.712 13.425C193.128 13.1441 193.62 12.9977 194.122 13.0055C194.77 13.0021 195.411 13.1412 196.001 13.413C195.735 14.1463 195.589 14.5726 195.557 14.6903C195.508 14.9355 195.477 15.184 195.465 15.4338C195.424 15.7921 195.402 16.1525 195.401 16.5132H194.974C194.723 16.4177 194.495 16.3205 194.295 16.2216C193.938 16.0389 193.543 15.9459 193.143 15.9505C192.73 15.9487 192.333 16.1112 192.039 16.4024C191.65 16.7959 191.325 17.2482 191.076 17.7427C190.753 18.3361 190.283 19.2797 189.666 20.5735C190.71 20.8105 191.714 21.2013 192.645 21.733C193.491 22.231 194.191 23.0035 194.745 24.0505C195.299 25.0975 195.589 26.489 195.615 28.225H196.897V29.1765H191.101V28.225H191.928C191.952 27.6503 191.968 27.2427 191.968 27.0023C191.977 26.259 191.913 25.5165 191.779 24.7855C191.666 24.1869 191.449 23.6131 191.137 23.0904C190.826 22.5878 190.404 22.1641 189.903 21.8524C189.32 21.4947 188.677 21.2468 188.006 21.1208V28.2318H189.328V29.1833H182.933V28.2318H184.702V14.2776H182.933V13.3465H189.474V14.2776H188.006V20.3177ZM203.311 13.9587H201.678V13.0055H208.303V13.9587H206.605L210.529 28.2301H212V29.1782H205.612V28.2301H207.233L205.633 22.364C205.468 23.1783 205.235 23.977 204.935 24.7514C204.628 25.5696 204.243 26.3556 203.783 27.0978C203.385 27.7558 202.88 28.3416 202.288 28.8304C201.814 29.2387 201.214 29.4705 200.589 29.4869C200.277 29.4916 199.967 29.4337 199.677 29.3166C199.387 29.1994 199.124 29.0254 198.902 28.8048C198.437 28.35 198.203 27.6708 198.202 26.767C198.221 25.8609 198.39 24.9642 198.702 24.1136C199.051 23.1155 199.478 22.1468 199.979 21.2163C200.506 20.2375 201.112 19.1956 201.802 18.0821C201.844 18.0104 202.059 17.6711 202.442 17.0589C202.734 16.6172 202.987 16.1504 203.197 15.664C203.319 15.337 203.38 14.9901 203.377 14.6408C203.374 14.4119 203.351 14.1837 203.309 13.9587H203.311ZM205.009 20.2136L204.056 16.6104C203.308 17.7044 202.627 18.8434 202.018 20.021C201.647 20.7197 201.311 21.4369 201.012 22.1696C200.744 22.8451 200.572 23.5553 200.502 24.279V24.8724C200.609 25.6074 201.012 25.9774 201.714 25.9774C202.25 25.9774 202.757 25.6404 203.234 24.9662C203.741 24.2307 204.141 23.427 204.423 22.5788C204.7 21.8119 204.898 21.0189 205.016 20.2119L205.009 20.2136Z" fill="white"/>
<path d="M99.408 48.652C99.152 48.836 98.824 48.968 98.424 49.048C98.032 49.128 97.628 49.168 97.212 49.168C96.708 49.168 96.228 49.092 95.772 48.94C95.324 48.78 94.928 48.528 94.584 48.184C94.24 47.832 93.964 47.38 93.756 46.828C93.556 46.268 93.456 45.592 93.456 44.8C93.456 43.976 93.568 43.288 93.792 42.736C94.024 42.176 94.32 41.728 94.68 41.392C95.048 41.048 95.456 40.804 95.904 40.66C96.352 40.508 96.8 40.432 97.248 40.432C97.728 40.432 98.132 40.464 98.46 40.528C98.796 40.592 99.072 40.668 99.288 40.756L98.964 42.148C98.78 42.06 98.56 41.996 98.304 41.956C98.056 41.916 97.752 41.896 97.392 41.896C96.728 41.896 96.192 42.132 95.784 42.604C95.384 43.076 95.184 43.808 95.184 44.8C95.184 45.232 95.232 45.628 95.328 45.988C95.424 46.34 95.568 46.644 95.76 46.9C95.96 47.148 96.204 47.344 96.492 47.488C96.788 47.624 97.128 47.692 97.512 47.692C97.872 47.692 98.176 47.656 98.424 47.584C98.672 47.512 98.888 47.42 99.072 47.308L99.408 48.652ZM105.052 44.38H103.36V49H101.752V44.38H100.06V43H105.052V44.38ZM106.947 43H108.087L108.267 43.72H108.315C108.523 43.416 108.767 43.192 109.047 43.048C109.335 42.904 109.683 42.832 110.091 42.832C110.843 42.832 111.407 43.072 111.783 43.552C112.159 44.024 112.347 44.788 112.347 45.844C112.347 46.356 112.287 46.82 112.167 47.236C112.047 47.644 111.867 47.992 111.627 48.28C111.395 48.568 111.107 48.788 110.763 48.94C110.427 49.092 110.039 49.168 109.599 49.168C109.351 49.168 109.147 49.148 108.987 49.108C108.827 49.076 108.667 49.02 108.507 48.94V51.4H106.947V43ZM109.623 44.152C109.319 44.152 109.079 44.228 108.903 44.38C108.735 44.532 108.603 44.76 108.507 45.064V47.56C108.619 47.648 108.739 47.72 108.867 47.776C109.003 47.824 109.179 47.848 109.395 47.848C109.843 47.848 110.179 47.692 110.403 47.38C110.627 47.06 110.739 46.536 110.739 45.808C110.739 45.28 110.651 44.872 110.475 44.584C110.299 44.296 110.015 44.152 109.623 44.152ZM114.34 46C114.34 44.984 114.588 44.204 115.084 43.66C115.58 43.108 116.276 42.832 117.172 42.832C117.652 42.832 118.068 42.908 118.42 43.06C118.772 43.212 119.064 43.428 119.296 43.708C119.528 43.98 119.7 44.312 119.812 44.704C119.932 45.096 119.992 45.528 119.992 46C119.992 47.016 119.744 47.8 119.248 48.352C118.76 48.896 118.068 49.168 117.172 49.168C116.692 49.168 116.276 49.092 115.924 48.94C115.572 48.788 115.276 48.576 115.036 48.304C114.804 48.024 114.628 47.688 114.508 47.296C114.396 46.904 114.34 46.472 114.34 46ZM115.948 46C115.948 46.264 115.972 46.508 116.02 46.732C116.068 46.956 116.14 47.152 116.236 47.32C116.332 47.488 116.456 47.62 116.608 47.716C116.768 47.804 116.956 47.848 117.172 47.848C117.58 47.848 117.884 47.7 118.084 47.404C118.284 47.108 118.384 46.64 118.384 46C118.384 45.448 118.292 45.004 118.108 44.668C117.924 44.324 117.612 44.152 117.172 44.152C116.788 44.152 116.488 44.296 116.272 44.584C116.056 44.872 115.948 45.344 115.948 46ZM125.885 46.264L125.945 45.412H125.909L125.393 46.288L123.257 49H122.273V43H123.833V45.856L123.761 46.672H123.809L124.301 45.82L126.461 43H127.445V49H125.885V46.264ZM135.148 46.252L135.244 45.004H135.184L134.704 46.036L133.576 47.896H133.012L131.776 46.036L131.32 45.004H131.248L131.404 46.24V49H130.012V43H131.632L133.012 45.256L133.348 46.012H133.396L133.744 45.232L135.016 43H136.648V49H135.148V46.252ZM143.439 43.012C143.719 42.988 144.055 42.964 144.447 42.94C144.847 42.916 145.275 42.904 145.731 42.904C146.611 42.904 147.235 43.032 147.603 43.288C147.979 43.536 148.167 43.912 148.167 44.416C148.167 44.696 148.087 44.968 147.927 45.232C147.767 45.496 147.515 45.688 147.171 45.808V45.856C147.603 45.952 147.915 46.124 148.107 46.372C148.299 46.612 148.395 46.924 148.395 47.308C148.395 47.908 148.163 48.356 147.699 48.652C147.243 48.948 146.507 49.096 145.491 49.096C145.155 49.096 144.799 49.084 144.423 49.06C144.047 49.044 143.719 49.02 143.439 48.988V43.012ZM144.963 47.8C145.075 47.816 145.179 47.828 145.275 47.836C145.371 47.844 145.491 47.848 145.635 47.848C146.067 47.848 146.375 47.788 146.559 47.668C146.743 47.548 146.835 47.364 146.835 47.116C146.835 46.908 146.755 46.74 146.595 46.612C146.443 46.476 146.167 46.408 145.767 46.408H144.963V47.8ZM145.791 45.448C146.047 45.448 146.255 45.388 146.415 45.268C146.583 45.14 146.667 44.98 146.667 44.788C146.667 44.58 146.595 44.424 146.451 44.32C146.315 44.208 146.063 44.152 145.695 44.152C145.511 44.152 145.363 44.156 145.251 44.164C145.147 44.172 145.051 44.18 144.963 44.188V45.448H145.791ZM155.834 46.252L155.93 45.004H155.87L155.39 46.036L154.262 47.896H153.698L152.462 46.036L152.006 45.004H151.934L152.09 46.24V49H150.698V43H152.318L153.698 45.256L154.034 46.012H154.082L154.43 45.232L155.702 43H157.334V49H155.834V46.252ZM164.69 48.484C164.45 48.676 164.122 48.84 163.706 48.976C163.298 49.104 162.862 49.168 162.398 49.168C161.43 49.168 160.722 48.888 160.274 48.328C159.826 47.76 159.602 46.984 159.602 46C159.602 44.944 159.854 44.152 160.358 43.624C160.862 43.096 161.57 42.832 162.482 42.832C162.786 42.832 163.082 42.872 163.37 42.952C163.658 43.032 163.914 43.164 164.138 43.348C164.362 43.532 164.542 43.78 164.678 44.092C164.814 44.404 164.882 44.792 164.882 45.256C164.882 45.424 164.87 45.604 164.846 45.796C164.83 45.988 164.802 46.188 164.762 46.396H161.162C161.186 46.9 161.314 47.28 161.546 47.536C161.786 47.792 162.17 47.92 162.698 47.92C163.026 47.92 163.318 47.872 163.574 47.776C163.838 47.672 164.038 47.568 164.174 47.464L164.69 48.484ZM162.458 44.08C162.05 44.08 161.746 44.204 161.546 44.452C161.354 44.692 161.238 45.016 161.198 45.424H163.43C163.462 44.992 163.394 44.66 163.226 44.428C163.066 44.196 162.81 44.08 162.458 44.08ZM171.373 48.628C171.133 48.804 170.841 48.936 170.497 49.024C170.161 49.12 169.813 49.168 169.453 49.168C168.973 49.168 168.565 49.092 168.229 48.94C167.901 48.788 167.633 48.576 167.425 48.304C167.217 48.024 167.065 47.688 166.969 47.296C166.881 46.904 166.837 46.472 166.837 46C166.837 44.984 167.065 44.204 167.521 43.66C167.977 43.108 168.641 42.832 169.513 42.832C169.953 42.832 170.305 42.868 170.569 42.94C170.841 43.012 171.085 43.104 171.301 43.216L170.929 44.488C170.745 44.4 170.561 44.332 170.377 44.284C170.201 44.236 169.997 44.212 169.765 44.212C169.333 44.212 169.005 44.356 168.781 44.644C168.557 44.924 168.445 45.376 168.445 46C168.445 46.256 168.473 46.492 168.529 46.708C168.585 46.924 168.669 47.112 168.781 47.272C168.893 47.432 169.037 47.56 169.213 47.656C169.397 47.744 169.609 47.788 169.849 47.788C170.113 47.788 170.337 47.756 170.521 47.692C170.705 47.62 170.869 47.536 171.013 47.44L171.373 48.628ZM177.778 44.38H176.086V49H174.478V44.38H172.786V43H177.778V44.38ZM184.38 48.484C184.14 48.676 183.812 48.84 183.396 48.976C182.988 49.104 182.552 49.168 182.088 49.168C181.12 49.168 180.412 48.888 179.964 48.328C179.516 47.76 179.292 46.984 179.292 46C179.292 44.944 179.544 44.152 180.048 43.624C180.552 43.096 181.26 42.832 182.172 42.832C182.476 42.832 182.772 42.872 183.06 42.952C183.348 43.032 183.604 43.164 183.828 43.348C184.052 43.532 184.232 43.78 184.368 44.092C184.504 44.404 184.572 44.792 184.572 45.256C184.572 45.424 184.56 45.604 184.536 45.796C184.52 45.988 184.492 46.188 184.452 46.396H180.852C180.876 46.9 181.004 47.28 181.236 47.536C181.476 47.792 181.86 47.92 182.388 47.92C182.716 47.92 183.008 47.872 183.264 47.776C183.528 47.672 183.728 47.568 183.864 47.464L184.38 48.484ZM182.148 44.08C181.74 44.08 181.436 44.204 181.236 44.452C181.044 44.692 180.928 45.016 180.888 45.424H183.12C183.152 44.992 183.084 44.66 182.916 44.428C182.756 44.196 182.5 44.08 182.148 44.08Z" fill="white"/>
</svg>
