<svg width="300" height="52" viewBox="0 0 300 52" fill="none" xmlns="http://www.w3.org/2000/svg">
<g clip-path="url(#clip0)">
<path fill-rule="evenodd" clip-rule="evenodd" d="M35.0207 18.4758L40.8472 15.7325L35.077 18.9379L35.0207 18.4758ZM34.6831 18.2743C34.4639 18.0551 33.9485 18.0521 33.2346 18.3573C32.7962 18.6535 32.3252 18.7542 31.9372 19.3912C32.1831 19.2638 32.4052 19.0682 32.6511 18.9409C32.5297 19.1088 32.4487 19.3024 32.4141 19.5067C32.6629 19.4415 33.1665 19.5067 33.5367 19.3319C33.9237 19.1517 34.2781 18.9085 34.5853 18.612C34.63 18.5694 34.6626 18.5157 34.6797 18.4564C34.6969 18.397 34.698 18.3342 34.6831 18.2743ZM25.5539 36.2268C25.3027 36.5784 25.0104 36.8986 24.6831 37.1807C24.5695 37.4345 24.4706 37.6947 24.3868 37.9598C24.3295 38.1536 24.2879 38.3518 24.2624 38.5523L24.3187 38.4694C24.4088 38.3397 24.5328 38.2372 24.6771 38.1731C24.7245 38.1731 24.8371 38.0487 24.8489 38.0783C24.8608 38.108 24.6653 38.3746 24.6238 38.5197C24.6168 38.5404 24.6019 38.5574 24.5823 38.5671C24.5557 38.5968 24.5823 38.6234 24.6268 38.6205L25.0889 38.5375C25.3359 38.5136 25.585 38.5236 25.8294 38.5671C25.8488 38.5698 25.8666 38.5792 25.8797 38.5938L25.9064 38.5731C25.9205 38.5638 25.9369 38.5588 25.9538 38.5588C25.9706 38.5588 25.9871 38.5638 26.0012 38.5731L26.2974 38.419C26.3418 38.3953 26.4899 38.3568 26.5107 38.3805C26.5314 38.4042 26.4307 38.5494 26.4396 38.5879L27.032 38.345C25.8472 38.1642 25.7376 37.2429 25.8472 36.1794C25.8649 35.975 25.8916 35.7676 25.9182 35.5602C25.8208 35.8058 25.6956 36.0394 25.545 36.2564L25.5539 36.2268ZM24.2891 38.8486C24.2974 38.8276 24.2974 38.8043 24.2891 38.7834C24.3335 38.7301 24.3839 38.656 24.4342 38.5819C24.3987 38.7212 24.3898 38.8278 24.5024 38.8041L25.1185 38.6738C25.2447 38.6651 25.3714 38.6651 25.4976 38.6738L25.6724 38.6886C25.6423 38.7161 25.6216 38.7524 25.6132 38.7923C24.6653 39.5359 23.7145 40.2735 22.5741 40.7179L22.2275 40.8275L22.1505 40.8068C22.5941 40.5269 23.0124 40.2087 23.4005 39.8558C23.7329 39.5538 24.0309 39.216 24.2891 38.8486ZM18.5308 32.1682C19.5806 31.917 20.6437 31.7251 21.715 31.5935C21.9579 31.6557 22.189 31.7179 22.4052 31.792C21.8193 31.912 21.2445 32.0815 20.6872 32.2986C20.0612 32.549 19.4534 32.843 18.8685 33.1784C18.6611 33.294 18.8359 33.6939 18.9307 33.8183C19.117 34.0336 19.3383 34.2159 19.5853 34.3575C19.9289 34.5767 20.8886 34.6952 21.3063 34.8018C21.4487 34.8629 21.5964 34.9105 21.7476 34.944C21.916 34.9822 22.0876 35.005 22.2601 35.0122C22.2824 35.05 22.3128 35.0824 22.3492 35.107C22.3856 35.1316 22.427 35.1478 22.4704 35.1544C22.5898 35.1762 22.7123 35.1762 22.8318 35.1544H23.8004C24.4472 35.1458 25.0922 35.0833 25.7287 34.9677C25.8366 34.9732 25.9426 34.9372 26.0249 34.867V34.9292C25.8963 35.3679 25.6962 35.7823 25.4325 36.1557C25.0262 36.7148 24.5249 37.1981 23.9514 37.5836L22.9947 38.3361C22.7849 38.4294 22.5653 38.4989 22.34 38.5434C22.202 38.5722 22.0626 38.5939 21.9224 38.6086L22.3726 38.1435L23.6404 36.8756C23.6537 36.8604 23.6611 36.8409 23.6611 36.8208C23.6611 36.8006 23.6537 36.7811 23.6404 36.766C23.6249 36.7509 23.6042 36.7425 23.5826 36.7425C23.5611 36.7425 23.5404 36.7509 23.5249 36.766C23.3827 36.8845 23.2287 37.003 23.0835 37.1126C22.9414 37.2228 22.7908 37.3219 22.6333 37.4088C22.3015 37.548 21.9698 37.7051 21.638 37.8858L21.3092 38.0546L21.5551 37.8502C21.6114 37.8058 22.4645 37.2814 22.4645 37.2814C22.891 36.8845 22.9117 36.5408 22.8969 36.4934C22.8762 36.5408 22.4023 37.0859 22.3045 37.0681C22.0438 37.1837 21.7743 37.3288 21.5077 37.474C21.2411 37.6191 20.9804 37.7702 20.7227 37.8739C20.6284 37.9179 20.5289 37.9498 20.4265 37.9687C20.3168 37.9877 20.2102 38.0216 20.1096 38.0694L19.9171 38.1613L20.7109 37.4266C20.7199 37.4179 20.7267 37.4072 20.7309 37.3953C20.735 37.3835 20.7363 37.3709 20.7346 37.3585C20.7339 37.3478 20.731 37.3373 20.726 37.3278C20.7211 37.3183 20.7142 37.31 20.7059 37.3033C20.6975 37.2966 20.6878 37.2917 20.6775 37.289C20.6671 37.2862 20.6563 37.2857 20.6457 37.2874C20.502 37.3071 20.3615 37.3459 20.2281 37.4029C20.1585 37.4325 20.0873 37.4582 20.0148 37.4799C20.1675 37.2422 20.3696 37.0401 20.6072 36.8874C20.6665 36.8489 20.7257 36.8163 20.7879 36.7837C20.8476 36.7516 20.9101 36.7248 20.9745 36.7037C21.016 36.7037 21.3566 36.5349 21.3507 36.4934C21.33 36.3779 20.9034 36.5408 20.8649 36.5467C20.4498 36.5786 20.0598 36.7583 19.766 37.0533L18.3412 37.9421L18.3146 37.9658L17.7014 38.7478C17.7251 38.6619 17.7666 38.5257 17.8051 38.4012C17.8436 38.2768 17.8555 38.2383 17.8703 38.1791C17.8747 38.1644 17.8748 38.1488 17.8706 38.1341C17.8664 38.1194 17.858 38.1062 17.8466 38.0961C17.8311 38.0811 17.8104 38.0727 17.7888 38.0727C17.7672 38.0727 17.7465 38.0811 17.731 38.0961C17.4941 38.3657 17.1979 38.733 16.9076 39.0885C16.5551 39.521 16.2174 39.9388 16.0575 40.1224C16.367 39.3309 16.7644 38.5767 17.2423 37.8739C17.7014 37.2068 18.2263 36.5875 18.8092 36.0253C18.8218 36.0126 18.8299 35.9961 18.8324 35.9784C18.8348 35.9607 18.8314 35.9426 18.8228 35.9269C18.8141 35.9113 18.8006 35.8988 18.7843 35.8915C18.768 35.8841 18.7497 35.8822 18.7322 35.8861C18.3946 35.9928 17.9532 36.1438 17.5148 36.3009C17.0764 36.4579 16.6677 36.5971 16.3448 36.7037C16.0219 36.8104 16.1552 36.7511 16.33 36.6386C16.6617 36.4223 17.0142 36.2772 17.3223 36.0816C17.7365 35.812 18.1323 35.5151 18.5071 35.1929C18.5216 35.1817 18.5317 35.1657 18.5355 35.1478C18.5393 35.1299 18.5366 35.1112 18.5278 35.0951C18.5231 35.0855 18.5165 35.0768 18.5084 35.0698C18.5003 35.0627 18.4908 35.0574 18.4806 35.054C18.4704 35.0507 18.4596 35.0495 18.4489 35.0505C18.4381 35.0514 18.4277 35.0545 18.4182 35.0596C17.8095 35.3456 17.1544 35.5202 16.484 35.5751L16.0397 35.6373C15.823 35.7011 15.6023 35.7505 15.3791 35.7854C15.2547 35.8032 15.2903 35.6847 15.2755 35.6639C15.3051 35.3677 15.5302 35.2344 15.8679 34.9944L15.9301 34.95C15.9442 34.9398 15.9548 34.9255 15.9607 34.9091C15.9665 34.8927 15.9672 34.8749 15.9627 34.8581C15.9559 34.8381 15.9417 34.8214 15.9229 34.8114C15.9042 34.8015 15.8824 34.7991 15.862 34.8048C15.3803 34.9505 14.9231 35.1671 14.5053 35.4477C14.1368 35.6962 13.7908 35.9767 13.4716 36.286C13.7569 35.7239 14.1221 35.2061 14.5557 34.7485C15.2877 34.0284 16.1989 33.517 17.1949 33.2673C17.2116 33.2614 17.2262 33.2506 17.2368 33.2364C17.2473 33.2221 17.2534 33.205 17.2541 33.1873C17.2526 33.1656 17.2429 33.1452 17.227 33.1304C17.211 33.1155 17.19 33.1073 17.1682 33.1073L15.6517 33.1666C16.593 32.7744 17.5636 32.4564 18.5545 32.2156L18.5308 32.1682ZM17.112 25.1235C17.3164 25.6034 17.8732 26.3085 18.8092 27.0965C18.8241 27.1115 18.8324 27.1317 18.8324 27.1528C18.8324 27.1739 18.8241 27.1941 18.8092 27.2091C18.802 27.2168 18.7933 27.2229 18.7836 27.2271C18.774 27.2313 18.7635 27.2335 18.753 27.2335C18.7424 27.2335 18.732 27.2313 18.7223 27.2271C18.7126 27.2229 18.7039 27.2168 18.6967 27.2091C17.7488 26.427 17.1801 25.6864 16.9609 25.1798C16.8928 25.0169 16.721 24.8569 16.7239 24.7443C16.7269 24.6317 16.9194 24.5399 17.0201 24.4895C17.2393 24.3859 15.862 23.7223 16.2589 23.2068C16.3863 23.0588 16.5362 22.9318 16.7032 22.8306H16.7269C16.7506 22.8306 16.7536 22.798 16.7417 22.7832C16.5225 22.4543 15.7938 22.247 15.6813 22.0396C15.3466 21.5656 16.0989 21.5449 15.9982 21.4471C15.785 21.2397 15 21.2131 13.2701 20.3925C12.3642 19.911 11.4932 19.3666 10.6635 18.7631C10.6458 18.7511 10.6334 18.7326 10.629 18.7116C10.6246 18.6906 10.6284 18.6687 10.6398 18.6505C10.6458 18.6417 10.6534 18.6341 10.6623 18.6283C10.6712 18.6224 10.6812 18.6184 10.6917 18.6165C10.7022 18.6145 10.713 18.6147 10.7234 18.617C10.7338 18.6193 10.7437 18.6236 10.7524 18.6298C11.5765 19.1696 12.4377 19.6507 13.3294 20.0696C14.2536 20.508 15.2636 20.9198 16.404 21.3464C16.4899 21.379 16.5077 21.4293 16.484 21.4975C16.4603 21.5656 16.3744 21.616 16.2796 21.6782C16.1848 21.7404 16.0338 21.8441 16.0486 21.8767C16.2135 22.0638 16.4152 22.215 16.641 22.321C16.8429 22.4098 17.0259 22.5365 17.1801 22.6943C17.1982 22.7147 17.2112 22.7392 17.218 22.7657C17.2248 22.7922 17.2252 22.8199 17.2191 22.8466C17.213 22.8732 17.2006 22.898 17.183 22.919C17.1654 22.9399 17.1431 22.9563 17.1179 22.9668H17.0972C16.9473 23.0559 16.8107 23.1656 16.6914 23.2927C16.5107 23.5267 16.5699 23.8615 17.3786 24.4777C17.3863 24.4849 17.3924 24.4936 17.3966 24.5033C17.4008 24.513 17.403 24.5234 17.403 24.534C17.403 24.5445 17.4008 24.555 17.3966 24.5647C17.3924 24.5743 17.3863 24.5831 17.3786 24.5903C17.3691 24.6028 17.3563 24.6123 17.3415 24.6175C17.3268 24.6228 17.3108 24.6236 17.2956 24.6199C17.2285 24.5966 17.1554 24.5966 17.0883 24.6199C17.0657 24.6334 17.0475 24.6532 17.036 24.6769C17.0244 24.7006 17.0199 24.7271 17.0231 24.7532C17.025 24.8728 17.0544 24.9904 17.109 25.0968L17.112 25.1235ZM9.06991 24.3118C6.98284 23.2789 5.02016 22.0117 3.21979 20.5347L2.3519 19.3052L3.44194 19.7881C3.45572 19.7994 3.47299 19.8056 3.49082 19.8056C3.50864 19.8056 3.52592 19.7994 3.53969 19.7881C3.55452 19.7731 3.56285 19.7529 3.56285 19.7318C3.56285 19.7108 3.55452 19.6905 3.53969 19.6755L2.44372 18.6357H2.42595C1.96715 18.3963 1.57907 18.0409 1.30036 17.6048C1.25732 17.5329 1.23289 17.4515 1.22927 17.3678C1.228 17.3474 1.23263 17.327 1.24261 17.3092C1.25259 17.2913 1.26749 17.2767 1.28555 17.2671C1.40942 17.2249 1.54378 17.2249 1.66765 17.2671C1.68357 17.2716 1.70052 17.2709 1.71599 17.265C1.73147 17.2591 1.74464 17.2484 1.75355 17.2345C1.75957 17.2256 1.76374 17.2156 1.7658 17.2051C1.76787 17.1945 1.7678 17.1837 1.76559 17.1732C1.76337 17.1627 1.75907 17.1527 1.75293 17.1439C1.7468 17.1351 1.73895 17.1276 1.72986 17.1219C1.37717 16.9212 1.05747 16.6674 0.781991 16.3694C0.699052 16.2361 0.850119 16.1473 1.45142 16.1532C1.4688 16.1585 1.48736 16.1585 1.50474 16.1532C1.52198 16.1497 1.53768 16.1409 1.54958 16.128C1.56148 16.115 1.56896 16.0986 1.57093 16.0812C1.57291 16.0637 1.56929 16.0461 1.56058 16.0308C1.55188 16.0155 1.53855 16.0034 1.52251 15.9962C1.11034 15.4156 0.757091 14.7953 0.46801 14.1446C0.247151 13.6439 0.0899228 13.1174 0 12.5775C0.208993 12.8182 0.43361 13.0448 0.672393 13.2559C1.00134 13.5497 1.35515 13.8143 1.72986 14.0469C1.74247 14.0542 1.75677 14.058 1.77133 14.058C1.78589 14.058 1.80019 14.0542 1.8128 14.0469C1.83177 14.0368 1.84625 14.0199 1.85338 13.9996C1.86051 13.9793 1.85977 13.957 1.8513 13.9373L0.55391 11.2711L2.03495 12.1065C2.05114 12.1143 2.06944 12.1167 2.0871 12.1133C2.10476 12.1098 2.12083 12.1007 2.13286 12.0874C2.1449 12.074 2.15226 12.0571 2.15384 12.0391C2.15541 12.0212 2.15111 12.0032 2.14159 11.988C1.7373 11.4499 1.38519 10.8746 1.09005 10.2697C0.854025 9.78835 0.674131 9.2814 0.55391 8.7589C1.03081 9.22993 2.35486 10.8474 3.11908 11.7836C3.3827 12.1035 3.58116 12.3464 3.66114 12.4383C3.66834 12.446 3.67706 12.4521 3.68674 12.4563C3.69642 12.4605 3.70686 12.4627 3.71742 12.4627C3.72797 12.4627 3.73841 12.4605 3.7481 12.4563C3.75778 12.4521 3.76649 12.446 3.7737 12.4383C3.78853 12.4233 3.79685 12.4031 3.79685 12.382C3.79685 12.3609 3.78853 12.3407 3.7737 12.3257L3.23756 11.674C2.42891 10.6875 1.00415 8.94553 0.571682 8.54856C0.688648 8.55885 0.799469 8.60546 0.888626 8.68187C1.92536 9.47877 2.89692 10.6638 3.85071 11.6295L4.10841 11.9909C5.32417 13.6718 6.74066 15.1979 8.32642 16.5353C8.73223 16.8731 9.25652 17.2523 9.70379 17.5781C10.208 17.9582 10.7375 18.3037 11.2885 18.612C12.7696 19.5245 14.4491 20.1199 16.3241 20.6857C16.6825 20.7983 17.0468 20.902 17.4171 21.0027C17.7873 21.1035 18.1517 21.1983 18.5219 21.299C18.5322 21.3021 18.5431 21.303 18.5538 21.3016C18.5645 21.3002 18.5747 21.2966 18.584 21.2911C18.5932 21.2855 18.6011 21.278 18.6073 21.2692C18.6134 21.2603 18.6176 21.2503 18.6197 21.2397C18.6223 21.2294 18.6229 21.2187 18.6213 21.2081C18.6198 21.1976 18.6161 21.1875 18.6106 21.1784C18.6051 21.1693 18.5978 21.1614 18.5892 21.1551C18.5806 21.1489 18.5708 21.1444 18.5604 21.142C18.1902 21.0531 17.8229 20.9583 17.4585 20.8457C17.0942 20.7331 16.7328 20.6413 16.3714 20.5287C14.589 20.0092 12.8769 19.273 11.2737 18.3365C10.782 18.0403 10.314 17.7233 9.86967 17.4033C9.42535 17.0834 8.99585 16.7457 8.59005 16.4109C7.19386 15.2399 5.9268 13.923 4.81043 12.4827C4.92172 12.5909 5.04159 12.69 5.16884 12.779C5.52888 12.9883 5.86041 13.2432 6.15521 13.5373C6.30924 13.6914 6.49585 13.8128 6.65877 13.9699C7.44045 14.7415 8.27373 15.4591 9.15284 16.1176C10.1496 16.8489 11.2471 17.4316 12.4111 17.8477C14.1884 18.4817 15.7998 19.009 17.2038 19.4652C19.8697 20.3302 21.5314 21.0205 22.035 21.5863C23.2038 24.0219 24.5513 26.3677 26.0664 28.6044C27.2986 30.3226 28.5604 31.4128 29.4579 31.4335C31.019 31.7298 31.9105 31.0366 32.3726 30.4145C32.42 30.3493 32.4645 30.2841 32.503 30.2189C32.3371 31.1788 32.3756 31.8868 32.577 32.2927C32.6205 32.3877 32.6795 32.4748 32.7518 32.5504C32.7969 32.5974 32.8488 32.6373 32.9058 32.6689C32.7222 33.0392 32.8406 33.6376 33.1487 34.2716C33.2109 34.4019 33.282 34.5323 33.359 34.6656C33.436 34.7989 33.5101 34.9085 33.593 35.03C33.3198 35.5773 32.973 36.0846 32.5622 36.5378C32.1438 36.9947 31.6079 37.3278 31.013 37.5006L27.2038 38.1583C26.019 38.0487 25.9153 37.1718 26.019 36.1527C26.0397 35.9098 26.0752 35.655 26.1078 35.4003C26.1404 35.1455 26.1789 34.8552 26.2026 34.5974C26.2032 34.5824 26.2 34.5674 26.1933 34.554C26.1866 34.5405 26.1765 34.5289 26.1641 34.5204C26.1456 34.5093 26.1234 34.5059 26.1024 34.5109C26.0814 34.5159 26.0631 34.5289 26.0515 34.5471C25.9508 34.7071 25.8442 34.7841 25.7287 34.7752H25.7079C25.2725 34.8581 24.9911 34.4789 24.5883 34.5115C24.4372 34.5115 24.2328 34.9352 24.0492 34.9411L24.1736 34.3723C23.8774 34.3723 23.1043 34.9174 22.814 34.9648C22.6896 34.9855 23.6434 33.8746 23.5634 33.8568C23.4834 33.8391 22.3786 34.8344 22.3193 34.8315C22.1179 34.8315 22.1831 34.8078 22.0231 34.7722C22.0231 34.7722 22.1297 34.6093 22.0231 34.5086C21.9165 34.4078 21.6114 34.6478 21.4307 34.6597L21.3685 34.633H21.3477H21.327C21.3117 34.594 21.3117 34.5506 21.327 34.5115C21.3714 34.3427 21.9194 33.9842 21.6232 34.0494C21.5432 34.0672 21.4248 34.1323 21.3566 34.1383C21.1226 34.1649 20.8235 34.4345 20.5895 34.4345C20.3479 34.3907 20.1095 34.3313 19.8756 34.2568C19.9023 34.2123 19.923 34.159 19.9704 34.156C20.0748 34.0967 20.1681 34.0195 20.2459 33.9279C20.5421 33.5784 20.003 33.8687 19.7778 33.8687C19.5087 33.8463 19.2526 33.743 19.0432 33.5724C19.0107 33.525 18.981 33.4391 18.9425 33.371C18.9465 33.3549 18.9515 33.3391 18.9573 33.3236C19.5298 33.0019 20.1236 32.7198 20.7346 32.4793C20.9686 32.3874 22.7459 31.9549 22.7784 31.8868C22.7822 31.8769 22.784 31.8663 22.7836 31.8557C22.7833 31.8451 22.7809 31.8347 22.7764 31.825C22.772 31.8154 22.7658 31.8067 22.758 31.7995C22.7502 31.7923 22.741 31.7867 22.731 31.7831C22.4695 31.6822 22.2025 31.5962 21.9313 31.5254C21.9283 31.5039 21.9171 31.4844 21.8999 31.4711C21.8827 31.4578 21.861 31.4517 21.8395 31.4543L21.7121 31.472C21.4633 31.4098 21.2056 31.3506 20.9419 31.2913C19.3898 30.9388 17.5563 30.4411 16.3685 29.3391C16.2786 29.2639 16.2051 29.1711 16.1523 29.0665C16.1523 29.028 16.1523 29.0014 16.1759 28.9865C16.3569 28.9446 16.5455 28.9497 16.7239 29.0014C16.7427 29.0054 16.7624 29.0026 16.7792 28.9933C16.7961 28.9841 16.8091 28.969 16.8158 28.951C16.8224 28.9306 16.8209 28.9083 16.8115 28.889C16.8021 28.8696 16.7856 28.8547 16.7654 28.8473C15.7909 28.5007 15.5569 28.2104 16.0693 27.9764C16.0813 27.9717 16.0919 27.9641 16.1002 27.9542C16.1084 27.9444 16.1141 27.9327 16.1167 27.9201C16.1194 27.9098 16.1199 27.899 16.1184 27.8885C16.1168 27.8779 16.1132 27.8678 16.1076 27.8587C16.1021 27.8496 16.0948 27.8417 16.0862 27.8355C16.0776 27.8292 16.0678 27.8247 16.0575 27.8223C14.9121 27.5557 14.6673 27.2199 15.3229 26.8151L15.3495 26.7914C15.3555 26.7825 15.3597 26.7725 15.3618 26.7619C15.3638 26.7514 15.3638 26.7406 15.3616 26.7301C15.3593 26.7195 15.355 26.7096 15.3489 26.7008C15.3428 26.692 15.3349 26.6845 15.3258 26.6788C15.2203 26.62 15.1323 26.5341 15.0711 26.4299C15.0563 26.3972 15.0523 26.3606 15.0598 26.3254C15.0673 26.2902 15.0857 26.2584 15.1126 26.2344C15.1254 26.2207 15.1327 26.2028 15.1333 26.1841C15.1345 26.1737 15.1336 26.1632 15.1307 26.1532C15.1277 26.1432 15.1228 26.1339 15.1161 26.1259C15.1095 26.1178 15.1013 26.1112 15.092 26.1065C15.0827 26.1017 15.0726 26.0989 15.0622 26.0982C12.9739 25.8785 10.9416 25.2876 9.06102 24.3533L9.06991 24.3118ZM27.1475 14.5001C26.6677 12.2398 26.2915 10.175 26.4277 7.98273C26.564 5.79052 27.2068 3.50054 28.7767 0.77804C28.9334 0.541503 29.043 0.276965 29.0995 -0.0010861C29.0995 -0.0869973 28.9603 -0.0751475 28.6019 0.117412C28.1051 0.370924 27.6431 0.687565 27.2275 1.05947C26.8343 1.42 26.4987 1.8386 26.2322 2.30074L26.0012 2.70364L26.0664 2.24742C26.1204 2.04168 26.1345 1.82747 26.1078 1.61642C26.09 1.56309 26.013 1.59568 25.8294 1.7675L23.7322 4.69441L22.7488 5.9416C22.0256 6.95204 21.5212 8.10229 21.2678 9.3188C21.0262 10.5321 20.9792 11.7761 21.1286 13.0041L21.1819 13.4929L20.9745 13.0485C20.6072 12.2546 20.314 11.7391 20.1422 11.6562C20.0326 11.6058 19.997 11.9524 20.0681 12.7997C20.1651 13.791 20.3891 14.7657 20.7346 15.6999C20.856 16.0791 20.9745 16.4613 21.0841 16.8523L21.1137 16.9531H21.0101C20.9656 16.9531 20.9479 16.9856 20.9479 17.036C20.9479 17.2878 21.2707 17.8418 21.5788 18.3839C21.7799 18.719 21.96 19.0663 22.1179 19.4237L22.189 19.6015L22.0142 19.5304C21.5758 19.3497 21.3922 19.3319 21.3596 19.4089C21.3004 19.5541 21.5581 19.9718 21.8128 20.3895C22.0016 20.6663 22.1567 20.9647 22.2749 21.2782L22.1949 21.299H22.1446C22.2038 21.3459 22.2593 21.3974 22.3104 21.453C24.3039 25.4227 26.1315 28.5037 27.6422 30.0441C27.5652 29.9168 27.4467 29.6738 27.346 29.4517C27.269 29.2917 27.2008 29.1554 27.1771 29.108C26.8056 28.3997 26.542 27.6398 26.3951 26.8536C26.2817 26.3249 26.1302 25.8051 25.9419 25.2983C25.9184 25.173 25.9221 25.0442 25.9528 24.9205C25.9835 24.7968 26.0404 24.6811 26.1197 24.5814C26.1434 24.5458 26.1611 24.5132 26.173 24.4925C26.0397 24.4481 25.9182 24.2377 25.8412 24.0748C25.8235 24.0422 25.8086 24.0096 25.7968 23.983C25.785 23.9563 25.779 23.9326 25.7701 23.9148C25.7464 23.8526 25.7879 23.8141 25.8472 23.7637C25.8881 23.7345 25.9225 23.697 25.948 23.6536C25.9735 23.6102 25.9896 23.5619 25.9953 23.5119C25.9942 23.2781 25.9643 23.0453 25.9064 22.8187C25.8766 22.7196 25.8597 22.617 25.856 22.5136H25.9123H25.9686C25.9747 22.6136 25.9906 22.7129 26.016 22.8098C26.0737 23.0475 26.1045 23.291 26.1078 23.5356C26.1013 23.6007 26.081 23.6637 26.0483 23.7204C26.0157 23.7771 25.9713 23.8262 25.9182 23.8645C25.8946 23.8852 25.8709 23.8793 25.8738 23.8882L25.9005 23.9504L25.939 24.0392C26.013 24.1933 26.1286 24.3977 26.2174 24.3977C26.3063 24.3977 26.2974 24.4244 26.2974 24.4747C26.2832 24.5394 26.2549 24.6001 26.2145 24.6525C26.1167 24.8154 25.9656 25.0672 26.0427 25.2687C26.2677 25.7409 26.4578 26.2291 26.6114 26.7292C26.9076 27.9734 27.1357 29.1465 28.0124 30.1893C28.4331 30.69 28.7382 31.1254 29.4935 31.1551C29.3984 31.0747 29.3156 30.9809 29.2476 30.8766C29.119 30.6721 29.0194 30.4508 28.9514 30.2189C28.5101 28.8769 28.5219 26.3144 29.9023 22.7387C30.0646 22.4634 30.1552 22.1517 30.1659 21.8322C30.1804 21.4464 30.1405 21.0604 30.0474 20.6857C29.8578 19.8474 29.3839 19.009 28.8448 18.0521C28.1669 16.9271 27.6051 15.7359 27.1682 14.4972L27.1475 14.5001ZM32.1682 20.7361C32.2777 21.4285 32.4351 22.1125 32.6392 22.7832C33.2761 24.8036 33.981 27.2269 33.0361 29.2443C32.9658 29.3942 32.8846 29.5387 32.7932 29.6768C32.497 30.9003 32.5267 31.7179 32.7488 32.183C32.894 32.4793 32.965 32.4052 33.1576 32.6096L33.0983 32.6955C32.9473 32.9918 33.0983 33.5843 33.3057 34.2153L33.4034 34.4078L33.5219 34.6123L33.6256 34.7811L33.6967 34.8878C34.0453 34.4162 34.2192 33.8381 34.1884 33.2525C34.923 32.5741 35.1185 31.6765 35.1244 30.3582C35.1303 29.0399 34.6475 27.2713 34.1469 25.322C33.8605 24.5987 33.6712 23.8406 33.5841 23.0676C33.4716 21.9418 33.6226 21.4264 33.8537 20.4014L33.3353 20.5435L33.9277 20.1614C34.5527 19.6726 34.5053 19.7259 34.8578 19.0179L34.8282 18.6505L34.7541 18.769L34.7334 18.7987V18.8135C34.6594 18.8846 34.5794 18.9557 34.4994 19.0208L34.5379 19.1482C34.5353 19.1899 34.5244 19.2306 34.506 19.2681C34.4876 19.3055 34.462 19.339 34.4306 19.3665C34.3992 19.394 34.3627 19.4151 34.3232 19.4285C34.2837 19.4419 34.2419 19.4473 34.2002 19.4445C34.1247 19.4476 34.0505 19.4246 33.9899 19.3793C33.8845 19.4425 33.7758 19.4998 33.6641 19.5511C33.4114 19.6507 33.1418 19.7 32.8703 19.6963C32.7076 19.7014 32.5454 19.7162 32.3845 19.7407H32.3697C32.1831 20.0367 32.1114 20.3908 32.1682 20.7361Z" fill="#9C9D9D"/>
<path fill-rule="evenodd" clip-rule="evenodd" d="M15.228 47.5325C15.202 47.5479 15.171 47.5525 15.1417 47.5453C15.1123 47.5381 15.087 47.5197 15.0711 47.494C15.0567 47.4675 15.053 47.4364 15.0607 47.4073C15.0684 47.3781 15.0869 47.3529 15.1125 47.337C15.231 47.2573 15.3697 47.2131 15.5124 47.2096C15.5761 47.2117 15.6365 47.2383 15.6812 47.2837C15.7246 47.3302 15.748 47.3919 15.7464 47.4555C15.734 47.593 15.6814 47.7238 15.5953 47.8317C15.556 47.8855 15.5124 47.936 15.465 47.9828C15.485 48.0035 15.4993 48.029 15.5065 48.0569C15.5172 48.1046 15.5172 48.1542 15.5065 48.202C15.4615 48.4168 15.3591 48.6154 15.2103 48.7767C14.8383 49.1631 14.4295 49.5123 13.9899 49.8195L13.7914 49.9706C13.7678 49.9885 13.7381 49.9964 13.7087 49.9925C13.6793 49.9886 13.6526 49.9733 13.6344 49.9499C13.5959 49.8995 13.6611 49.861 13.7115 49.8225L13.9099 49.6714C14.3197 49.362 14.6978 49.0127 15.0385 48.6286C15.1548 48.5055 15.2374 48.3545 15.2784 48.1902L15.0237 48.3264C14.763 48.4657 14.4312 48.6464 14.292 48.7056H14.2772C14.2239 48.7353 14.1498 48.7708 14.0906 48.7056C14.5142 48.3472 15.1066 48.1576 15.4028 47.6954C15.4602 47.6245 15.498 47.5397 15.5124 47.4496V47.4347H15.4917C15.3966 47.4429 15.3055 47.4766 15.228 47.5325Z" fill="white"/>
<path fill-rule="evenodd" clip-rule="evenodd" d="M16.9609 48.6584C16.9473 48.6663 16.9323 48.6714 16.9167 48.6734C16.9011 48.6755 16.8853 48.6744 16.8701 48.6703C16.855 48.6661 16.8408 48.659 16.8284 48.6493C16.816 48.6397 16.8057 48.6276 16.798 48.6139C16.7791 48.5871 16.7704 48.5544 16.7737 48.5217C16.777 48.4891 16.7919 48.4587 16.8158 48.4362C16.9219 48.344 17.0573 48.2925 17.1979 48.291C17.2666 48.294 17.3315 48.3238 17.3786 48.374C17.4283 48.428 17.4595 48.4965 17.4674 48.5695C17.4764 48.7187 17.4436 48.8675 17.3726 48.999C17.3435 49.06 17.3077 49.1177 17.266 49.1709C17.2878 49.1968 17.3058 49.2257 17.3193 49.2568C17.3382 49.309 17.3473 49.3642 17.346 49.4197C17.3367 49.6539 17.264 49.8812 17.1357 50.0774C16.8266 50.5108 16.4699 50.9083 16.0723 51.2624L15.8975 51.4342C15.8855 51.4439 15.8716 51.4509 15.8567 51.455C15.8418 51.459 15.8262 51.46 15.8109 51.4578C15.7956 51.4555 15.781 51.4502 15.7678 51.4421C15.7547 51.4339 15.7434 51.4232 15.7346 51.4105C15.6902 51.3512 15.7346 51.3098 15.7938 51.2653C15.8531 51.2209 15.9005 51.1616 15.9716 51.0935C16.3382 50.7364 16.6632 50.3389 16.9402 49.9085C17.0387 49.7583 17.0997 49.5866 17.1179 49.4079L16.8809 49.5619C16.641 49.7219 16.3329 49.9263 16.2085 49.9944C16.1582 50.027 16.0901 50.0685 16.0219 49.9944C16.3833 49.5945 16.9402 49.3782 17.186 48.8598C17.2397 48.7707 17.2655 48.6675 17.2601 48.5636V48.5458H17.2423C17.138 48.5481 17.0381 48.5881 16.9609 48.6584Z" fill="white"/>
<path fill-rule="evenodd" clip-rule="evenodd" d="M21.1789 41.0183C20.5154 42.4817 19.8549 43.7971 19.1232 45.0946C18.5545 46.1019 17.9384 47.1002 17.2423 48.1489C17.1623 48.2674 17.3756 48.3059 17.3756 48.2378C17.8792 47.4972 18.6226 46.3418 19.3454 45.1568C20.1086 43.9408 20.8009 42.6816 21.4189 41.3856C21.7585 41.3119 22.0922 41.2128 22.4171 41.0894L21.9787 41.0272L21.487 40.8672C21.327 40.9116 21.2056 40.962 21.1789 41.0183Z" fill="white"/>
<path fill-rule="evenodd" clip-rule="evenodd" d="M17.9769 44.733C18.6641 43.6065 19.1727 42.3803 19.4846 41.0981C19.5764 40.9944 19.6208 40.8581 19.7601 40.6952L20.1422 40.2567L21.5107 38.9651L21.2559 38.9829L20.0266 40.1412L20.003 40.1708C19.9954 40.1555 19.9842 40.1423 19.9704 40.1323C19.9583 40.125 19.9445 40.1211 19.9304 40.1211C19.9163 40.1211 19.9024 40.125 19.8904 40.1323C19.6357 40.2419 19.298 40.4285 19.3424 40.7544C18.9463 42.0969 18.3967 43.3892 17.7044 44.6056C17.1767 45.5433 16.4866 46.3799 15.6665 47.0763C15.6516 47.0913 15.6433 47.1115 15.6433 47.1326C15.6433 47.1537 15.6516 47.1739 15.6665 47.1889C15.6724 47.1978 15.6801 47.2055 15.6891 47.2113C15.6981 47.2171 15.7082 47.221 15.7188 47.2227C15.7294 47.2243 15.7402 47.2238 15.7506 47.221C15.761 47.2183 15.7707 47.2134 15.779 47.2067C16.6579 46.5248 17.4031 45.6861 17.9769 44.733Z" fill="white"/>
<path fill-rule="evenodd" clip-rule="evenodd" d="M17.3934 44.7961C18.0623 43.6212 18.5949 42.3738 18.9811 41.0782C18.9811 40.6249 19.3484 40.3672 19.7246 40.1894C19.7764 40.1642 19.8329 40.1501 19.8904 40.148L21.099 39.0104L21.3952 38.9926L21.952 38.4179L21.7891 38.5008L21.4574 38.6667L21.1849 38.803L20.9538 38.4445L20.8561 38.489C20.7414 38.5417 20.6212 38.5815 20.4977 38.6075C20.408 38.6257 20.3207 38.6535 20.237 38.6904C20.1718 38.7171 20.077 38.7734 20.0148 38.7912L18.5693 39.2563L19.6624 38.2431L19.2536 38.3675L19.5498 37.858L18.5012 38.5038L16.8395 40.619L17.1357 39.5703L17.112 39.5999C16.8158 39.9495 16.5462 40.3109 16.25 40.6457L14.9763 42.0913L15.6991 40.299C16.0219 39.4837 16.4341 38.7068 16.9283 37.9824C17.2017 37.584 17.4985 37.2022 17.817 36.8389L17.5948 36.9159C17.2038 37.0522 16.8039 37.2122 16.41 37.3247C16.2056 37.381 15.942 37.4729 15.8176 37.1677C15.7901 37.0931 15.789 37.0113 15.8143 36.9359C15.8396 36.8605 15.8899 36.796 15.9568 36.753L16.0101 36.7204L16.1197 36.6552C16.4159 36.4567 16.7595 36.3116 17.0646 36.1249C16.8869 36.1546 16.7062 36.1812 16.5196 36.2049C16.333 36.2286 16.2234 36.2375 16.096 36.2671C15.8679 36.3145 15.6369 36.3945 15.4088 36.4212C15.3566 36.4314 15.3028 36.4309 15.2507 36.4197C15.1987 36.4085 15.1495 36.3869 15.106 36.3562C15.0625 36.3254 15.0258 36.2862 14.9979 36.2409C14.97 36.1955 14.9516 36.145 14.9437 36.0924L14.9171 36.0568V35.9353V35.8731L14.6683 36.0301C14.3163 36.2668 13.9862 36.5345 13.6819 36.83L12.1505 38.3112L13.1517 36.439C13.4527 35.849 13.8367 35.3053 14.2921 34.8244C14.6904 34.4227 15.1492 34.0858 15.6517 33.8261L13.7796 33.8972L15.4977 33.1773C16.4581 32.778 17.4485 32.455 18.4597 32.2115C19.0847 32.0575 19.7186 31.9301 20.3555 31.8235C18.8744 31.462 17.266 30.9347 16.1612 29.9127C16.0345 29.8025 15.9334 29.666 15.865 29.5127C15.8414 29.4524 15.8326 29.3873 15.8393 29.3229C15.8459 29.2585 15.868 29.1966 15.9035 29.1424C15.7788 29.0878 15.6726 28.9983 15.5975 28.8849C15.5224 28.7714 15.4815 28.6386 15.4799 28.5025C15.4848 28.4451 15.4998 28.3889 15.5243 28.3366C15.1156 28.2063 14.6772 27.9841 14.6357 27.5901C14.6316 27.4874 14.6511 27.3851 14.6927 27.2912C14.7343 27.1972 14.7969 27.114 14.8756 27.048C14.8304 26.9979 14.7934 26.9409 14.766 26.8791C14.7422 26.8268 14.7281 26.7706 14.7246 26.7132C12.7082 26.4613 10.748 25.8745 8.92479 24.9772C8.53083 24.7876 8.13984 24.5862 7.75477 24.3847C6.5062 28.3809 6.80069 32.6999 8.58012 36.4896C10.3595 40.2792 13.4946 43.2642 17.3667 44.8553L17.3934 44.8109V44.7961ZM12.5089 17.891C14.0936 18.4598 15.6991 18.9842 17.2927 19.5056C18.2406 19.8018 20.551 20.5483 21.7358 21.3008C21.6558 21.1586 21.564 21.0046 21.5048 20.9187C21.3211 20.6224 20.8798 19.9944 21.0279 19.6359C21.0696 19.5411 21.144 19.4644 21.2375 19.4199C21.331 19.3753 21.4374 19.3657 21.5374 19.393C21.4485 19.2241 21.3507 19.0612 21.2648 18.9042C21.0664 18.5546 20.6043 17.7933 20.5924 17.4022C20.5847 17.2949 20.6187 17.1888 20.6872 17.106C20.5924 16.786 20.4947 16.469 20.391 16.1521C20.0536 15.1939 19.829 14.1997 19.7216 13.1896V13.1274C16.7217 13.8638 13.9856 15.4197 11.8187 17.6214C12.0439 17.7162 12.2749 17.8081 12.5089 17.891ZM29.1173 18.2495C29.5913 19.0908 30.1422 20.027 30.3555 20.972C30.4558 21.3787 30.4977 21.7977 30.4799 22.2162C30.4691 22.5821 30.3673 22.9394 30.1837 23.256C29.4669 25.1876 28.5753 28.4492 29.2447 30.4903C29.308 30.6919 29.3976 30.8841 29.5113 31.0621C29.5635 31.1405 29.6252 31.2121 29.6949 31.2754L29.9467 31.4857C30.7761 31.5005 31.5936 31.2754 32.115 30.5733C32.1535 30.52 32.192 30.4637 32.2275 30.4044L32.4467 30.0371L32.4645 29.9571L32.4793 29.9008L32.5119 29.8505C32.5935 29.7251 32.6667 29.5945 32.7311 29.4594C33.6197 27.5249 32.9236 25.1579 32.3164 23.2383C32.1124 22.5579 31.9521 21.8653 31.8365 21.1645C31.7931 20.8122 31.839 20.4547 31.9698 20.1247L31.0249 20.6106L31.6499 19.5885C32.0557 18.922 32.4467 18.7709 33.0776 18.4331C33.593 18.1576 34.4432 17.9355 34.9201 18.4065L34.9971 18.4805V18.5013L35.9894 18.0332C33.6349 15.475 30.5408 13.7155 27.1387 13C27.2423 13.5925 27.3608 14.185 27.4763 14.7775C27.8436 16.0602 28.4686 17.103 29.1173 18.2495ZM34.1825 20.8209L34.2032 20.7291C34.7779 20.3499 34.7956 20.2343 35.0919 19.6833L36.6825 18.7946C38.8986 21.5149 40.2031 24.8634 40.4114 28.3661C40.6198 31.8688 39.7214 35.3483 37.8434 38.3122C35.9655 41.2761 33.203 43.5743 29.9471 44.8815C26.6912 46.1886 23.1067 46.4386 19.7009 45.5959C20.4338 44.4522 21.0965 43.2651 21.6855 42.041C21.9869 41.9671 22.2837 41.8751 22.5741 41.7655L23.1932 41.2144C24.1795 40.7819 25.003 40.0858 25.859 39.4192L26.0249 39.2888L26.2086 39.197L26.25 39.3807L27.6689 38.7882L31.1108 38.1957C31.7907 38.0417 32.4014 37.6692 32.8496 37.1351C33.2815 36.6587 33.6462 36.1255 33.9337 35.5502L33.987 35.4495V35.4288C34.346 34.9363 34.5417 34.3437 34.5468 33.7342C35.3496 32.9136 35.471 31.8294 35.4769 30.7066C35.4769 29.0743 34.9763 27.1102 34.4817 25.5638C34.2252 24.8547 34.0425 24.1211 33.9366 23.3745C33.833 22.3466 33.9751 21.7955 34.1973 20.812L34.1825 20.8209ZM22.3875 39.2148C22.6361 39.1643 22.8784 39.0869 23.1102 38.9837L23.1487 38.9659L24.0581 38.2549C24.0015 38.4491 23.9589 38.6471 23.9307 38.8474L23.8922 39.1437C23.6728 39.4326 23.428 39.7013 23.1606 39.9465C22.7975 40.2883 22.4005 40.592 21.9757 40.853L21.8099 40.9508L21.5137 40.8471L21.41 40.8797C21.2998 40.8975 21.1947 40.939 21.1022 41.0014C21.0096 41.0638 20.9317 41.1456 20.8738 41.2411C20.24 42.6157 19.5735 43.9725 18.83 45.2908C18.8154 45.3125 18.8026 45.3353 18.7915 45.3589C18.6256 45.3056 18.4627 45.2552 18.3028 45.199C18.9702 44.0782 19.4692 42.8655 19.7838 41.5996C19.8608 41.49 19.9171 41.3685 20.003 41.2648L20.3584 40.8501L22.035 39.274C22.1594 39.2563 22.2749 39.2385 22.3875 39.2148Z" fill="#E3000F"/>
<path fill-rule="evenodd" clip-rule="evenodd" d="M35.0207 18.4758L40.8472 15.7325L35.077 18.9379L35.0207 18.4758ZM34.6831 18.2743C34.4639 18.0551 33.9485 18.0521 33.2346 18.3573C32.7962 18.6535 32.3252 18.7542 31.9372 19.3912C32.1831 19.2638 32.4052 19.0682 32.6511 18.9409C32.5297 19.1088 32.4487 19.3024 32.4141 19.5067C32.6629 19.4415 33.1665 19.5067 33.5367 19.3319C33.9237 19.1517 34.2781 18.9085 34.5853 18.612C34.63 18.5694 34.6626 18.5157 34.6797 18.4564C34.6969 18.397 34.698 18.3342 34.6831 18.2743ZM17.112 25.1235C17.3164 25.6034 17.8732 26.3085 18.8092 27.0965C18.8241 27.1115 18.8324 27.1317 18.8324 27.1528C18.8324 27.1739 18.8241 27.1941 18.8092 27.2091C18.802 27.2168 18.7933 27.2229 18.7836 27.2271C18.774 27.2314 18.7635 27.2335 18.753 27.2335C18.7424 27.2335 18.732 27.2314 18.7223 27.2271C18.7126 27.2229 18.7039 27.2168 18.6967 27.2091C17.7488 26.427 17.1801 25.6864 16.9609 25.1798C16.8928 25.0169 16.721 24.8569 16.7239 24.7443C16.7269 24.6317 16.9194 24.5399 17.0201 24.4895C17.2393 24.3859 15.862 23.7223 16.2589 23.2068C16.3863 23.0588 16.5362 22.9318 16.7032 22.8306H16.7269C16.7506 22.8306 16.7536 22.798 16.7417 22.7832C16.5225 22.4543 15.7938 22.247 15.6813 22.0396C15.3466 21.5656 16.0989 21.5449 15.9982 21.4471C15.785 21.2397 15 21.2131 13.2701 20.3925C12.3642 19.911 11.4932 19.3666 10.6635 18.7631C10.6458 18.7511 10.6334 18.7326 10.629 18.7116C10.6246 18.6906 10.6284 18.6687 10.6398 18.6505C10.6458 18.6417 10.6534 18.6341 10.6623 18.6283C10.6712 18.6224 10.6812 18.6184 10.6917 18.6165C10.7022 18.6145 10.713 18.6147 10.7234 18.617C10.7338 18.6193 10.7437 18.6236 10.7524 18.6298C11.5765 19.1696 12.4377 19.6507 13.3294 20.0696C14.2536 20.508 15.2636 20.9198 16.404 21.3464C16.4899 21.379 16.5077 21.4293 16.484 21.4975C16.4603 21.5656 16.3744 21.616 16.2796 21.6782C16.1848 21.7404 16.0338 21.8441 16.0486 21.8767C16.2135 22.0638 16.4152 22.215 16.641 22.321C16.8429 22.4098 17.0259 22.5365 17.1801 22.6943C17.1982 22.7147 17.2112 22.7392 17.218 22.7657C17.2248 22.7922 17.2252 22.8199 17.2191 22.8466C17.213 22.8732 17.2006 22.898 17.183 22.919C17.1654 22.9399 17.1431 22.9563 17.1179 22.9668H17.0972C16.9473 23.0559 16.8107 23.1656 16.6914 23.2927C16.5107 23.5267 16.5699 23.8615 17.3786 24.4777C17.3863 24.4849 17.3924 24.4936 17.3966 24.5033C17.4008 24.513 17.403 24.5234 17.403 24.534C17.403 24.5445 17.4008 24.555 17.3966 24.5647C17.3924 24.5743 17.3863 24.5831 17.3786 24.5903C17.3691 24.6028 17.3563 24.6123 17.3415 24.6175C17.3268 24.6228 17.3108 24.6236 17.2956 24.6199C17.2285 24.5966 17.1554 24.5966 17.0883 24.6199C17.0657 24.6334 17.0475 24.6532 17.036 24.6769C17.0244 24.7006 17.0199 24.7271 17.0231 24.7532C17.025 24.8728 17.0544 24.9904 17.109 25.0968L17.112 25.1235ZM9.06991 24.3118C6.98284 23.2789 5.02016 22.0117 3.21979 20.5347L2.3519 19.3052L3.44194 19.7881C3.45572 19.7994 3.47299 19.8056 3.49082 19.8056C3.50864 19.8056 3.52592 19.7994 3.53969 19.7881C3.55452 19.7731 3.56285 19.7529 3.56285 19.7318C3.56285 19.7108 3.55452 19.6905 3.53969 19.6755L2.44372 18.6357H2.42595C1.96715 18.3963 1.57907 18.0409 1.30036 17.6048C1.25732 17.5329 1.23289 17.4515 1.22927 17.3678C1.228 17.3474 1.23263 17.327 1.24261 17.3092C1.25259 17.2913 1.26749 17.2767 1.28555 17.2671C1.40942 17.2249 1.54378 17.2249 1.66765 17.2671C1.68357 17.2716 1.70052 17.2709 1.71599 17.265C1.73147 17.2591 1.74464 17.2484 1.75355 17.2345C1.75957 17.2256 1.76374 17.2156 1.7658 17.2051C1.76787 17.1945 1.7678 17.1837 1.76559 17.1732C1.76337 17.1627 1.75907 17.1527 1.75293 17.1439C1.7468 17.1351 1.73895 17.1276 1.72986 17.1219C1.37717 16.9212 1.05747 16.6674 0.781991 16.3694C0.699052 16.2361 0.850119 16.1473 1.45142 16.1532C1.4688 16.1585 1.48736 16.1585 1.50474 16.1532C1.52198 16.1498 1.53768 16.1409 1.54958 16.128C1.56148 16.115 1.56896 16.0986 1.57093 16.0812C1.57291 16.0637 1.56929 16.0461 1.56058 16.0308C1.55188 16.0155 1.53855 16.0034 1.52251 15.9962C1.11034 15.4156 0.757091 14.7953 0.46801 14.1446C0.247151 13.6439 0.0899228 13.1174 0 12.5775C0.208993 12.8182 0.43361 13.0448 0.672393 13.2559C1.00134 13.5497 1.35515 13.8143 1.72986 14.0469C1.74247 14.0542 1.75677 14.058 1.77133 14.058C1.78589 14.058 1.80019 14.0542 1.8128 14.0469C1.83177 14.0368 1.84625 14.0199 1.85338 13.9996C1.86051 13.9793 1.85977 13.957 1.8513 13.9373L0.55391 11.2711L2.03495 12.1065C2.05114 12.1143 2.06944 12.1167 2.0871 12.1133C2.10476 12.1098 2.12083 12.1007 2.13286 12.0874C2.1449 12.074 2.15226 12.0571 2.15384 12.0391C2.15541 12.0212 2.15111 12.0032 2.14159 11.988C1.7373 11.4499 1.38519 10.8746 1.09005 10.2698C0.854025 9.78835 0.674131 9.2814 0.55391 8.7589C1.03081 9.22993 2.35486 10.8474 3.11908 11.7836C3.3827 12.1035 3.58116 12.3464 3.66114 12.4383C3.66834 12.446 3.67706 12.4521 3.68674 12.4563C3.69642 12.4605 3.70686 12.4627 3.71742 12.4627C3.72797 12.4627 3.73841 12.4605 3.7481 12.4563C3.75778 12.4521 3.76649 12.446 3.7737 12.4383C3.78853 12.4233 3.79685 12.4031 3.79685 12.382C3.79685 12.3609 3.78853 12.3407 3.7737 12.3257L3.23756 11.674C2.42891 10.6875 1.00415 8.94553 0.571682 8.54856C0.688648 8.55885 0.799469 8.60546 0.888626 8.68187C1.92536 9.47878 2.89692 10.6638 3.85071 11.6295L4.10841 11.9909C5.32417 13.6718 6.74066 15.198 8.32642 16.5353C8.73223 16.8731 9.25652 17.2523 9.70379 17.5781C10.208 17.9582 10.7375 18.3037 11.2885 18.612C12.7696 19.5245 14.4491 20.1199 16.3241 20.6857C16.6825 20.7983 17.0468 20.902 17.4171 21.0027C17.7873 21.1035 18.1517 21.1983 18.5219 21.299C18.5322 21.3021 18.5431 21.303 18.5538 21.3016C18.5645 21.3002 18.5747 21.2967 18.584 21.2911C18.5932 21.2855 18.6011 21.278 18.6073 21.2692C18.6134 21.2603 18.6176 21.2503 18.6197 21.2397C18.6223 21.2294 18.6229 21.2187 18.6213 21.2081C18.6198 21.1976 18.6161 21.1875 18.6106 21.1784C18.6051 21.1693 18.5978 21.1614 18.5892 21.1551C18.5806 21.1489 18.5708 21.1444 18.5604 21.142C18.1902 21.0531 17.8229 20.9583 17.4585 20.8457C17.0942 20.7331 16.7328 20.6413 16.3714 20.5287C14.589 20.0092 12.8769 19.273 11.2737 18.3365C10.782 18.0403 10.314 17.7233 9.86967 17.4033C9.42535 17.0834 8.99585 16.7457 8.59005 16.4109C7.19386 15.2399 5.9268 13.923 4.81043 12.4827C4.92172 12.5909 5.04159 12.69 5.16884 12.779C5.52888 12.9883 5.86041 13.2432 6.15521 13.5373C6.30924 13.6914 6.49585 13.8128 6.65877 13.9699C7.44045 14.7415 8.27373 15.4591 9.15284 16.1176C10.1496 16.8489 11.2471 17.4316 12.4111 17.8477C14.1884 18.4817 15.7998 19.009 17.2038 19.4652C19.8697 20.3303 21.5314 21.0205 22.035 21.5863C23.2038 24.022 24.5513 26.3677 26.0664 28.6044C27.2986 30.3226 28.5604 31.4128 29.4579 31.4335C31.019 31.7298 31.9105 31.0366 32.3726 30.4145C32.42 30.3493 32.4645 30.2841 32.503 30.2189C32.3371 31.1788 32.3756 31.8868 32.577 32.2927C32.6205 32.3877 32.6795 32.4748 32.7518 32.5504C32.7969 32.5974 32.8488 32.6373 32.9058 32.6689C32.7222 33.0392 32.8406 33.6376 33.1487 34.2716C33.2109 34.4019 33.282 34.5323 33.359 34.6656C33.436 34.7989 33.5101 34.9085 33.593 35.03C33.3198 35.5773 32.973 36.0846 32.5622 36.5379C32.1438 36.9947 31.6079 37.3278 31.013 37.5007L27.2038 38.1583C26.019 38.0487 25.9153 37.1718 26.019 36.1527C26.0397 35.9098 26.0752 35.655 26.1078 35.4003C26.1404 35.1455 26.1789 34.8552 26.2026 34.5974C26.2032 34.5824 26.2 34.5674 26.1933 34.554C26.1866 34.5405 26.1765 34.5289 26.1641 34.5204C26.1456 34.5093 26.1234 34.5059 26.1024 34.5109C26.0814 34.5159 26.0631 34.5289 26.0515 34.5471C25.9508 34.7071 25.8442 34.7841 25.7287 34.7752H25.7079C25.2725 34.8581 24.9911 34.4789 24.5883 34.5115C24.4372 34.5115 24.2328 34.9352 24.0492 34.9411L24.1736 34.3723C23.8774 34.3723 23.1043 34.9174 22.814 34.9648C22.6896 34.9855 23.6434 33.8746 23.5634 33.8568C23.4834 33.8391 22.3786 34.8344 22.3193 34.8315C22.1179 34.8315 22.1831 34.8078 22.0231 34.7722C22.0231 34.7722 22.1297 34.6093 22.0231 34.5086C21.9165 34.4078 21.6114 34.6478 21.4307 34.6597L21.3685 34.633H21.3477H21.327C21.3117 34.594 21.3117 34.5506 21.327 34.5115C21.3714 34.3427 21.9194 33.9842 21.6232 34.0494C21.5432 34.0672 21.4248 34.1323 21.3566 34.1383C21.1226 34.1649 20.8235 34.4345 20.5895 34.4345C20.3479 34.3907 20.1095 34.3313 19.8756 34.2568C19.9023 34.2123 19.923 34.159 19.9704 34.156C20.0748 34.0967 20.1681 34.0195 20.2459 33.9279C20.5421 33.5784 20.003 33.8687 19.7778 33.8687C19.5087 33.8463 19.2526 33.743 19.0432 33.5724C19.0107 33.525 18.981 33.4391 18.9425 33.371C18.9465 33.3549 18.9515 33.3391 18.9573 33.3236C19.5298 33.0019 20.1236 32.7198 20.7346 32.4793C20.9686 32.3875 22.7459 31.9549 22.7784 31.8868C22.7822 31.8769 22.784 31.8663 22.7836 31.8557C22.7833 31.8451 22.7809 31.8347 22.7764 31.825C22.772 31.8154 22.7658 31.8067 22.758 31.7995C22.7502 31.7923 22.741 31.7867 22.731 31.7831C22.4695 31.6822 22.2025 31.5962 21.9313 31.5254C21.9283 31.5039 21.9171 31.4844 21.8999 31.4711C21.8827 31.4578 21.861 31.4517 21.8395 31.4543L21.7121 31.4721C21.4633 31.4098 21.2056 31.3506 20.9419 31.2913C19.3898 30.9388 17.5563 30.4411 16.3685 29.3391C16.2786 29.2639 16.2051 29.1711 16.1523 29.0665C16.1523 29.028 16.1523 29.0014 16.1759 28.9866C16.3569 28.9446 16.5455 28.9497 16.7239 29.0014C16.7427 29.0054 16.7624 29.0026 16.7792 28.9933C16.7961 28.9841 16.8091 28.969 16.8158 28.951C16.8224 28.9306 16.8209 28.9083 16.8115 28.889C16.8021 28.8696 16.7856 28.8547 16.7654 28.8473C15.7909 28.5007 15.5569 28.2104 16.0693 27.9764C16.0813 27.9717 16.0919 27.9641 16.1002 27.9542C16.1084 27.9444 16.1141 27.9327 16.1167 27.9201C16.1194 27.9098 16.1199 27.899 16.1184 27.8885C16.1168 27.878 16.1132 27.8678 16.1076 27.8587C16.1021 27.8496 16.0948 27.8417 16.0862 27.8355C16.0776 27.8292 16.0678 27.8247 16.0575 27.8223C14.9121 27.5557 14.6673 27.2199 15.3229 26.8151L15.3495 26.7914C15.3555 26.7825 15.3597 26.7725 15.3618 26.7619C15.3638 26.7514 15.3638 26.7406 15.3616 26.7301C15.3593 26.7196 15.355 26.7096 15.3489 26.7008C15.3428 26.692 15.3349 26.6845 15.3258 26.6788C15.2203 26.62 15.1323 26.5341 15.0711 26.43C15.0563 26.3972 15.0523 26.3606 15.0598 26.3254C15.0673 26.2902 15.0857 26.2584 15.1126 26.2344C15.1254 26.2207 15.1327 26.2028 15.1333 26.1841C15.1345 26.1737 15.1336 26.1632 15.1307 26.1532C15.1277 26.1432 15.1228 26.1339 15.1161 26.1259C15.1095 26.1179 15.1013 26.1112 15.092 26.1065C15.0827 26.1017 15.0726 26.0989 15.0622 26.0982C12.9739 25.8785 10.9416 25.2876 9.06102 24.3533L9.06991 24.3118ZM27.1475 14.5001C26.6677 12.2398 26.2915 10.175 26.4277 7.98273C26.564 5.79052 27.2068 3.50054 28.7767 0.77804C28.9334 0.541503 29.043 0.276965 29.0995 -0.0010861C29.0995 -0.0869973 28.9603 -0.0751475 28.6019 0.117412C28.1051 0.370924 27.6431 0.687565 27.2275 1.05947C26.8343 1.42 26.4987 1.8386 26.2322 2.30074L26.0012 2.70364L26.0664 2.24742C26.1204 2.04168 26.1345 1.82747 26.1078 1.61642C26.09 1.56309 26.013 1.59568 25.8294 1.7675L23.7322 4.69441L22.7488 5.9416C22.0256 6.95204 21.5212 8.10229 21.2678 9.3188C21.0262 10.5321 20.9792 11.7761 21.1286 13.0041L21.1819 13.4929L20.9745 13.0485C20.6072 12.2546 20.314 11.7391 20.1422 11.6562C20.0326 11.6058 19.997 11.9524 20.0681 12.7997C20.1651 13.791 20.3891 14.7657 20.7346 15.6999C20.856 16.0791 20.9745 16.4613 21.0841 16.8523L21.1137 16.9531H21.0101C20.9656 16.9531 20.9479 16.9856 20.9479 17.036C20.9479 17.2878 21.2707 17.8418 21.5788 18.3839C21.7799 18.719 21.96 19.0663 22.1179 19.4237L22.189 19.6015L22.0142 19.5304C21.5758 19.3497 21.3922 19.3319 21.3596 19.4089C21.3004 19.5541 21.5581 19.9718 21.8128 20.3895C22.0016 20.6663 22.1567 20.9647 22.2749 21.2782L22.1949 21.299H22.1446C22.2038 21.3459 22.2593 21.3974 22.3104 21.453C24.3039 25.4227 26.1315 28.5037 27.6422 30.0441C27.5652 29.9168 27.4467 29.6738 27.346 29.4517C27.269 29.2917 27.2008 29.1554 27.1771 29.108C26.8056 28.3997 26.542 27.6398 26.3951 26.8536C26.2817 26.3249 26.1302 25.8051 25.9419 25.2983C25.9184 25.173 25.9221 25.0442 25.9528 24.9205C25.9835 24.7968 26.0404 24.6811 26.1197 24.5814C26.1434 24.5458 26.1611 24.5132 26.173 24.4925C26.0397 24.4481 25.9182 24.2377 25.8412 24.0748C25.8235 24.0422 25.8086 24.0096 25.7968 23.983C25.785 23.9563 25.779 23.9326 25.7701 23.9148C25.7464 23.8526 25.7879 23.8141 25.8472 23.7637C25.8881 23.7345 25.9225 23.697 25.948 23.6536C25.9735 23.6102 25.9896 23.562 25.9953 23.5119C25.9942 23.2781 25.9643 23.0453 25.9064 22.8187C25.8766 22.7196 25.8597 22.617 25.856 22.5136H25.9123H25.9686C25.9747 22.6136 25.9906 22.7129 26.016 22.8098C26.0737 23.0475 26.1045 23.291 26.1078 23.5356C26.1013 23.6007 26.081 23.6637 26.0483 23.7204C26.0157 23.7771 25.9713 23.8262 25.9182 23.8645C25.8946 23.8852 25.8709 23.8793 25.8738 23.8882L25.9005 23.9504L25.939 24.0392C26.013 24.1933 26.1286 24.3977 26.2174 24.3977C26.3063 24.3977 26.2974 24.4244 26.2974 24.4747C26.2832 24.5394 26.2549 24.6001 26.2145 24.6525C26.1167 24.8154 25.9656 25.0672 26.0427 25.2687C26.2677 25.7409 26.4578 26.2291 26.6114 26.7292C26.9076 27.9734 27.1357 29.1465 28.0124 30.1893C28.4331 30.69 28.7382 31.1254 29.4935 31.1551C29.3984 31.0747 29.3156 30.9809 29.2476 30.8766C29.119 30.6721 29.0194 30.4508 28.9514 30.2189C28.5101 28.8769 28.5219 26.3144 29.9023 22.7387C30.0646 22.4634 30.1552 22.1517 30.1659 21.8322C30.1804 21.4464 30.1405 21.0604 30.0474 20.6857C29.8578 19.8474 29.3839 19.009 28.8448 18.0521C28.1669 16.9271 27.6051 15.7359 27.1682 14.4972L27.1475 14.5001Z" fill="white"/>
<path fill-rule="evenodd" clip-rule="evenodd" d="M58.2013 18.3465H63.8533V19.2776H62.6794V25.2085H62.834C63.492 23.8307 63.945 22.8501 64.193 22.2669C64.6517 21.2677 65.017 20.5208 65.2871 20.0177C65.5794 19.4929 65.9632 19.0251 66.4202 18.6364C66.8937 18.2187 67.5057 17.9937 68.136 18.0055C68.7762 17.9969 69.4098 18.1364 69.9877 18.413C69.9425 18.6233 69.8795 18.8293 69.7991 19.0286C69.6884 19.2823 69.597 19.5439 69.5256 19.8114C69.4734 20.1501 69.4427 20.4919 69.4339 20.8345C69.4339 20.9368 69.4186 21.0494 69.4118 21.1756C69.405 21.3018 69.3982 21.4177 69.388 21.5166H68.965C68.7338 21.4309 68.507 21.3336 68.2855 21.225C67.9344 21.0494 67.548 20.9566 67.1558 20.9539C66.7802 20.961 66.4192 21.1012 66.1365 21.3495C65.8103 21.6138 65.457 22.0777 65.0679 22.7461C64.5525 23.661 64.0902 24.605 63.6834 25.5735C64.6218 25.7272 65.5297 26.0306 66.3726 26.4721C67.2787 26.9326 68.0675 27.7153 68.7391 28.8203C69.4107 29.9253 69.7504 31.3935 69.7584 33.225H71.058V34.1765H65V33.225H65.9989C65.9989 31.5425 65.8398 30.1873 65.5215 29.1596C65.2021 28.1365 64.7944 27.3896 64.2967 26.9428C63.8547 26.514 63.2859 26.2411 62.676 26.1652V33.2318H63.7632V34.1833H58.2862V33.2318H59.3735V26.1584C58.7601 26.2326 58.1875 26.5056 57.7426 26.936C57.2449 27.3896 56.8405 28.1296 56.5212 29.163C56.2018 30.1964 56.0438 31.5504 56.0438 33.225H57.058V34.1765H51V33.225H52.3013C52.3013 30.5898 52.935 28.714 54.2023 27.5976C55.3698 26.528 56.8227 25.8234 58.3831 25.57C57.9745 24.6002 57.5122 23.654 56.9985 22.7359C56.6078 22.0674 56.2477 21.6002 55.9283 21.3393C55.645 21.0923 55.2841 20.9534 54.909 20.9471C54.5168 20.9503 54.1305 21.043 53.7793 21.2182C53.5777 21.3171 53.3512 21.4143 53.0997 21.5098H52.658C52.658 21.4109 52.6445 21.2984 52.6377 21.1688C52.6309 21.0392 52.6241 20.9317 52.6156 20.8277C52.6075 20.4751 52.5746 20.1235 52.517 19.7756C52.4504 19.5179 52.3624 19.2663 52.2537 19.0235C52.1737 18.8234 52.1084 18.6176 52.0584 18.4079C52.6387 18.1312 53.2745 17.9918 53.9169 18.0004C54.548 17.9897 55.1606 18.2145 55.6361 18.6313C56.0931 19.02 56.4769 19.4878 56.7692 20.0126C57.0393 20.5156 57.4046 21.2625 57.8632 22.2618C58.0807 22.7649 58.5343 23.742 59.2223 25.2034H59.3684V19.2776H58.1962V18.3465H58.2013ZM80.7548 34.1765H79.6523C79.5996 34.8927 79.564 35.4742 79.5453 35.9159V36.939C79.561 37.7228 79.6468 38.5035 79.8018 39.2719V39.838L77.8193 39.9966C77.8241 38.5423 77.9223 37.0898 78.1132 35.6482C78.1483 35.3185 78.2049 34.8279 78.2831 34.1765H76.343L72.9539 19.2776H72.0807V18.3465H77.8142V19.2776H76.343L79.0033 31.3458C79.9671 26.612 80.7645 23.177 81.3953 21.0409C81.5471 20.5276 81.7344 20.0256 81.9559 19.5385C82.1502 19.1217 82.4338 18.753 82.7866 18.4591C83.1701 18.1479 83.6529 17.9867 84.1457 18.0055C84.5 18.0153 84.8513 18.0726 85.1905 18.176C85.6033 18.2937 85.87 18.4489 85.9821 18.633C85.9426 18.8666 85.8783 19.0953 85.7901 19.3151C85.6852 19.5612 85.6171 19.8215 85.588 20.0876C85.5427 20.6366 85.5251 21.1875 85.5353 21.7383H85.2125C85.1293 21.6923 85.0732 21.6616 85.0427 21.6479C85.0121 21.6343 84.939 21.5951 84.8303 21.5303C84.4311 21.3069 84.1406 21.1892 83.9554 21.1892C83.4435 21.1892 82.9876 21.5036 82.5879 22.1322C82.1461 22.8584 81.8033 23.6407 81.5686 24.4582C81.2956 25.3791 81.0601 26.355 80.8619 27.3862C80.6637 28.4173 80.5062 29.2352 80.3896 29.84C80.0804 31.4021 79.846 32.5241 79.6863 33.2147H80.7548V34.1663V34.1765ZM92.1165 28.1296V33.225H93.885V34.1765H87.0439V33.225H88.8123V24.9391C88.8123 23.7591 88.8339 22.6108 88.8769 21.4945C89.2643 20.4477 89.9735 19.5519 90.9019 18.9366C91.8215 18.3182 92.9056 17.9931 94.0124 18.0038C95.0149 17.9791 96.01 18.1832 96.9225 18.6006C97.6728 18.9443 98.3072 19.4997 98.7482 20.1993C99.1893 20.8988 99.4179 21.712 99.4062 22.5398C99.4163 23.3101 99.2562 24.073 98.9373 24.7737C98.6548 25.4071 98.2084 25.9529 97.6445 26.3545C97.1049 26.7331 96.4613 26.934 95.803 26.9291C95.5208 26.94 95.239 26.8978 94.9723 26.8047C94.7701 26.7211 94.4626 26.5659 94.0515 26.3442C93.8324 26.2232 93.6761 26.1396 93.5826 26.0953L92.1165 28.1296ZM92.1165 26.7654L93.4756 24.9306C93.6069 25.0409 93.7527 25.1327 93.9088 25.2034C94.0182 25.2615 94.1375 25.2985 94.2604 25.3126C94.6002 25.3126 94.9162 25.1136 95.2084 24.7157C95.5006 24.3178 95.6478 23.5732 95.6501 22.4818C95.6501 21.3904 95.5244 20.531 95.2729 19.8966C95.1712 19.6075 94.9784 19.3595 94.7236 19.1903C94.4689 19.021 94.1661 18.9397 93.8612 18.9587C93.6319 18.9443 93.4029 18.9917 93.198 19.096C92.993 19.2004 92.8197 19.3579 92.6958 19.5522C92.4283 19.9931 92.2666 20.4905 92.2236 21.0051C92.1506 21.7245 92.1177 22.4476 92.125 23.1707V26.774L92.1165 26.7654ZM106.23 18.9587H104.589V18.0055H111.215V18.9587H109.528L113.459 33.2284H114.93V34.1765H108.532V33.2284H110.153L108.554 27.3623C108.388 28.1764 108.154 28.975 107.854 29.7497C107.549 30.5682 107.163 31.3542 106.703 32.0961C106.305 32.7541 105.8 33.3399 105.208 33.8286C104.733 34.237 104.133 34.4688 103.509 34.4852C103.197 34.4899 102.887 34.432 102.597 34.3149C102.307 34.1977 102.044 34.0237 101.822 33.8031C101.356 33.3483 101.123 32.6691 101.122 31.7653C101.143 30.8585 101.316 29.9617 101.632 29.1119C101.98 28.1093 102.409 27.1365 102.913 26.2027C103.439 25.2239 104.047 24.182 104.735 23.0684C104.778 22.9968 104.992 22.6575 105.376 22.0453C105.662 21.6074 105.91 21.1452 106.117 20.664C106.239 20.3371 106.301 19.9902 106.298 19.6408C106.295 19.4119 106.273 19.1837 106.23 18.9587ZM107.929 25.2136L106.969 21.6121C106.221 22.7061 105.54 23.8451 104.931 25.0227C104.56 25.7214 104.224 26.4386 103.925 27.1713C103.657 27.8468 103.485 28.557 103.415 29.2807V29.8724C103.522 30.6074 103.925 30.9774 104.627 30.9774C105.163 30.9774 105.67 30.6404 106.147 29.9662C106.654 29.2307 107.054 28.427 107.336 27.5788C107.616 26.8089 107.818 26.0125 107.938 25.2017L107.929 25.2136ZM117.443 33.2284V26.0492C117.443 24.2485 117.599 22.7734 117.915 21.6155C118.231 20.4577 118.802 19.5692 119.637 18.9434C120.473 18.3176 121.656 18.0072 123.173 18.0072C123.808 17.9986 124.44 18.0983 125.041 18.3022C125.557 18.475 126.033 18.7498 126.441 19.1105C126.811 19.4352 127.107 19.8351 127.311 20.2837C127.505 20.7158 127.605 21.1843 127.605 21.6582C127.605 22.7751 127.265 23.5936 126.608 24.1035C125.94 24.618 125.118 24.8898 124.277 24.8743C123.665 24.8743 123.02 24.631 122.34 24.1444L121.403 25.3944C121.85 25.7854 122.338 26.1283 122.857 26.4176C123.312 26.6687 123.798 26.8579 124.302 26.9803C124.828 27.0988 125.366 27.1561 125.904 27.1508H126.096C126.435 27.1339 126.773 27.1921 127.087 27.3214C127.188 27.3679 127.279 27.4358 127.352 27.5206C127.425 27.6053 127.479 27.7049 127.51 27.8125C127.583 28.1171 127.615 28.4303 127.605 28.7435V32.3451C127.605 32.4235 127.605 32.5156 127.595 32.5974C127.585 32.6793 127.585 32.8055 127.585 32.9555C127.588 33.1927 127.558 33.4292 127.496 33.6581C127.458 33.7487 127.401 33.8299 127.329 33.8959C127.256 33.9619 127.17 34.0111 127.077 34.0401C126.711 34.1524 126.329 34.1998 125.947 34.1799H115.667V33.2284H117.443ZM120.745 33.2284H123.365C123.719 33.2284 123.964 33.1329 124.099 32.9419C124.238 32.7492 124.306 32.3417 124.306 31.7141V29.1562C124.323 28.8998 124.273 28.6433 124.16 28.4127C124.063 28.2575 123.805 28.0614 123.385 27.8159C122.64 27.3805 122.098 27.0434 121.761 26.8047C121.382 26.5224 121.039 26.1935 120.742 25.8258V33.2284H120.745ZM120.745 25.0295L121.978 23.2407C122.415 23.4981 122.746 23.626 122.962 23.626C123.264 23.626 123.564 23.4487 123.861 23.094C124.156 22.7359 124.306 22.1391 124.306 21.2932C124.306 20.4974 124.146 19.9086 123.825 19.5266C123.68 19.3458 123.496 19.2007 123.287 19.1023C123.077 19.0039 122.848 18.9548 122.617 18.9587C121.865 18.9587 121.367 19.3697 121.122 20.1968C120.878 21.0238 120.742 22.122 120.721 23.4913C120.721 23.6925 120.721 23.9415 120.731 24.2399C120.742 24.5384 120.745 24.8027 120.745 25.0278V25.0295ZM138.049 34.1799H136.942C136.889 34.8961 136.853 35.4776 136.835 35.9193V36.9425C136.85 37.7262 136.936 38.5069 137.091 39.2753V39.8414L135.109 40C135.113 38.5457 135.212 37.0932 135.402 35.6516C135.439 35.3219 135.495 34.8313 135.572 34.1799H133.637L130.248 19.2776H129.375V18.3465H135.109V19.2776H133.637L136.298 31.3458C137.26 26.6086 138.058 23.1736 138.69 21.0409C138.841 20.5276 139.029 20.0256 139.25 19.5385C139.445 19.1217 139.728 18.753 140.081 18.4591C140.464 18.1479 140.947 17.9867 141.44 18.0055C141.794 18.0151 142.146 18.0725 142.485 18.176C142.898 18.2937 143.164 18.4489 143.277 18.633C143.237 18.8666 143.173 19.0953 143.085 19.3151C142.98 19.5612 142.911 19.8215 142.882 20.0876C142.837 20.6366 142.82 21.1875 142.83 21.7383H142.509C142.425 21.6923 142.369 21.6616 142.339 21.6479C142.308 21.6343 142.237 21.5951 142.126 21.5303C141.727 21.3069 141.437 21.1892 141.252 21.1892C140.741 21.1892 140.288 21.5036 139.892 22.1322C139.451 22.8584 139.108 23.6407 138.873 24.4582C138.6 25.3791 138.365 26.355 138.166 27.3862C137.968 28.4173 137.811 29.2352 137.694 29.84C137.385 31.4021 137.151 32.5241 136.991 33.2147H138.059V34.1663L138.049 34.1799ZM149.346 33.2284H153.653V19.2998H152.178V18.3465H158.423V19.2998H156.949V33.2284H161.255V19.2998H159.781V18.3465H166.328V19.2998H164.566V33.2284H166.335V34.1799H144.274V33.2284H146.042V19.2998H144.274V18.3465H150.821V19.2998H149.346V33.2284ZM173.006 25.3177H173.791L174.09 24.6867C174.22 24.4213 174.333 24.1479 174.429 23.8682C174.543 23.626 174.625 23.4487 174.677 23.3361C174.73 23.2236 174.798 23.0787 174.88 22.8979C175.127 22.3659 175.396 21.7906 175.687 21.1722C175.951 20.605 176.26 20.0598 176.611 19.5419C176.902 19.1015 177.276 18.7222 177.712 18.425C178.128 18.1441 178.62 17.9977 179.122 18.0055C179.77 18.0021 180.411 18.1412 181.001 18.413C180.735 19.1463 180.589 19.5726 180.557 19.6903C180.508 19.9355 180.477 20.184 180.465 20.4338C180.424 20.7921 180.402 21.1525 180.401 21.5132H179.974C179.723 21.4177 179.495 21.3205 179.295 21.2216C178.938 21.0389 178.543 20.9459 178.143 20.9505C177.73 20.9487 177.333 21.1112 177.039 21.4024C176.65 21.7959 176.325 22.2482 176.076 22.7427C175.753 23.3361 175.283 24.2797 174.666 25.5735C175.71 25.8105 176.714 26.2013 177.645 26.733C178.491 27.231 179.191 28.0035 179.745 29.0505C180.299 30.0975 180.589 31.489 180.615 33.225H181.897V34.1765H176.101V33.225H176.928C176.952 32.6503 176.968 32.2427 176.968 32.0023C176.977 31.259 176.913 30.5165 176.779 29.7855C176.666 29.1869 176.449 28.6131 176.137 28.0904C175.826 27.5878 175.404 27.1641 174.903 26.8524C174.32 26.4947 173.677 26.2468 173.006 26.1208V33.2318H174.328V34.1833H167.933V33.2318H169.702V19.2776H167.933V18.3465H174.474V19.2776H173.006V25.3177ZM188.311 18.9587H186.678V18.0055H193.303V18.9587H191.605L195.529 33.2301H197V34.1782H190.612V33.2301H192.233L190.633 27.364C190.468 28.1783 190.235 28.977 189.935 29.7514C189.628 30.5696 189.243 31.3556 188.783 32.0978C188.385 32.7558 187.88 33.3416 187.288 33.8304C186.814 34.2387 186.214 34.4705 185.589 34.4869C185.277 34.4916 184.967 34.4337 184.677 34.3166C184.387 34.1994 184.124 34.0254 183.902 33.8048C183.437 33.35 183.203 32.6708 183.202 31.767C183.221 30.8609 183.39 29.9642 183.702 29.1136C184.051 28.1155 184.478 27.1468 184.979 26.2163C185.506 25.2375 186.112 24.1956 186.802 23.0821C186.844 23.0104 187.059 22.6711 187.442 22.0589C187.734 21.6172 187.987 21.1504 188.197 20.664C188.319 20.337 188.38 19.9901 188.377 19.6408C188.374 19.4119 188.351 19.1837 188.309 18.9587H188.311ZM190.009 25.2136L189.056 21.6104C188.308 22.7044 187.627 23.8434 187.018 25.021C186.647 25.7197 186.311 26.4369 186.012 27.1696C185.744 27.8451 185.572 28.5553 185.502 29.279V29.8724C185.609 30.6074 186.012 30.9774 186.714 30.9774C187.25 30.9774 187.757 30.6404 188.234 29.9662C188.741 29.2307 189.141 28.427 189.423 27.5788C189.7 26.8119 189.898 26.0189 190.016 25.2119L190.009 25.2136Z" fill="white"/>
</g>
<defs>
<clipPath id="clip0">
<rect width="300" height="52" fill="white"/>
</clipPath>
</defs>
</svg>
