<svg width="24" height="24" viewBox="0 0 24 24" fill="none" xmlns="http://www.w3.org/2000/svg">
<path d="M15.4167 24C15.7388 24 16 23.7761 16 23.5V4.5C16 4.22388 15.7388 4 15.4167 4H9.58333C9.26119 4 9 4.22388 9 4.5V23.5C9 23.7761 9.26119 24 9.58333 24H15.4167ZM10.1667 5H14.8333V23H10.1667V5Z" fill="white"/>
<path d="M1.5 24H6.5C6.77612 24 7 23.7761 7 23.5V8.5C7 8.22388 6.77612 8 6.5 8H1.5C1.22388 8 1 8.22388 1 8.5V23.5C1 23.7761 1.22388 24 1.5 24ZM2 9H6V23H2V9Z" fill="white"/>
<path d="M23.5 24C23.7761 24 24 23.7761 24 23.5V0.5C24 0.223877 23.7761 0 23.5 0H18.5C18.2239 0 18 0.223877 18 0.5V23.5C18 23.7761 18.2239 24 18.5 24H23.5ZM19 1H23V23H19V1Z" fill="white"/>
</svg>
