<svg width="24" height="24" viewBox="0 0 24 24" fill="none" xmlns="http://www.w3.org/2000/svg">
<g clip-path="url(#clip0)">
<path d="M23.6354 5.57473C23.2524 4.48205 22.5798 3.49634 21.6902 2.72417C20.7997 1.95129 19.7287 1.42436 18.593 1.20041C18.165 1.11602 17.7251 1.07324 17.2852 1.07324C16.002 1.07324 14.754 1.4361 13.6761 2.12261C13.0273 2.53589 12.4573 3.05424 11.9877 3.65362C11.5183 3.05539 10.9487 2.53802 10.3005 2.12555C9.22318 1.44004 7.97601 1.0777 6.69378 1.0777C6.6937 1.0777 6.6938 1.0777 6.69375 1.0777C5.62535 1.0777 4.55305 1.34159 3.59308 1.84078C2.63381 2.3396 1.80185 3.06536 1.18724 3.93961C0.557478 4.83535 0.173869 5.83836 0.0470446 6.92075C-0.0640002 7.86868 0.0217581 8.88626 0.301992 9.94524C0.857117 12.043 2.08584 13.9565 3.01886 15.1922C5.04754 17.8792 7.83691 20.3181 11.5464 22.6484L11.9895 22.9267L12.4326 22.6484C16.9954 19.782 20.1802 16.7558 22.1689 13.3967C23.3126 11.4648 23.9084 9.74373 23.9904 8.13517C24.0361 7.23869 23.9167 6.37724 23.6354 5.57473ZM11.9895 20.9556C8.67553 18.8216 6.17273 16.6043 4.34858 14.1883C3.50553 13.0717 2.39861 11.3552 1.9127 9.51902C1.68618 8.66297 1.61524 7.85405 1.70189 7.11464C1.79612 6.31037 2.08152 5.56457 2.55023 4.8979C3.01195 4.24116 3.63838 3.6952 4.36174 3.31906C5.08537 2.94278 5.89176 2.74389 6.69378 2.74389C7.65861 2.74389 8.59648 3.01619 9.40599 3.5313C10.1951 4.03341 10.8294 4.7417 11.2404 5.57961L11.9892 7.10592L12.7366 5.57897C13.1473 4.74006 13.7816 4.03083 14.5712 3.528C15.3812 3.01212 16.3196 2.73946 17.2852 2.73946C17.6171 2.73946 17.9486 2.77165 18.2706 2.83514C19.1218 3.00298 19.9266 3.39972 20.598 3.98249C21.2691 4.56501 21.7757 5.30619 22.063 6.12587C22.2724 6.72336 22.3611 7.37086 22.3264 8.05034C22.2585 9.38276 21.7379 10.8539 20.7351 12.5478C18.9486 15.5654 16.0847 18.3194 11.9895 20.9556Z" fill="white"/>
</g>
<defs>
<clipPath id="clip0">
<rect width="24" height="24" fill="white"/>
</clipPath>
</defs>
</svg>
