<svg width="18" height="18" viewBox="0 0 18 18" fill="none" xmlns="http://www.w3.org/2000/svg">
<path d="M17.8961 3.76061C17.7931 3.61294 17.6273 3.52166 17.4472 3.51397L6.28162 3.03268C5.96126 3.01866 5.69354 3.26599 5.67985 3.58486C5.66623 3.90361 5.91316 4.17294 6.23199 4.18663L16.6416 4.63537L14.5949 11.0214H5.48658L3.84103 2.06149C3.80486 1.86512 3.67003 1.70129 3.48409 1.62834L0.788964 0.569537C0.491927 0.453244 0.156743 0.599144 0.0400873 0.895819C-0.0763671 1.19265 0.069493 1.52804 0.366369 1.6447L2.76277 2.58612L4.43736 11.7033C4.48783 11.9774 4.7267 12.1764 5.00549 12.1764H5.28327L4.64896 13.9383C4.59587 14.0859 4.61774 14.2498 4.70809 14.3781C4.79832 14.5063 4.94507 14.5826 5.10173 14.5826H5.54664C5.27095 14.8894 5.10173 15.2934 5.10173 15.7377C5.10173 16.6931 5.87912 17.4703 6.83432 17.4703C7.78952 17.4703 8.56692 16.6931 8.56692 15.7377C8.56692 15.2935 8.39769 14.8894 8.12205 14.5826H11.8995C11.6237 14.8894 11.4546 15.2934 11.4546 15.7377C11.4546 16.6931 12.2317 17.4703 13.1871 17.4703C14.1426 17.4703 14.9197 16.6931 14.9197 15.7377C14.9197 15.2935 14.7506 14.8894 14.475 14.5826H15.016C15.2819 14.5826 15.4973 14.3671 15.4973 14.1014C15.4973 13.8355 15.2818 13.6201 15.016 13.6201H5.78651L6.30623 12.1763H15.016C15.2671 12.1763 15.4894 12.014 15.5659 11.7751L17.9723 4.26708C18.0275 4.09572 17.9992 3.90837 17.8961 3.76061ZM6.83436 16.5079C6.40967 16.5079 6.0643 16.1626 6.0643 15.7379C6.0643 15.3132 6.40967 14.9678 6.83436 14.9678C7.25905 14.9678 7.60439 15.3132 7.60439 15.7379C7.60439 16.1626 7.25905 16.5079 6.83436 16.5079ZM13.1871 16.5079C12.7625 16.5079 12.4171 16.1626 12.4171 15.7379C12.4171 15.3132 12.7625 14.9678 13.1871 14.9678C13.6118 14.9678 13.9572 15.3132 13.9572 15.7379C13.9572 16.1626 13.6118 16.5079 13.1871 16.5079Z" fill="white"/>
</svg>
