<svg width="24" height="24" viewBox="0 0 24 24" fill="none" xmlns="http://www.w3.org/2000/svg">
<mask id="path-1-inside-1" fill="white">
<rect width="6" height="24" rx="1.1" transform="matrix(-1 0 0 1 6 0)"/>
</mask>
<rect width="6" height="24" rx="1.1" transform="matrix(-1 0 0 1 6 0)" stroke="#FC8507" stroke-width="2.8" mask="url(#path-1-inside-1)"/>
<mask id="path-2-inside-2" fill="white">
<rect width="6" height="19" rx="1.1" transform="matrix(-1 0 0 1 15 5)"/>
</mask>
<rect width="6" height="19" rx="1.1" transform="matrix(-1 0 0 1 15 5)" stroke="#FC8507" stroke-width="2.8" mask="url(#path-2-inside-2)"/>
<mask id="path-3-inside-3" fill="white">
<rect width="6" height="14" rx="1.1" transform="matrix(-1 0 0 1 24 10)"/>
</mask>
<rect width="6" height="14" rx="1.1" transform="matrix(-1 0 0 1 24 10)" stroke="#FC8507" stroke-width="2.8" mask="url(#path-3-inside-3)"/>
<line y1="-0.7" x2="24" y2="-0.7" transform="matrix(-1 0 0 1 24 24)" stroke="#FC8507" stroke-width="1.4"/>
</svg>
