<svg width="24" height="24" viewBox="0 0 24 24" fill="none" xmlns="http://www.w3.org/2000/svg">
<circle cx="12" cy="12" r="11.5" stroke="#D4D4D4"/>
<path d="M14.8125 6.70312C14.1613 6.70312 13.5643 6.90947 13.0381 7.31644C12.5336 7.7066 12.1977 8.20355 12 8.56491C11.8023 8.20352 11.4664 7.7066 10.9619 7.31644C10.4357 6.90947 9.83866 6.70312 9.1875 6.70312C7.37034 6.70312 6 8.18946 6 10.1605C6 12.2899 7.7096 13.7468 10.2977 15.9523C10.7372 16.3269 11.2354 16.7514 11.7532 17.2042C11.8214 17.264 11.9091 17.2969 12 17.2969C12.0909 17.2969 12.1786 17.264 12.2468 17.2042C12.7647 16.7514 13.2628 16.3268 13.7026 15.9521C16.2904 13.7468 18 12.2899 18 10.1605C18 8.18946 16.6297 6.70312 14.8125 6.70312Z" fill="#E6E4E4" class="favorite-icon-bg"/>
</svg>
