<svg width="24" height="24" viewBox="0 0 24 24" fill="none" xmlns="http://www.w3.org/2000/svg">
<path fill-rule="evenodd" clip-rule="evenodd" d="M6.27094 7.98376C6.51685 8.06506 6.78199 7.93176 6.8631 7.68585C7.599 5.46021 9.66938 3.96497 12.0151 3.96497C15.0065 3.96497 17.4404 6.39862 17.4404 9.3902C17.4404 11.7023 16.4047 13.0836 15.5727 14.1936C14.9674 15.0009 14.4446 15.6984 14.4446 16.5441C14.4446 16.5998 14.4439 16.6549 14.4426 16.7097H12.4839V15.6328C12.4839 15.3739 12.2741 15.1641 12.0151 15.1641C11.7562 15.1641 11.5464 15.3739 11.5464 15.6328V16.7097H9.58753C9.58625 16.6549 9.58552 16.5998 9.58552 16.5441C9.58552 15.6982 9.06275 15.0009 8.4574 14.1934C7.84455 13.3759 7.15003 12.4492 6.80561 11.1324C6.74006 10.882 6.48371 10.732 6.2334 10.7975C5.9831 10.8629 5.83313 11.1193 5.89869 11.3696C6.28962 12.8643 7.07569 13.9131 7.7074 14.7557C8.23292 15.4568 8.64802 16.0106 8.64802 16.5441C8.64802 16.7686 8.65754 16.9876 8.67603 17.1965V21.1615C8.67603 21.1741 8.67695 21.1864 8.67786 21.1987C8.67823 21.2016 8.67804 21.2047 8.67841 21.2076C8.68006 21.225 8.68281 21.2419 8.68628 21.2587V21.2591C8.84907 22.0226 9.26581 22.717 9.86017 23.2141C10.4659 23.7209 11.2313 24 12.0151 24C12.799 24 13.5642 23.7209 14.1701 23.2141C14.7643 22.717 15.1812 22.0226 15.3438 21.2591C15.3438 21.2589 15.344 21.2587 15.344 21.2585C15.3475 21.2419 15.35 21.225 15.3519 21.2076C15.3521 21.2047 15.3521 21.2016 15.3522 21.1987C15.3532 21.1862 15.3541 21.174 15.3541 21.1613V17.1965C15.3726 16.9876 15.3823 16.7686 15.3823 16.5441C15.3823 16.0106 15.7974 15.4568 16.3229 14.7557C17.1901 13.5989 18.3779 12.0146 18.3779 9.3902C18.3779 5.88171 15.5234 3.02747 12.0151 3.02747C9.26417 3.02747 6.83619 4.78125 5.97303 7.3916C5.89173 7.63733 6.02521 7.90247 6.27094 7.98376ZM12.0151 23.0625C11.0621 23.0625 10.2026 22.4861 9.79535 21.6301H14.2349C13.8275 22.4861 12.968 23.0625 12.0151 23.0625ZM14.4168 20.6926H9.61353V19.6386H14.4168V20.6926ZM14.4168 18.7011H9.61353V17.6472H14.4168V18.7011Z" fill="#005AA7"/>
<path fill-rule="evenodd" clip-rule="evenodd" d="M12.0151 2.18646C12.274 2.18646 12.4839 1.97662 12.4839 1.71771V0.46875C12.4839 0.209839 12.274 0 12.0151 0C11.7562 0 11.5464 0.209839 11.5464 0.46875V1.71771C11.5464 1.97662 11.7562 2.18646 12.0151 2.18646Z" fill="#005AA7"/>
<path fill-rule="evenodd" clip-rule="evenodd" d="M3.09375 9.85889H4.34271C4.60162 9.85889 4.81146 9.64905 4.81146 9.39014C4.81146 9.13123 4.60162 8.92139 4.34271 8.92139H3.09375C2.83484 8.92139 2.625 9.13123 2.625 9.39014C2.625 9.64905 2.83484 9.85889 3.09375 9.85889Z" fill="#005AA7"/>
<path fill-rule="evenodd" clip-rule="evenodd" d="M14.1615 10.3372C14.1615 10.0782 13.9517 9.86841 13.6927 9.86841H10.3379C10.079 9.86841 9.86914 10.0782 9.86914 10.3372C9.86914 10.5961 10.079 10.8059 10.3379 10.8059H11.5466V11.8828C11.5466 12.1417 11.7564 12.3515 12.0153 12.3515C12.2742 12.3515 12.4841 12.1417 12.4841 11.8828V10.8059H13.6927C13.9517 10.8059 14.1615 10.5961 14.1615 10.3372Z" fill="#005AA7"/>
<path fill-rule="evenodd" clip-rule="evenodd" d="M6.25853 4.29633C6.35008 4.38788 6.47002 4.43365 6.58995 4.43365C6.70988 4.43365 6.82982 4.38788 6.92137 4.29633C7.10448 4.11322 7.10448 3.81641 6.92137 3.63348L6.03825 2.75037C5.85515 2.56726 5.55833 2.56726 5.37523 2.75037C5.19231 2.93329 5.19231 3.2301 5.37523 3.41321L6.25853 4.29633Z" fill="#005AA7"/>
<path fill-rule="evenodd" clip-rule="evenodd" d="M5.38359 16.4907C5.50352 16.4907 5.62346 16.4449 5.71501 16.3533L6.59813 15.4702C6.78123 15.2871 6.78123 14.9905 6.59813 14.8074C6.41502 14.6243 6.11821 14.6243 5.93529 14.8074L5.05199 15.6905C4.86906 15.8736 4.86906 16.1704 5.05199 16.3533C5.14354 16.4449 5.26347 16.4907 5.38359 16.4907Z" fill="#005AA7"/>
<path fill-rule="evenodd" clip-rule="evenodd" d="M17.4405 4.43377C17.5604 4.43377 17.6803 4.38799 17.7719 4.29644L18.655 3.41332C18.8381 3.23022 18.8381 2.9334 18.655 2.7503C18.4721 2.56719 18.1753 2.56738 17.9921 2.7503L17.109 3.63342C16.9259 3.81652 16.9259 4.11333 17.1088 4.29644C17.2004 4.38799 17.3205 4.43377 17.4405 4.43377Z" fill="#005AA7"/>
<path fill-rule="evenodd" clip-rule="evenodd" d="M17.4323 14.8074C17.2491 14.9903 17.2491 15.2871 17.4323 15.4702L18.3154 16.3533C18.4069 16.4449 18.5269 16.4907 18.6468 16.4907C18.7667 16.4907 18.8867 16.4449 18.9782 16.3533C19.1613 16.1704 19.1613 15.8736 18.9782 15.6905L18.0951 14.8074C17.912 14.6243 17.6152 14.6243 17.4323 14.8074Z" fill="#005AA7"/>
<path fill-rule="evenodd" clip-rule="evenodd" d="M19.6877 9.85889H20.9367C21.1956 9.85889 21.4055 9.64905 21.4055 9.39014C21.4055 9.13123 21.1956 8.92139 20.9367 8.92139H19.6877C19.4288 8.92139 19.219 9.13123 19.219 9.39014C19.219 9.64905 19.4288 9.85889 19.6877 9.85889Z" fill="#005AA7"/>
<path fill-rule="evenodd" clip-rule="evenodd" d="M12.0151 13.2891C11.757 13.2891 11.5464 13.4996 11.5464 13.7578C11.5464 14.016 11.757 14.2266 12.0151 14.2266C12.2733 14.2266 12.4839 14.016 12.4839 13.7578C12.4839 13.4996 12.2733 13.2891 12.0151 13.2891Z" fill="#005AA7"/>
<path fill-rule="evenodd" clip-rule="evenodd" d="M6.58984 9.39014C6.58984 9.13196 6.37927 8.92139 6.12109 8.92139C5.86273 8.92139 5.65234 9.13196 5.65234 9.39014C5.65234 9.64832 5.86273 9.85889 6.12109 9.85889C6.37927 9.85889 6.58984 9.64832 6.58984 9.39014Z" fill="#005AA7"/>
</svg>
