<svg width="24" height="24" viewBox="0 0 24 24" fill="none" xmlns="http://www.w3.org/2000/svg">
<g clip-path="url(#clip0)">
<path d="M16.3134 7.27258C16.0542 7.27258 15.8438 7.48206 15.8438 7.74115C15.8438 8.00006 16.0542 8.2099 16.3134 8.2099C16.5732 8.2099 16.7831 8.00006 16.7831 7.74115C16.7831 7.48206 16.5732 7.27258 16.3134 7.27258Z" fill="#005AA7"/>
<path d="M7.77973 15.7894C7.51994 15.7894 7.31006 15.9995 7.31006 16.2582C7.31006 16.5175 7.51994 16.7269 7.77973 16.7269C8.03896 16.7269 8.24939 16.5175 8.24939 16.2582C8.24939 15.9995 8.03896 15.7894 7.77973 15.7894Z" fill="#005AA7"/>
<path d="M23.4861 2.88377C23.3276 2.84697 23.161 2.89476 23.0465 3.01012L21.0994 4.9688H20.1659L19.1383 3.90624V2.96159L21.0576 1.01756C21.1711 0.902572 21.2174 0.737228 21.1798 0.57994C21.1423 0.422835 21.0264 0.296126 20.873 0.24449C20.3909 0.0822589 19.8863 4.44711e-05 19.3732 4.44711e-05C17.8435 4.44711e-05 16.4537 0.711959 15.5603 1.95323C14.724 3.11522 14.4663 4.53923 14.8356 5.90209L11.376 9.35491L5.6123 3.58928V2.45769C5.6123 2.29308 5.5257 2.14037 5.38425 2.05577L2.06337 0.066878C1.87844 -0.0439009 1.64196 -0.0147871 1.48968 0.137374L0.161402 1.46288C0.0091273 1.61504 -0.0200434 1.85106 0.0907687 2.03563L2.08319 5.35002C2.16795 5.4912 2.32077 5.57744 2.48571 5.57762L3.61914 5.57799L9.38339 11.3436L5.93703 14.7833C4.57151 14.4148 3.14397 14.6725 1.97916 15.5076C0.736194 16.3988 0.0234375 17.7855 0.0234375 19.3122C0.0234375 19.8242 0.105813 20.3279 0.268362 20.8089C0.320282 20.9629 0.448523 21.0792 0.607036 21.1158C0.765732 21.1526 0.932134 21.1048 1.0468 20.9894L2.99372 19.0309H3.93232L5.00173 20.0983V21.035L3.0394 22.9781C2.92382 23.0926 2.87593 23.2587 2.91281 23.4171C2.9495 23.5753 3.066 23.7032 3.22029 23.7551C3.70225 23.9173 4.20696 23.9995 4.71993 23.9995C6.24965 23.9995 7.63884 23.288 8.53194 22.0474C9.36872 20.8849 9.62685 19.4603 9.25772 18.0975L12.0256 15.335L12.6597 16.0223L12.3687 16.3126C12.1853 16.4957 12.1853 16.7925 12.3687 16.9756C12.5522 17.1585 12.8494 17.1585 13.033 16.9756L13.2965 16.7126L19.2455 23.162C19.2499 23.1667 19.2545 23.1713 19.2591 23.1759C20.3598 24.2745 22.1433 24.2749 23.2446 23.1757C24.3428 22.0791 24.3428 20.2947 23.2446 19.1981C23.2399 19.1934 23.2349 19.1888 23.23 19.1842L16.7579 13.2582L17.0184 12.9982C17.2019 12.8152 17.2019 12.5184 17.0184 12.3353C16.835 12.1522 16.5377 12.1522 16.3541 12.3353L16.0651 12.6239L15.3751 11.9918L18.1565 9.21593C18.5518 9.3214 18.9598 9.37487 19.3732 9.37487C21.963 9.37487 24.0697 7.27208 24.0697 4.68755C24.0697 4.1754 23.9873 3.67186 23.8247 3.19066C23.7728 3.03667 23.6446 2.9204 23.4861 2.88377ZM4.14642 4.77818C4.05836 4.69011 3.93892 4.64525 3.81417 4.64525L2.75191 4.64488L1.08496 1.86717L1.89458 1.05913L4.67296 2.72319V3.78337C4.67296 3.90752 4.72231 4.02654 4.81019 4.11443L10.7119 10.0179L10.0475 10.6808L4.14642 4.77818ZM16.093 13.9217L22.5871 19.8677C23.3125 20.5994 23.3103 21.7841 22.5803 22.5131C21.8487 23.2433 20.6642 23.2455 19.9296 22.5195L13.9612 16.0491L16.093 13.9217ZM15.4003 13.2873L13.3244 15.3588L12.6903 14.6714L14.7103 12.6552L15.4003 13.2873ZM19.3732 8.43737C18.9624 8.43737 18.5584 8.37163 18.1728 8.24199C18.0038 8.18541 17.817 8.22899 17.6908 8.35479C15.3362 10.7048 10.2627 15.7682 8.39452 17.6329C8.2683 17.7589 8.22445 17.9453 8.28151 18.1141C8.67192 19.2712 8.48516 20.5053 7.76891 21.5005C7.05469 22.4927 5.94326 23.062 4.71993 23.062C4.58251 23.062 4.44583 23.0545 4.31044 23.04L5.80218 21.5627C5.89098 21.4748 5.94106 21.3551 5.94106 21.23V19.904C5.94106 19.7797 5.89153 19.6605 5.80346 19.5726L4.45886 18.2306C4.3708 18.1427 4.25136 18.0933 4.12679 18.0933H2.79814C2.67284 18.0933 2.55285 18.1432 2.46461 18.2319L0.984604 19.7207C0.969927 19.5856 0.962589 19.4492 0.962589 19.312C0.962589 18.0909 1.53279 16.9818 2.52717 16.269C3.52411 15.5541 4.76084 15.3675 5.92033 15.7574C6.0893 15.8143 6.27607 15.7706 6.40229 15.6446C6.42816 15.619 15.692 6.37303 15.6986 6.36644C15.8248 6.24047 15.8685 6.05425 15.8116 5.88542C15.421 4.72838 15.6074 3.49461 16.3231 2.50017C17.0379 1.507 18.1495 0.937545 19.373 0.937545C19.5146 0.937545 19.6553 0.945419 19.7948 0.960799L18.334 2.44048C18.2474 2.52818 18.199 2.64629 18.199 2.76933V4.09538C18.199 4.21697 18.2462 4.3336 18.3307 4.42095L19.6284 5.76293C19.7168 5.85448 19.8388 5.90612 19.9663 5.90612H21.295C21.4201 5.90612 21.5401 5.85631 21.6283 5.7675L23.1083 4.27886C23.123 4.41399 23.1303 4.5504 23.1303 4.68755C23.1303 6.75518 21.4449 8.43737 19.3732 8.43737Z" fill="#005AA7"/>
<path d="M14.6532 8.73547L8.77589 14.6013C8.59261 14.7842 8.59261 15.081 8.77589 15.2641C8.95935 15.4472 9.25675 15.4472 9.44021 15.2641L15.3175 9.39832C15.5009 9.21539 15.5009 8.91858 15.3175 8.73547C15.134 8.55237 14.8366 8.55237 14.6532 8.73547Z" fill="#005AA7"/>
<path d="M20.588 21.1875C20.7715 21.3701 21.0689 21.3701 21.2524 21.1865C21.4355 21.0032 21.4349 20.7063 21.2513 20.5236L17.0178 16.312C16.8342 16.1293 16.5366 16.1298 16.3537 16.3131C16.1704 16.4966 16.171 16.7932 16.3546 16.9759L20.588 21.1875Z" fill="#005AA7"/>
</g>
<defs>
<clipPath id="clip0">
<rect width="24" height="24" fill="white"/>
</clipPath>
</defs>
</svg>
