<svg width="24" height="24" viewBox="0 0 24 24" fill="none" xmlns="http://www.w3.org/2000/svg">
<path d="M7.22076 0.0218506L1.54574 1.56213L0 7.23714L4.13473 11.3773L9.8152 9.83159L11.3555 4.15658L7.22076 0.0218506ZM8.9249 8.94129L4.46245 10.1593L1.21802 6.91489L2.43605 2.45244L6.8985 1.23988L10.1429 4.4843L8.9249 8.94129Z" fill="#005AA7"/>
<path d="M7.49395 3.87799C6.55448 2.93853 5.03059 2.93306 4.09112 3.87253C3.15166 4.81199 3.1462 6.33589 4.08566 7.27535C4.53901 7.72869 5.15075 7.97995 5.79527 7.97448C7.11707 7.97995 8.19308 6.91486 8.20401 5.59305C8.20947 4.94854 7.95276 4.33133 7.49395 3.87799ZM6.72381 6.52159V6.51067C6.47802 6.75646 6.14483 6.88755 5.79527 6.88755C5.07975 6.89847 4.48439 6.32496 4.47346 5.60398C4.468 5.24895 4.60455 4.90484 4.8558 4.65905C5.36923 4.14563 6.20492 4.14563 6.72381 4.65905C6.9696 4.90484 7.11161 5.24349 7.11161 5.59305C7.11161 5.94262 6.97506 6.2758 6.72381 6.52159Z" fill="#005AA7"/>
<path d="M21.0777 7.5376H15.2225L12.3003 12.6173L15.2225 17.6969H21.0777L23.9999 12.6173L21.0777 7.5376ZM20.4441 16.6045H15.8561L13.562 12.6173L15.8561 8.63H20.4441L22.7382 12.6173L20.4441 16.6045Z" fill="#005AA7"/>
<path d="M18.1503 10.0774C16.8176 10.0774 15.7361 11.1534 15.7361 12.4861C15.7361 13.8189 16.8121 14.9003 18.1448 14.9003C19.4775 14.9003 20.559 13.8243 20.559 12.4916C20.559 12.4916 20.559 12.4916 20.559 12.4861C20.559 11.1589 19.483 10.0774 18.1503 10.0774ZM18.1503 13.8079C17.4238 13.8079 16.8285 13.218 16.8285 12.4916C16.8285 11.7651 17.4184 11.1698 18.1448 11.1698C18.8713 11.1698 19.4666 11.7597 19.4666 12.4861C19.4666 13.2126 18.8767 13.8079 18.1503 13.8079Z" fill="#005AA7"/>
<path d="M8.88655 13.7643H3.0313L0.109131 18.8712L3.0313 23.9782H8.88655L11.8087 18.8712L8.88655 13.7643ZM8.25296 22.8858H3.66489L1.37085 18.8712L3.66489 14.8567H8.25296L10.547 18.8712L8.25296 22.8858Z" fill="#005AA7"/>
<path d="M5.95912 16.4296C4.62639 16.4296 3.55038 17.5056 3.54492 18.8383C3.54492 20.171 4.62093 21.247 5.95366 21.2525C7.28638 21.2525 8.36239 20.1765 8.36785 18.8438C8.36785 18.8438 8.36785 18.8438 8.36785 18.8383C8.36785 17.511 7.28638 16.435 5.95912 16.4296ZM5.95912 20.1601C5.23268 20.1601 4.64278 19.5702 4.63732 18.8438C4.63186 18.1173 5.22721 17.5274 5.95366 17.522C6.6801 17.522 7.27 18.1119 7.27546 18.8383C7.27546 19.5702 6.68556 20.1601 5.95912 20.1601Z" fill="#005AA7"/>
</svg>
