<svg width="24" height="24" viewBox="0 0 24 24" fill="none" xmlns="http://www.w3.org/2000/svg">
<path d="M23.0316 0H0.968312C0.704313 0 0.490234 0.214078 0.490234 0.478078V19.8447C0.490234 22.1359 2.35431 24 4.64552 24C6.23912 24 7.62587 23.098 8.32272 21.7779C9.01956 23.098 10.4063 24 11.9999 24C13.5935 24 14.9803 23.098 15.6771 21.7779C16.374 23.098 17.7607 24 19.3543 24C21.6456 24 23.5096 22.1359 23.5096 19.8447V0.478078C23.5097 0.214078 23.2956 0 23.0316 0ZM7.84464 19.8447C7.84464 21.6087 6.40952 23.0438 4.64552 23.0438C2.88152 23.0438 1.44639 21.6087 1.44639 19.8447V16.0652C2.20919 16.9849 3.36006 17.5717 4.64552 17.5717C5.93097 17.5717 7.08184 16.985 7.84464 16.0652V19.8447ZM7.84464 13.3891V13.4163C7.84464 15.1803 6.40952 16.6155 4.64552 16.6155C2.88152 16.6155 1.44639 15.1803 1.44639 13.4163V13.3891V9.58247C2.20919 10.5022 3.36006 11.0889 4.64552 11.0889C5.93097 11.0889 7.08184 10.5022 7.84464 9.58247V13.3891ZM7.84464 6.93361C7.84464 8.69761 6.40952 10.1327 4.64552 10.1327C2.88152 10.1327 1.44639 8.69761 1.44639 6.93361V0.956156H7.84464V6.93361ZM15.199 19.8447C15.199 21.6087 13.7639 23.0438 11.9999 23.0438C10.2359 23.0438 8.8008 21.6087 8.8008 19.8447V16.0652C9.56359 16.9849 10.7145 17.5717 11.9999 17.5717C13.2854 17.5717 14.4362 16.985 15.199 16.0652V19.8447ZM15.199 13.3892V13.4164C15.199 15.1804 13.7639 16.6155 11.9999 16.6155C10.2359 16.6155 8.8008 15.1804 8.8008 13.4164V13.3892V9.58252C9.56359 10.5022 10.7145 11.089 11.9999 11.089C13.2854 11.089 14.4362 10.5022 15.199 9.58252V13.3892ZM15.199 6.93361C15.199 8.69761 13.7639 10.1327 11.9999 10.1327C10.2359 10.1327 8.8008 8.69761 8.8008 6.93361V0.956156H15.199V6.93361ZM22.5535 19.8447C22.5535 21.6087 21.1183 23.0438 19.3543 23.0438C17.5903 23.0438 16.1552 21.6087 16.1552 19.8447V16.0652C16.918 16.9849 18.0689 17.5717 19.3543 17.5717C20.6398 17.5717 21.7907 16.985 22.5535 16.0652V19.8447ZM22.5535 13.3892V13.4164C22.5535 15.1804 21.1183 16.6155 19.3543 16.6155C17.5903 16.6155 16.1552 15.1804 16.1552 13.4164V13.3892V9.58252C16.918 10.5022 18.0689 11.089 19.3543 11.089C20.6398 11.089 21.7907 10.5022 22.5535 9.58252V13.3892ZM22.5535 6.93361C22.5535 8.69761 21.1183 10.1327 19.3543 10.1327C17.5903 10.1327 16.1552 8.69761 16.1552 6.93361V0.956156H22.5535V6.93361Z" fill="#005AA7"/>
<path d="M21.6573 1.4845C21.3933 1.4845 21.1792 1.69858 21.1792 1.96258V4.16176C21.1792 4.42576 21.3933 4.63984 21.6573 4.63984C21.9213 4.63984 22.1354 4.42576 22.1354 4.16176V1.96258C22.1354 1.69858 21.9213 1.4845 21.6573 1.4845Z" fill="#005AA7"/>
<path d="M21.6573 5.11792C21.3933 5.11792 21.1792 5.332 21.1792 5.596V6.07407C21.1792 6.33807 21.3933 6.55215 21.6573 6.55215C21.9213 6.55215 22.1354 6.33807 22.1354 6.07407V5.596C22.1354 5.33204 21.9213 5.11792 21.6573 5.11792Z" fill="#005AA7"/>
</svg>
