<svg width="24" height="24" viewBox="0 0 24 24" fill="none" xmlns="http://www.w3.org/2000/svg">
<g clip-path="url(#clip0)">
<path d="M20.9104 2.55797H20.5083C20.3197 2.06982 19.8454 1.72265 19.2916 1.72265H18.8321C18.766 1.48535 18.6816 1.25207 18.5787 1.02465C18.2971 0.402098 17.6738 0 16.9907 0H3.23858C2.55541 0 1.93213 0.402098 1.65051 1.02465C1.07483 2.29705 1.07483 3.75658 1.65051 5.02897C1.76843 5.28953 1.94623 5.51145 2.1632 5.68156V11.2968C2.1632 12.2274 2.92016 12.9843 3.8507 12.9843C4.78124 12.9843 5.53819 12.2274 5.53819 11.2968V8.92526C5.53819 8.54751 5.84544 8.24026 6.22319 8.24026C6.60093 8.24026 6.908 8.54751 6.908 8.92526V9.38247C6.908 10.2055 7.57761 10.875 8.40048 10.875C9.22336 10.875 9.89279 10.2055 9.89279 9.38247V8.10275C9.89279 7.89072 10.0653 7.71823 10.2773 7.71823H12.002C12.8318 7.71823 13.5069 7.04312 13.5069 6.21329V6.05344H16.9905C17.6736 6.05344 18.2971 5.65134 18.5785 5.02897C18.6814 4.80156 18.766 4.5681 18.8321 4.33079H19.2914C19.8453 4.33079 20.3197 3.98363 20.5083 3.49547H20.9104C21.4328 3.49547 21.8578 3.92046 21.8578 4.44285V6.52366C21.8578 7.02683 21.4824 7.46152 20.9845 7.53494L13.0299 8.70626C12.3594 8.80496 11.7464 9.14187 11.3034 9.65475C10.8605 10.1676 10.6166 10.8233 10.6166 11.501V13.7178C10.6166 13.7526 10.6204 13.7867 10.6278 13.8195C10.1319 13.82 9.72873 14.2236 9.72873 14.7194V15.8408C9.40408 15.8845 9.15305 16.1634 9.15305 16.4998V22.0912C9.15305 23.1437 10.0094 24.0001 11.0619 24.0001C12.1142 24.0001 12.9706 23.1437 12.9706 22.0912V16.4998C12.9706 16.1634 12.7196 15.8845 12.3949 15.8406V14.7192C12.3949 14.2391 12.017 13.8455 11.5427 13.8206C11.5503 13.7874 11.5541 13.753 11.5541 13.7177V11.501C11.5541 10.5717 12.2473 9.769 13.1665 9.63369L21.1211 8.46237C22.0755 8.32174 22.7953 7.48825 22.7953 6.52366V4.44285C22.7953 3.40355 21.9497 2.55797 20.9104 2.55797ZM12.5696 6.21329C12.5696 6.52622 12.3149 6.78073 12.0022 6.78073H10.2773C9.54837 6.78073 8.95529 7.37381 8.95529 8.10275V9.38247C8.95529 9.68844 8.70645 9.93746 8.40048 9.93746C8.09452 9.93746 7.84568 9.68844 7.84568 9.38247V8.92526C7.84568 8.03061 7.11784 7.30277 6.22319 7.30277C5.32854 7.30277 4.60088 8.03061 4.60088 8.92526V11.2968C4.60088 11.7103 4.26433 12.0468 3.85088 12.0468C3.43725 12.0468 3.10088 11.7103 3.10088 11.2968V6.04795C3.11187 6.04887 3.12304 6.0496 3.13439 6.05033H3.13604C3.1408 6.0507 3.14556 6.05106 3.15032 6.05125C3.1516 6.05125 3.1527 6.05143 3.15398 6.05143C3.1582 6.05161 3.16241 6.0518 3.16662 6.05198C3.16808 6.05198 3.16973 6.05216 3.1712 6.05216C3.17522 6.05234 3.17907 6.05234 3.18291 6.05253C3.18475 6.05253 3.18658 6.05271 3.18822 6.05271C3.19207 6.05289 3.19573 6.05289 3.19939 6.05308C3.20141 6.05308 3.20324 6.05308 3.20525 6.05326C3.20892 6.05326 3.21258 6.05326 3.21624 6.05344H3.2221C3.22759 6.05344 3.23309 6.05363 3.23858 6.05363H12.5696V6.21329ZM16.9907 5.11595H3.23858C3.234 5.11595 3.22942 5.11595 3.22485 5.11576C3.2232 5.11576 3.22137 5.11576 3.21972 5.11576C3.21697 5.11558 3.21423 5.11558 3.2113 5.1154C3.20928 5.1154 3.20708 5.1154 3.20507 5.11521C3.20269 5.11503 3.20031 5.11503 3.19793 5.11485C3.19555 5.11466 3.19317 5.11466 3.19079 5.11448C3.18896 5.1143 3.18713 5.1143 3.1853 5.11412C3.18237 5.11393 3.17962 5.11375 3.17687 5.11357C3.17559 5.11338 3.17449 5.11338 3.17339 5.1132C3.15801 5.11192 3.14281 5.11027 3.12762 5.10826C3.12707 5.10807 3.12652 5.10807 3.12579 5.10789C3.12249 5.10752 3.11901 5.10697 3.11553 5.10642C3.11462 5.10624 3.1137 5.10606 3.11279 5.10588C3.10949 5.10533 3.10619 5.10496 3.1029 5.10441C3.1018 5.10423 3.1007 5.10404 3.0996 5.10386C3.09649 5.10313 3.09338 5.10258 3.09008 5.10203C3.08898 5.10185 3.08788 5.10166 3.08678 5.1013C3.08367 5.10075 3.08056 5.1002 3.07745 5.09947C3.07342 5.09873 3.06921 5.09782 3.065 5.0969C3.06426 5.09672 3.06335 5.09654 3.06261 5.09635C3.05877 5.09544 3.05492 5.09471 3.05126 5.09379C3.05053 5.09361 3.04998 5.09342 3.04925 5.09324C3.04504 5.09233 3.04101 5.09123 3.0368 5.09013C3.0368 5.09013 3.0368 5.09013 3.03661 5.09013C2.80444 5.0297 2.60632 4.86711 2.50469 4.64244C2.27838 4.14238 2.16247 3.60643 2.15661 3.06938H6.87431C7.13303 3.06938 7.34305 2.85955 7.34305 2.60064C7.34305 2.34173 7.13303 2.13189 6.87431 2.13189H2.2597C2.31738 1.88616 2.39886 1.64465 2.50469 1.41101C2.6347 1.12335 2.92291 0.937496 3.23858 0.937496H16.9907C17.3063 0.937496 17.5944 1.12335 17.7245 1.41101C18.1891 2.43786 18.1891 3.61559 17.7245 4.64244C17.5944 4.9301 17.3063 5.11595 16.9907 5.11595ZM19.2916 3.3933H18.9969C19.0156 3.14922 19.0156 2.90441 18.9969 2.66033H19.2916C19.4937 2.66033 19.6579 2.82457 19.6579 3.02672C19.6579 3.22887 19.4937 3.3933 19.2916 3.3933ZM11.4574 15.8347H10.6662V14.7568H11.4574V15.8347ZM12.0331 22.0912C12.0331 22.6266 11.5973 23.0624 11.0619 23.0624C10.5263 23.0624 10.0905 22.6268 10.0905 22.0912V16.7722H12.0331V22.0912Z" fill="#005AA7"/>
<path d="M8.75055 2.13184H8.74945C8.49054 2.13184 8.28125 2.34167 8.28125 2.60059C8.28125 2.8595 8.49164 3.06934 8.75055 3.06934C9.00946 3.06934 9.2193 2.8595 9.2193 2.60059C9.2193 2.34167 9.00946 2.13184 8.75055 2.13184Z" fill="#005AA7"/>
</g>
<defs>
<clipPath id="clip0">
<rect width="24" height="24" fill="white"/>
</clipPath>
</defs>
</svg>
