<svg width="24" height="24" viewBox="0 0 24 24" fill="none" xmlns="http://www.w3.org/2000/svg">
<g clip-path="url(#clip0)">
<path d="M0.666234 22.5672H10.9689C11.3363 22.5672 11.6352 22.2683 11.6352 21.9009V13.8883C11.6352 13.6941 11.4778 13.5367 11.2836 13.5367C11.0895 13.5367 10.932 13.6941 10.932 13.8883V14.315C9.52978 14.1534 8.41378 13.0374 8.2522 11.6352H10.932V12.2476C10.932 12.4418 11.0895 12.5992 11.2836 12.5992C11.4778 12.5992 11.6352 12.4418 11.6352 12.2476V11.6351H21.9009C22.2683 11.6351 22.5672 11.3363 22.5672 10.9689V0.666234C22.5672 0.298875 22.2683 0 21.9009 0H11.5983C11.4846 0 11.3774 0.0286406 11.2836 0.079125C11.1899 0.0286406 11.0827 0 10.9689 0H0.666234C0.298875 0 0 0.298875 0 0.666234V10.9689C0 11.0827 0.0286406 11.1899 0.079125 11.2836C0.0286406 11.3774 0 11.4846 0 11.5983V21.9009C0 22.2683 0.298875 22.5672 0.666234 22.5672ZM0.703125 15.0219C2.49347 14.8549 3.92287 13.4255 4.08989 11.6352H5.45409C5.28089 14.1759 3.24389 16.2129 0.703125 16.3861V15.0219ZM0.703125 8.2522C2.10539 8.41378 3.22139 9.52973 3.38297 10.932H0.703125V8.2522ZM10.932 10.932H8.2522C8.41378 9.52973 9.52973 8.41378 10.932 8.2522V10.932ZM10.932 7.54528C9.1417 7.7123 7.7123 9.14166 7.54528 10.932H6.18108C6.35428 8.39123 8.39123 6.35428 10.932 6.18108V7.54528ZM4.08989 10.932C3.92287 9.14166 2.49347 7.7123 0.703125 7.54528V6.18108C3.24389 6.35428 5.28089 8.39123 5.45409 10.932H4.08989ZM3.38297 11.6352C3.22139 13.0374 2.10544 14.1534 0.703125 14.315V11.6352H3.38297ZM5.81756 13.2763C6.40542 14.8838 7.68337 16.1618 9.29091 16.7496C7.68337 17.3375 6.40542 18.6154 5.81756 20.223C5.2297 18.6154 3.95175 17.3375 2.34422 16.7496C3.95175 16.1618 5.2297 14.8838 5.81756 13.2763ZM5.81756 9.29095C5.2297 7.68342 3.95175 6.40547 2.34422 5.81761C3.95175 5.22975 5.2297 3.9518 5.81756 2.34427C6.40542 3.9518 7.68337 5.22975 9.29091 5.81761C7.68342 6.40547 6.40547 7.68342 5.81756 9.29095ZM0.703125 19.1842C2.10539 19.3458 3.22139 20.4618 3.38297 21.864H0.703125V19.1842ZM4.08989 21.864C3.92287 20.0737 2.49347 18.6443 0.703125 18.4773V17.1131C3.24389 17.2863 5.28089 19.3233 5.45409 21.8641H4.08989V21.864ZM10.932 17.1131V18.4773C9.1417 18.6443 7.7123 20.0737 7.54528 21.864H6.18108C6.35428 19.3233 8.39128 17.2863 10.932 17.1131ZM10.932 21.864H8.2522C8.41383 20.4619 9.52987 19.3459 10.932 19.1842V21.864ZM10.932 15.0219V16.3861C8.39128 16.2129 6.35428 14.1759 6.18108 11.6352H7.54528C7.7123 13.4255 9.1417 14.8549 10.932 15.0219ZM11.6352 8.2522C13.0374 8.41378 14.1534 9.52973 14.315 10.932H11.6352V8.2522ZM15.0219 10.932C14.8549 9.14166 13.4255 7.7123 11.6352 7.54528V6.18108C14.1759 6.35428 16.2129 8.39123 16.3861 10.932H15.0219ZM21.864 7.54528C20.0737 7.7123 18.6443 9.14166 18.4773 10.932H17.1131C17.2863 8.39123 19.3233 6.35428 21.8641 6.18108V7.54528H21.864ZM19.1842 10.932C19.3458 9.52973 20.4617 8.41378 21.864 8.2522V10.932H19.1842ZM21.864 3.38297C20.4618 3.22139 19.3458 2.10544 19.1842 0.703125H21.864V3.38297ZM18.4773 0.703125C18.6443 2.49347 20.0737 3.92287 21.864 4.08989V5.45409C19.3233 5.28089 17.2863 3.24389 17.1131 0.703125H18.4773ZM14.5157 4.77394C14.6402 4.92295 14.8619 4.94283 15.0109 4.81838C15.8096 4.1513 16.4034 3.29677 16.7501 2.34553C17.3382 3.95245 18.6158 5.22989 20.223 5.81756C18.6154 6.40542 17.3375 7.68337 16.7496 9.29091C16.1619 7.68394 14.8847 6.40631 13.278 5.81817C13.3519 5.79117 13.4253 5.76267 13.4984 5.73258C13.6779 5.65861 13.7634 5.45311 13.6895 5.27358C13.6155 5.09405 13.4102 5.0085 13.2305 5.08242C12.7208 5.29242 12.1856 5.41702 11.6352 5.45414V4.08989C13.4255 3.92287 14.8549 2.49347 15.0219 0.703125H16.386C16.2913 2.09081 15.6377 3.3787 14.5602 4.27875C14.4112 4.40325 14.3913 4.62492 14.5157 4.77394ZM11.6352 3.38297V0.703125H14.315C14.1534 2.10539 13.0374 3.22139 11.6352 3.38297ZM10.932 3.38297C9.52978 3.22139 8.41378 2.10544 8.2522 0.703125H10.932V3.38297ZM7.54528 0.703125C7.7123 2.49347 9.1417 3.92287 10.932 4.08989V5.45409C8.39128 5.28089 6.35428 3.24389 6.18108 0.703125H7.54528ZM0.703125 5.45409V4.08989C2.49347 3.92287 3.92287 2.49347 4.08989 0.703125H5.45409C5.28089 3.24389 3.24389 5.28089 0.703125 5.45409ZM3.38297 0.703125C3.22139 2.10539 2.10539 3.22139 0.703125 3.38297V0.703125H3.38297Z" fill="#005AA7"/>
<path d="M23.3339 12.3649H13.0312C12.6639 12.3649 12.365 12.6637 12.365 13.0311V23.3338C12.365 23.7011 12.6639 24 13.0312 24H23.3339C23.7013 24 24.0002 23.7011 24.0002 23.3338V13.0311C24.0001 12.6637 23.7012 12.3649 23.3339 12.3649ZM23.297 15.7478C21.8947 15.5863 20.7787 14.4703 20.6171 13.068H23.297V15.7478ZM19.9102 13.068C20.0772 14.8583 21.5066 16.2877 23.297 16.4548V17.819C20.7562 17.6458 18.7192 15.6088 18.546 13.068H19.9102ZM21.6559 18.1825C20.0484 18.7703 18.7704 20.0483 18.1826 21.6558C17.5947 20.0483 16.3167 18.7703 14.7092 18.1825C16.3167 17.5946 17.5947 16.3167 18.1826 14.7091C18.7704 16.3166 20.0484 17.5946 21.6559 18.1825ZM13.0681 17.819V16.4548C14.8584 16.2877 16.2878 14.8583 16.4548 13.068H17.819C17.6458 15.6088 15.6088 17.6458 13.0681 17.819ZM15.7479 13.068C15.5863 14.4703 14.4704 15.5863 13.0681 15.7478V13.068H15.7479ZM13.0681 20.6171C14.4703 20.7786 15.5863 21.8946 15.7479 23.2969H13.0681V20.6171ZM16.4548 23.2969C16.2878 21.5066 14.8584 20.0772 13.0681 19.9101V18.5459C15.6088 18.7191 17.6458 20.7561 17.819 23.2969H16.4548ZM20.6173 23.2969C20.6888 22.6781 20.9481 22.0941 21.3653 21.624C21.4941 21.4788 21.4809 21.2566 21.3356 21.1277C21.1904 20.9988 20.9682 21.0121 20.8393 21.1573C20.3078 21.7563 19.9845 22.5055 19.9103 23.2969H18.546C18.7192 20.7561 20.7562 18.7191 23.297 18.5459V19.91C22.9752 19.9399 22.6602 20.0108 22.3566 20.1221C22.1743 20.1889 22.0807 20.3908 22.1475 20.5731C22.2144 20.7555 22.4163 20.8491 22.5986 20.7823C22.8244 20.6995 23.0582 20.6443 23.297 20.6169V23.2969H20.6173Z" fill="#005AA7"/>
<path d="M5.54956 4.23327L4.23313 5.5497C4.08561 5.69755 4.0857 5.93797 4.23341 6.08563L5.54961 7.40183C5.69619 7.54845 5.93656 7.55141 6.08577 7.40183L7.40169 6.08591C7.55009 5.93778 7.55023 5.69778 7.40192 5.54947L6.08572 4.23327C5.93806 4.08556 5.69764 4.08542 5.54956 4.23327ZM5.81764 6.6755L4.95964 5.81755L5.81764 4.95955L6.67559 5.81755L5.81764 6.6755Z" fill="#005AA7"/>
<path d="M16.4478 7.40153C16.5973 7.55135 16.8377 7.54858 16.9842 7.40177L18.3004 6.08556C18.4481 5.93791 18.4482 5.69748 18.3004 5.54941L16.9842 4.2332C16.8361 4.08507 16.5962 4.08498 16.4481 4.2332L15.1318 5.54941C14.9823 5.69898 14.9852 5.93922 15.1318 6.08556L16.4478 7.40153ZM16.7161 4.95958L17.5741 5.81758L16.7161 6.67553L15.8582 5.81758L16.7161 4.95958Z" fill="#005AA7"/>
<path d="M17.9143 16.5982L16.5982 17.9143C16.4503 18.0621 16.4503 18.3027 16.5982 18.4505C16.6165 18.4688 17.9326 19.7849 17.9146 19.7669C18.0619 19.9139 18.3022 19.9146 18.4505 19.7666L19.7669 18.4502C19.9143 18.3025 19.9143 18.0622 19.7667 17.9143L18.4505 16.5981C18.3028 16.4504 18.0622 16.4504 17.9143 16.5982ZM18.1825 19.0404L17.3245 18.1824L18.1825 17.3244L19.0405 18.1824L18.1825 19.0404Z" fill="#005AA7"/>
<path d="M5.54968 18.3342C5.69701 18.4812 5.93734 18.4819 6.08561 18.3339L7.40148 17.018C7.55129 16.8685 7.54853 16.6281 7.40171 16.4816L6.08556 15.1654C5.93776 15.0176 5.6972 15.0176 5.5494 15.1654L4.2332 16.4816C4.08507 16.6297 4.08498 16.8696 4.2332 17.0178C5.47393 18.2585 5.54617 18.3295 5.54968 18.3342ZM5.81748 15.8917L6.67543 16.7497L5.81748 17.6077L4.95948 16.7497L5.81748 15.8917Z" fill="#005AA7"/>
</g>
<defs>
<clipPath id="clip0">
<rect width="24" height="24" fill="white"/>
</clipPath>
</defs>
</svg>
