<svg width="24" height="24" viewBox="0 0 24 24" fill="none" xmlns="http://www.w3.org/2000/svg">
<path d="M3.25005 13.2H4.85005V12H13.25C13.9127 12 14.4501 12.5373 14.4501 13.2V13.6H14.05C13.8292 13.6 13.6501 13.7791 13.6501 14V15.6C13.6501 15.8209 13.8292 16 14.05 16H14.3856L13.2545 23.5408C13.2372 23.6559 13.2709 23.7729 13.3469 23.8611C13.4229 23.9492 13.5336 24 13.6501 24H19.25C19.3665 24 19.4772 23.9492 19.5532 23.8611C19.6292 23.7729 19.6629 23.6559 19.6456 23.5408L18.5145 16H18.85C19.0709 16 19.25 15.8209 19.25 15.6V14C19.25 13.7791 19.0709 13.6 18.85 13.6H18.4501V12.4C18.4471 9.97109 16.479 8.00293 14.05 8H13.0973L12.41 6.62129C12.342 6.48496 12.2024 6.39922 12.05 6.4H11.6501V5.2C11.6501 4.9791 11.4709 4.8 11.25 4.8H10.85V4H14.05C14.2709 4 14.4501 3.8209 14.4501 3.6V2C14.4501 1.7791 14.2709 1.6 14.05 1.6H10.85V1.2C10.85 0.537305 10.3127 0 9.65005 0C8.98735 0 8.45005 0.537305 8.45005 1.2V1.6H5.25005C5.02915 1.6 4.85005 1.7791 4.85005 2V3.6C4.85005 3.8209 5.02915 4 5.25005 4H8.45005V4.8H8.05005C7.82915 4.8 7.65005 4.9791 7.65005 5.2V6.4H7.25005C7.09849 6.4 6.95982 6.48555 6.89204 6.62129L6.20278 8H4.85005V6.8H3.25005V6H0.0500488V14H3.25005V13.2ZM14.4501 14.4H18.4501V15.2H14.4501V14.4ZM18.7856 23.2H18.01L17.6501 19.9561L16.8549 20.0439L17.2032 23.2H15.7233L16.4456 18.866L15.6569 18.734L14.9112 23.2H14.1145L15.1944 16H17.7057L18.7856 23.2ZM7.65005 3.2V2.4H9.25005V3.2H7.65005ZM11.6501 2.4V3.2H10.05V2.4H11.6501ZM13.6501 3.2H12.4501V2.4H13.6501V3.2ZM9.25005 1.2C9.25005 0.979102 9.42915 0.8 9.65005 0.8C9.87095 0.8 10.05 0.979102 10.05 1.2V1.6H9.25005V1.2ZM5.65005 2.4H6.85005V3.2H5.65005V2.4ZM9.25005 4H10.05V4.8H9.25005V4ZM8.45005 5.6H10.85V6.4H8.45005V5.6ZM6.41001 8.8L8.36997 9.19199L8.52681 8.40801L7.04048 8.11035L7.49731 7.2H11.8028L12.2581 8.11035L10.77 8.40801L10.9268 9.19199L12.8901 8.8H14.05C16.0374 8.80215 17.6479 10.4127 17.6501 12.4V13.6H15.2501V13.2C15.2487 12.0959 14.3542 11.2014 13.25 11.2H4.85005V8.8H6.41001ZM4.05005 7.6V12.4H3.25005V7.6H4.05005ZM0.850049 13.2V6.8H2.45005V13.2H0.850049Z" fill="#005AA7"/>
<path d="M21.3392 18.5476C20.2275 19.9132 20.4427 21.9584 20.4523 22.0443C20.4732 22.2119 20.5974 22.348 20.7622 22.3839C20.7911 22.3906 20.8204 22.3939 20.8499 22.3939C20.9888 22.3929 21.1179 22.3218 21.1931 22.2052C21.1964 22.2003 21.5132 21.7228 23.0636 20.7377C23.6429 20.4427 23.9851 19.8252 23.9279 19.1775C23.829 18.6166 23.4136 18.164 22.8632 18.0176C22.2947 17.8664 21.6911 18.0761 21.3392 18.5476ZM22.4863 18.7676C22.5425 18.7677 22.5982 18.7754 22.6523 18.7904C22.8978 18.8533 23.0859 19.0506 23.137 19.2988C23.1771 19.5599 22.998 19.8316 22.6347 20.0623C22.1558 20.3611 21.6947 20.6877 21.2535 21.04C21.2913 20.3234 21.5365 19.6332 21.9591 19.0531C22.0802 18.8802 22.2755 18.7746 22.4863 18.7676Z" fill="#005AA7"/>
<path d="M9.25991 18.61C8.74351 18.8686 8.41343 19.3926 8.40308 19.9699C8.42085 20.6582 8.83374 21.2746 9.46363 21.5527C10.2966 21.9461 11.0689 22.4572 11.7564 23.0703C11.8664 23.1894 12.0371 23.2305 12.189 23.1742C12.341 23.118 12.4441 22.9756 12.45 22.8137C12.4545 22.6976 12.53 19.9603 11.09 18.8801C10.5834 18.4441 9.87085 18.3389 9.25991 18.61ZM11.6099 21.9199C11.0443 21.5211 10.4519 21.1617 9.83667 20.8443C9.47671 20.7029 9.23023 20.3668 9.20347 19.9809C9.20757 19.7035 9.36538 19.4514 9.61323 19.3264C9.71148 19.2781 9.81968 19.2535 9.92925 19.2539C10.1783 19.2668 10.4168 19.3594 10.6091 19.5184C11.2552 20.0035 11.5179 21.0859 11.6099 21.9199Z" fill="#005AA7"/>
<path d="M12.45 18.4H13.25V19.2H12.45V18.4Z" fill="#005AA7"/>
<path d="M19.6499 17.2H20.4499V18H19.6499V17.2Z" fill="#005AA7"/>
<path d="M10.8501 16H11.6501V16.8H10.8501V16Z" fill="#005AA7"/>
<path d="M21.25 14H22.05V14.8H21.25V14Z" fill="#005AA7"/>
</svg>
