<svg width="24" height="24" viewBox="0 0 24 24" fill="none" xmlns="http://www.w3.org/2000/svg">
<g clip-path="url(#clip0)">
<path d="M8.33449 9.69948C8.51777 9.51619 8.51777 9.21937 8.33449 9.03664C8.15175 8.85335 7.85493 8.85335 7.67165 9.03664C7.48836 9.21937 7.48836 9.51619 7.67165 9.69948C7.85493 9.88222 8.15175 9.88222 8.33449 9.69948Z" fill="#005AA7"/>
<path d="M12.9751 10.3623C13.5233 9.81405 13.5233 8.92196 12.9751 8.37374C12.4256 7.82424 11.5357 7.82406 10.9862 8.37374C10.4366 8.92324 10.4366 9.81258 10.9862 10.3623C11.5345 10.9105 12.4267 10.9107 12.9751 10.3623ZM11.6491 9.03658C11.8324 8.85348 12.129 8.85348 12.3123 9.03658C12.4948 9.21932 12.4948 9.5165 12.3123 9.69924C12.1294 9.88198 11.8318 9.88216 11.6491 9.69924C11.4662 9.5165 11.4654 9.22024 11.6491 9.03658Z" fill="#005AA7"/>
<path d="M10.9862 13.6765C10.4366 14.2261 10.4366 15.1158 10.9862 15.6655C11.5357 16.215 12.4254 16.2152 12.9751 15.6655C13.5235 15.1171 13.5235 14.2249 12.9751 13.6765C12.4256 13.1271 11.5357 13.127 10.9862 13.6765ZM12.3123 15.0027C12.129 15.1858 11.8322 15.1858 11.6491 15.0027C11.4662 14.8198 11.4654 14.5231 11.6491 14.3395C11.8324 14.1562 12.129 14.1564 12.3123 14.3395C12.495 14.5222 12.495 14.8198 12.3123 15.0027Z" fill="#005AA7"/>
<path d="M8.20626 12.7743C8.25698 13.0285 8.50417 13.1927 8.75777 13.142L15.3867 11.816C15.6405 11.7652 15.8051 11.5182 15.7544 11.2644C15.7037 11.0105 15.4567 10.846 15.2029 10.8968L8.57393 12.2228C8.31997 12.2735 8.15535 12.5205 8.20626 12.7743Z" fill="#005AA7"/>
<path d="M14.2504 2.65186C14.1261 2.65186 14.0069 2.70111 13.919 2.789L8.99767 7.71032C8.81457 7.89342 8.81457 8.19024 8.99767 8.37334C9.18078 8.55645 9.47759 8.55645 9.66051 8.37334L14.2504 3.78345L20.2163 9.74956L9.69292 20.273L3.7268 14.3071L7.00897 11.0249C7.19207 10.842 7.19207 10.5452 7.00897 10.362C6.82586 10.1791 6.52905 10.1791 6.34594 10.362L2.73254 13.9756C2.54944 14.1586 2.54944 14.4554 2.73254 14.6385L9.3615 21.2674C9.54461 21.4505 9.84124 21.4505 10.0243 21.2674L21.2108 10.081C21.3939 9.89788 21.3939 9.60106 21.2108 9.41796L14.5818 2.789C14.4939 2.70111 14.3747 2.65186 14.2504 2.65186Z" fill="#005AA7"/>
<path d="M23.1991 0.137514L21.1872 2.14929C20.0133 1.26288 18.3923 1.24841 17.2283 2.11267L15.5803 0.416933C15.5787 0.415285 15.5772 0.41382 15.5756 0.412172C15.0288 -0.13458 14.1396 -0.140439 13.5863 0.412905L0.411704 13.6443C-0.137794 14.1938 -0.137977 15.0837 0.411704 15.6333L2.27095 17.4924C1.85567 18.6809 2.15523 20.0284 3.06325 20.9361C3.97109 21.8443 5.31856 22.1436 6.50709 21.7287L8.36634 23.5878C8.91584 24.1373 9.8061 24.1371 10.3545 23.5885L23.5873 10.4125C24.137 9.86278 24.137 8.97344 23.5873 8.42394C23.5857 8.42229 23.5842 8.42083 23.5826 8.41918L21.887 6.7716C22.7482 5.61547 22.7449 3.99371 21.8502 2.81231L23.862 0.800538C24.0451 0.617433 24.0451 0.320619 23.862 0.137514C23.6789 -0.0455909 23.3822 -0.0455909 23.1991 0.137514ZM20.9125 6.46874C20.8239 6.55755 20.7745 6.67803 20.7752 6.80364C20.7761 6.92907 20.8274 7.049 20.9173 7.13634L22.9263 9.08879C23.1081 9.27263 23.1061 9.5678 22.925 9.74871L9.69239 22.9248C9.50947 23.1077 9.21192 23.1077 9.02918 22.9248L6.95021 20.846C6.86049 20.7561 6.74037 20.7087 6.61879 20.7087C6.5514 20.7087 6.48347 20.7231 6.41975 20.753C5.51832 21.1759 4.43581 20.9831 3.72627 20.273C3.01619 19.5635 2.82338 18.4812 3.24636 17.5798C3.33022 17.4009 3.29323 17.1888 3.15352 17.0491L1.07473 14.9703C0.891806 14.7874 0.891806 14.49 1.07528 14.3064L14.2501 1.07501C14.4324 0.892823 14.7272 0.891725 14.9107 1.073L16.863 3.08203C17.038 3.2622 17.3378 3.27978 17.5308 3.08697C18.3331 2.28424 19.5896 2.19855 20.5152 2.82129L19.8276 3.50885C19.3049 3.25982 18.6592 3.35119 18.2271 3.78332C17.6789 4.33172 17.6789 5.22399 18.2271 5.77221C18.7766 6.32171 19.6665 6.32189 20.2162 5.77221C20.6582 5.33019 20.7356 4.68182 20.4912 4.17114L21.1786 3.48376C21.7966 4.39856 21.7253 5.65612 20.9125 6.46874ZM19.5532 4.44616C19.7361 4.62908 19.7368 4.92571 19.5532 5.10937C19.37 5.29247 19.0732 5.29247 18.8901 5.10937C18.7072 4.92645 18.7072 4.6289 18.8899 4.44616C19.0729 4.26361 19.3704 4.26324 19.5532 4.44616Z" fill="#005AA7"/>
</g>
<defs>
<clipPath id="clip0">
<rect width="24" height="24" fill="white"/>
</clipPath>
</defs>
</svg>
