<svg width="24" height="24" viewBox="0 0 24 24" fill="none" xmlns="http://www.w3.org/2000/svg">
<g clip-path="url(#clip0)">
<path d="M0.400086 24.0462H19.6C19.821 24.0462 20.0001 23.8671 20.0001 23.6463V20.0462H22.8C23.021 20.0462 23.2001 19.8672 23.2001 19.6463V15.6462C23.2001 15.4254 23.021 15.2463 22.8 15.2463H20.0001V11.6463C20.0001 11.4252 19.821 11.2462 19.6 11.2462H18.8659C18.9223 10.9847 18.8627 10.7115 18.7024 10.4973L16.895 8.08795L17.7296 7.46191C18.1004 7.18432 18.3075 6.73937 18.2813 6.27685L18.2412 5.55651C18.2302 5.36113 18.3177 5.17327 18.4743 5.0559L19.3087 4.43004L19.6599 4.89806C19.7234 4.98284 19.8181 5.03905 19.9232 5.05406C19.9419 5.05663 19.9607 5.05809 19.9798 5.05791C20.0664 5.05809 20.1506 5.02989 20.2198 4.97789L23.5201 2.50212C24.05 2.10459 24.1575 1.35257 23.76 0.822482L23.5377 0.525851C23.1396 -0.0035091 22.388 -0.110626 21.8577 0.286348L18.5578 2.76194C18.3811 2.89451 18.3452 3.14537 18.4778 3.32206L18.8288 3.79008L17.9944 4.41612C17.6236 4.69371 17.4163 5.13848 17.4427 5.601L17.4826 6.32134C17.4938 6.51672 17.4062 6.70477 17.2497 6.82195L16.4153 7.44799L14.6076 5.03868C14.4185 4.78252 14.1112 4.64134 13.7935 4.6646C13.4905 4.68657 13.2197 4.86235 13.076 5.13024L9.78921 11.2462H0.400086C0.179078 11.2462 0 11.4252 0 11.6463V15.6462C0 15.8672 0.179078 16.0463 0.400086 16.0463H3.19996V19.2463H0.400086C0.179078 19.2463 0 19.4253 0 19.6463V23.6463C0 23.8671 0.179078 24.0462 0.400086 24.0462ZM22.3378 0.926121C22.5143 0.793552 22.765 0.829257 22.8978 1.00595L23.12 1.30259C23.2524 1.47928 23.2165 1.72977 23.04 1.86234L20.0596 4.09825L19.3574 3.16185L22.3378 0.926121ZM7.20009 20.0462H12.8V23.2462H7.20009V20.0462ZM10.4 16.0463H16V19.2463H10.4V16.0463ZM19.2001 23.2462H13.6V20.0462H19.2001V23.2462ZM22.4001 19.2463H16.8V16.0463H22.4001V19.2463ZM19.2001 15.2463H13.6V12.917L17.6943 12.0462H19.2001V15.2463ZM13.7809 5.50927C13.7945 5.48125 13.8227 5.46331 13.8538 5.46239L13.8617 5.46203C13.9041 5.46276 13.9435 5.48381 13.9677 5.5186L15.7749 7.92791L14.1248 9.1659C13.9481 9.29846 13.9122 9.54914 14.0448 9.72602C14.1773 9.90271 14.428 9.93842 14.6049 9.80603L16.255 8.56805L18.0625 10.9774C18.0912 11.0125 18.0997 11.0599 18.0845 11.1026C18.0749 11.1323 18.0498 11.1541 18.0191 11.1596L10.0835 12.8471C10.0342 12.8548 9.98476 12.8337 9.95638 12.7927C9.92452 12.7542 9.91811 12.7008 9.9399 12.6557L13.7809 5.50927ZM9.31661 13.2728C9.52975 13.5659 9.89559 13.7056 10.2499 13.6295L12.8 13.0871V15.2463H7.20009V12.0462H9.35909L9.23513 12.2769C9.06374 12.596 9.09579 12.9859 9.31661 13.2728ZM0.79999 13.6463H1.59998C1.82099 13.6463 2.00007 13.4672 2.00007 13.2462C2.00007 13.0254 1.82099 12.8463 1.59998 12.8463H0.79999V12.0462H6.4001V15.2463H0.79999V13.6463ZM3.99995 16.0463H9.60006V19.2463H3.99995V16.0463ZM0.79999 20.0462H6.4001V23.2462H0.79999V20.0462Z" fill="#005AA7"/>
<path d="M5.20002 13.2463C5.20002 13.0255 5.02094 12.8464 4.79993 12.8464H3.19995C2.97913 12.8464 2.80005 13.0255 2.80005 13.2463C2.80005 13.4673 2.97913 13.6464 3.19995 13.6464H4.79993C5.02094 13.6464 5.20002 13.4673 5.20002 13.2463Z" fill="#005AA7"/>
</g>
<defs>
<clipPath id="clip0">
<rect width="24" height="24" fill="white"/>
</clipPath>
</defs>
</svg>
