<svg width="24" height="24" viewBox="0 0 24 24" fill="none" xmlns="http://www.w3.org/2000/svg">
<path d="M23.3999 22.8H21.5999V13.2H22.7999C23.2851 13.2 23.7226 12.9076 23.9086 12.4592C24.0942 12.0108 23.9918 11.4948 23.6486 11.1512L12.8487 0.351308C12.6143 0.117309 12.3071 0.00012207 11.9999 0.00012207C11.6927 0.00012207 11.3855 0.117309 11.1515 0.351729L7.79995 3.7029V2.40011C7.79995 1.7373 7.26277 1.20011 6.59996 1.20011H5.39997C4.73716 1.20011 4.19998 1.7373 4.19998 2.40011V7.30288L0.351607 11.1512C0.00839057 11.4945 -0.0944057 12.0105 0.0915932 12.4592C0.27717 12.9076 0.714793 13.2 1.19999 13.2H2.39999V22.8H0.599997C0.268405 22.8 0 23.0684 0 23.4C0 23.7316 0.268405 24 0.599997 24H23.3999C23.7315 24 23.9999 23.7316 23.9999 23.4C23.9999 23.0684 23.7315 22.8 23.3999 22.8ZM5.39997 2.40011H6.59996V4.90289L5.39997 6.10288V2.40011ZM13.7999 22.8H10.1999V14.4H13.7999V22.8ZM20.3999 22.8H14.9999V14.4C14.9999 13.7372 14.4627 13.2 13.7999 13.2H10.1999C9.53713 13.2 8.99995 13.7372 8.99995 14.4V22.8H3.59998V12.0001H1.19999L11.9999 1.20011L22.7999 12.0001H20.3999V22.8Z" fill="#005AA7"/>
</svg>
