<svg width="40" height="40" viewBox="0 0 40 40" fill="none" xmlns="http://www.w3.org/2000/svg">
<g clip-path="url(#clip0)">
<path d="M39.8284 36.2482L21.2131 2.41669C20.9698 1.9744 20.5048 1.69958 20 1.69958C19.4951 1.69958 19.0303 1.9744 18.7869 2.41669L0.171522 36.2482C-0.0645229 36.6771 -0.0564369 37.1988 0.192679 37.6203C0.441795 38.0418 0.894944 38.3004 1.38454 38.3004H38.6153C39.1051 38.3004 39.5582 38.0418 39.8073 37.6203C40.0564 37.1988 40.0644 36.6771 39.8284 36.2482ZM3.72682 35.5311L20 5.95627L36.2732 35.5311H3.72682Z" fill="#005AA7"/>
<path d="M18.2656 15.8491V25.857C18.2656 26.8151 19.0425 27.5922 20.0008 27.5922C20.9589 27.5922 21.736 26.8151 21.736 25.857V15.8491C21.736 14.8908 20.9589 14.1139 20.0008 14.1139C19.0425 14.1139 18.2656 14.8909 18.2656 15.8491Z" fill="#005AA7"/>
<path d="M19.9995 29.3937C18.9919 29.3937 18.1719 30.2132 18.1719 31.2213C18.1719 32.2291 18.9919 33.049 19.9995 33.049C21.0072 33.049 21.8272 32.2291 21.8272 31.2213C21.8272 30.2134 21.0071 29.3937 19.9995 29.3937Z" fill="#005AA7"/>
</g>
<defs>
<clipPath id="clip0">
<rect width="40" height="40" fill="white"/>
</clipPath>
</defs>
</svg>
