<svg width="24" height="24" viewBox="0 0 24 24" fill="none" xmlns="http://www.w3.org/2000/svg">
<g clip-path="url(#clip0)">
<path d="M6.81172 10.0964C6.46854 9.74827 5.90966 9.74827 5.56158 10.0914C5.2135 10.4346 5.2135 10.9935 5.55668 11.3416L9.74343 15.5578C9.91012 15.7244 10.1307 15.8176 10.366 15.8176C10.366 15.8176 10.366 15.8176 10.371 15.8176C10.6063 15.8176 10.8269 15.7244 10.9936 15.5627L23.7401 2.88474C24.0833 2.54157 24.0882 1.98268 23.745 1.6346C23.4019 1.28652 22.843 1.28652 22.4949 1.6297L17.9895 6.1057C16.0726 3.74759 13.1899 2.36508 10.1258 2.36508C8.69429 2.36508 7.31178 2.65923 6.01751 3.23282C4.76737 3.79171 3.6545 4.58102 2.71812 5.59094C1.78173 6.59595 1.07087 7.75785 0.60513 9.04231C0.11978 10.3807 -0.0763206 11.7877 0.0266323 13.2291C0.374711 18.2149 4.39968 22.2448 9.38554 22.6027C9.63067 22.6223 9.8807 22.6272 10.1258 22.6272C12.4447 22.6272 14.6852 21.8428 16.4893 20.3818C18.4601 18.7934 19.7544 16.5432 20.1417 14.0527C20.2201 13.5428 20.2593 13.0183 20.2593 12.4937C20.2593 12.0083 19.8622 11.6112 19.3769 11.6112C18.8915 11.6112 18.4944 12.0083 18.4944 12.4937C18.4944 12.9251 18.4601 13.3565 18.3964 13.783C17.7394 18.0482 13.837 21.1466 9.51301 20.8378C5.3998 20.5436 2.07589 17.2197 1.78664 13.1016C1.61995 10.7484 2.40926 8.50794 4.00748 6.79205C5.58609 5.10068 7.81674 4.12998 10.1258 4.12998C12.7144 4.12998 15.146 5.3311 16.7295 7.36075L10.3759 13.685L6.81172 10.0964Z" fill="#3DBA29"/>
</g>
<defs>
<clipPath id="clip0">
<rect width="24" height="24" fill="white"/>
</clipPath>
</defs>
</svg>
