<svg width="16" height="16" viewBox="0 0 16 16" fill="none" xmlns="http://www.w3.org/2000/svg">
<path d="M13.6567 2.34325C10.5324 -0.781094 5.46691 -0.781094 2.34322 2.34331C-0.781094 5.46762 -0.781094 10.5331 2.34334 13.6568C5.46691 16.7811 10.5324 16.7811 13.6567 13.6567C16.7811 10.5331 16.7811 5.46763 13.6567 2.34325ZM12.714 12.7139C10.1103 15.3176 5.88912 15.3176 3.28616 12.714C0.682469 10.1109 0.682469 5.88972 3.28609 3.28609C5.88912 0.682437 10.1103 0.682437 12.7139 3.28609C15.3176 5.88975 15.3176 10.1109 12.714 12.7139Z" fill="white"/>
<path d="M11.2989 4.70026C11.0385 4.43992 10.6164 4.43992 10.356 4.70026L7.99901 7.0573L5.64198 4.70026C5.38163 4.43992 4.95951 4.43992 4.69916 4.70026C4.43882 4.96061 4.43882 5.38273 4.69916 5.64308L7.0562 8.00011L4.70004 10.3563C4.4397 10.6166 4.4397 11.0387 4.70004 11.2991C4.96038 11.5594 5.38251 11.5594 5.64285 11.2991L7.99901 8.94292L10.3559 11.2998C10.6162 11.5601 11.0383 11.5601 11.2987 11.2998C11.559 11.0394 11.559 10.6173 11.2987 10.357L8.94182 8.00011L11.2989 5.64308C11.5592 5.38273 11.5592 4.96064 11.2989 4.70026Z" fill="white"/>
</svg>
