<svg width="24" height="24" viewBox="0 0 24 24" fill="none" xmlns="http://www.w3.org/2000/svg">
<g clip-path="url(#clip0)">
<path d="M13.2317 12.0058L15.287 9.95056C15.6442 9.60312 15.6442 9.04526 15.2968 8.70271C14.9542 8.36016 14.3964 8.36016 14.0489 8.70271L11.9936 10.758L9.93836 8.70271C9.59581 8.36016 9.03795 8.36016 8.6905 8.70271C8.34796 9.04526 8.34796 9.60312 8.6905 9.95056L10.7458 12.0058L8.6905 14.0611C8.34796 14.4037 8.34796 14.9615 8.6905 15.309C8.86178 15.4803 9.08688 15.5683 9.31198 15.5683C9.53709 15.5683 9.76219 15.4803 9.93346 15.309L11.9887 13.2537L14.044 15.309C14.2153 15.4803 14.4404 15.5683 14.6655 15.5683C14.8906 15.5683 15.1157 15.4803 15.287 15.309C15.6295 14.9664 15.6295 14.4086 15.287 14.0611L13.2317 12.0058Z" fill="#EF2020"/>
<path d="M20.4883 3.51564C20.1457 3.17309 19.5879 3.17309 19.2453 3.51564L16.5049 6.25113C16.1624 6.59368 16.1624 7.15154 16.5049 7.49899C16.8475 7.84153 17.4054 7.84153 17.7528 7.49899L19.8423 5.40944C23.2287 9.42704 23.028 15.4559 19.2453 19.2386C17.3124 21.1715 14.7384 22.2383 12.0029 22.2383C9.26739 22.2383 6.69828 21.1764 4.76043 19.2435C0.767299 15.2504 0.767299 8.75663 4.76043 4.76349C7.2121 2.31183 10.711 1.2695 14.112 1.98396C14.5867 2.08183 15.0565 1.77843 15.1543 1.30376C15.2522 0.829083 14.9488 0.359303 14.4741 0.261432C10.4908 -0.580258 6.39488 0.638235 3.51747 3.51564C1.25176 5.78135 0.00390625 8.79577 0.00390625 12.001C0.00390625 15.2063 1.25176 18.2207 3.51747 20.4865C5.78318 22.7522 8.79761 24 12.0029 24C15.2082 24 18.2226 22.7522 20.4883 20.4865C22.754 18.2207 24.0019 15.2063 24.0019 12.001C24.0019 8.79577 22.754 5.78135 20.4883 3.51564Z" fill="#EF2020"/>
</g>
<defs>
<clipPath id="clip0">
<rect width="24" height="24" fill="white"/>
</clipPath>
</defs>
</svg>
