<svg width="24" height="24" viewBox="0 0 24 24" fill="none" xmlns="http://www.w3.org/2000/svg">
<g clip-path="url(#clip0)">
<path d="M20.484 3.51582C20.1359 3.1677 19.569 3.1677 19.2159 3.51582L16.4857 6.24603C16.1376 6.59414 16.1376 7.16107 16.4857 7.51416C16.8338 7.86227 17.4007 7.86227 17.7538 7.51416L19.8276 5.44039C23.1894 9.44371 22.9905 15.4462 19.2209 19.2158C15.2424 23.1942 8.76751 23.1942 4.78906 19.2158C0.810609 15.2373 0.810609 8.7624 4.78906 4.78395C7.23581 2.3372 10.7219 1.30281 14.1086 2.01395C14.581 2.11342 15.0584 1.80509 15.1579 1.31773C15.2574 0.835338 14.949 0.357924 14.4666 0.258463C10.4832 -0.577011 6.38541 0.641389 3.51098 3.51582C1.24824 5.78353 0 8.79721 0 11.9999C0 15.2025 1.24824 18.2162 3.51595 20.4839C5.78367 22.7516 8.79237 23.9999 12 23.9999C15.2076 23.9999 18.2163 22.7516 20.484 20.4839C22.7518 18.2162 24 15.2075 24 11.9999C24 8.79224 22.7518 5.78353 20.484 3.51582Z" fill="#FC8507"/>
<path d="M11.9964 3.65015C11.5041 3.65015 11.1013 4.05296 11.1013 4.5453V11.6269L7.53062 15.1976C7.1825 15.5457 7.1825 16.1126 7.53062 16.4657C7.70467 16.6398 7.93344 16.7293 8.1622 16.7293C8.39096 16.7293 8.61972 16.6398 8.79378 16.4657L12.628 12.6315C12.6479 12.6116 12.6678 12.5867 12.6877 12.5668C12.6976 12.5569 12.7026 12.547 12.7076 12.537C12.7175 12.5221 12.7275 12.5121 12.7374 12.4972C12.7474 12.4873 12.7523 12.4724 12.7623 12.4574C12.7673 12.4475 12.7772 12.4326 12.7822 12.4177C12.7871 12.4027 12.7971 12.3928 12.8021 12.3779C12.807 12.363 12.817 12.353 12.822 12.3381C12.8269 12.3232 12.8319 12.3132 12.8369 12.2983C12.8418 12.2834 12.8468 12.2685 12.8518 12.2535C12.8568 12.2386 12.8568 12.2287 12.8617 12.2138C12.8667 12.1988 12.8717 12.1839 12.8717 12.169C12.8767 12.1541 12.8767 12.1392 12.8767 12.1193C12.8767 12.1044 12.8816 12.0944 12.8816 12.0795C12.8866 12.0496 12.8866 12.0198 12.8866 11.99V4.5453C12.8916 4.05296 12.4888 3.65015 11.9964 3.65015Z" fill="#FC8507"/>
</g>
<defs>
<clipPath id="clip0">
<rect width="24" height="24" fill="white"/>
</clipPath>
</defs>
</svg>
