<svg width="24" height="24" viewBox="0 0 24 24" fill="none" xmlns="http://www.w3.org/2000/svg">
<g clip-path="url(#clip0)">
<path d="M18.3339 6.56213H2.2635C1.01637 6.56213 0 7.5785 0 8.82564V18.6161C0 19.8633 1.01637 20.8796 2.2635 20.8796H18.3339C19.581 20.8796 20.5974 19.8633 20.5974 18.6161V8.82564C20.5974 7.5785 19.581 6.56213 18.3339 6.56213ZM18.8298 18.6211C18.8298 18.8911 18.6088 19.117 18.3339 19.117H2.2635C1.98854 19.117 1.76759 18.896 1.76759 18.6211V11.4672H18.8298V18.6211ZM18.8298 9.69961H1.76759V8.82564C1.76759 8.55068 1.98854 8.32973 2.2635 8.32973H18.3339C18.6088 8.32973 18.8298 8.55068 18.8298 8.82564V9.69961Z" fill="#0075D2"/>
<path d="M21.7393 3.12024H5.66895C5.18286 3.12024 4.78516 3.51795 4.78516 4.00404C4.78516 4.49012 5.18286 4.88783 5.66895 4.88783H21.7393C22.0143 4.88783 22.2352 5.10878 22.2352 5.38374V8.14315C22.2352 8.62924 22.6329 9.02695 23.119 9.02695C23.6051 9.02695 24.0028 8.62924 24.0028 8.14315V5.38374C24.0028 4.13661 22.9865 3.12024 21.7393 3.12024Z" fill="#0075D2"/>
<path d="M11.3573 13.0581H10.1494C9.66333 13.0581 9.26562 13.4558 9.26562 13.9419C9.26562 14.428 9.66333 14.8257 10.1494 14.8257H11.3573C11.8434 14.8257 12.2411 14.428 12.2411 13.9419C12.2411 13.4558 11.8483 13.0581 11.3573 13.0581Z" fill="#0075D2"/>
<path d="M7.31411 13.0581H4.02442C3.53833 13.0581 3.14062 13.4558 3.14062 13.9419C3.14062 14.428 3.53833 14.8257 4.02442 14.8257H7.31411C7.8002 14.8257 8.19791 14.428 8.19791 13.9419C8.19791 13.4558 7.8002 13.0581 7.31411 13.0581Z" fill="#0075D2"/>
<path d="M5.94702 15.9796H4.05177C3.56568 15.9796 3.16797 16.3773 3.16797 16.8634C3.16797 17.3495 3.56568 17.7472 4.05177 17.7472H5.94702C6.43311 17.7472 6.83082 17.3495 6.83082 16.8634C6.83082 16.3773 6.43311 15.9796 5.94702 15.9796Z" fill="#0075D2"/>
</g>
<defs>
<clipPath id="clip0">
<rect width="24" height="24" fill="white"/>
</clipPath>
</defs>
</svg>
