<svg width="16" height="16" viewBox="0 0 16 16" fill="none" xmlns="http://www.w3.org/2000/svg">
<path d="M7.23577 15.9551C4.02618 15.5956 1.45393 13.0299 1.08787 9.8203C0.607408 5.62365 3.86929 2.05127 7.95809 2.00552V0.122909C7.95809 0.0183201 8.08882 -0.037243 8.17707 0.0281253L12.0534 2.87491C12.1188 2.92394 12.1188 3.01873 12.0534 3.06775L8.17707 5.91454C8.08882 5.97991 7.95809 5.92108 7.95809 5.81976V3.94042C5.08515 3.98618 2.78418 6.43095 2.98028 9.35291C3.14697 11.8663 5.19627 13.9058 7.70969 14.066C10.3735 14.2359 12.6385 12.3337 13.0438 9.81703C13.1189 9.34964 13.5275 9.00973 13.9981 9.00973C14.5832 9.00973 15.0408 9.52941 14.9492 10.1079C14.3805 13.6934 11.0696 16.3833 7.23577 15.9551Z" fill="white"/>
</svg>
