<svg width="24" height="24" viewBox="0 0 24 24" fill="none" xmlns="http://www.w3.org/2000/svg">
<g clip-path="url(#clip0)">
<path d="M23.897 21.7489L12.7279 1.45004C12.5819 1.18466 12.3029 1.01978 12 1.01978C11.6971 1.01978 11.4182 1.18466 11.2721 1.45004L0.102913 21.7489C-0.0387138 22.0063 -0.0338622 22.3193 0.115607 22.5722C0.265077 22.8251 0.536967 22.9802 0.830722 22.9802H23.1692C23.463 22.9802 23.7349 22.8251 23.8844 22.5722C24.0339 22.3193 24.0386 22.0063 23.897 21.7489ZM2.23609 21.3187L12 3.57378L21.7639 21.3187H2.23609V21.3187Z" fill="#005AA7"/>
<path d="M10.959 9.50949V15.5143C10.959 16.0891 11.4251 16.5554 12.0001 16.5554C12.575 16.5554 13.0412 16.0891 13.0412 15.5143V9.50949C13.0412 8.93454 12.575 8.46838 12.0001 8.46838C11.4251 8.46838 10.959 8.9346 10.959 9.50949Z" fill="#005AA7"/>
<path d="M12.0009 17.6362C11.3963 17.6362 10.9043 18.128 10.9043 18.7328C10.9043 19.3375 11.3963 19.8294 12.0009 19.8294C12.6055 19.8294 13.0975 19.3375 13.0975 18.7328C13.0975 18.128 12.6054 17.6362 12.0009 17.6362Z" fill="#005AA7"/>
</g>
<defs>
<clipPath id="clip0">
<rect width="24" height="24" fill="white"/>
</clipPath>
</defs>
</svg>
