<svg width="14" height="16" viewBox="0 0 14 16" fill="none" xmlns="http://www.w3.org/2000/svg">
<path d="M10.59 2.81775L9.81489 3.65506C11.4692 4.73979 12.4305 6.7272 12.1038 8.80441C11.8885 10.1736 11.1527 11.377 10.0323 12.1929C9.05423 12.9051 7.88497 13.2478 6.69259 13.1796L6.89736 12.9647C6.89342 12.9645 6.8891 12.965 6.88515 12.9648L7.66084 12.151L6.94452 11.4674L5.40629 13.0823L5.40591 13.0817L4.74219 13.7787L5.45814 14.4617L5.45851 14.4616L7.07283 16L7.73712 15.303L6.69165 14.3069C8.12243 14.3746 9.52201 13.9588 10.696 13.1041C12.0601 12.111 12.9556 10.646 13.2179 8.97931C13.6043 6.51773 12.5064 4.15929 10.59 2.81775Z" fill="#858585"/>
<path d="M1.89434 7.19557C2.10963 5.82641 2.84549 4.62296 3.96591 3.80706C4.94393 3.09487 6.1132 2.75221 7.30557 2.8204L7.1008 3.03532C7.10475 3.03551 7.10907 3.03494 7.11301 3.03513L6.33732 3.84896L7.05365 4.53259L8.59188 2.91772L8.59225 2.91828L9.25598 2.2213L8.54003 1.53823L8.53965 1.53842L6.92534 0L6.26105 0.696975L7.30651 1.69303C5.87574 1.6254 4.47615 2.04114 3.30219 2.89592C1.93811 3.88897 1.04256 5.35394 0.780307 7.02066C0.393307 9.48243 1.49137 11.8409 3.40758 13.1824L4.18271 12.3451C2.52894 11.26 1.56764 9.27278 1.89434 7.19557Z" fill="#858585"/>
</svg>
